%TF.GenerationSoftware,KiCad,Pcbnew,(5.1.7-0-10_14)*%
%TF.CreationDate,2020-11-07T14:29:28-03:00*%
%TF.ProjectId,MIDI2_out,4d494449-325f-46f7-9574-2e6b69636164,rev?*%
%TF.SameCoordinates,Original*%
%TF.FileFunction,Legend,Top*%
%TF.FilePolarity,Positive*%
%FSLAX46Y46*%
G04 Gerber Fmt 4.6, Leading zero omitted, Abs format (unit mm)*
G04 Created by KiCad (PCBNEW (5.1.7-0-10_14)) date 2020-11-07 14:29:28*
%MOMM*%
%LPD*%
G01*
G04 APERTURE LIST*
%TA.AperFunction,Profile*%
%ADD10C,0.050000*%
%TD*%
%ADD11C,0.300000*%
%ADD12C,0.120000*%
%ADD13C,0.200000*%
%ADD14C,0.127000*%
%ADD15C,0.150000*%
G04 APERTURE END LIST*
D10*
X0Y0D02*
X0Y-294000000D01*
X196000000Y0D02*
X0Y0D01*
X196000000Y-294000000D02*
X196000000Y0D01*
X0Y-294000000D02*
X196000000Y-294000000D01*
D11*
X15590883Y-143182037D02*
X15590883Y-141682037D01*
X16233741Y-143182037D02*
X16233741Y-142396323D01*
X16162312Y-142253466D01*
X16019455Y-142182037D01*
X15805169Y-142182037D01*
X15662312Y-142253466D01*
X15590883Y-142324894D01*
X17162312Y-143182037D02*
X17019455Y-143110608D01*
X16948026Y-143039180D01*
X16876598Y-142896323D01*
X16876598Y-142467751D01*
X16948026Y-142324894D01*
X17019455Y-142253466D01*
X17162312Y-142182037D01*
X17376598Y-142182037D01*
X17519455Y-142253466D01*
X17590883Y-142324894D01*
X17662312Y-142467751D01*
X17662312Y-142896323D01*
X17590883Y-143039180D01*
X17519455Y-143110608D01*
X17376598Y-143182037D01*
X17162312Y-143182037D01*
X18090883Y-142182037D02*
X18662312Y-142182037D01*
X18305169Y-141682037D02*
X18305169Y-142967751D01*
X18376598Y-143110608D01*
X18519455Y-143182037D01*
X18662312Y-143182037D01*
X19805169Y-143110608D02*
X19662312Y-143182037D01*
X19376598Y-143182037D01*
X19233741Y-143110608D01*
X19162312Y-143039180D01*
X19090883Y-142896323D01*
X19090883Y-142467751D01*
X19162312Y-142324894D01*
X19233741Y-142253466D01*
X19376598Y-142182037D01*
X19662312Y-142182037D01*
X19805169Y-142253466D01*
X21090883Y-142182037D02*
X21090883Y-143182037D01*
X20448026Y-142182037D02*
X20448026Y-142967751D01*
X20519455Y-143110608D01*
X20662312Y-143182037D01*
X20876598Y-143182037D01*
X21019455Y-143110608D01*
X21090883Y-143039180D01*
X22376598Y-143110608D02*
X22233741Y-143182037D01*
X21948026Y-143182037D01*
X21805169Y-143110608D01*
X21733741Y-142967751D01*
X21733741Y-142396323D01*
X21805169Y-142253466D01*
X21948026Y-142182037D01*
X22233741Y-142182037D01*
X22376598Y-142253466D01*
X22448026Y-142396323D01*
X22448026Y-142539180D01*
X21733741Y-142682037D01*
X32863578Y-143022541D02*
X32863578Y-141522541D01*
X32863578Y-142093970D02*
X33006435Y-142022541D01*
X33292149Y-142022541D01*
X33435007Y-142093970D01*
X33506435Y-142165398D01*
X33577864Y-142308255D01*
X33577864Y-142736827D01*
X33506435Y-142879684D01*
X33435007Y-142951112D01*
X33292149Y-143022541D01*
X33006435Y-143022541D01*
X32863578Y-142951112D01*
X34792149Y-142951112D02*
X34649292Y-143022541D01*
X34363578Y-143022541D01*
X34220721Y-142951112D01*
X34149292Y-142808255D01*
X34149292Y-142236827D01*
X34220721Y-142093970D01*
X34363578Y-142022541D01*
X34649292Y-142022541D01*
X34792149Y-142093970D01*
X34863578Y-142236827D01*
X34863578Y-142379684D01*
X34149292Y-142522541D01*
X36149292Y-143022541D02*
X36149292Y-142236827D01*
X36077864Y-142093970D01*
X35935007Y-142022541D01*
X35649292Y-142022541D01*
X35506435Y-142093970D01*
X36149292Y-142951112D02*
X36006435Y-143022541D01*
X35649292Y-143022541D01*
X35506435Y-142951112D01*
X35435007Y-142808255D01*
X35435007Y-142665398D01*
X35506435Y-142522541D01*
X35649292Y-142451112D01*
X36006435Y-142451112D01*
X36149292Y-142379684D01*
X36649292Y-142022541D02*
X37220721Y-142022541D01*
X36863578Y-141522541D02*
X36863578Y-142808255D01*
X36935007Y-142951112D01*
X37077864Y-143022541D01*
X37220721Y-143022541D01*
X38863578Y-142022541D02*
X38863578Y-143308255D01*
X38792149Y-143451112D01*
X38649292Y-143522541D01*
X38577864Y-143522541D01*
X38863578Y-141522541D02*
X38792149Y-141593970D01*
X38863578Y-141665398D01*
X38935007Y-141593970D01*
X38863578Y-141522541D01*
X38863578Y-141665398D01*
X40220721Y-142022541D02*
X40220721Y-143022541D01*
X39577864Y-142022541D02*
X39577864Y-142808255D01*
X39649292Y-142951112D01*
X39792149Y-143022541D01*
X40006435Y-143022541D01*
X40149292Y-142951112D01*
X40220721Y-142879684D01*
X40935007Y-143022541D02*
X40935007Y-142022541D01*
X40935007Y-142165398D02*
X41006435Y-142093970D01*
X41149292Y-142022541D01*
X41363578Y-142022541D01*
X41506435Y-142093970D01*
X41577864Y-142236827D01*
X41577864Y-143022541D01*
X41577864Y-142236827D02*
X41649292Y-142093970D01*
X41792149Y-142022541D01*
X42006435Y-142022541D01*
X42149292Y-142093970D01*
X42220721Y-142236827D01*
X42220721Y-143022541D01*
X42935007Y-142022541D02*
X42935007Y-143522541D01*
X42935007Y-142093970D02*
X43077864Y-142022541D01*
X43363578Y-142022541D01*
X43506435Y-142093970D01*
X43577864Y-142165398D01*
X43649292Y-142308255D01*
X43649292Y-142736827D01*
X43577864Y-142879684D01*
X43506435Y-142951112D01*
X43363578Y-143022541D01*
X43077864Y-143022541D01*
X42935007Y-142951112D01*
X54190997Y-143101361D02*
X54190997Y-141601361D01*
X54190997Y-142172790D02*
X54333854Y-142101361D01*
X54619568Y-142101361D01*
X54762425Y-142172790D01*
X54833854Y-142244218D01*
X54905282Y-142387075D01*
X54905282Y-142815647D01*
X54833854Y-142958504D01*
X54762425Y-143029932D01*
X54619568Y-143101361D01*
X54333854Y-143101361D01*
X54190997Y-143029932D01*
X56119568Y-143029932D02*
X55976711Y-143101361D01*
X55690997Y-143101361D01*
X55548139Y-143029932D01*
X55476711Y-142887075D01*
X55476711Y-142315647D01*
X55548139Y-142172790D01*
X55690997Y-142101361D01*
X55976711Y-142101361D01*
X56119568Y-142172790D01*
X56190997Y-142315647D01*
X56190997Y-142458504D01*
X55476711Y-142601361D01*
X57476711Y-143101361D02*
X57476711Y-142315647D01*
X57405282Y-142172790D01*
X57262425Y-142101361D01*
X56976711Y-142101361D01*
X56833854Y-142172790D01*
X57476711Y-143029932D02*
X57333854Y-143101361D01*
X56976711Y-143101361D01*
X56833854Y-143029932D01*
X56762425Y-142887075D01*
X56762425Y-142744218D01*
X56833854Y-142601361D01*
X56976711Y-142529932D01*
X57333854Y-142529932D01*
X57476711Y-142458504D01*
X57976711Y-142101361D02*
X58548139Y-142101361D01*
X58190997Y-141601361D02*
X58190997Y-142887075D01*
X58262425Y-143029932D01*
X58405282Y-143101361D01*
X58548139Y-143101361D01*
X60405282Y-143101361D02*
X60262425Y-143029932D01*
X60190997Y-142887075D01*
X60190997Y-141601361D01*
X61190997Y-143101361D02*
X61048139Y-143029932D01*
X60976711Y-142958504D01*
X60905282Y-142815647D01*
X60905282Y-142387075D01*
X60976711Y-142244218D01*
X61048139Y-142172790D01*
X61190997Y-142101361D01*
X61405282Y-142101361D01*
X61548139Y-142172790D01*
X61619568Y-142244218D01*
X61690997Y-142387075D01*
X61690997Y-142815647D01*
X61619568Y-142958504D01*
X61548139Y-143029932D01*
X61405282Y-143101361D01*
X61190997Y-143101361D01*
X62548139Y-143101361D02*
X62405282Y-143029932D01*
X62333854Y-142958504D01*
X62262425Y-142815647D01*
X62262425Y-142387075D01*
X62333854Y-142244218D01*
X62405282Y-142172790D01*
X62548139Y-142101361D01*
X62762425Y-142101361D01*
X62905282Y-142172790D01*
X62976711Y-142244218D01*
X63048139Y-142387075D01*
X63048139Y-142815647D01*
X62976711Y-142958504D01*
X62905282Y-143029932D01*
X62762425Y-143101361D01*
X62548139Y-143101361D01*
X63690997Y-142101361D02*
X63690997Y-143601361D01*
X63690997Y-142172790D02*
X63833854Y-142101361D01*
X64119568Y-142101361D01*
X64262425Y-142172790D01*
X64333854Y-142244218D01*
X64405282Y-142387075D01*
X64405282Y-142815647D01*
X64333854Y-142958504D01*
X64262425Y-143029932D01*
X64119568Y-143101361D01*
X63833854Y-143101361D01*
X63690997Y-143029932D01*
X77014315Y-142924838D02*
X77157173Y-142996267D01*
X77442887Y-142996267D01*
X77585744Y-142924838D01*
X77657173Y-142781981D01*
X77657173Y-142710553D01*
X77585744Y-142567696D01*
X77442887Y-142496267D01*
X77228601Y-142496267D01*
X77085744Y-142424838D01*
X77014315Y-142281981D01*
X77014315Y-142210553D01*
X77085744Y-142067696D01*
X77228601Y-141996267D01*
X77442887Y-141996267D01*
X77585744Y-142067696D01*
X78942887Y-142996267D02*
X78942887Y-142210553D01*
X78871458Y-142067696D01*
X78728601Y-141996267D01*
X78442887Y-141996267D01*
X78300030Y-142067696D01*
X78942887Y-142924838D02*
X78800030Y-142996267D01*
X78442887Y-142996267D01*
X78300030Y-142924838D01*
X78228601Y-142781981D01*
X78228601Y-142639124D01*
X78300030Y-142496267D01*
X78442887Y-142424838D01*
X78800030Y-142424838D01*
X78942887Y-142353410D01*
X79657173Y-142996267D02*
X79657173Y-141996267D01*
X79657173Y-142139124D02*
X79728601Y-142067696D01*
X79871458Y-141996267D01*
X80085744Y-141996267D01*
X80228601Y-142067696D01*
X80300030Y-142210553D01*
X80300030Y-142996267D01*
X80300030Y-142210553D02*
X80371458Y-142067696D01*
X80514315Y-141996267D01*
X80728601Y-141996267D01*
X80871458Y-142067696D01*
X80942887Y-142210553D01*
X80942887Y-142996267D01*
X81657173Y-141996267D02*
X81657173Y-143496267D01*
X81657173Y-142067696D02*
X81800030Y-141996267D01*
X82085744Y-141996267D01*
X82228601Y-142067696D01*
X82300030Y-142139124D01*
X82371458Y-142281981D01*
X82371458Y-142710553D01*
X82300030Y-142853410D01*
X82228601Y-142924838D01*
X82085744Y-142996267D01*
X81800030Y-142996267D01*
X81657173Y-142924838D01*
X83228601Y-142996267D02*
X83085744Y-142924838D01*
X83014315Y-142781981D01*
X83014315Y-141496267D01*
X84371458Y-142924838D02*
X84228601Y-142996267D01*
X83942887Y-142996267D01*
X83800030Y-142924838D01*
X83728601Y-142781981D01*
X83728601Y-142210553D01*
X83800030Y-142067696D01*
X83942887Y-141996267D01*
X84228601Y-141996267D01*
X84371458Y-142067696D01*
X84442887Y-142210553D01*
X84442887Y-142353410D01*
X83728601Y-142496267D01*
X85085744Y-142996267D02*
X85085744Y-141996267D01*
X85085744Y-142281981D02*
X85157173Y-142139124D01*
X85228601Y-142067696D01*
X85371458Y-141996267D01*
X85514315Y-141996267D01*
X176924567Y-142970743D02*
X177067425Y-143042172D01*
X177353139Y-143042172D01*
X177495996Y-142970743D01*
X177567425Y-142827886D01*
X177567425Y-142756458D01*
X177495996Y-142613601D01*
X177353139Y-142542172D01*
X177138853Y-142542172D01*
X176995996Y-142470743D01*
X176924567Y-142327886D01*
X176924567Y-142256458D01*
X176995996Y-142113601D01*
X177138853Y-142042172D01*
X177353139Y-142042172D01*
X177495996Y-142113601D01*
X178853139Y-143042172D02*
X178853139Y-142256458D01*
X178781710Y-142113601D01*
X178638853Y-142042172D01*
X178353139Y-142042172D01*
X178210282Y-142113601D01*
X178853139Y-142970743D02*
X178710282Y-143042172D01*
X178353139Y-143042172D01*
X178210282Y-142970743D01*
X178138853Y-142827886D01*
X178138853Y-142685029D01*
X178210282Y-142542172D01*
X178353139Y-142470743D01*
X178710282Y-142470743D01*
X178853139Y-142399315D01*
X179567425Y-143042172D02*
X179567425Y-142042172D01*
X179567425Y-142185029D02*
X179638853Y-142113601D01*
X179781710Y-142042172D01*
X179995996Y-142042172D01*
X180138853Y-142113601D01*
X180210282Y-142256458D01*
X180210282Y-143042172D01*
X180210282Y-142256458D02*
X180281710Y-142113601D01*
X180424567Y-142042172D01*
X180638853Y-142042172D01*
X180781710Y-142113601D01*
X180853139Y-142256458D01*
X180853139Y-143042172D01*
X181567425Y-142042172D02*
X181567425Y-143542172D01*
X181567425Y-142113601D02*
X181710282Y-142042172D01*
X181995996Y-142042172D01*
X182138853Y-142113601D01*
X182210282Y-142185029D01*
X182281710Y-142327886D01*
X182281710Y-142756458D01*
X182210282Y-142899315D01*
X182138853Y-142970743D01*
X181995996Y-143042172D01*
X181710282Y-143042172D01*
X181567425Y-142970743D01*
X183138853Y-143042172D02*
X182995996Y-142970743D01*
X182924567Y-142827886D01*
X182924567Y-141542172D01*
X184281710Y-142970743D02*
X184138853Y-143042172D01*
X183853139Y-143042172D01*
X183710282Y-142970743D01*
X183638853Y-142827886D01*
X183638853Y-142256458D01*
X183710282Y-142113601D01*
X183853139Y-142042172D01*
X184138853Y-142042172D01*
X184281710Y-142113601D01*
X184353139Y-142256458D01*
X184353139Y-142399315D01*
X183638853Y-142542172D01*
X184995996Y-143042172D02*
X184995996Y-142042172D01*
X184995996Y-142327886D02*
X185067425Y-142185029D01*
X185138853Y-142113601D01*
X185281710Y-142042172D01*
X185424567Y-142042172D01*
X156800489Y-143182037D02*
X156800489Y-141682037D01*
X156800489Y-142253466D02*
X156943346Y-142182037D01*
X157229060Y-142182037D01*
X157371917Y-142253466D01*
X157443346Y-142324894D01*
X157514774Y-142467751D01*
X157514774Y-142896323D01*
X157443346Y-143039180D01*
X157371917Y-143110608D01*
X157229060Y-143182037D01*
X156943346Y-143182037D01*
X156800489Y-143110608D01*
X158729060Y-143110608D02*
X158586203Y-143182037D01*
X158300489Y-143182037D01*
X158157631Y-143110608D01*
X158086203Y-142967751D01*
X158086203Y-142396323D01*
X158157631Y-142253466D01*
X158300489Y-142182037D01*
X158586203Y-142182037D01*
X158729060Y-142253466D01*
X158800489Y-142396323D01*
X158800489Y-142539180D01*
X158086203Y-142682037D01*
X160086203Y-143182037D02*
X160086203Y-142396323D01*
X160014774Y-142253466D01*
X159871917Y-142182037D01*
X159586203Y-142182037D01*
X159443346Y-142253466D01*
X160086203Y-143110608D02*
X159943346Y-143182037D01*
X159586203Y-143182037D01*
X159443346Y-143110608D01*
X159371917Y-142967751D01*
X159371917Y-142824894D01*
X159443346Y-142682037D01*
X159586203Y-142610608D01*
X159943346Y-142610608D01*
X160086203Y-142539180D01*
X160586203Y-142182037D02*
X161157631Y-142182037D01*
X160800489Y-141682037D02*
X160800489Y-142967751D01*
X160871917Y-143110608D01*
X161014774Y-143182037D01*
X161157631Y-143182037D01*
X163014774Y-143182037D02*
X162871917Y-143110608D01*
X162800489Y-142967751D01*
X162800489Y-141682037D01*
X163800489Y-143182037D02*
X163657631Y-143110608D01*
X163586203Y-143039180D01*
X163514774Y-142896323D01*
X163514774Y-142467751D01*
X163586203Y-142324894D01*
X163657631Y-142253466D01*
X163800489Y-142182037D01*
X164014774Y-142182037D01*
X164157631Y-142253466D01*
X164229060Y-142324894D01*
X164300489Y-142467751D01*
X164300489Y-142896323D01*
X164229060Y-143039180D01*
X164157631Y-143110608D01*
X164014774Y-143182037D01*
X163800489Y-143182037D01*
X165157631Y-143182037D02*
X165014774Y-143110608D01*
X164943346Y-143039180D01*
X164871917Y-142896323D01*
X164871917Y-142467751D01*
X164943346Y-142324894D01*
X165014774Y-142253466D01*
X165157631Y-142182037D01*
X165371917Y-142182037D01*
X165514774Y-142253466D01*
X165586203Y-142324894D01*
X165657631Y-142467751D01*
X165657631Y-142896323D01*
X165586203Y-143039180D01*
X165514774Y-143110608D01*
X165371917Y-143182037D01*
X165157631Y-143182037D01*
X166300489Y-142182037D02*
X166300489Y-143682037D01*
X166300489Y-142253466D02*
X166443346Y-142182037D01*
X166729060Y-142182037D01*
X166871917Y-142253466D01*
X166943346Y-142324894D01*
X167014774Y-142467751D01*
X167014774Y-142896323D01*
X166943346Y-143039180D01*
X166871917Y-143110608D01*
X166729060Y-143182037D01*
X166443346Y-143182037D01*
X166300489Y-143110608D01*
X135229060Y-143059655D02*
X135229060Y-141559655D01*
X135229060Y-142131084D02*
X135371917Y-142059655D01*
X135657631Y-142059655D01*
X135800489Y-142131084D01*
X135871917Y-142202512D01*
X135943346Y-142345369D01*
X135943346Y-142773941D01*
X135871917Y-142916798D01*
X135800489Y-142988226D01*
X135657631Y-143059655D01*
X135371917Y-143059655D01*
X135229060Y-142988226D01*
X137157631Y-142988226D02*
X137014774Y-143059655D01*
X136729060Y-143059655D01*
X136586203Y-142988226D01*
X136514774Y-142845369D01*
X136514774Y-142273941D01*
X136586203Y-142131084D01*
X136729060Y-142059655D01*
X137014774Y-142059655D01*
X137157631Y-142131084D01*
X137229060Y-142273941D01*
X137229060Y-142416798D01*
X136514774Y-142559655D01*
X138514774Y-143059655D02*
X138514774Y-142273941D01*
X138443346Y-142131084D01*
X138300489Y-142059655D01*
X138014774Y-142059655D01*
X137871917Y-142131084D01*
X138514774Y-142988226D02*
X138371917Y-143059655D01*
X138014774Y-143059655D01*
X137871917Y-142988226D01*
X137800489Y-142845369D01*
X137800489Y-142702512D01*
X137871917Y-142559655D01*
X138014774Y-142488226D01*
X138371917Y-142488226D01*
X138514774Y-142416798D01*
X139014774Y-142059655D02*
X139586203Y-142059655D01*
X139229060Y-141559655D02*
X139229060Y-142845369D01*
X139300489Y-142988226D01*
X139443346Y-143059655D01*
X139586203Y-143059655D01*
X141229060Y-142059655D02*
X141229060Y-143345369D01*
X141157631Y-143488226D01*
X141014774Y-143559655D01*
X140943346Y-143559655D01*
X141229060Y-141559655D02*
X141157631Y-141631084D01*
X141229060Y-141702512D01*
X141300489Y-141631084D01*
X141229060Y-141559655D01*
X141229060Y-141702512D01*
X142586203Y-142059655D02*
X142586203Y-143059655D01*
X141943346Y-142059655D02*
X141943346Y-142845369D01*
X142014774Y-142988226D01*
X142157631Y-143059655D01*
X142371917Y-143059655D01*
X142514774Y-142988226D01*
X142586203Y-142916798D01*
X143300489Y-143059655D02*
X143300489Y-142059655D01*
X143300489Y-142202512D02*
X143371917Y-142131084D01*
X143514774Y-142059655D01*
X143729060Y-142059655D01*
X143871917Y-142131084D01*
X143943346Y-142273941D01*
X143943346Y-143059655D01*
X143943346Y-142273941D02*
X144014774Y-142131084D01*
X144157631Y-142059655D01*
X144371917Y-142059655D01*
X144514774Y-142131084D01*
X144586203Y-142273941D01*
X144586203Y-143059655D01*
X145300489Y-142059655D02*
X145300489Y-143559655D01*
X145300489Y-142131084D02*
X145443346Y-142059655D01*
X145729060Y-142059655D01*
X145871917Y-142131084D01*
X145943346Y-142202512D01*
X146014774Y-142345369D01*
X146014774Y-142773941D01*
X145943346Y-142916798D01*
X145871917Y-142988226D01*
X145729060Y-143059655D01*
X145443346Y-143059655D01*
X145300489Y-142988226D01*
X115170883Y-143182037D02*
X115170883Y-141682037D01*
X115813741Y-143182037D02*
X115813741Y-142396323D01*
X115742312Y-142253466D01*
X115599455Y-142182037D01*
X115385169Y-142182037D01*
X115242312Y-142253466D01*
X115170883Y-142324894D01*
X116742312Y-143182037D02*
X116599455Y-143110608D01*
X116528026Y-143039180D01*
X116456598Y-142896323D01*
X116456598Y-142467751D01*
X116528026Y-142324894D01*
X116599455Y-142253466D01*
X116742312Y-142182037D01*
X116956598Y-142182037D01*
X117099455Y-142253466D01*
X117170883Y-142324894D01*
X117242312Y-142467751D01*
X117242312Y-142896323D01*
X117170883Y-143039180D01*
X117099455Y-143110608D01*
X116956598Y-143182037D01*
X116742312Y-143182037D01*
X117670883Y-142182037D02*
X118242312Y-142182037D01*
X117885169Y-141682037D02*
X117885169Y-142967751D01*
X117956598Y-143110608D01*
X118099455Y-143182037D01*
X118242312Y-143182037D01*
X119385169Y-143110608D02*
X119242312Y-143182037D01*
X118956598Y-143182037D01*
X118813741Y-143110608D01*
X118742312Y-143039180D01*
X118670883Y-142896323D01*
X118670883Y-142467751D01*
X118742312Y-142324894D01*
X118813741Y-142253466D01*
X118956598Y-142182037D01*
X119242312Y-142182037D01*
X119385169Y-142253466D01*
X120670883Y-142182037D02*
X120670883Y-143182037D01*
X120028026Y-142182037D02*
X120028026Y-142967751D01*
X120099455Y-143110608D01*
X120242312Y-143182037D01*
X120456598Y-143182037D01*
X120599455Y-143110608D01*
X120670883Y-143039180D01*
X121956598Y-143110608D02*
X121813741Y-143182037D01*
X121528026Y-143182037D01*
X121385169Y-143110608D01*
X121313741Y-142967751D01*
X121313741Y-142396323D01*
X121385169Y-142253466D01*
X121528026Y-142182037D01*
X121813741Y-142182037D01*
X121956598Y-142253466D01*
X122028026Y-142396323D01*
X122028026Y-142539180D01*
X121313741Y-142682037D01*
X179052142Y-125678571D02*
X179052142Y-127178571D01*
X179052142Y-125750000D02*
X179195000Y-125678571D01*
X179480714Y-125678571D01*
X179623571Y-125750000D01*
X179695000Y-125821428D01*
X179766428Y-125964285D01*
X179766428Y-126392857D01*
X179695000Y-126535714D01*
X179623571Y-126607142D01*
X179480714Y-126678571D01*
X179195000Y-126678571D01*
X179052142Y-126607142D01*
X181052142Y-126678571D02*
X181052142Y-125892857D01*
X180980714Y-125750000D01*
X180837857Y-125678571D01*
X180552142Y-125678571D01*
X180409285Y-125750000D01*
X181052142Y-126607142D02*
X180909285Y-126678571D01*
X180552142Y-126678571D01*
X180409285Y-126607142D01*
X180337857Y-126464285D01*
X180337857Y-126321428D01*
X180409285Y-126178571D01*
X180552142Y-126107142D01*
X180909285Y-126107142D01*
X181052142Y-126035714D01*
X182409285Y-125678571D02*
X182409285Y-126892857D01*
X182337857Y-127035714D01*
X182266428Y-127107142D01*
X182123571Y-127178571D01*
X181909285Y-127178571D01*
X181766428Y-127107142D01*
X182409285Y-126607142D02*
X182266428Y-126678571D01*
X181980714Y-126678571D01*
X181837857Y-126607142D01*
X181766428Y-126535714D01*
X181695000Y-126392857D01*
X181695000Y-125964285D01*
X181766428Y-125821428D01*
X181837857Y-125750000D01*
X181980714Y-125678571D01*
X182266428Y-125678571D01*
X182409285Y-125750000D01*
X183695000Y-126607142D02*
X183552142Y-126678571D01*
X183266428Y-126678571D01*
X183123571Y-126607142D01*
X183052142Y-126464285D01*
X183052142Y-125892857D01*
X183123571Y-125750000D01*
X183266428Y-125678571D01*
X183552142Y-125678571D01*
X183695000Y-125750000D01*
X183766428Y-125892857D01*
X183766428Y-126035714D01*
X183052142Y-126178571D01*
X15805000Y-125678571D02*
X15805000Y-127178571D01*
X15805000Y-125750000D02*
X15947857Y-125678571D01*
X16233571Y-125678571D01*
X16376428Y-125750000D01*
X16447857Y-125821428D01*
X16519285Y-125964285D01*
X16519285Y-126392857D01*
X16447857Y-126535714D01*
X16376428Y-126607142D01*
X16233571Y-126678571D01*
X15947857Y-126678571D01*
X15805000Y-126607142D01*
X17805000Y-126678571D02*
X17805000Y-125892857D01*
X17733571Y-125750000D01*
X17590714Y-125678571D01*
X17305000Y-125678571D01*
X17162142Y-125750000D01*
X17805000Y-126607142D02*
X17662142Y-126678571D01*
X17305000Y-126678571D01*
X17162142Y-126607142D01*
X17090714Y-126464285D01*
X17090714Y-126321428D01*
X17162142Y-126178571D01*
X17305000Y-126107142D01*
X17662142Y-126107142D01*
X17805000Y-126035714D01*
X19162142Y-125678571D02*
X19162142Y-126892857D01*
X19090714Y-127035714D01*
X19019285Y-127107142D01*
X18876428Y-127178571D01*
X18662142Y-127178571D01*
X18519285Y-127107142D01*
X19162142Y-126607142D02*
X19019285Y-126678571D01*
X18733571Y-126678571D01*
X18590714Y-126607142D01*
X18519285Y-126535714D01*
X18447857Y-126392857D01*
X18447857Y-125964285D01*
X18519285Y-125821428D01*
X18590714Y-125750000D01*
X18733571Y-125678571D01*
X19019285Y-125678571D01*
X19162142Y-125750000D01*
X20447857Y-126607142D02*
X20305000Y-126678571D01*
X20019285Y-126678571D01*
X19876428Y-126607142D01*
X19805000Y-126464285D01*
X19805000Y-125892857D01*
X19876428Y-125750000D01*
X20019285Y-125678571D01*
X20305000Y-125678571D01*
X20447857Y-125750000D01*
X20519285Y-125892857D01*
X20519285Y-126035714D01*
X19805000Y-126178571D01*
X79519285Y-207178571D02*
X79376428Y-207107142D01*
X79305000Y-206964285D01*
X79305000Y-205678571D01*
X80305000Y-207178571D02*
X80162142Y-207107142D01*
X80090714Y-207035714D01*
X80019285Y-206892857D01*
X80019285Y-206464285D01*
X80090714Y-206321428D01*
X80162142Y-206250000D01*
X80305000Y-206178571D01*
X80519285Y-206178571D01*
X80662142Y-206250000D01*
X80733571Y-206321428D01*
X80805000Y-206464285D01*
X80805000Y-206892857D01*
X80733571Y-207035714D01*
X80662142Y-207107142D01*
X80519285Y-207178571D01*
X80305000Y-207178571D01*
X82090714Y-207178571D02*
X82090714Y-206392857D01*
X82019285Y-206250000D01*
X81876428Y-206178571D01*
X81590714Y-206178571D01*
X81447857Y-206250000D01*
X82090714Y-207107142D02*
X81947857Y-207178571D01*
X81590714Y-207178571D01*
X81447857Y-207107142D01*
X81376428Y-206964285D01*
X81376428Y-206821428D01*
X81447857Y-206678571D01*
X81590714Y-206607142D01*
X81947857Y-206607142D01*
X82090714Y-206535714D01*
X83447857Y-207178571D02*
X83447857Y-205678571D01*
X83447857Y-207107142D02*
X83305000Y-207178571D01*
X83019285Y-207178571D01*
X82876428Y-207107142D01*
X82805000Y-207035714D01*
X82733571Y-206892857D01*
X82733571Y-206464285D01*
X82805000Y-206321428D01*
X82876428Y-206250000D01*
X83019285Y-206178571D01*
X83305000Y-206178571D01*
X83447857Y-206250000D01*
X115864615Y-207178571D02*
X115721758Y-207107142D01*
X115650330Y-206964285D01*
X115650330Y-205678571D01*
X116650330Y-207178571D02*
X116507472Y-207107142D01*
X116436044Y-207035714D01*
X116364615Y-206892857D01*
X116364615Y-206464285D01*
X116436044Y-206321428D01*
X116507472Y-206250000D01*
X116650330Y-206178571D01*
X116864615Y-206178571D01*
X117007472Y-206250000D01*
X117078901Y-206321428D01*
X117150330Y-206464285D01*
X117150330Y-206892857D01*
X117078901Y-207035714D01*
X117007472Y-207107142D01*
X116864615Y-207178571D01*
X116650330Y-207178571D01*
X118436044Y-207178571D02*
X118436044Y-206392857D01*
X118364615Y-206250000D01*
X118221758Y-206178571D01*
X117936044Y-206178571D01*
X117793187Y-206250000D01*
X118436044Y-207107142D02*
X118293187Y-207178571D01*
X117936044Y-207178571D01*
X117793187Y-207107142D01*
X117721758Y-206964285D01*
X117721758Y-206821428D01*
X117793187Y-206678571D01*
X117936044Y-206607142D01*
X118293187Y-206607142D01*
X118436044Y-206535714D01*
X119793187Y-207178571D02*
X119793187Y-205678571D01*
X119793187Y-207107142D02*
X119650330Y-207178571D01*
X119364615Y-207178571D01*
X119221758Y-207107142D01*
X119150330Y-207035714D01*
X119078901Y-206892857D01*
X119078901Y-206464285D01*
X119150330Y-206321428D01*
X119221758Y-206250000D01*
X119364615Y-206178571D01*
X119650330Y-206178571D01*
X119793187Y-206250000D01*
X50519285Y-111678571D02*
X51090714Y-111678571D01*
X50733571Y-112678571D02*
X50733571Y-111392857D01*
X50805000Y-111250000D01*
X50947857Y-111178571D01*
X51090714Y-111178571D01*
X51590714Y-112678571D02*
X51590714Y-111678571D01*
X51590714Y-111178571D02*
X51519285Y-111250000D01*
X51590714Y-111321428D01*
X51662142Y-111250000D01*
X51590714Y-111178571D01*
X51590714Y-111321428D01*
X52519285Y-112678571D02*
X52376428Y-112607142D01*
X52305000Y-112464285D01*
X52305000Y-111178571D01*
X52876428Y-111678571D02*
X53447857Y-111678571D01*
X53090714Y-111178571D02*
X53090714Y-112464285D01*
X53162142Y-112607142D01*
X53305000Y-112678571D01*
X53447857Y-112678571D01*
X54519285Y-112607142D02*
X54376428Y-112678571D01*
X54090714Y-112678571D01*
X53947857Y-112607142D01*
X53876428Y-112464285D01*
X53876428Y-111892857D01*
X53947857Y-111750000D01*
X54090714Y-111678571D01*
X54376428Y-111678571D01*
X54519285Y-111750000D01*
X54590714Y-111892857D01*
X54590714Y-112035714D01*
X53876428Y-112178571D01*
X55233571Y-112678571D02*
X55233571Y-111678571D01*
X55233571Y-111964285D02*
X55305000Y-111821428D01*
X55376428Y-111750000D01*
X55519285Y-111678571D01*
X55662142Y-111678571D01*
X34662142Y-32178571D02*
X34662142Y-30678571D01*
X34662142Y-31250000D02*
X34805000Y-31178571D01*
X35090714Y-31178571D01*
X35233571Y-31250000D01*
X35305000Y-31321428D01*
X35376428Y-31464285D01*
X35376428Y-31892857D01*
X35305000Y-32035714D01*
X35233571Y-32107142D01*
X35090714Y-32178571D01*
X34805000Y-32178571D01*
X34662142Y-32107142D01*
X36590714Y-32107142D02*
X36447857Y-32178571D01*
X36162142Y-32178571D01*
X36019285Y-32107142D01*
X35947857Y-31964285D01*
X35947857Y-31392857D01*
X36019285Y-31250000D01*
X36162142Y-31178571D01*
X36447857Y-31178571D01*
X36590714Y-31250000D01*
X36662142Y-31392857D01*
X36662142Y-31535714D01*
X35947857Y-31678571D01*
X37947857Y-32178571D02*
X37947857Y-31392857D01*
X37876428Y-31250000D01*
X37733571Y-31178571D01*
X37447857Y-31178571D01*
X37305000Y-31250000D01*
X37947857Y-32107142D02*
X37805000Y-32178571D01*
X37447857Y-32178571D01*
X37305000Y-32107142D01*
X37233571Y-31964285D01*
X37233571Y-31821428D01*
X37305000Y-31678571D01*
X37447857Y-31607142D01*
X37805000Y-31607142D01*
X37947857Y-31535714D01*
X38447857Y-31178571D02*
X39019285Y-31178571D01*
X38662142Y-30678571D02*
X38662142Y-31964285D01*
X38733571Y-32107142D01*
X38876428Y-32178571D01*
X39019285Y-32178571D01*
X40590714Y-32107142D02*
X40733571Y-32178571D01*
X41019285Y-32178571D01*
X41162142Y-32107142D01*
X41233571Y-31964285D01*
X41233571Y-31892857D01*
X41162142Y-31750000D01*
X41019285Y-31678571D01*
X40805000Y-31678571D01*
X40662142Y-31607142D01*
X40590714Y-31464285D01*
X40590714Y-31392857D01*
X40662142Y-31250000D01*
X40805000Y-31178571D01*
X41019285Y-31178571D01*
X41162142Y-31250000D01*
X41733571Y-31178571D02*
X42090714Y-32178571D01*
X42447857Y-31178571D02*
X42090714Y-32178571D01*
X41947857Y-32535714D01*
X41876428Y-32607142D01*
X41733571Y-32678571D01*
X43019285Y-31178571D02*
X43019285Y-32178571D01*
X43019285Y-31321428D02*
X43090714Y-31250000D01*
X43233571Y-31178571D01*
X43447857Y-31178571D01*
X43590714Y-31250000D01*
X43662142Y-31392857D01*
X43662142Y-32178571D01*
X45019285Y-32107142D02*
X44876428Y-32178571D01*
X44590714Y-32178571D01*
X44447857Y-32107142D01*
X44376428Y-32035714D01*
X44305000Y-31892857D01*
X44305000Y-31464285D01*
X44376428Y-31321428D01*
X44447857Y-31250000D01*
X44590714Y-31178571D01*
X44876428Y-31178571D01*
X45019285Y-31250000D01*
X56876428Y-32178571D02*
X56876428Y-30678571D01*
X57019285Y-31607142D02*
X57447857Y-32178571D01*
X57447857Y-31178571D02*
X56876428Y-31750000D01*
X58662142Y-32107142D02*
X58519285Y-32178571D01*
X58233571Y-32178571D01*
X58090714Y-32107142D01*
X58019285Y-31964285D01*
X58019285Y-31392857D01*
X58090714Y-31250000D01*
X58233571Y-31178571D01*
X58519285Y-31178571D01*
X58662142Y-31250000D01*
X58733571Y-31392857D01*
X58733571Y-31535714D01*
X58019285Y-31678571D01*
X59233571Y-31178571D02*
X59590714Y-32178571D01*
X59947857Y-31178571D02*
X59590714Y-32178571D01*
X59447857Y-32535714D01*
X59376428Y-32607142D01*
X59233571Y-32678571D01*
X61590714Y-32107142D02*
X61733571Y-32178571D01*
X62019285Y-32178571D01*
X62162142Y-32107142D01*
X62233571Y-31964285D01*
X62233571Y-31892857D01*
X62162142Y-31750000D01*
X62019285Y-31678571D01*
X61805000Y-31678571D01*
X61662142Y-31607142D01*
X61590714Y-31464285D01*
X61590714Y-31392857D01*
X61662142Y-31250000D01*
X61805000Y-31178571D01*
X62019285Y-31178571D01*
X62162142Y-31250000D01*
X62733571Y-31178571D02*
X63090714Y-32178571D01*
X63447857Y-31178571D02*
X63090714Y-32178571D01*
X62947857Y-32535714D01*
X62876428Y-32607142D01*
X62733571Y-32678571D01*
X64019285Y-31178571D02*
X64019285Y-32178571D01*
X64019285Y-31321428D02*
X64090714Y-31250000D01*
X64233571Y-31178571D01*
X64447857Y-31178571D01*
X64590714Y-31250000D01*
X64662142Y-31392857D01*
X64662142Y-32178571D01*
X66019285Y-32107142D02*
X65876428Y-32178571D01*
X65590714Y-32178571D01*
X65447857Y-32107142D01*
X65376428Y-32035714D01*
X65305000Y-31892857D01*
X65305000Y-31464285D01*
X65376428Y-31321428D01*
X65447857Y-31250000D01*
X65590714Y-31178571D01*
X65876428Y-31178571D01*
X66019285Y-31250000D01*
X16805000Y-56678571D02*
X16662142Y-56607142D01*
X16590714Y-56464285D01*
X16590714Y-55178571D01*
X17590714Y-56678571D02*
X17447857Y-56607142D01*
X17376428Y-56535714D01*
X17305000Y-56392857D01*
X17305000Y-55964285D01*
X17376428Y-55821428D01*
X17447857Y-55750000D01*
X17590714Y-55678571D01*
X17805000Y-55678571D01*
X17947857Y-55750000D01*
X18019285Y-55821428D01*
X18090714Y-55964285D01*
X18090714Y-56392857D01*
X18019285Y-56535714D01*
X17947857Y-56607142D01*
X17805000Y-56678571D01*
X17590714Y-56678571D01*
X18947857Y-56678571D02*
X18805000Y-56607142D01*
X18733571Y-56535714D01*
X18662142Y-56392857D01*
X18662142Y-55964285D01*
X18733571Y-55821428D01*
X18805000Y-55750000D01*
X18947857Y-55678571D01*
X19162142Y-55678571D01*
X19305000Y-55750000D01*
X19376428Y-55821428D01*
X19447857Y-55964285D01*
X19447857Y-56392857D01*
X19376428Y-56535714D01*
X19305000Y-56607142D01*
X19162142Y-56678571D01*
X18947857Y-56678571D01*
X20090714Y-55678571D02*
X20090714Y-57178571D01*
X20090714Y-55750000D02*
X20233571Y-55678571D01*
X20519285Y-55678571D01*
X20662142Y-55750000D01*
X20733571Y-55821428D01*
X20805000Y-55964285D01*
X20805000Y-56392857D01*
X20733571Y-56535714D01*
X20662142Y-56607142D01*
X20519285Y-56678571D01*
X20233571Y-56678571D01*
X20090714Y-56607142D01*
X22590714Y-56678571D02*
X22590714Y-55678571D01*
X22590714Y-55178571D02*
X22519285Y-55250000D01*
X22590714Y-55321428D01*
X22662142Y-55250000D01*
X22590714Y-55178571D01*
X22590714Y-55321428D01*
X23305000Y-55678571D02*
X23305000Y-56678571D01*
X23305000Y-55821428D02*
X23376428Y-55750000D01*
X23519285Y-55678571D01*
X23733571Y-55678571D01*
X23876428Y-55750000D01*
X23947857Y-55892857D01*
X23947857Y-56678571D01*
X54519285Y-56607142D02*
X54376428Y-56678571D01*
X54090714Y-56678571D01*
X53947857Y-56607142D01*
X53876428Y-56464285D01*
X53876428Y-55892857D01*
X53947857Y-55750000D01*
X54090714Y-55678571D01*
X54376428Y-55678571D01*
X54519285Y-55750000D01*
X54590714Y-55892857D01*
X54590714Y-56035714D01*
X53876428Y-56178571D01*
X55090714Y-56678571D02*
X55876428Y-55678571D01*
X55090714Y-55678571D02*
X55876428Y-56678571D01*
X56447857Y-56678571D02*
X56447857Y-55678571D01*
X56447857Y-55178571D02*
X56376428Y-55250000D01*
X56447857Y-55321428D01*
X56519285Y-55250000D01*
X56447857Y-55178571D01*
X56447857Y-55321428D01*
X56947857Y-55678571D02*
X57519285Y-55678571D01*
X57162142Y-55178571D02*
X57162142Y-56464285D01*
X57233571Y-56607142D01*
X57376428Y-56678571D01*
X57519285Y-56678571D01*
X59090714Y-55107142D02*
X57805000Y-57035714D01*
X59590714Y-56678571D02*
X59590714Y-55678571D01*
X59590714Y-55964285D02*
X59662142Y-55821428D01*
X59733571Y-55750000D01*
X59876428Y-55678571D01*
X60019285Y-55678571D01*
X61090714Y-56607142D02*
X60947857Y-56678571D01*
X60662142Y-56678571D01*
X60519285Y-56607142D01*
X60447857Y-56464285D01*
X60447857Y-55892857D01*
X60519285Y-55750000D01*
X60662142Y-55678571D01*
X60947857Y-55678571D01*
X61090714Y-55750000D01*
X61162142Y-55892857D01*
X61162142Y-56035714D01*
X60447857Y-56178571D01*
X62019285Y-56678571D02*
X61876428Y-56607142D01*
X61805000Y-56464285D01*
X61805000Y-55178571D01*
X62805000Y-56678571D02*
X62662142Y-56607142D01*
X62590714Y-56535714D01*
X62519285Y-56392857D01*
X62519285Y-55964285D01*
X62590714Y-55821428D01*
X62662142Y-55750000D01*
X62805000Y-55678571D01*
X63019285Y-55678571D01*
X63162142Y-55750000D01*
X63233571Y-55821428D01*
X63305000Y-55964285D01*
X63305000Y-56392857D01*
X63233571Y-56535714D01*
X63162142Y-56607142D01*
X63019285Y-56678571D01*
X62805000Y-56678571D01*
X64162142Y-56678571D02*
X64019285Y-56607142D01*
X63947857Y-56535714D01*
X63876428Y-56392857D01*
X63876428Y-55964285D01*
X63947857Y-55821428D01*
X64019285Y-55750000D01*
X64162142Y-55678571D01*
X64376428Y-55678571D01*
X64519285Y-55750000D01*
X64590714Y-55821428D01*
X64662142Y-55964285D01*
X64662142Y-56392857D01*
X64590714Y-56535714D01*
X64519285Y-56607142D01*
X64376428Y-56678571D01*
X64162142Y-56678571D01*
X65304999Y-55678571D02*
X65304999Y-57178571D01*
X65304999Y-55750000D02*
X65447857Y-55678571D01*
X65733571Y-55678571D01*
X65876428Y-55750000D01*
X65947857Y-55821428D01*
X66019285Y-55964285D01*
X66019285Y-56392857D01*
X65947857Y-56535714D01*
X65876428Y-56607142D01*
X65733571Y-56678571D01*
X65447857Y-56678571D01*
X65304999Y-56607142D01*
X36305000Y-56678571D02*
X36162142Y-56607142D01*
X36090714Y-56464285D01*
X36090714Y-55178571D01*
X37090714Y-56678571D02*
X36947857Y-56607142D01*
X36876428Y-56535714D01*
X36805000Y-56392857D01*
X36805000Y-55964285D01*
X36876428Y-55821428D01*
X36947857Y-55750000D01*
X37090714Y-55678571D01*
X37305000Y-55678571D01*
X37447857Y-55750000D01*
X37519285Y-55821428D01*
X37590714Y-55964285D01*
X37590714Y-56392857D01*
X37519285Y-56535714D01*
X37447857Y-56607142D01*
X37305000Y-56678571D01*
X37090714Y-56678571D01*
X38447857Y-56678571D02*
X38305000Y-56607142D01*
X38233571Y-56535714D01*
X38162142Y-56392857D01*
X38162142Y-55964285D01*
X38233571Y-55821428D01*
X38305000Y-55750000D01*
X38447857Y-55678571D01*
X38662142Y-55678571D01*
X38805000Y-55750000D01*
X38876428Y-55821428D01*
X38947857Y-55964285D01*
X38947857Y-56392857D01*
X38876428Y-56535714D01*
X38805000Y-56607142D01*
X38662142Y-56678571D01*
X38447857Y-56678571D01*
X39590714Y-55678571D02*
X39590714Y-57178571D01*
X39590714Y-55750000D02*
X39733571Y-55678571D01*
X40019285Y-55678571D01*
X40162142Y-55750000D01*
X40233571Y-55821428D01*
X40305000Y-55964285D01*
X40305000Y-56392857D01*
X40233571Y-56535714D01*
X40162142Y-56607142D01*
X40019285Y-56678571D01*
X39733571Y-56678571D01*
X39590714Y-56607142D01*
X42305000Y-56678571D02*
X42162142Y-56607142D01*
X42090714Y-56535714D01*
X42019285Y-56392857D01*
X42019285Y-55964285D01*
X42090714Y-55821428D01*
X42162142Y-55750000D01*
X42305000Y-55678571D01*
X42519285Y-55678571D01*
X42662142Y-55750000D01*
X42733571Y-55821428D01*
X42805000Y-55964285D01*
X42805000Y-56392857D01*
X42733571Y-56535714D01*
X42662142Y-56607142D01*
X42519285Y-56678571D01*
X42305000Y-56678571D01*
X44090714Y-55678571D02*
X44090714Y-56678571D01*
X43447857Y-55678571D02*
X43447857Y-56464285D01*
X43519285Y-56607142D01*
X43662142Y-56678571D01*
X43876428Y-56678571D01*
X44019285Y-56607142D01*
X44090714Y-56535714D01*
X44590714Y-55678571D02*
X45162142Y-55678571D01*
X44805000Y-55178571D02*
X44805000Y-56464285D01*
X44876428Y-56607142D01*
X45019285Y-56678571D01*
X45162142Y-56678571D01*
X19019285Y-111678571D02*
X19590714Y-111678571D01*
X19233571Y-112678571D02*
X19233571Y-111392857D01*
X19305000Y-111250000D01*
X19447857Y-111178571D01*
X19590714Y-111178571D01*
X20090714Y-112678571D02*
X20090714Y-111678571D01*
X20090714Y-111178571D02*
X20019285Y-111250000D01*
X20090714Y-111321428D01*
X20162142Y-111250000D01*
X20090714Y-111178571D01*
X20090714Y-111321428D01*
X21019285Y-112678571D02*
X20876428Y-112607142D01*
X20805000Y-112464285D01*
X20805000Y-111178571D01*
X21376428Y-111678571D02*
X21947857Y-111678571D01*
X21590714Y-111178571D02*
X21590714Y-112464285D01*
X21662142Y-112607142D01*
X21805000Y-112678571D01*
X21947857Y-112678571D01*
X23019285Y-112607142D02*
X22876428Y-112678571D01*
X22590714Y-112678571D01*
X22447857Y-112607142D01*
X22376428Y-112464285D01*
X22376428Y-111892857D01*
X22447857Y-111750000D01*
X22590714Y-111678571D01*
X22876428Y-111678571D01*
X23019285Y-111750000D01*
X23090714Y-111892857D01*
X23090714Y-112035714D01*
X22376428Y-112178571D01*
X23733571Y-112678571D02*
X23733571Y-111678571D01*
X23733571Y-111964285D02*
X23805000Y-111821428D01*
X23876428Y-111750000D01*
X24019285Y-111678571D01*
X24162142Y-111678571D01*
X18805000Y-84607142D02*
X18662142Y-84678571D01*
X18376428Y-84678571D01*
X18233571Y-84607142D01*
X18162142Y-84464285D01*
X18162142Y-83892857D01*
X18233571Y-83750000D01*
X18376428Y-83678571D01*
X18662142Y-83678571D01*
X18805000Y-83750000D01*
X18876428Y-83892857D01*
X18876428Y-84035714D01*
X18162142Y-84178571D01*
X19305000Y-83678571D02*
X19876428Y-83678571D01*
X19519285Y-84678571D02*
X19519285Y-83392857D01*
X19590714Y-83250000D01*
X19733571Y-83178571D01*
X19876428Y-83178571D01*
X20162142Y-83678571D02*
X20733571Y-83678571D01*
X20376428Y-84678571D02*
X20376428Y-83392857D01*
X20447857Y-83250000D01*
X20590714Y-83178571D01*
X20733571Y-83178571D01*
X21805000Y-84607142D02*
X21662142Y-84678571D01*
X21376428Y-84678571D01*
X21233571Y-84607142D01*
X21162142Y-84464285D01*
X21162142Y-83892857D01*
X21233571Y-83750000D01*
X21376428Y-83678571D01*
X21662142Y-83678571D01*
X21805000Y-83750000D01*
X21876428Y-83892857D01*
X21876428Y-84035714D01*
X21162142Y-84178571D01*
X23162142Y-84607142D02*
X23019285Y-84678571D01*
X22733571Y-84678571D01*
X22590714Y-84607142D01*
X22519285Y-84535714D01*
X22447857Y-84392857D01*
X22447857Y-83964285D01*
X22519285Y-83821428D01*
X22590714Y-83750000D01*
X22733571Y-83678571D01*
X23019285Y-83678571D01*
X23162142Y-83750000D01*
X23590714Y-83678571D02*
X24162142Y-83678571D01*
X23805000Y-83178571D02*
X23805000Y-84464285D01*
X23876428Y-84607142D01*
X24019285Y-84678571D01*
X24162142Y-84678571D01*
X50305000Y-84607142D02*
X50162142Y-84678571D01*
X49876428Y-84678571D01*
X49733571Y-84607142D01*
X49662142Y-84464285D01*
X49662142Y-83892857D01*
X49733571Y-83750000D01*
X49876428Y-83678571D01*
X50162142Y-83678571D01*
X50305000Y-83750000D01*
X50376428Y-83892857D01*
X50376428Y-84035714D01*
X49662142Y-84178571D01*
X50805000Y-83678571D02*
X51376428Y-83678571D01*
X51019285Y-84678571D02*
X51019285Y-83392857D01*
X51090714Y-83250000D01*
X51233571Y-83178571D01*
X51376428Y-83178571D01*
X51662142Y-83678571D02*
X52233571Y-83678571D01*
X51876428Y-84678571D02*
X51876428Y-83392857D01*
X51947857Y-83250000D01*
X52090714Y-83178571D01*
X52233571Y-83178571D01*
X53305000Y-84607142D02*
X53162142Y-84678571D01*
X52876428Y-84678571D01*
X52733571Y-84607142D01*
X52662142Y-84464285D01*
X52662142Y-83892857D01*
X52733571Y-83750000D01*
X52876428Y-83678571D01*
X53162142Y-83678571D01*
X53305000Y-83750000D01*
X53376428Y-83892857D01*
X53376428Y-84035714D01*
X52662142Y-84178571D01*
X54662142Y-84607142D02*
X54519285Y-84678571D01*
X54233571Y-84678571D01*
X54090714Y-84607142D01*
X54019285Y-84535714D01*
X53947857Y-84392857D01*
X53947857Y-83964285D01*
X54019285Y-83821428D01*
X54090714Y-83750000D01*
X54233571Y-83678571D01*
X54519285Y-83678571D01*
X54662142Y-83750000D01*
X55090714Y-83678571D02*
X55662142Y-83678571D01*
X55305000Y-83178571D02*
X55305000Y-84464285D01*
X55376428Y-84607142D01*
X55519285Y-84678571D01*
X55662142Y-84678571D01*
X16590714Y-283178571D02*
X16947857Y-284178571D01*
X17305000Y-283178571D01*
X18090714Y-284178571D02*
X17947857Y-284107142D01*
X17876428Y-284035714D01*
X17805000Y-283892857D01*
X17805000Y-283464285D01*
X17876428Y-283321428D01*
X17947857Y-283250000D01*
X18090714Y-283178571D01*
X18305000Y-283178571D01*
X18447857Y-283250000D01*
X18519285Y-283321428D01*
X18590714Y-283464285D01*
X18590714Y-283892857D01*
X18519285Y-284035714D01*
X18447857Y-284107142D01*
X18305000Y-284178571D01*
X18090714Y-284178571D01*
X19447857Y-284178571D02*
X19305000Y-284107142D01*
X19233571Y-283964285D01*
X19233571Y-282678571D01*
X20662142Y-283178571D02*
X20662142Y-284178571D01*
X20019285Y-283178571D02*
X20019285Y-283964285D01*
X20090714Y-284107142D01*
X20233571Y-284178571D01*
X20447857Y-284178571D01*
X20590714Y-284107142D01*
X20662142Y-284035714D01*
X21376428Y-284178571D02*
X21376428Y-283178571D01*
X21376428Y-283321428D02*
X21447857Y-283250000D01*
X21590714Y-283178571D01*
X21805000Y-283178571D01*
X21947857Y-283250000D01*
X22019285Y-283392857D01*
X22019285Y-284178571D01*
X22019285Y-283392857D02*
X22090714Y-283250000D01*
X22233571Y-283178571D01*
X22447857Y-283178571D01*
X22590714Y-283250000D01*
X22662142Y-283392857D01*
X22662142Y-284178571D01*
X23947857Y-284107142D02*
X23805000Y-284178571D01*
X23519285Y-284178571D01*
X23376428Y-284107142D01*
X23305000Y-283964285D01*
X23305000Y-283392857D01*
X23376428Y-283250000D01*
X23519285Y-283178571D01*
X23805000Y-283178571D01*
X23947857Y-283250000D01*
X24019285Y-283392857D01*
X24019285Y-283535714D01*
X23305000Y-283678571D01*
X36876428Y-284178571D02*
X36876428Y-282678571D01*
X36876428Y-283250000D02*
X37019285Y-283178571D01*
X37305000Y-283178571D01*
X37447857Y-283250000D01*
X37519285Y-283321428D01*
X37590714Y-283464285D01*
X37590714Y-283892857D01*
X37519285Y-284035714D01*
X37447857Y-284107142D01*
X37305000Y-284178571D01*
X37019285Y-284178571D01*
X36876428Y-284107142D01*
X38876428Y-284178571D02*
X38876428Y-283392857D01*
X38805000Y-283250000D01*
X38662142Y-283178571D01*
X38376428Y-283178571D01*
X38233571Y-283250000D01*
X38876428Y-284107142D02*
X38733571Y-284178571D01*
X38376428Y-284178571D01*
X38233571Y-284107142D01*
X38162142Y-283964285D01*
X38162142Y-283821428D01*
X38233571Y-283678571D01*
X38376428Y-283607142D01*
X38733571Y-283607142D01*
X38876428Y-283535714D01*
X39805000Y-284178571D02*
X39662142Y-284107142D01*
X39590714Y-283964285D01*
X39590714Y-282678571D01*
X41019285Y-284178571D02*
X41019285Y-283392857D01*
X40947857Y-283250000D01*
X40805000Y-283178571D01*
X40519285Y-283178571D01*
X40376428Y-283250000D01*
X41019285Y-284107142D02*
X40876428Y-284178571D01*
X40519285Y-284178571D01*
X40376428Y-284107142D01*
X40305000Y-283964285D01*
X40305000Y-283821428D01*
X40376428Y-283678571D01*
X40519285Y-283607142D01*
X40876428Y-283607142D01*
X41019285Y-283535714D01*
X41733571Y-283178571D02*
X41733571Y-284178571D01*
X41733571Y-283321428D02*
X41805000Y-283250000D01*
X41947857Y-283178571D01*
X42162142Y-283178571D01*
X42305000Y-283250000D01*
X42376428Y-283392857D01*
X42376428Y-284178571D01*
X43733571Y-284107142D02*
X43590714Y-284178571D01*
X43305000Y-284178571D01*
X43162142Y-284107142D01*
X43090714Y-284035714D01*
X43019285Y-283892857D01*
X43019285Y-283464285D01*
X43090714Y-283321428D01*
X43162142Y-283250000D01*
X43305000Y-283178571D01*
X43590714Y-283178571D01*
X43733571Y-283250000D01*
X44947857Y-284107142D02*
X44805000Y-284178571D01*
X44519285Y-284178571D01*
X44376428Y-284107142D01*
X44305000Y-283964285D01*
X44305000Y-283392857D01*
X44376428Y-283250000D01*
X44519285Y-283178571D01*
X44805000Y-283178571D01*
X44947857Y-283250000D01*
X45019285Y-283392857D01*
X45019285Y-283535714D01*
X44305000Y-283678571D01*
X27233571Y-286678571D02*
X27233571Y-288178571D01*
X27233571Y-286750000D02*
X27376428Y-286678571D01*
X27662142Y-286678571D01*
X27805000Y-286750000D01*
X27876428Y-286821428D01*
X27947857Y-286964285D01*
X27947857Y-287392857D01*
X27876428Y-287535714D01*
X27805000Y-287607142D01*
X27662142Y-287678571D01*
X27376428Y-287678571D01*
X27233571Y-287607142D01*
X28590714Y-287678571D02*
X28590714Y-286178571D01*
X29233571Y-287678571D02*
X29233571Y-286892857D01*
X29162142Y-286750000D01*
X29019285Y-286678571D01*
X28805000Y-286678571D01*
X28662142Y-286750000D01*
X28590714Y-286821428D01*
X30162142Y-287678571D02*
X30019285Y-287607142D01*
X29947857Y-287535714D01*
X29876428Y-287392857D01*
X29876428Y-286964285D01*
X29947857Y-286821428D01*
X30019285Y-286750000D01*
X30162142Y-286678571D01*
X30376428Y-286678571D01*
X30519285Y-286750000D01*
X30590714Y-286821428D01*
X30662142Y-286964285D01*
X30662142Y-287392857D01*
X30590714Y-287535714D01*
X30519285Y-287607142D01*
X30376428Y-287678571D01*
X30162142Y-287678571D01*
X31305000Y-286678571D02*
X31305000Y-287678571D01*
X31305000Y-286821428D02*
X31376428Y-286750000D01*
X31519285Y-286678571D01*
X31733571Y-286678571D01*
X31876428Y-286750000D01*
X31947857Y-286892857D01*
X31947857Y-287678571D01*
X33233571Y-287607142D02*
X33090714Y-287678571D01*
X32805000Y-287678571D01*
X32662142Y-287607142D01*
X32590714Y-287464285D01*
X32590714Y-286892857D01*
X32662142Y-286750000D01*
X32805000Y-286678571D01*
X33090714Y-286678571D01*
X33233571Y-286750000D01*
X33305000Y-286892857D01*
X33305000Y-287035714D01*
X32590714Y-287178571D01*
X33876428Y-287607142D02*
X34019285Y-287678571D01*
X34305000Y-287678571D01*
X34447857Y-287607142D01*
X34519285Y-287464285D01*
X34519285Y-287392857D01*
X34447857Y-287250000D01*
X34305000Y-287178571D01*
X34090714Y-287178571D01*
X33947857Y-287107142D01*
X33876428Y-286964285D01*
X33876428Y-286892857D01*
X33947857Y-286750000D01*
X34090714Y-286678571D01*
X34305000Y-286678571D01*
X34447857Y-286750000D01*
X58733571Y-195678571D02*
X58733571Y-197178571D01*
X58733571Y-195750000D02*
X58876428Y-195678571D01*
X59162142Y-195678571D01*
X59305000Y-195750000D01*
X59376428Y-195821428D01*
X59447857Y-195964285D01*
X59447857Y-196392857D01*
X59376428Y-196535714D01*
X59305000Y-196607142D01*
X59162142Y-196678571D01*
X58876428Y-196678571D01*
X58733571Y-196607142D01*
X60090714Y-196678571D02*
X60090714Y-195178571D01*
X60733571Y-196678571D02*
X60733571Y-195892857D01*
X60662142Y-195750000D01*
X60519285Y-195678571D01*
X60305000Y-195678571D01*
X60162142Y-195750000D01*
X60090714Y-195821428D01*
X61662142Y-196678571D02*
X61519285Y-196607142D01*
X61447857Y-196535714D01*
X61376428Y-196392857D01*
X61376428Y-195964285D01*
X61447857Y-195821428D01*
X61519285Y-195750000D01*
X61662142Y-195678571D01*
X61876428Y-195678571D01*
X62019285Y-195750000D01*
X62090714Y-195821428D01*
X62162142Y-195964285D01*
X62162142Y-196392857D01*
X62090714Y-196535714D01*
X62019285Y-196607142D01*
X61876428Y-196678571D01*
X61662142Y-196678571D01*
X62805000Y-195678571D02*
X62805000Y-196678571D01*
X62805000Y-195821428D02*
X62876428Y-195750000D01*
X63019285Y-195678571D01*
X63233571Y-195678571D01*
X63376428Y-195750000D01*
X63447857Y-195892857D01*
X63447857Y-196678571D01*
X64733571Y-196607142D02*
X64590714Y-196678571D01*
X64305000Y-196678571D01*
X64162142Y-196607142D01*
X64090714Y-196464285D01*
X64090714Y-195892857D01*
X64162142Y-195750000D01*
X64305000Y-195678571D01*
X64590714Y-195678571D01*
X64733571Y-195750000D01*
X64805000Y-195892857D01*
X64805000Y-196035714D01*
X64090714Y-196178571D01*
X65376428Y-196607142D02*
X65519285Y-196678571D01*
X65805000Y-196678571D01*
X65947857Y-196607142D01*
X66019285Y-196464285D01*
X66019285Y-196392857D01*
X65947857Y-196250000D01*
X65805000Y-196178571D01*
X65590714Y-196178571D01*
X65447857Y-196107142D01*
X65376428Y-195964285D01*
X65376428Y-195892857D01*
X65447857Y-195750000D01*
X65590714Y-195678571D01*
X65805000Y-195678571D01*
X65947857Y-195750000D01*
X135733571Y-195678571D02*
X135733571Y-197178571D01*
X135733571Y-195750000D02*
X135876428Y-195678571D01*
X136162142Y-195678571D01*
X136305000Y-195750000D01*
X136376428Y-195821428D01*
X136447857Y-195964285D01*
X136447857Y-196392857D01*
X136376428Y-196535714D01*
X136305000Y-196607142D01*
X136162142Y-196678571D01*
X135876428Y-196678571D01*
X135733571Y-196607142D01*
X137090714Y-196678571D02*
X137090714Y-195178571D01*
X137733571Y-196678571D02*
X137733571Y-195892857D01*
X137662142Y-195750000D01*
X137519285Y-195678571D01*
X137305000Y-195678571D01*
X137162142Y-195750000D01*
X137090714Y-195821428D01*
X138662142Y-196678571D02*
X138519285Y-196607142D01*
X138447857Y-196535714D01*
X138376428Y-196392857D01*
X138376428Y-195964285D01*
X138447857Y-195821428D01*
X138519285Y-195750000D01*
X138662142Y-195678571D01*
X138876428Y-195678571D01*
X139019285Y-195750000D01*
X139090714Y-195821428D01*
X139162142Y-195964285D01*
X139162142Y-196392857D01*
X139090714Y-196535714D01*
X139019285Y-196607142D01*
X138876428Y-196678571D01*
X138662142Y-196678571D01*
X139805000Y-195678571D02*
X139805000Y-196678571D01*
X139805000Y-195821428D02*
X139876428Y-195750000D01*
X140019285Y-195678571D01*
X140233571Y-195678571D01*
X140376428Y-195750000D01*
X140447857Y-195892857D01*
X140447857Y-196678571D01*
X141733571Y-196607142D02*
X141590714Y-196678571D01*
X141305000Y-196678571D01*
X141162142Y-196607142D01*
X141090714Y-196464285D01*
X141090714Y-195892857D01*
X141162142Y-195750000D01*
X141305000Y-195678571D01*
X141590714Y-195678571D01*
X141733571Y-195750000D01*
X141805000Y-195892857D01*
X141805000Y-196035714D01*
X141090714Y-196178571D01*
X142376428Y-196607142D02*
X142519285Y-196678571D01*
X142805000Y-196678571D01*
X142947857Y-196607142D01*
X143019285Y-196464285D01*
X143019285Y-196392857D01*
X142947857Y-196250000D01*
X142805000Y-196178571D01*
X142590714Y-196178571D01*
X142447857Y-196107142D01*
X142376428Y-195964285D01*
X142376428Y-195892857D01*
X142447857Y-195750000D01*
X142590714Y-195678571D01*
X142805000Y-195678571D01*
X142947857Y-195750000D01*
X153662142Y-32178571D02*
X153662142Y-30678571D01*
X153662142Y-31250000D02*
X153805000Y-31178571D01*
X154090714Y-31178571D01*
X154233571Y-31250000D01*
X154305000Y-31321428D01*
X154376428Y-31464285D01*
X154376428Y-31892857D01*
X154305000Y-32035714D01*
X154233571Y-32107142D01*
X154090714Y-32178571D01*
X153805000Y-32178571D01*
X153662142Y-32107142D01*
X155590714Y-32107142D02*
X155447857Y-32178571D01*
X155162142Y-32178571D01*
X155019285Y-32107142D01*
X154947857Y-31964285D01*
X154947857Y-31392857D01*
X155019285Y-31250000D01*
X155162142Y-31178571D01*
X155447857Y-31178571D01*
X155590714Y-31250000D01*
X155662142Y-31392857D01*
X155662142Y-31535714D01*
X154947857Y-31678571D01*
X156947857Y-32178571D02*
X156947857Y-31392857D01*
X156876428Y-31250000D01*
X156733571Y-31178571D01*
X156447857Y-31178571D01*
X156305000Y-31250000D01*
X156947857Y-32107142D02*
X156805000Y-32178571D01*
X156447857Y-32178571D01*
X156305000Y-32107142D01*
X156233571Y-31964285D01*
X156233571Y-31821428D01*
X156305000Y-31678571D01*
X156447857Y-31607142D01*
X156805000Y-31607142D01*
X156947857Y-31535714D01*
X157447857Y-31178571D02*
X158019285Y-31178571D01*
X157662142Y-30678571D02*
X157662142Y-31964285D01*
X157733571Y-32107142D01*
X157876428Y-32178571D01*
X158019285Y-32178571D01*
X159590714Y-32107142D02*
X159733571Y-32178571D01*
X160019285Y-32178571D01*
X160162142Y-32107142D01*
X160233571Y-31964285D01*
X160233571Y-31892857D01*
X160162142Y-31750000D01*
X160019285Y-31678571D01*
X159805000Y-31678571D01*
X159662142Y-31607142D01*
X159590714Y-31464285D01*
X159590714Y-31392857D01*
X159662142Y-31250000D01*
X159805000Y-31178571D01*
X160019285Y-31178571D01*
X160162142Y-31250000D01*
X160733571Y-31178571D02*
X161090714Y-32178571D01*
X161447857Y-31178571D02*
X161090714Y-32178571D01*
X160947857Y-32535714D01*
X160876428Y-32607142D01*
X160733571Y-32678571D01*
X162019285Y-31178571D02*
X162019285Y-32178571D01*
X162019285Y-31321428D02*
X162090714Y-31250000D01*
X162233571Y-31178571D01*
X162447857Y-31178571D01*
X162590714Y-31250000D01*
X162662142Y-31392857D01*
X162662142Y-32178571D01*
X164019285Y-32107142D02*
X163876428Y-32178571D01*
X163590714Y-32178571D01*
X163447857Y-32107142D01*
X163376428Y-32035714D01*
X163305000Y-31892857D01*
X163305000Y-31464285D01*
X163376428Y-31321428D01*
X163447857Y-31250000D01*
X163590714Y-31178571D01*
X163876428Y-31178571D01*
X164019285Y-31250000D01*
X133876428Y-32178571D02*
X133876428Y-30678571D01*
X134019285Y-31607142D02*
X134447857Y-32178571D01*
X134447857Y-31178571D02*
X133876428Y-31750000D01*
X135662142Y-32107142D02*
X135519285Y-32178571D01*
X135233571Y-32178571D01*
X135090714Y-32107142D01*
X135019285Y-31964285D01*
X135019285Y-31392857D01*
X135090714Y-31250000D01*
X135233571Y-31178571D01*
X135519285Y-31178571D01*
X135662142Y-31250000D01*
X135733571Y-31392857D01*
X135733571Y-31535714D01*
X135019285Y-31678571D01*
X136233571Y-31178571D02*
X136590714Y-32178571D01*
X136947857Y-31178571D02*
X136590714Y-32178571D01*
X136447857Y-32535714D01*
X136376428Y-32607142D01*
X136233571Y-32678571D01*
X138590714Y-32107142D02*
X138733571Y-32178571D01*
X139019285Y-32178571D01*
X139162142Y-32107142D01*
X139233571Y-31964285D01*
X139233571Y-31892857D01*
X139162142Y-31750000D01*
X139019285Y-31678571D01*
X138805000Y-31678571D01*
X138662142Y-31607142D01*
X138590714Y-31464285D01*
X138590714Y-31392857D01*
X138662142Y-31250000D01*
X138805000Y-31178571D01*
X139019285Y-31178571D01*
X139162142Y-31250000D01*
X139733571Y-31178571D02*
X140090714Y-32178571D01*
X140447857Y-31178571D02*
X140090714Y-32178571D01*
X139947857Y-32535714D01*
X139876428Y-32607142D01*
X139733571Y-32678571D01*
X141019285Y-31178571D02*
X141019285Y-32178571D01*
X141019285Y-31321428D02*
X141090714Y-31250000D01*
X141233571Y-31178571D01*
X141447857Y-31178571D01*
X141590714Y-31250000D01*
X141662142Y-31392857D01*
X141662142Y-32178571D01*
X143019285Y-32107142D02*
X142876428Y-32178571D01*
X142590714Y-32178571D01*
X142447857Y-32107142D01*
X142376428Y-32035714D01*
X142305000Y-31892857D01*
X142305000Y-31464285D01*
X142376428Y-31321428D01*
X142447857Y-31250000D01*
X142590714Y-31178571D01*
X142876428Y-31178571D01*
X143019285Y-31250000D01*
X173519285Y-56607142D02*
X173376428Y-56678571D01*
X173090714Y-56678571D01*
X172947857Y-56607142D01*
X172876428Y-56464285D01*
X172876428Y-55892857D01*
X172947857Y-55750000D01*
X173090714Y-55678571D01*
X173376428Y-55678571D01*
X173519285Y-55750000D01*
X173590714Y-55892857D01*
X173590714Y-56035714D01*
X172876428Y-56178571D01*
X174090714Y-56678571D02*
X174876428Y-55678571D01*
X174090714Y-55678571D02*
X174876428Y-56678571D01*
X175447857Y-56678571D02*
X175447857Y-55678571D01*
X175447857Y-55178571D02*
X175376428Y-55250000D01*
X175447857Y-55321428D01*
X175519285Y-55250000D01*
X175447857Y-55178571D01*
X175447857Y-55321428D01*
X175947857Y-55678571D02*
X176519285Y-55678571D01*
X176162142Y-55178571D02*
X176162142Y-56464285D01*
X176233571Y-56607142D01*
X176376428Y-56678571D01*
X176519285Y-56678571D01*
X178090714Y-55107142D02*
X176805000Y-57035714D01*
X178590714Y-56678571D02*
X178590714Y-55678571D01*
X178590714Y-55964285D02*
X178662142Y-55821428D01*
X178733571Y-55750000D01*
X178876428Y-55678571D01*
X179019285Y-55678571D01*
X180090714Y-56607142D02*
X179947857Y-56678571D01*
X179662142Y-56678571D01*
X179519285Y-56607142D01*
X179447857Y-56464285D01*
X179447857Y-55892857D01*
X179519285Y-55750000D01*
X179662142Y-55678571D01*
X179947857Y-55678571D01*
X180090714Y-55750000D01*
X180162142Y-55892857D01*
X180162142Y-56035714D01*
X179447857Y-56178571D01*
X181019285Y-56678571D02*
X180876428Y-56607142D01*
X180805000Y-56464285D01*
X180805000Y-55178571D01*
X181805000Y-56678571D02*
X181662142Y-56607142D01*
X181590714Y-56535714D01*
X181519285Y-56392857D01*
X181519285Y-55964285D01*
X181590714Y-55821428D01*
X181662142Y-55750000D01*
X181805000Y-55678571D01*
X182019285Y-55678571D01*
X182162142Y-55750000D01*
X182233571Y-55821428D01*
X182305000Y-55964285D01*
X182305000Y-56392857D01*
X182233571Y-56535714D01*
X182162142Y-56607142D01*
X182019285Y-56678571D01*
X181805000Y-56678571D01*
X183162142Y-56678571D02*
X183019285Y-56607142D01*
X182947857Y-56535714D01*
X182876428Y-56392857D01*
X182876428Y-55964285D01*
X182947857Y-55821428D01*
X183019285Y-55750000D01*
X183162142Y-55678571D01*
X183376428Y-55678571D01*
X183519285Y-55750000D01*
X183590714Y-55821428D01*
X183662142Y-55964285D01*
X183662142Y-56392857D01*
X183590714Y-56535714D01*
X183519285Y-56607142D01*
X183376428Y-56678571D01*
X183162142Y-56678571D01*
X184305000Y-55678571D02*
X184305000Y-57178571D01*
X184305000Y-55750000D02*
X184447857Y-55678571D01*
X184733571Y-55678571D01*
X184876428Y-55750000D01*
X184947857Y-55821428D01*
X185019285Y-55964285D01*
X185019285Y-56392857D01*
X184947857Y-56535714D01*
X184876428Y-56607142D01*
X184733571Y-56678571D01*
X184447857Y-56678571D01*
X184305000Y-56607142D01*
X155305000Y-56678571D02*
X155162142Y-56607142D01*
X155090714Y-56464285D01*
X155090714Y-55178571D01*
X156090714Y-56678571D02*
X155947857Y-56607142D01*
X155876428Y-56535714D01*
X155805000Y-56392857D01*
X155805000Y-55964285D01*
X155876428Y-55821428D01*
X155947857Y-55750000D01*
X156090714Y-55678571D01*
X156305000Y-55678571D01*
X156447857Y-55750000D01*
X156519285Y-55821428D01*
X156590714Y-55964285D01*
X156590714Y-56392857D01*
X156519285Y-56535714D01*
X156447857Y-56607142D01*
X156305000Y-56678571D01*
X156090714Y-56678571D01*
X157447857Y-56678571D02*
X157305000Y-56607142D01*
X157233571Y-56535714D01*
X157162142Y-56392857D01*
X157162142Y-55964285D01*
X157233571Y-55821428D01*
X157305000Y-55750000D01*
X157447857Y-55678571D01*
X157662142Y-55678571D01*
X157805000Y-55750000D01*
X157876428Y-55821428D01*
X157947857Y-55964285D01*
X157947857Y-56392857D01*
X157876428Y-56535714D01*
X157805000Y-56607142D01*
X157662142Y-56678571D01*
X157447857Y-56678571D01*
X158590714Y-55678571D02*
X158590714Y-57178571D01*
X158590714Y-55750000D02*
X158733571Y-55678571D01*
X159019285Y-55678571D01*
X159162142Y-55750000D01*
X159233571Y-55821428D01*
X159305000Y-55964285D01*
X159305000Y-56392857D01*
X159233571Y-56535714D01*
X159162142Y-56607142D01*
X159019285Y-56678571D01*
X158733571Y-56678571D01*
X158590714Y-56607142D01*
X161305000Y-56678571D02*
X161162142Y-56607142D01*
X161090714Y-56535714D01*
X161019285Y-56392857D01*
X161019285Y-55964285D01*
X161090714Y-55821428D01*
X161162142Y-55750000D01*
X161305000Y-55678571D01*
X161519285Y-55678571D01*
X161662142Y-55750000D01*
X161733571Y-55821428D01*
X161805000Y-55964285D01*
X161805000Y-56392857D01*
X161733571Y-56535714D01*
X161662142Y-56607142D01*
X161519285Y-56678571D01*
X161305000Y-56678571D01*
X163090714Y-55678571D02*
X163090714Y-56678571D01*
X162447857Y-55678571D02*
X162447857Y-56464285D01*
X162519285Y-56607142D01*
X162662142Y-56678571D01*
X162876428Y-56678571D01*
X163019285Y-56607142D01*
X163090714Y-56535714D01*
X163590714Y-55678571D02*
X164162142Y-55678571D01*
X163805000Y-55178571D02*
X163805000Y-56464285D01*
X163876428Y-56607142D01*
X164019285Y-56678571D01*
X164162142Y-56678571D01*
X135805000Y-56678571D02*
X135662142Y-56607142D01*
X135590714Y-56464285D01*
X135590714Y-55178571D01*
X136590714Y-56678571D02*
X136447857Y-56607142D01*
X136376428Y-56535714D01*
X136305000Y-56392857D01*
X136305000Y-55964285D01*
X136376428Y-55821428D01*
X136447857Y-55750000D01*
X136590714Y-55678571D01*
X136805000Y-55678571D01*
X136947857Y-55750000D01*
X137019285Y-55821428D01*
X137090714Y-55964285D01*
X137090714Y-56392857D01*
X137019285Y-56535714D01*
X136947857Y-56607142D01*
X136805000Y-56678571D01*
X136590714Y-56678571D01*
X137947857Y-56678571D02*
X137805000Y-56607142D01*
X137733571Y-56535714D01*
X137662142Y-56392857D01*
X137662142Y-55964285D01*
X137733571Y-55821428D01*
X137805000Y-55750000D01*
X137947857Y-55678571D01*
X138162142Y-55678571D01*
X138305000Y-55750000D01*
X138376428Y-55821428D01*
X138447857Y-55964285D01*
X138447857Y-56392857D01*
X138376428Y-56535714D01*
X138305000Y-56607142D01*
X138162142Y-56678571D01*
X137947857Y-56678571D01*
X139090714Y-55678571D02*
X139090714Y-57178571D01*
X139090714Y-55750000D02*
X139233571Y-55678571D01*
X139519285Y-55678571D01*
X139662142Y-55750000D01*
X139733571Y-55821428D01*
X139805000Y-55964285D01*
X139805000Y-56392857D01*
X139733571Y-56535714D01*
X139662142Y-56607142D01*
X139519285Y-56678571D01*
X139233571Y-56678571D01*
X139090714Y-56607142D01*
X141590714Y-56678571D02*
X141590714Y-55678571D01*
X141590714Y-55178571D02*
X141519285Y-55250000D01*
X141590714Y-55321428D01*
X141662142Y-55250000D01*
X141590714Y-55178571D01*
X141590714Y-55321428D01*
X142305000Y-55678571D02*
X142305000Y-56678571D01*
X142305000Y-55821428D02*
X142376428Y-55750000D01*
X142519285Y-55678571D01*
X142733571Y-55678571D01*
X142876428Y-55750000D01*
X142947857Y-55892857D01*
X142947857Y-56678571D01*
X148305000Y-84607142D02*
X148162142Y-84678571D01*
X147876428Y-84678571D01*
X147733571Y-84607142D01*
X147662142Y-84464285D01*
X147662142Y-83892857D01*
X147733571Y-83750000D01*
X147876428Y-83678571D01*
X148162142Y-83678571D01*
X148305000Y-83750000D01*
X148376428Y-83892857D01*
X148376428Y-84035714D01*
X147662142Y-84178571D01*
X148805000Y-83678571D02*
X149376428Y-83678571D01*
X149019285Y-84678571D02*
X149019285Y-83392857D01*
X149090714Y-83250000D01*
X149233571Y-83178571D01*
X149376428Y-83178571D01*
X149662142Y-83678571D02*
X150233571Y-83678571D01*
X149876428Y-84678571D02*
X149876428Y-83392857D01*
X149947857Y-83250000D01*
X150090714Y-83178571D01*
X150233571Y-83178571D01*
X151305000Y-84607142D02*
X151162142Y-84678571D01*
X150876428Y-84678571D01*
X150733571Y-84607142D01*
X150662142Y-84464285D01*
X150662142Y-83892857D01*
X150733571Y-83750000D01*
X150876428Y-83678571D01*
X151162142Y-83678571D01*
X151305000Y-83750000D01*
X151376428Y-83892857D01*
X151376428Y-84035714D01*
X150662142Y-84178571D01*
X152662142Y-84607142D02*
X152519285Y-84678571D01*
X152233571Y-84678571D01*
X152090714Y-84607142D01*
X152019285Y-84535714D01*
X151947857Y-84392857D01*
X151947857Y-83964285D01*
X152019285Y-83821428D01*
X152090714Y-83750000D01*
X152233571Y-83678571D01*
X152519285Y-83678571D01*
X152662142Y-83750000D01*
X153090714Y-83678571D02*
X153662142Y-83678571D01*
X153305000Y-83178571D02*
X153305000Y-84464285D01*
X153376428Y-84607142D01*
X153519285Y-84678571D01*
X153662142Y-84678571D01*
X179805000Y-84607142D02*
X179662142Y-84678571D01*
X179376428Y-84678571D01*
X179233571Y-84607142D01*
X179162142Y-84464285D01*
X179162142Y-83892857D01*
X179233571Y-83750000D01*
X179376428Y-83678571D01*
X179662142Y-83678571D01*
X179805000Y-83750000D01*
X179876428Y-83892857D01*
X179876428Y-84035714D01*
X179162142Y-84178571D01*
X180305000Y-83678571D02*
X180876428Y-83678571D01*
X180519285Y-84678571D02*
X180519285Y-83392857D01*
X180590714Y-83250000D01*
X180733571Y-83178571D01*
X180876428Y-83178571D01*
X181162142Y-83678571D02*
X181733571Y-83678571D01*
X181376428Y-84678571D02*
X181376428Y-83392857D01*
X181447857Y-83250000D01*
X181590714Y-83178571D01*
X181733571Y-83178571D01*
X182805000Y-84607142D02*
X182662142Y-84678571D01*
X182376428Y-84678571D01*
X182233571Y-84607142D01*
X182162142Y-84464285D01*
X182162142Y-83892857D01*
X182233571Y-83750000D01*
X182376428Y-83678571D01*
X182662142Y-83678571D01*
X182805000Y-83750000D01*
X182876428Y-83892857D01*
X182876428Y-84035714D01*
X182162142Y-84178571D01*
X184162142Y-84607142D02*
X184019285Y-84678571D01*
X183733571Y-84678571D01*
X183590714Y-84607142D01*
X183519285Y-84535714D01*
X183447857Y-84392857D01*
X183447857Y-83964285D01*
X183519285Y-83821428D01*
X183590714Y-83750000D01*
X183733571Y-83678571D01*
X184019285Y-83678571D01*
X184162142Y-83750000D01*
X184590714Y-83678571D02*
X185162142Y-83678571D01*
X184805000Y-83178571D02*
X184805000Y-84464285D01*
X184876428Y-84607142D01*
X185019285Y-84678571D01*
X185162142Y-84678571D01*
X180019285Y-111678571D02*
X180590714Y-111678571D01*
X180233571Y-112678571D02*
X180233571Y-111392857D01*
X180305000Y-111250000D01*
X180447857Y-111178571D01*
X180590714Y-111178571D01*
X181090714Y-112678571D02*
X181090714Y-111678571D01*
X181090714Y-111178571D02*
X181019285Y-111250000D01*
X181090714Y-111321428D01*
X181162142Y-111250000D01*
X181090714Y-111178571D01*
X181090714Y-111321428D01*
X182019285Y-112678571D02*
X181876428Y-112607142D01*
X181805000Y-112464285D01*
X181805000Y-111178571D01*
X182376428Y-111678571D02*
X182947857Y-111678571D01*
X182590714Y-111178571D02*
X182590714Y-112464285D01*
X182662142Y-112607142D01*
X182805000Y-112678571D01*
X182947857Y-112678571D01*
X184019285Y-112607142D02*
X183876428Y-112678571D01*
X183590714Y-112678571D01*
X183447857Y-112607142D01*
X183376428Y-112464285D01*
X183376428Y-111892857D01*
X183447857Y-111750000D01*
X183590714Y-111678571D01*
X183876428Y-111678571D01*
X184019285Y-111750000D01*
X184090714Y-111892857D01*
X184090714Y-112035714D01*
X183376428Y-112178571D01*
X184733571Y-112678571D02*
X184733571Y-111678571D01*
X184733571Y-111964285D02*
X184805000Y-111821428D01*
X184876428Y-111750000D01*
X185019285Y-111678571D01*
X185162142Y-111678571D01*
X148519285Y-111678571D02*
X149090714Y-111678571D01*
X148733571Y-112678571D02*
X148733571Y-111392857D01*
X148805000Y-111250000D01*
X148947857Y-111178571D01*
X149090714Y-111178571D01*
X149590714Y-112678571D02*
X149590714Y-111678571D01*
X149590714Y-111178571D02*
X149519285Y-111250000D01*
X149590714Y-111321428D01*
X149662142Y-111250000D01*
X149590714Y-111178571D01*
X149590714Y-111321428D01*
X150519285Y-112678571D02*
X150376428Y-112607142D01*
X150305000Y-112464285D01*
X150305000Y-111178571D01*
X150876428Y-111678571D02*
X151447857Y-111678571D01*
X151090714Y-111178571D02*
X151090714Y-112464285D01*
X151162142Y-112607142D01*
X151305000Y-112678571D01*
X151447857Y-112678571D01*
X152519285Y-112607142D02*
X152376428Y-112678571D01*
X152090714Y-112678571D01*
X151947857Y-112607142D01*
X151876428Y-112464285D01*
X151876428Y-111892857D01*
X151947857Y-111750000D01*
X152090714Y-111678571D01*
X152376428Y-111678571D01*
X152519285Y-111750000D01*
X152590714Y-111892857D01*
X152590714Y-112035714D01*
X151876428Y-112178571D01*
X153233571Y-112678571D02*
X153233571Y-111678571D01*
X153233571Y-111964285D02*
X153305000Y-111821428D01*
X153376428Y-111750000D01*
X153519285Y-111678571D01*
X153662142Y-111678571D01*
X157002273Y-16542604D02*
X157002273Y-15542604D01*
X157002273Y-15685461D02*
X157073702Y-15614033D01*
X157216559Y-15542604D01*
X157430845Y-15542604D01*
X157573702Y-15614033D01*
X157645130Y-15756890D01*
X157645130Y-16542604D01*
X157645130Y-15756890D02*
X157716559Y-15614033D01*
X157859416Y-15542604D01*
X158073702Y-15542604D01*
X158216559Y-15614033D01*
X158287988Y-15756890D01*
X158287988Y-16542604D01*
X159645130Y-16542604D02*
X159645130Y-15756890D01*
X159573702Y-15614033D01*
X159430845Y-15542604D01*
X159145130Y-15542604D01*
X159002273Y-15614033D01*
X159645130Y-16471175D02*
X159502273Y-16542604D01*
X159145130Y-16542604D01*
X159002273Y-16471175D01*
X158930845Y-16328318D01*
X158930845Y-16185461D01*
X159002273Y-16042604D01*
X159145130Y-15971175D01*
X159502273Y-15971175D01*
X159645130Y-15899747D01*
X160287988Y-16471175D02*
X160430845Y-16542604D01*
X160716559Y-16542604D01*
X160859416Y-16471175D01*
X160930845Y-16328318D01*
X160930845Y-16256890D01*
X160859416Y-16114033D01*
X160716559Y-16042604D01*
X160502273Y-16042604D01*
X160359416Y-15971175D01*
X160287988Y-15828318D01*
X160287988Y-15756890D01*
X160359416Y-15614033D01*
X160502273Y-15542604D01*
X160716559Y-15542604D01*
X160859416Y-15614033D01*
X161359416Y-15542604D02*
X161930845Y-15542604D01*
X161573702Y-15042604D02*
X161573702Y-16328318D01*
X161645130Y-16471175D01*
X161787988Y-16542604D01*
X161930845Y-16542604D01*
X163002273Y-16471175D02*
X162859416Y-16542604D01*
X162573702Y-16542604D01*
X162430845Y-16471175D01*
X162359416Y-16328318D01*
X162359416Y-15756890D01*
X162430845Y-15614033D01*
X162573702Y-15542604D01*
X162859416Y-15542604D01*
X163002273Y-15614033D01*
X163073702Y-15756890D01*
X163073702Y-15899747D01*
X162359416Y-16042604D01*
X163716559Y-16542604D02*
X163716559Y-15542604D01*
X163716559Y-15828318D02*
X163787988Y-15685461D01*
X163859416Y-15614033D01*
X164002273Y-15542604D01*
X164145130Y-15542604D01*
X117947857Y-27678571D02*
X118519285Y-27678571D01*
X118162142Y-27178571D02*
X118162142Y-28464285D01*
X118233571Y-28607142D01*
X118376428Y-28678571D01*
X118519285Y-28678571D01*
X119019285Y-28678571D02*
X119019285Y-27678571D01*
X119019285Y-27964285D02*
X119090714Y-27821428D01*
X119162142Y-27750000D01*
X119305000Y-27678571D01*
X119447857Y-27678571D01*
X119947857Y-28678571D02*
X119947857Y-27678571D01*
X119947857Y-27178571D02*
X119876428Y-27250000D01*
X119947857Y-27321428D01*
X120019285Y-27250000D01*
X119947857Y-27178571D01*
X119947857Y-27321428D01*
X120662142Y-28678571D02*
X120662142Y-27678571D01*
X120662142Y-27821428D02*
X120733571Y-27750000D01*
X120876428Y-27678571D01*
X121090714Y-27678571D01*
X121233571Y-27750000D01*
X121305000Y-27892857D01*
X121305000Y-28678571D01*
X121305000Y-27892857D02*
X121376428Y-27750000D01*
X121519285Y-27678571D01*
X121733571Y-27678571D01*
X121876428Y-27750000D01*
X121947857Y-27892857D01*
X121947857Y-28678571D01*
X82947857Y-27678571D02*
X83519285Y-27678571D01*
X83162142Y-27178571D02*
X83162142Y-28464285D01*
X83233571Y-28607142D01*
X83376428Y-28678571D01*
X83519285Y-28678571D01*
X84019285Y-28678571D02*
X84019285Y-27678571D01*
X84019285Y-27964285D02*
X84090714Y-27821428D01*
X84162142Y-27750000D01*
X84305000Y-27678571D01*
X84447857Y-27678571D01*
X84947857Y-28678571D02*
X84947857Y-27678571D01*
X84947857Y-27178571D02*
X84876428Y-27250000D01*
X84947857Y-27321428D01*
X85019285Y-27250000D01*
X84947857Y-27178571D01*
X84947857Y-27321428D01*
X85662142Y-28678571D02*
X85662142Y-27678571D01*
X85662142Y-27821428D02*
X85733571Y-27750000D01*
X85876428Y-27678571D01*
X86090714Y-27678571D01*
X86233571Y-27750000D01*
X86305000Y-27892857D01*
X86305000Y-28678571D01*
X86305000Y-27892857D02*
X86376428Y-27750000D01*
X86519285Y-27678571D01*
X86733571Y-27678571D01*
X86876428Y-27750000D01*
X86947857Y-27892857D01*
X86947857Y-28678571D01*
X117519285Y-112678571D02*
X117519285Y-111178571D01*
X117519285Y-111750000D02*
X117662142Y-111678571D01*
X117947857Y-111678571D01*
X118090714Y-111750000D01*
X118162142Y-111821428D01*
X118233571Y-111964285D01*
X118233571Y-112392857D01*
X118162142Y-112535714D01*
X118090714Y-112607142D01*
X117947857Y-112678571D01*
X117662142Y-112678571D01*
X117519285Y-112607142D01*
X119519285Y-112678571D02*
X119519285Y-111892857D01*
X119447857Y-111750000D01*
X119305000Y-111678571D01*
X119019285Y-111678571D01*
X118876428Y-111750000D01*
X119519285Y-112607142D02*
X119376428Y-112678571D01*
X119019285Y-112678571D01*
X118876428Y-112607142D01*
X118805000Y-112464285D01*
X118805000Y-112321428D01*
X118876428Y-112178571D01*
X119019285Y-112107142D01*
X119376428Y-112107142D01*
X119519285Y-112035714D01*
X120162142Y-112607142D02*
X120305000Y-112678571D01*
X120590714Y-112678571D01*
X120733571Y-112607142D01*
X120805000Y-112464285D01*
X120805000Y-112392857D01*
X120733571Y-112250000D01*
X120590714Y-112178571D01*
X120376428Y-112178571D01*
X120233571Y-112107142D01*
X120162142Y-111964285D01*
X120162142Y-111892857D01*
X120233571Y-111750000D01*
X120376428Y-111678571D01*
X120590714Y-111678571D01*
X120733571Y-111750000D01*
X121376428Y-112607142D02*
X121519285Y-112678571D01*
X121805000Y-112678571D01*
X121947857Y-112607142D01*
X122019285Y-112464285D01*
X122019285Y-112392857D01*
X121947857Y-112250000D01*
X121805000Y-112178571D01*
X121590714Y-112178571D01*
X121447857Y-112107142D01*
X121376428Y-111964285D01*
X121376428Y-111892857D01*
X121447857Y-111750000D01*
X121590714Y-111678571D01*
X121805000Y-111678571D01*
X121947857Y-111750000D01*
X118590714Y-84678571D02*
X118590714Y-83678571D01*
X118590714Y-83821428D02*
X118662142Y-83750000D01*
X118805000Y-83678571D01*
X119019285Y-83678571D01*
X119162142Y-83750000D01*
X119233571Y-83892857D01*
X119233571Y-84678571D01*
X119233571Y-83892857D02*
X119305000Y-83750000D01*
X119447857Y-83678571D01*
X119662142Y-83678571D01*
X119805000Y-83750000D01*
X119876428Y-83892857D01*
X119876428Y-84678571D01*
X120590714Y-84678571D02*
X120590714Y-83678571D01*
X120590714Y-83178571D02*
X120519285Y-83250000D01*
X120590714Y-83321428D01*
X120662142Y-83250000D01*
X120590714Y-83178571D01*
X120590714Y-83321428D01*
X121947857Y-84678571D02*
X121947857Y-83178571D01*
X121947857Y-84607142D02*
X121805000Y-84678571D01*
X121519285Y-84678571D01*
X121376428Y-84607142D01*
X121305000Y-84535714D01*
X121233571Y-84392857D01*
X121233571Y-83964285D01*
X121305000Y-83821428D01*
X121376428Y-83750000D01*
X121519285Y-83678571D01*
X121805000Y-83678571D01*
X121947857Y-83750000D01*
X114590714Y-55678571D02*
X115162142Y-55678571D01*
X114805000Y-55178571D02*
X114805000Y-56464285D01*
X114876428Y-56607142D01*
X115019285Y-56678571D01*
X115162142Y-56678571D01*
X115662142Y-56678571D02*
X115662142Y-55678571D01*
X115662142Y-55964285D02*
X115733571Y-55821428D01*
X115805000Y-55750000D01*
X115947857Y-55678571D01*
X116090714Y-55678571D01*
X117162142Y-56607142D02*
X117019285Y-56678571D01*
X116733571Y-56678571D01*
X116590714Y-56607142D01*
X116519285Y-56464285D01*
X116519285Y-55892857D01*
X116590714Y-55750000D01*
X116733571Y-55678571D01*
X117019285Y-55678571D01*
X117162142Y-55750000D01*
X117233571Y-55892857D01*
X117233571Y-56035714D01*
X116519285Y-56178571D01*
X117876428Y-56678571D02*
X117876428Y-55178571D01*
X117876428Y-55750000D02*
X118019285Y-55678571D01*
X118305000Y-55678571D01*
X118447857Y-55750000D01*
X118519285Y-55821428D01*
X118590714Y-55964285D01*
X118590714Y-56392857D01*
X118519285Y-56535714D01*
X118447857Y-56607142D01*
X118305000Y-56678571D01*
X118019285Y-56678571D01*
X117876428Y-56607142D01*
X119233571Y-56678571D02*
X119233571Y-55178571D01*
X119233571Y-55750000D02*
X119376428Y-55678571D01*
X119662142Y-55678571D01*
X119805000Y-55750000D01*
X119876428Y-55821428D01*
X119947857Y-55964285D01*
X119947857Y-56392857D01*
X119876428Y-56535714D01*
X119805000Y-56607142D01*
X119662142Y-56678571D01*
X119376428Y-56678571D01*
X119233571Y-56607142D01*
X120805000Y-56678571D02*
X120662142Y-56607142D01*
X120590714Y-56464285D01*
X120590714Y-55178571D01*
X121947857Y-56607142D02*
X121805000Y-56678571D01*
X121519285Y-56678571D01*
X121376428Y-56607142D01*
X121305000Y-56464285D01*
X121305000Y-55892857D01*
X121376428Y-55750000D01*
X121519285Y-55678571D01*
X121805000Y-55678571D01*
X121947857Y-55750000D01*
X122019285Y-55892857D01*
X122019285Y-56035714D01*
X121305000Y-56178571D01*
X79590714Y-55678571D02*
X80162142Y-55678571D01*
X79805000Y-55178571D02*
X79805000Y-56464285D01*
X79876428Y-56607142D01*
X80019285Y-56678571D01*
X80162142Y-56678571D01*
X80662142Y-56678571D02*
X80662142Y-55678571D01*
X80662142Y-55964285D02*
X80733571Y-55821428D01*
X80805000Y-55750000D01*
X80947857Y-55678571D01*
X81090714Y-55678571D01*
X82162142Y-56607142D02*
X82019285Y-56678571D01*
X81733571Y-56678571D01*
X81590714Y-56607142D01*
X81519285Y-56464285D01*
X81519285Y-55892857D01*
X81590714Y-55750000D01*
X81733571Y-55678571D01*
X82019285Y-55678571D01*
X82162142Y-55750000D01*
X82233571Y-55892857D01*
X82233571Y-56035714D01*
X81519285Y-56178571D01*
X82876428Y-56678571D02*
X82876428Y-55178571D01*
X82876428Y-55750000D02*
X83019285Y-55678571D01*
X83305000Y-55678571D01*
X83447857Y-55750000D01*
X83519285Y-55821428D01*
X83590714Y-55964285D01*
X83590714Y-56392857D01*
X83519285Y-56535714D01*
X83447857Y-56607142D01*
X83305000Y-56678571D01*
X83019285Y-56678571D01*
X82876428Y-56607142D01*
X84233571Y-56678571D02*
X84233571Y-55178571D01*
X84233571Y-55750000D02*
X84376428Y-55678571D01*
X84662142Y-55678571D01*
X84805000Y-55750000D01*
X84876428Y-55821428D01*
X84947857Y-55964285D01*
X84947857Y-56392857D01*
X84876428Y-56535714D01*
X84805000Y-56607142D01*
X84662142Y-56678571D01*
X84376428Y-56678571D01*
X84233571Y-56607142D01*
X85805000Y-56678571D02*
X85662142Y-56607142D01*
X85590714Y-56464285D01*
X85590714Y-55178571D01*
X86947857Y-56607142D02*
X86805000Y-56678571D01*
X86519285Y-56678571D01*
X86376428Y-56607142D01*
X86305000Y-56464285D01*
X86305000Y-55892857D01*
X86376428Y-55750000D01*
X86519285Y-55678571D01*
X86805000Y-55678571D01*
X86947857Y-55750000D01*
X87019285Y-55892857D01*
X87019285Y-56035714D01*
X86305000Y-56178571D01*
X83590714Y-84678571D02*
X83590714Y-83678571D01*
X83590714Y-83821428D02*
X83662142Y-83750000D01*
X83805000Y-83678571D01*
X84019285Y-83678571D01*
X84162142Y-83750000D01*
X84233571Y-83892857D01*
X84233571Y-84678571D01*
X84233571Y-83892857D02*
X84305000Y-83750000D01*
X84447857Y-83678571D01*
X84662142Y-83678571D01*
X84805000Y-83750000D01*
X84876428Y-83892857D01*
X84876428Y-84678571D01*
X85590714Y-84678571D02*
X85590714Y-83678571D01*
X85590714Y-83178571D02*
X85519285Y-83250000D01*
X85590714Y-83321428D01*
X85662142Y-83250000D01*
X85590714Y-83178571D01*
X85590714Y-83321428D01*
X86947857Y-84678571D02*
X86947857Y-83178571D01*
X86947857Y-84607142D02*
X86805000Y-84678571D01*
X86519285Y-84678571D01*
X86376428Y-84607142D01*
X86305000Y-84535714D01*
X86233571Y-84392857D01*
X86233571Y-83964285D01*
X86305000Y-83821428D01*
X86376428Y-83750000D01*
X86519285Y-83678571D01*
X86805000Y-83678571D01*
X86947857Y-83750000D01*
X82519285Y-112678571D02*
X82519285Y-111178571D01*
X82519285Y-111750000D02*
X82662142Y-111678571D01*
X82947857Y-111678571D01*
X83090714Y-111750000D01*
X83162142Y-111821428D01*
X83233571Y-111964285D01*
X83233571Y-112392857D01*
X83162142Y-112535714D01*
X83090714Y-112607142D01*
X82947857Y-112678571D01*
X82662142Y-112678571D01*
X82519285Y-112607142D01*
X84519285Y-112678571D02*
X84519285Y-111892857D01*
X84447857Y-111750000D01*
X84305000Y-111678571D01*
X84019285Y-111678571D01*
X83876428Y-111750000D01*
X84519285Y-112607142D02*
X84376428Y-112678571D01*
X84019285Y-112678571D01*
X83876428Y-112607142D01*
X83805000Y-112464285D01*
X83805000Y-112321428D01*
X83876428Y-112178571D01*
X84019285Y-112107142D01*
X84376428Y-112107142D01*
X84519285Y-112035714D01*
X85162142Y-112607142D02*
X85305000Y-112678571D01*
X85590714Y-112678571D01*
X85733571Y-112607142D01*
X85805000Y-112464285D01*
X85805000Y-112392857D01*
X85733571Y-112250000D01*
X85590714Y-112178571D01*
X85376428Y-112178571D01*
X85233571Y-112107142D01*
X85162142Y-111964285D01*
X85162142Y-111892857D01*
X85233571Y-111750000D01*
X85376428Y-111678571D01*
X85590714Y-111678571D01*
X85733571Y-111750000D01*
X86376428Y-112607142D02*
X86519285Y-112678571D01*
X86805000Y-112678571D01*
X86947857Y-112607142D01*
X87019285Y-112464285D01*
X87019285Y-112392857D01*
X86947857Y-112250000D01*
X86805000Y-112178571D01*
X86590714Y-112178571D01*
X86447857Y-112107142D01*
X86376428Y-111964285D01*
X86376428Y-111892857D01*
X86447857Y-111750000D01*
X86590714Y-111678571D01*
X86805000Y-111678571D01*
X86947857Y-111750000D01*
X99285714Y-126607142D02*
X99428571Y-126678571D01*
X99714285Y-126678571D01*
X99857142Y-126607142D01*
X99928571Y-126464285D01*
X99928571Y-126392857D01*
X99857142Y-126250000D01*
X99714285Y-126178571D01*
X99500000Y-126178571D01*
X99357142Y-126107142D01*
X99285714Y-125964285D01*
X99285714Y-125892857D01*
X99357142Y-125750000D01*
X99500000Y-125678571D01*
X99714285Y-125678571D01*
X99857142Y-125750000D01*
X100571428Y-126678571D02*
X100571428Y-125178571D01*
X101214285Y-126678571D02*
X101214285Y-125892857D01*
X101142857Y-125750000D01*
X101000000Y-125678571D01*
X100785714Y-125678571D01*
X100642857Y-125750000D01*
X100571428Y-125821428D01*
X101928571Y-126678571D02*
X101928571Y-125678571D01*
X101928571Y-125178571D02*
X101857142Y-125250000D01*
X101928571Y-125321428D01*
X102000000Y-125250000D01*
X101928571Y-125178571D01*
X101928571Y-125321428D01*
X102428571Y-125678571D02*
X103000000Y-125678571D01*
X102642857Y-126678571D02*
X102642857Y-125392857D01*
X102714285Y-125250000D01*
X102857142Y-125178571D01*
X103000000Y-125178571D01*
X103285714Y-125678571D02*
X103857142Y-125678571D01*
X103500000Y-125178571D02*
X103500000Y-126464285D01*
X103571428Y-126607142D01*
X103714285Y-126678571D01*
X103857142Y-126678571D01*
X170535714Y-217607142D02*
X170392857Y-217678571D01*
X170107142Y-217678571D01*
X169964285Y-217607142D01*
X169892857Y-217535714D01*
X169821428Y-217392857D01*
X169821428Y-216964285D01*
X169892857Y-216821428D01*
X169964285Y-216750000D01*
X170107142Y-216678571D01*
X170392857Y-216678571D01*
X170535714Y-216750000D01*
X171821428Y-216678571D02*
X171821428Y-217678571D01*
X171178571Y-216678571D02*
X171178571Y-217464285D01*
X171250000Y-217607142D01*
X171392857Y-217678571D01*
X171607142Y-217678571D01*
X171750000Y-217607142D01*
X171821428Y-217535714D01*
X173107142Y-217607142D02*
X172964285Y-217678571D01*
X172678571Y-217678571D01*
X172535714Y-217607142D01*
X172464285Y-217464285D01*
X172464285Y-216892857D01*
X172535714Y-216750000D01*
X172678571Y-216678571D01*
X172964285Y-216678571D01*
X173107142Y-216750000D01*
X173178571Y-216892857D01*
X173178571Y-217035714D01*
X172464285Y-217178571D01*
X37535714Y-217607142D02*
X37392857Y-217678571D01*
X37107142Y-217678571D01*
X36964285Y-217607142D01*
X36892857Y-217535714D01*
X36821428Y-217392857D01*
X36821428Y-216964285D01*
X36892857Y-216821428D01*
X36964285Y-216750000D01*
X37107142Y-216678571D01*
X37392857Y-216678571D01*
X37535714Y-216750000D01*
X38821428Y-216678571D02*
X38821428Y-217678571D01*
X38178571Y-216678571D02*
X38178571Y-217464285D01*
X38250000Y-217607142D01*
X38392857Y-217678571D01*
X38607142Y-217678571D01*
X38750000Y-217607142D01*
X38821428Y-217535714D01*
X40107142Y-217607142D02*
X39964285Y-217678571D01*
X39678571Y-217678571D01*
X39535714Y-217607142D01*
X39464285Y-217464285D01*
X39464285Y-216892857D01*
X39535714Y-216750000D01*
X39678571Y-216678571D01*
X39964285Y-216678571D01*
X40107142Y-216750000D01*
X40178571Y-216892857D01*
X40178571Y-217035714D01*
X39464285Y-217178571D01*
X36535714Y-251678571D02*
X36535714Y-253178571D01*
X36535714Y-251750000D02*
X36678571Y-251678571D01*
X36964285Y-251678571D01*
X37107142Y-251750000D01*
X37178571Y-251821428D01*
X37250000Y-251964285D01*
X37250000Y-252392857D01*
X37178571Y-252535714D01*
X37107142Y-252607142D01*
X36964285Y-252678571D01*
X36678571Y-252678571D01*
X36535714Y-252607142D01*
X38107142Y-252678571D02*
X37964285Y-252607142D01*
X37892857Y-252464285D01*
X37892857Y-251178571D01*
X39321428Y-252678571D02*
X39321428Y-251892857D01*
X39250000Y-251750000D01*
X39107142Y-251678571D01*
X38821428Y-251678571D01*
X38678571Y-251750000D01*
X39321428Y-252607142D02*
X39178571Y-252678571D01*
X38821428Y-252678571D01*
X38678571Y-252607142D01*
X38607142Y-252464285D01*
X38607142Y-252321428D01*
X38678571Y-252178571D01*
X38821428Y-252107142D01*
X39178571Y-252107142D01*
X39321428Y-252035714D01*
X39892857Y-251678571D02*
X40250000Y-252678571D01*
X40607142Y-251678571D02*
X40250000Y-252678571D01*
X40107142Y-253035714D01*
X40035714Y-253107142D01*
X39892857Y-253178571D01*
X169535714Y-251758571D02*
X169535714Y-253258571D01*
X169535714Y-251830000D02*
X169678571Y-251758571D01*
X169964285Y-251758571D01*
X170107142Y-251830000D01*
X170178571Y-251901428D01*
X170250000Y-252044285D01*
X170250000Y-252472857D01*
X170178571Y-252615714D01*
X170107142Y-252687142D01*
X169964285Y-252758571D01*
X169678571Y-252758571D01*
X169535714Y-252687142D01*
X171107142Y-252758571D02*
X170964285Y-252687142D01*
X170892857Y-252544285D01*
X170892857Y-251258571D01*
X172321428Y-252758571D02*
X172321428Y-251972857D01*
X172250000Y-251830000D01*
X172107142Y-251758571D01*
X171821428Y-251758571D01*
X171678571Y-251830000D01*
X172321428Y-252687142D02*
X172178571Y-252758571D01*
X171821428Y-252758571D01*
X171678571Y-252687142D01*
X171607142Y-252544285D01*
X171607142Y-252401428D01*
X171678571Y-252258571D01*
X171821428Y-252187142D01*
X172178571Y-252187142D01*
X172321428Y-252115714D01*
X172892857Y-251758571D02*
X173250000Y-252758571D01*
X173607142Y-251758571D02*
X173250000Y-252758571D01*
X173107142Y-253115714D01*
X173035714Y-253187142D01*
X172892857Y-253258571D01*
D12*
%TO.C,SW57*%
X138000000Y-192750000D02*
X139500000Y-192750000D01*
X142000000Y-191500000D02*
X142000000Y-187000000D01*
X139500000Y-185750000D02*
X138000000Y-185750000D01*
X135500000Y-187000000D02*
X135500000Y-191500000D01*
%TO.C,SW56*%
X117000000Y-140250000D02*
X118500000Y-140250000D01*
X121000000Y-139000000D02*
X121000000Y-134500000D01*
X118500000Y-133250000D02*
X117000000Y-133250000D01*
X114500000Y-134500000D02*
X114500000Y-139000000D01*
%TO.C,SW54*%
X118500000Y-196250000D02*
X117000000Y-196250000D01*
X114500000Y-197500000D02*
X114500000Y-202000000D01*
X117000000Y-203250000D02*
X118500000Y-203250000D01*
X121000000Y-202000000D02*
X121000000Y-197500000D01*
%TO.C,SW53*%
X61500000Y-42250000D02*
X60000000Y-42250000D01*
X57500000Y-43500000D02*
X57500000Y-48000000D01*
X60000000Y-49250000D02*
X61500000Y-49250000D01*
X64000000Y-48000000D02*
X64000000Y-43500000D01*
%TO.C,SW52*%
X39000000Y-49250000D02*
X40500000Y-49250000D01*
X43000000Y-48000000D02*
X43000000Y-43500000D01*
X40500000Y-42250000D02*
X39000000Y-42250000D01*
X36500000Y-43500000D02*
X36500000Y-48000000D01*
%TO.C,SW50*%
X169500000Y-210250000D02*
X171000000Y-210250000D01*
X173500000Y-209000000D02*
X173500000Y-204500000D01*
X171000000Y-203250000D02*
X169500000Y-203250000D01*
X167000000Y-204500000D02*
X167000000Y-209000000D01*
%TO.C,SW49*%
X101000000Y-115750000D02*
X99500000Y-115750000D01*
X97000000Y-117000000D02*
X97000000Y-121500000D01*
X99500000Y-122750000D02*
X101000000Y-122750000D01*
X103500000Y-121500000D02*
X103500000Y-117000000D01*
%TO.C,SW47*%
X39000000Y-24750000D02*
X40500000Y-24750000D01*
X43000000Y-23500000D02*
X43000000Y-19000000D01*
X40500000Y-17750000D02*
X39000000Y-17750000D01*
X36500000Y-19000000D02*
X36500000Y-23500000D01*
%TO.C,SW46*%
X16000000Y-115750000D02*
X14500000Y-115750000D01*
X12000000Y-117000000D02*
X12000000Y-121500000D01*
X14500000Y-122750000D02*
X16000000Y-122750000D01*
X18500000Y-121500000D02*
X18500000Y-117000000D01*
%TO.C,SW45*%
X18080000Y-140330000D02*
X19580000Y-140330000D01*
X22080000Y-139080000D02*
X22080000Y-134580000D01*
X19580000Y-133330000D02*
X18080000Y-133330000D01*
X15580000Y-134580000D02*
X15580000Y-139080000D01*
%TO.C,SW44*%
X178000000Y-115750000D02*
X176500000Y-115750000D01*
X174000000Y-117000000D02*
X174000000Y-121500000D01*
X176500000Y-122750000D02*
X178000000Y-122750000D01*
X180500000Y-121500000D02*
X180500000Y-117000000D01*
%TO.C,SW43*%
X181580000Y-98330000D02*
X180080000Y-98330000D01*
X177580000Y-99580000D02*
X177580000Y-104080000D01*
X180080000Y-105330000D02*
X181580000Y-105330000D01*
X184080000Y-104080000D02*
X184080000Y-99580000D01*
%TO.C,SW41*%
X180000000Y-280250000D02*
X181500000Y-280250000D01*
X184000000Y-279000000D02*
X184000000Y-274500000D01*
X181500000Y-273250000D02*
X180000000Y-273250000D01*
X177500000Y-274500000D02*
X177500000Y-279000000D01*
%TO.C,SW40*%
X82500000Y-133250000D02*
X81000000Y-133250000D01*
X78500000Y-134500000D02*
X78500000Y-139000000D01*
X81000000Y-140250000D02*
X82500000Y-140250000D01*
X85000000Y-139000000D02*
X85000000Y-134500000D01*
%TO.C,SW38*%
X160500000Y-17750000D02*
X159000000Y-17750000D01*
X156500000Y-19000000D02*
X156500000Y-23500000D01*
X159000000Y-24750000D02*
X160500000Y-24750000D01*
X163000000Y-23500000D02*
X163000000Y-19000000D01*
%TO.C,SW37*%
X160500000Y-42250000D02*
X159000000Y-42250000D01*
X156500000Y-43500000D02*
X156500000Y-48000000D01*
X159000000Y-49250000D02*
X160500000Y-49250000D01*
X163000000Y-48000000D02*
X163000000Y-43500000D01*
%TO.C,SW36*%
X138080000Y-48830000D02*
X139580000Y-48830000D01*
X142080000Y-47580000D02*
X142080000Y-43080000D01*
X139580000Y-41830000D02*
X138080000Y-41830000D01*
X135580000Y-43080000D02*
X135580000Y-47580000D01*
%TO.C,SW34*%
X169500000Y-245250000D02*
X171000000Y-245250000D01*
X173500000Y-244000000D02*
X173500000Y-239500000D01*
X171000000Y-238250000D02*
X169500000Y-238250000D01*
X167000000Y-239500000D02*
X167000000Y-244000000D01*
%TO.C,SW33*%
X82500000Y-196250000D02*
X81000000Y-196250000D01*
X78500000Y-197500000D02*
X78500000Y-202000000D01*
X81000000Y-203250000D02*
X82500000Y-203250000D01*
X85000000Y-202000000D02*
X85000000Y-197500000D01*
%TO.C,SW31*%
X18000000Y-49250000D02*
X19500000Y-49250000D01*
X22000000Y-48000000D02*
X22000000Y-43500000D01*
X19500000Y-42250000D02*
X18000000Y-42250000D01*
X15500000Y-43500000D02*
X15500000Y-48000000D01*
%TO.C,SW30*%
X18000000Y-105250000D02*
X19500000Y-105250000D01*
X22000000Y-104000000D02*
X22000000Y-99500000D01*
X19500000Y-98250000D02*
X18000000Y-98250000D01*
X15500000Y-99500000D02*
X15500000Y-104000000D01*
%TO.C,SW29*%
X139500000Y-133250000D02*
X138000000Y-133250000D01*
X135500000Y-134500000D02*
X135500000Y-139000000D01*
X138000000Y-140250000D02*
X139500000Y-140250000D01*
X142000000Y-139000000D02*
X142000000Y-134500000D01*
%TO.C,SW27*%
X61500000Y-185750000D02*
X60000000Y-185750000D01*
X57500000Y-187000000D02*
X57500000Y-191500000D01*
X60000000Y-192750000D02*
X61500000Y-192750000D01*
X64000000Y-191500000D02*
X64000000Y-187000000D01*
%TO.C,SW26*%
X181500000Y-42250000D02*
X180000000Y-42250000D01*
X177500000Y-43500000D02*
X177500000Y-48000000D01*
X180000000Y-49250000D02*
X181500000Y-49250000D01*
X184000000Y-48000000D02*
X184000000Y-43500000D01*
%TO.C,SW24*%
X60080000Y-24830000D02*
X61580000Y-24830000D01*
X64080000Y-23580000D02*
X64080000Y-19080000D01*
X61580000Y-17830000D02*
X60080000Y-17830000D01*
X57580000Y-19080000D02*
X57580000Y-23580000D01*
%TO.C,SW23*%
X21500000Y-122750000D02*
X23000000Y-122750000D01*
X25500000Y-121500000D02*
X25500000Y-117000000D01*
X23000000Y-115750000D02*
X21500000Y-115750000D01*
X19000000Y-117000000D02*
X19000000Y-121500000D01*
%TO.C,SW22*%
X183500000Y-122750000D02*
X185000000Y-122750000D01*
X187500000Y-121500000D02*
X187500000Y-117000000D01*
X185000000Y-115750000D02*
X183500000Y-115750000D01*
X181000000Y-117000000D02*
X181000000Y-121500000D01*
%TO.C,SW21*%
X139500000Y-17750000D02*
X138000000Y-17750000D01*
X135500000Y-19000000D02*
X135500000Y-23500000D01*
X138000000Y-24750000D02*
X139500000Y-24750000D01*
X142000000Y-23500000D02*
X142000000Y-19000000D01*
%TO.C,SW19*%
X37000000Y-203250000D02*
X35500000Y-203250000D01*
X33000000Y-204500000D02*
X33000000Y-209000000D01*
X35500000Y-210250000D02*
X37000000Y-210250000D01*
X39500000Y-209000000D02*
X39500000Y-204500000D01*
%TO.C,SW15*%
X16000000Y-17750000D02*
X14500000Y-17750000D01*
X12000000Y-19000000D02*
X12000000Y-23500000D01*
X14500000Y-24750000D02*
X16000000Y-24750000D01*
X18500000Y-23500000D02*
X18500000Y-19000000D01*
%TO.C,SW14*%
X60000000Y-140250000D02*
X61500000Y-140250000D01*
X64000000Y-139000000D02*
X64000000Y-134500000D01*
X61500000Y-133250000D02*
X60000000Y-133250000D01*
X57500000Y-134500000D02*
X57500000Y-139000000D01*
%TO.C,SW12*%
X159000000Y-280250000D02*
X160500000Y-280250000D01*
X163000000Y-279000000D02*
X163000000Y-274500000D01*
X160500000Y-273250000D02*
X159000000Y-273250000D01*
X156500000Y-274500000D02*
X156500000Y-279000000D01*
%TO.C,SW11*%
X160500000Y-133250000D02*
X159000000Y-133250000D01*
X156500000Y-134500000D02*
X156500000Y-139000000D01*
X159000000Y-140250000D02*
X160500000Y-140250000D01*
X163000000Y-139000000D02*
X163000000Y-134500000D01*
%TO.C,SW9*%
X183500000Y-24750000D02*
X185000000Y-24750000D01*
X187500000Y-23500000D02*
X187500000Y-19000000D01*
X185000000Y-17750000D02*
X183500000Y-17750000D01*
X181000000Y-19000000D02*
X181000000Y-23500000D01*
%TO.C,SW7*%
X21500000Y-24750000D02*
X23000000Y-24750000D01*
X25500000Y-23500000D02*
X25500000Y-19000000D01*
X23000000Y-17750000D02*
X21500000Y-17750000D01*
X19000000Y-19000000D02*
X19000000Y-23500000D01*
%TO.C,SW5*%
X37000000Y-238250000D02*
X35500000Y-238250000D01*
X33000000Y-239500000D02*
X33000000Y-244000000D01*
X35500000Y-245250000D02*
X37000000Y-245250000D01*
X39500000Y-244000000D02*
X39500000Y-239500000D01*
%TO.C,SW4*%
X39000000Y-140250000D02*
X40500000Y-140250000D01*
X43000000Y-139000000D02*
X43000000Y-134500000D01*
X40500000Y-133250000D02*
X39000000Y-133250000D01*
X36500000Y-134500000D02*
X36500000Y-139000000D01*
%TO.C,SW2*%
X181500000Y-133250000D02*
X180000000Y-133250000D01*
X177500000Y-134500000D02*
X177500000Y-139000000D01*
X180000000Y-140250000D02*
X181500000Y-140250000D01*
X184000000Y-139000000D02*
X184000000Y-134500000D01*
%TO.C,SW1*%
X178000000Y-17750000D02*
X176500000Y-17750000D01*
X174000000Y-19000000D02*
X174000000Y-23500000D01*
X176500000Y-24750000D02*
X178000000Y-24750000D01*
X180500000Y-23500000D02*
X180500000Y-19000000D01*
%TO.C,D16*%
X9420000Y-46170000D02*
X9264000Y-46170000D01*
X11736000Y-46170000D02*
X11580000Y-46170000D01*
X9420163Y-48771130D02*
G75*
G02*
X9420000Y-46689039I1079837J1041130D01*
G01*
X11579837Y-48771130D02*
G75*
G03*
X11580000Y-46689039I-1079837J1041130D01*
G01*
X9421392Y-49402335D02*
G75*
G02*
X9264484Y-46170000I1078608J1672335D01*
G01*
X11578608Y-49402335D02*
G75*
G03*
X11735516Y-46170000I-1078608J1672335D01*
G01*
%TO.C,D15*%
X30420000Y-21670000D02*
X30264000Y-21670000D01*
X32736000Y-21670000D02*
X32580000Y-21670000D01*
X30420163Y-24271130D02*
G75*
G02*
X30420000Y-22189039I1079837J1041130D01*
G01*
X32579837Y-24271130D02*
G75*
G03*
X32580000Y-22189039I-1079837J1041130D01*
G01*
X30421392Y-24902335D02*
G75*
G02*
X30264484Y-21670000I1078608J1672335D01*
G01*
X32578608Y-24902335D02*
G75*
G03*
X32735516Y-21670000I-1078608J1672335D01*
G01*
%TO.C,D14*%
X30420000Y-46170000D02*
X30264000Y-46170000D01*
X32736000Y-46170000D02*
X32580000Y-46170000D01*
X30420163Y-48771130D02*
G75*
G02*
X30420000Y-46689039I1079837J1041130D01*
G01*
X32579837Y-48771130D02*
G75*
G03*
X32580000Y-46689039I-1079837J1041130D01*
G01*
X30421392Y-49402335D02*
G75*
G02*
X30264484Y-46170000I1078608J1672335D01*
G01*
X32578608Y-49402335D02*
G75*
G03*
X32735516Y-46170000I-1078608J1672335D01*
G01*
%TO.C,D13*%
X51500000Y-21750000D02*
X51344000Y-21750000D01*
X53816000Y-21750000D02*
X53660000Y-21750000D01*
X51500163Y-24351130D02*
G75*
G02*
X51500000Y-22269039I1079837J1041130D01*
G01*
X53659837Y-24351130D02*
G75*
G03*
X53660000Y-22269039I-1079837J1041130D01*
G01*
X51501392Y-24982335D02*
G75*
G02*
X51344484Y-21750000I1078608J1672335D01*
G01*
X53658608Y-24982335D02*
G75*
G03*
X53815516Y-21750000I-1078608J1672335D01*
G01*
%TO.C,D12*%
X145920000Y-21670000D02*
X145764000Y-21670000D01*
X148236000Y-21670000D02*
X148080000Y-21670000D01*
X145920163Y-24271130D02*
G75*
G02*
X145920000Y-22189039I1079837J1041130D01*
G01*
X148079837Y-24271130D02*
G75*
G03*
X148080000Y-22189039I-1079837J1041130D01*
G01*
X145921392Y-24902335D02*
G75*
G02*
X145764484Y-21670000I1078608J1672335D01*
G01*
X148078608Y-24902335D02*
G75*
G03*
X148235516Y-21670000I-1078608J1672335D01*
G01*
%TO.C,D11*%
X166920000Y-21670000D02*
X166764000Y-21670000D01*
X169236000Y-21670000D02*
X169080000Y-21670000D01*
X166920163Y-24271130D02*
G75*
G02*
X166920000Y-22189039I1079837J1041130D01*
G01*
X169079837Y-24271130D02*
G75*
G03*
X169080000Y-22189039I-1079837J1041130D01*
G01*
X166921392Y-24902335D02*
G75*
G02*
X166764484Y-21670000I1078608J1672335D01*
G01*
X169078608Y-24902335D02*
G75*
G03*
X169235516Y-21670000I-1078608J1672335D01*
G01*
%TO.C,D10*%
X166920000Y-46170000D02*
X166764000Y-46170000D01*
X169236000Y-46170000D02*
X169080000Y-46170000D01*
X166920163Y-48771130D02*
G75*
G02*
X166920000Y-46689039I1079837J1041130D01*
G01*
X169079837Y-48771130D02*
G75*
G03*
X169080000Y-46689039I-1079837J1041130D01*
G01*
X166921392Y-49402335D02*
G75*
G02*
X166764484Y-46170000I1078608J1672335D01*
G01*
X169078608Y-49402335D02*
G75*
G03*
X169235516Y-46170000I-1078608J1672335D01*
G01*
%TO.C,D9*%
X145920000Y-46170000D02*
X145764000Y-46170000D01*
X148236000Y-46170000D02*
X148080000Y-46170000D01*
X145920163Y-48771130D02*
G75*
G02*
X145920000Y-46689039I1079837J1041130D01*
G01*
X148079837Y-48771130D02*
G75*
G03*
X148080000Y-46689039I-1079837J1041130D01*
G01*
X145921392Y-49402335D02*
G75*
G02*
X145764484Y-46170000I1078608J1672335D01*
G01*
X148078608Y-49402335D02*
G75*
G03*
X148235516Y-46170000I-1078608J1672335D01*
G01*
%TO.C,D8*%
X101210000Y-211080000D02*
X101210000Y-211236000D01*
X101210000Y-208764000D02*
X101210000Y-208920000D01*
X103811130Y-211079837D02*
G75*
G02*
X101729039Y-211080000I-1041130J1079837D01*
G01*
X103811130Y-208920163D02*
G75*
G03*
X101729039Y-208920000I-1041130J-1079837D01*
G01*
X104442335Y-211078608D02*
G75*
G02*
X101210000Y-211235516I-1672335J1078608D01*
G01*
X104442335Y-208921392D02*
G75*
G03*
X101210000Y-208764484I-1672335J-1078608D01*
G01*
%TO.C,D7*%
X101210000Y-218080000D02*
X101210000Y-218236000D01*
X101210000Y-215764000D02*
X101210000Y-215920000D01*
X103811130Y-218079837D02*
G75*
G02*
X101729039Y-218080000I-1041130J1079837D01*
G01*
X103811130Y-215920163D02*
G75*
G03*
X101729039Y-215920000I-1041130J-1079837D01*
G01*
X104442335Y-218078608D02*
G75*
G02*
X101210000Y-218235516I-1672335J1078608D01*
G01*
X104442335Y-215921392D02*
G75*
G03*
X101210000Y-215764484I-1672335J-1078608D01*
G01*
%TO.C,D6*%
X101210000Y-225080000D02*
X101210000Y-225236000D01*
X101210000Y-222764000D02*
X101210000Y-222920000D01*
X103811130Y-225079837D02*
G75*
G02*
X101729039Y-225080000I-1041130J1079837D01*
G01*
X103811130Y-222920163D02*
G75*
G03*
X101729039Y-222920000I-1041130J-1079837D01*
G01*
X104442335Y-225078608D02*
G75*
G02*
X101210000Y-225235516I-1672335J1078608D01*
G01*
X104442335Y-222921392D02*
G75*
G03*
X101210000Y-222764484I-1672335J-1078608D01*
G01*
%TO.C,D5*%
X101210000Y-232080000D02*
X101210000Y-232236000D01*
X101210000Y-229764000D02*
X101210000Y-229920000D01*
X103811130Y-232079837D02*
G75*
G02*
X101729039Y-232080000I-1041130J1079837D01*
G01*
X103811130Y-229920163D02*
G75*
G03*
X101729039Y-229920000I-1041130J-1079837D01*
G01*
X104442335Y-232078608D02*
G75*
G02*
X101210000Y-232235516I-1672335J1078608D01*
G01*
X104442335Y-229921392D02*
G75*
G03*
X101210000Y-229764484I-1672335J-1078608D01*
G01*
%TO.C,D4*%
X101210000Y-239080000D02*
X101210000Y-239236000D01*
X101210000Y-236764000D02*
X101210000Y-236920000D01*
X103811130Y-239079837D02*
G75*
G02*
X101729039Y-239080000I-1041130J1079837D01*
G01*
X103811130Y-236920163D02*
G75*
G03*
X101729039Y-236920000I-1041130J-1079837D01*
G01*
X104442335Y-239078608D02*
G75*
G02*
X101210000Y-239235516I-1672335J1078608D01*
G01*
X104442335Y-236921392D02*
G75*
G03*
X101210000Y-236764484I-1672335J-1078608D01*
G01*
%TO.C,D3*%
X101210000Y-246080000D02*
X101210000Y-246236000D01*
X101210000Y-243764000D02*
X101210000Y-243920000D01*
X103811130Y-246079837D02*
G75*
G02*
X101729039Y-246080000I-1041130J1079837D01*
G01*
X103811130Y-243920163D02*
G75*
G03*
X101729039Y-243920000I-1041130J-1079837D01*
G01*
X104442335Y-246078608D02*
G75*
G02*
X101210000Y-246235516I-1672335J1078608D01*
G01*
X104442335Y-243921392D02*
G75*
G03*
X101210000Y-243764484I-1672335J-1078608D01*
G01*
%TO.C,D2*%
X101210000Y-253080000D02*
X101210000Y-253236000D01*
X101210000Y-250764000D02*
X101210000Y-250920000D01*
X103811130Y-253079837D02*
G75*
G02*
X101729039Y-253080000I-1041130J1079837D01*
G01*
X103811130Y-250920163D02*
G75*
G03*
X101729039Y-250920000I-1041130J-1079837D01*
G01*
X104442335Y-253078608D02*
G75*
G02*
X101210000Y-253235516I-1672335J1078608D01*
G01*
X104442335Y-250921392D02*
G75*
G03*
X101210000Y-250764484I-1672335J-1078608D01*
G01*
%TO.C,D1*%
X101210000Y-260080000D02*
X101210000Y-260236000D01*
X101210000Y-257764000D02*
X101210000Y-257920000D01*
X103811130Y-260079837D02*
G75*
G02*
X101729039Y-260080000I-1041130J1079837D01*
G01*
X103811130Y-257920163D02*
G75*
G03*
X101729039Y-257920000I-1041130J-1079837D01*
G01*
X104442335Y-260078608D02*
G75*
G02*
X101210000Y-260235516I-1672335J1078608D01*
G01*
X104442335Y-257921392D02*
G75*
G03*
X101210000Y-257764484I-1672335J-1078608D01*
G01*
D13*
%TO.C,L5*%
X38320000Y-162065000D02*
G75*
G03*
X38320000Y-162065000I-100000J0D01*
G01*
D14*
X37335000Y-160205000D02*
X37335000Y-153855000D01*
X56885000Y-160205000D02*
X56885000Y-153855000D01*
D12*
%TO.C,SW58*%
X85740000Y-164840000D02*
X85740000Y-173240000D01*
X77340000Y-164840000D02*
X85740000Y-164840000D01*
X77340000Y-173240000D02*
X77340000Y-164840000D01*
X85740000Y-173240000D02*
X77340000Y-173240000D01*
%TO.C,SW55*%
X64740000Y-164840000D02*
X64740000Y-173240000D01*
X56340000Y-164840000D02*
X64740000Y-164840000D01*
X56340000Y-173240000D02*
X56340000Y-164840000D01*
X64740000Y-173240000D02*
X56340000Y-173240000D01*
%TO.C,SW51*%
X43740000Y-164840000D02*
X43740000Y-173240000D01*
X35340000Y-164840000D02*
X43740000Y-164840000D01*
X35340000Y-173240000D02*
X35340000Y-164840000D01*
X43740000Y-173240000D02*
X35340000Y-173240000D01*
%TO.C,SW48*%
X22740000Y-164840000D02*
X22740000Y-173240000D01*
X14340000Y-164840000D02*
X22740000Y-164840000D01*
X14340000Y-173240000D02*
X14340000Y-164840000D01*
X22740000Y-173240000D02*
X14340000Y-173240000D01*
%TO.C,SW42*%
X85660000Y-143760000D02*
X85660000Y-152160000D01*
X77260000Y-143760000D02*
X85660000Y-143760000D01*
X77260000Y-152160000D02*
X77260000Y-143760000D01*
X85660000Y-152160000D02*
X77260000Y-152160000D01*
%TO.C,SW39*%
X64660000Y-143760000D02*
X64660000Y-152160000D01*
X56260000Y-143760000D02*
X64660000Y-143760000D01*
X56260000Y-152160000D02*
X56260000Y-143760000D01*
X64660000Y-152160000D02*
X56260000Y-152160000D01*
%TO.C,SW35*%
X22660000Y-143760000D02*
X22660000Y-152160000D01*
X14260000Y-143760000D02*
X22660000Y-143760000D01*
X14260000Y-152160000D02*
X14260000Y-143760000D01*
X22660000Y-152160000D02*
X14260000Y-152160000D01*
%TO.C,SW32*%
X43660000Y-143760000D02*
X43660000Y-152160000D01*
X35260000Y-143760000D02*
X43660000Y-143760000D01*
X35260000Y-152160000D02*
X35260000Y-143760000D01*
X43660000Y-152160000D02*
X35260000Y-152160000D01*
%TO.C,SW28*%
X176840000Y-173160000D02*
X176840000Y-164760000D01*
X185240000Y-173160000D02*
X176840000Y-173160000D01*
X185240000Y-164760000D02*
X185240000Y-173160000D01*
X176840000Y-164760000D02*
X185240000Y-164760000D01*
%TO.C,SW25*%
X155840000Y-173160000D02*
X155840000Y-164760000D01*
X164240000Y-173160000D02*
X155840000Y-173160000D01*
X164240000Y-164760000D02*
X164240000Y-173160000D01*
X155840000Y-164760000D02*
X164240000Y-164760000D01*
%TO.C,SW20*%
X134840000Y-173160000D02*
X134840000Y-164760000D01*
X143240000Y-173160000D02*
X134840000Y-173160000D01*
X143240000Y-164760000D02*
X143240000Y-173160000D01*
X134840000Y-164760000D02*
X143240000Y-164760000D01*
%TO.C,SW17*%
X113840000Y-173160000D02*
X113840000Y-164760000D01*
X122240000Y-173160000D02*
X113840000Y-173160000D01*
X122240000Y-164760000D02*
X122240000Y-173160000D01*
X113840000Y-164760000D02*
X122240000Y-164760000D01*
%TO.C,SW13*%
X176840000Y-152160000D02*
X176840000Y-143760000D01*
X185240000Y-152160000D02*
X176840000Y-152160000D01*
X185240000Y-143760000D02*
X185240000Y-152160000D01*
X176840000Y-143760000D02*
X185240000Y-143760000D01*
%TO.C,SW10*%
X155840000Y-152160000D02*
X155840000Y-143760000D01*
X164240000Y-152160000D02*
X155840000Y-152160000D01*
X164240000Y-143760000D02*
X164240000Y-152160000D01*
X155840000Y-143760000D02*
X164240000Y-143760000D01*
%TO.C,SW6*%
X113840000Y-152160000D02*
X113840000Y-143760000D01*
X122240000Y-152160000D02*
X113840000Y-152160000D01*
X122240000Y-143760000D02*
X122240000Y-152160000D01*
X113840000Y-143760000D02*
X122240000Y-143760000D01*
%TO.C,SW3*%
X134920000Y-152240000D02*
X134920000Y-143840000D01*
X143320000Y-152240000D02*
X134920000Y-152240000D01*
X143320000Y-143840000D02*
X143320000Y-152240000D01*
X134920000Y-143840000D02*
X143320000Y-143840000D01*
%TO.C,R72*%
X28000000Y-149460000D02*
X28000000Y-148690000D01*
X28000000Y-141380000D02*
X28000000Y-142150000D01*
X29370000Y-148690000D02*
X29370000Y-142150000D01*
X26630000Y-148690000D02*
X29370000Y-148690000D01*
X26630000Y-142150000D02*
X26630000Y-148690000D01*
X29370000Y-142150000D02*
X26630000Y-142150000D01*
%TO.C,R71*%
X192500000Y-141380000D02*
X192500000Y-142150000D01*
X192500000Y-149460000D02*
X192500000Y-148690000D01*
X191130000Y-142150000D02*
X191130000Y-148690000D01*
X193870000Y-142150000D02*
X191130000Y-142150000D01*
X193870000Y-148690000D02*
X193870000Y-142150000D01*
X191130000Y-148690000D02*
X193870000Y-148690000D01*
%TO.C,R70*%
X7080000Y-149540000D02*
X7080000Y-148770000D01*
X7080000Y-141460000D02*
X7080000Y-142230000D01*
X8450000Y-148770000D02*
X8450000Y-142230000D01*
X5710000Y-148770000D02*
X8450000Y-148770000D01*
X5710000Y-142230000D02*
X5710000Y-148770000D01*
X8450000Y-142230000D02*
X5710000Y-142230000D01*
%TO.C,R69*%
X171500000Y-141380000D02*
X171500000Y-142150000D01*
X171500000Y-149460000D02*
X171500000Y-148690000D01*
X170130000Y-142150000D02*
X170130000Y-148690000D01*
X172870000Y-142150000D02*
X170130000Y-142150000D01*
X172870000Y-148690000D02*
X172870000Y-142150000D01*
X170130000Y-148690000D02*
X172870000Y-148690000D01*
%TO.C,R68*%
X49000000Y-149460000D02*
X49000000Y-148690000D01*
X49000000Y-141380000D02*
X49000000Y-142150000D01*
X50370000Y-148690000D02*
X50370000Y-142150000D01*
X47630000Y-148690000D02*
X50370000Y-148690000D01*
X47630000Y-142150000D02*
X47630000Y-148690000D01*
X50370000Y-142150000D02*
X47630000Y-142150000D01*
%TO.C,R67*%
X129500000Y-141380000D02*
X129500000Y-142150000D01*
X129500000Y-149460000D02*
X129500000Y-148690000D01*
X128130000Y-142150000D02*
X128130000Y-148690000D01*
X130870000Y-142150000D02*
X128130000Y-142150000D01*
X130870000Y-148690000D02*
X130870000Y-142150000D01*
X128130000Y-148690000D02*
X130870000Y-148690000D01*
%TO.C,R66*%
X70000000Y-149460000D02*
X70000000Y-148690000D01*
X70000000Y-141380000D02*
X70000000Y-142150000D01*
X71370000Y-148690000D02*
X71370000Y-142150000D01*
X68630000Y-148690000D02*
X71370000Y-148690000D01*
X68630000Y-142150000D02*
X68630000Y-148690000D01*
X71370000Y-142150000D02*
X68630000Y-142150000D01*
%TO.C,R65*%
X150500000Y-141380000D02*
X150500000Y-142150000D01*
X150500000Y-149460000D02*
X150500000Y-148690000D01*
X149130000Y-142150000D02*
X149130000Y-148690000D01*
X151870000Y-142150000D02*
X149130000Y-142150000D01*
X151870000Y-148690000D02*
X151870000Y-142150000D01*
X149130000Y-148690000D02*
X151870000Y-148690000D01*
%TO.C,R64*%
X10580000Y-165960000D02*
X10580000Y-166730000D01*
X10580000Y-174040000D02*
X10580000Y-173270000D01*
X9210000Y-166730000D02*
X9210000Y-173270000D01*
X11950000Y-166730000D02*
X9210000Y-166730000D01*
X11950000Y-173270000D02*
X11950000Y-166730000D01*
X9210000Y-173270000D02*
X11950000Y-173270000D01*
%TO.C,R63*%
X189000000Y-173960000D02*
X189000000Y-173190000D01*
X189000000Y-165880000D02*
X189000000Y-166650000D01*
X190370000Y-173190000D02*
X190370000Y-166650000D01*
X187630000Y-173190000D02*
X190370000Y-173190000D01*
X187630000Y-166650000D02*
X187630000Y-173190000D01*
X190370000Y-166650000D02*
X187630000Y-166650000D01*
%TO.C,R62*%
X31580000Y-165960000D02*
X31580000Y-166730000D01*
X31580000Y-174040000D02*
X31580000Y-173270000D01*
X30210000Y-166730000D02*
X30210000Y-173270000D01*
X32950000Y-166730000D02*
X30210000Y-166730000D01*
X32950000Y-173270000D02*
X32950000Y-166730000D01*
X30210000Y-173270000D02*
X32950000Y-173270000D01*
%TO.C,R61*%
X168000000Y-173960000D02*
X168000000Y-173190000D01*
X168000000Y-165880000D02*
X168000000Y-166650000D01*
X169370000Y-173190000D02*
X169370000Y-166650000D01*
X166630000Y-173190000D02*
X169370000Y-173190000D01*
X166630000Y-166650000D02*
X166630000Y-173190000D01*
X169370000Y-166650000D02*
X166630000Y-166650000D01*
%TO.C,R60*%
X52580000Y-165960000D02*
X52580000Y-166730000D01*
X52580000Y-174040000D02*
X52580000Y-173270000D01*
X51210000Y-166730000D02*
X51210000Y-173270000D01*
X53950000Y-166730000D02*
X51210000Y-166730000D01*
X53950000Y-173270000D02*
X53950000Y-166730000D01*
X51210000Y-173270000D02*
X53950000Y-173270000D01*
%TO.C,R59*%
X147000000Y-173960000D02*
X147000000Y-173190000D01*
X147000000Y-165880000D02*
X147000000Y-166650000D01*
X148370000Y-173190000D02*
X148370000Y-166650000D01*
X145630000Y-173190000D02*
X148370000Y-173190000D01*
X145630000Y-166650000D02*
X145630000Y-173190000D01*
X148370000Y-166650000D02*
X145630000Y-166650000D01*
%TO.C,R58*%
X73580000Y-165960000D02*
X73580000Y-166730000D01*
X73580000Y-174040000D02*
X73580000Y-173270000D01*
X72210000Y-166730000D02*
X72210000Y-173270000D01*
X74950000Y-166730000D02*
X72210000Y-166730000D01*
X74950000Y-173270000D02*
X74950000Y-166730000D01*
X72210000Y-173270000D02*
X74950000Y-173270000D01*
%TO.C,R57*%
X126000000Y-173960000D02*
X126000000Y-173190000D01*
X126000000Y-165880000D02*
X126000000Y-166650000D01*
X127370000Y-173190000D02*
X127370000Y-166650000D01*
X124630000Y-173190000D02*
X127370000Y-173190000D01*
X124630000Y-166650000D02*
X124630000Y-173190000D01*
X127370000Y-166650000D02*
X124630000Y-166650000D01*
%TO.C,R56*%
X87580000Y-165960000D02*
X87580000Y-166730000D01*
X87580000Y-174040000D02*
X87580000Y-173270000D01*
X86210000Y-166730000D02*
X86210000Y-173270000D01*
X88950000Y-166730000D02*
X86210000Y-166730000D01*
X88950000Y-173270000D02*
X88950000Y-166730000D01*
X86210000Y-173270000D02*
X88950000Y-173270000D01*
%TO.C,R55*%
X66580000Y-165960000D02*
X66580000Y-166730000D01*
X66580000Y-174040000D02*
X66580000Y-173270000D01*
X65210000Y-166730000D02*
X65210000Y-173270000D01*
X67950000Y-166730000D02*
X65210000Y-166730000D01*
X67950000Y-173270000D02*
X67950000Y-166730000D01*
X65210000Y-173270000D02*
X67950000Y-173270000D01*
%TO.C,R54*%
X45580000Y-165960000D02*
X45580000Y-166730000D01*
X45580000Y-174040000D02*
X45580000Y-173270000D01*
X44210000Y-166730000D02*
X44210000Y-173270000D01*
X46950000Y-166730000D02*
X44210000Y-166730000D01*
X46950000Y-173270000D02*
X46950000Y-166730000D01*
X44210000Y-173270000D02*
X46950000Y-173270000D01*
%TO.C,R53*%
X24580000Y-165960000D02*
X24580000Y-166730000D01*
X24580000Y-174040000D02*
X24580000Y-173270000D01*
X23210000Y-166730000D02*
X23210000Y-173270000D01*
X25950000Y-166730000D02*
X23210000Y-166730000D01*
X25950000Y-173270000D02*
X25950000Y-166730000D01*
X23210000Y-173270000D02*
X25950000Y-173270000D01*
%TO.C,R52*%
X87500000Y-149460000D02*
X87500000Y-148690000D01*
X87500000Y-141380000D02*
X87500000Y-142150000D01*
X88870000Y-148690000D02*
X88870000Y-142150000D01*
X86130000Y-148690000D02*
X88870000Y-148690000D01*
X86130000Y-142150000D02*
X86130000Y-148690000D01*
X88870000Y-142150000D02*
X86130000Y-142150000D01*
%TO.C,R51*%
X66500000Y-149460000D02*
X66500000Y-148690000D01*
X66500000Y-141380000D02*
X66500000Y-142150000D01*
X67870000Y-148690000D02*
X67870000Y-142150000D01*
X65130000Y-148690000D02*
X67870000Y-148690000D01*
X65130000Y-142150000D02*
X65130000Y-148690000D01*
X67870000Y-142150000D02*
X65130000Y-142150000D01*
%TO.C,R50*%
X24500000Y-149460000D02*
X24500000Y-148690000D01*
X24500000Y-141380000D02*
X24500000Y-142150000D01*
X25870000Y-148690000D02*
X25870000Y-142150000D01*
X23130000Y-148690000D02*
X25870000Y-148690000D01*
X23130000Y-142150000D02*
X23130000Y-148690000D01*
X25870000Y-142150000D02*
X23130000Y-142150000D01*
%TO.C,R49*%
X45500000Y-149460000D02*
X45500000Y-148690000D01*
X45500000Y-141380000D02*
X45500000Y-142150000D01*
X46870000Y-148690000D02*
X46870000Y-142150000D01*
X44130000Y-148690000D02*
X46870000Y-148690000D01*
X44130000Y-142150000D02*
X44130000Y-148690000D01*
X46870000Y-142150000D02*
X44130000Y-142150000D01*
%TO.C,R40*%
X175000000Y-165880000D02*
X175000000Y-166650000D01*
X175000000Y-173960000D02*
X175000000Y-173190000D01*
X173630000Y-166650000D02*
X173630000Y-173190000D01*
X176370000Y-166650000D02*
X173630000Y-166650000D01*
X176370000Y-173190000D02*
X176370000Y-166650000D01*
X173630000Y-173190000D02*
X176370000Y-173190000D01*
%TO.C,R39*%
X154000000Y-165880000D02*
X154000000Y-166650000D01*
X154000000Y-173960000D02*
X154000000Y-173190000D01*
X152630000Y-166650000D02*
X152630000Y-173190000D01*
X155370000Y-166650000D02*
X152630000Y-166650000D01*
X155370000Y-173190000D02*
X155370000Y-166650000D01*
X152630000Y-173190000D02*
X155370000Y-173190000D01*
%TO.C,R38*%
X133000000Y-165880000D02*
X133000000Y-166650000D01*
X133000000Y-173960000D02*
X133000000Y-173190000D01*
X131630000Y-166650000D02*
X131630000Y-173190000D01*
X134370000Y-166650000D02*
X131630000Y-166650000D01*
X134370000Y-173190000D02*
X134370000Y-166650000D01*
X131630000Y-173190000D02*
X134370000Y-173190000D01*
%TO.C,R37*%
X112000000Y-165880000D02*
X112000000Y-166650000D01*
X112000000Y-173960000D02*
X112000000Y-173190000D01*
X110630000Y-166650000D02*
X110630000Y-173190000D01*
X113370000Y-166650000D02*
X110630000Y-166650000D01*
X113370000Y-173190000D02*
X113370000Y-166650000D01*
X110630000Y-173190000D02*
X113370000Y-173190000D01*
%TO.C,R36*%
X175000000Y-149460000D02*
X175000000Y-148690000D01*
X175000000Y-141380000D02*
X175000000Y-142150000D01*
X176370000Y-148690000D02*
X176370000Y-142150000D01*
X173630000Y-148690000D02*
X176370000Y-148690000D01*
X173630000Y-142150000D02*
X173630000Y-148690000D01*
X176370000Y-142150000D02*
X173630000Y-142150000D01*
%TO.C,R35*%
X154000000Y-149460000D02*
X154000000Y-148690000D01*
X154000000Y-141380000D02*
X154000000Y-142150000D01*
X155370000Y-148690000D02*
X155370000Y-142150000D01*
X152630000Y-148690000D02*
X155370000Y-148690000D01*
X152630000Y-142150000D02*
X152630000Y-148690000D01*
X155370000Y-142150000D02*
X152630000Y-142150000D01*
%TO.C,R34*%
X112000000Y-149460000D02*
X112000000Y-148690000D01*
X112000000Y-141380000D02*
X112000000Y-142150000D01*
X113370000Y-148690000D02*
X113370000Y-142150000D01*
X110630000Y-148690000D02*
X113370000Y-148690000D01*
X110630000Y-142150000D02*
X110630000Y-148690000D01*
X113370000Y-142150000D02*
X110630000Y-142150000D01*
%TO.C,R33*%
X133000000Y-149460000D02*
X133000000Y-148690000D01*
X133000000Y-141380000D02*
X133000000Y-142150000D01*
X134370000Y-148690000D02*
X134370000Y-142150000D01*
X131630000Y-148690000D02*
X134370000Y-148690000D01*
X131630000Y-142150000D02*
X131630000Y-148690000D01*
X134370000Y-142150000D02*
X131630000Y-142150000D01*
D13*
%TO.C,L4*%
X78715000Y-241500000D02*
G75*
G03*
X78715000Y-241500000I-100000J0D01*
G01*
D14*
X76755000Y-242385000D02*
X70405000Y-242385000D01*
X76755000Y-222835000D02*
X70405000Y-222835000D01*
%TO.C,L6*%
X56885000Y-121705000D02*
X56885000Y-115355000D01*
X37335000Y-121705000D02*
X37335000Y-115355000D01*
D13*
X38320000Y-123565000D02*
G75*
G03*
X38320000Y-123565000I-100000J0D01*
G01*
D14*
%TO.C,L3*%
X129645000Y-222835000D02*
X123295000Y-222835000D01*
X129645000Y-242385000D02*
X123295000Y-242385000D01*
D13*
X131605000Y-241500000D02*
G75*
G03*
X131605000Y-241500000I-100000J0D01*
G01*
D12*
%TO.C,R24*%
X89960000Y-210000000D02*
X89190000Y-210000000D01*
X81880000Y-210000000D02*
X82650000Y-210000000D01*
X89190000Y-208630000D02*
X82650000Y-208630000D01*
X89190000Y-211370000D02*
X89190000Y-208630000D01*
X82650000Y-211370000D02*
X89190000Y-211370000D01*
X82650000Y-208630000D02*
X82650000Y-211370000D01*
%TO.C,R23*%
X89960000Y-217000000D02*
X89190000Y-217000000D01*
X81880000Y-217000000D02*
X82650000Y-217000000D01*
X89190000Y-215630000D02*
X82650000Y-215630000D01*
X89190000Y-218370000D02*
X89190000Y-215630000D01*
X82650000Y-218370000D02*
X89190000Y-218370000D01*
X82650000Y-215630000D02*
X82650000Y-218370000D01*
%TO.C,R22*%
X89960000Y-224000000D02*
X89190000Y-224000000D01*
X81880000Y-224000000D02*
X82650000Y-224000000D01*
X89190000Y-222630000D02*
X82650000Y-222630000D01*
X89190000Y-225370000D02*
X89190000Y-222630000D01*
X82650000Y-225370000D02*
X89190000Y-225370000D01*
X82650000Y-222630000D02*
X82650000Y-225370000D01*
%TO.C,R21*%
X89960000Y-231000000D02*
X89190000Y-231000000D01*
X81880000Y-231000000D02*
X82650000Y-231000000D01*
X89190000Y-229630000D02*
X82650000Y-229630000D01*
X89190000Y-232370000D02*
X89190000Y-229630000D01*
X82650000Y-232370000D02*
X89190000Y-232370000D01*
X82650000Y-229630000D02*
X82650000Y-232370000D01*
%TO.C,R20*%
X89960000Y-238000000D02*
X89190000Y-238000000D01*
X81880000Y-238000000D02*
X82650000Y-238000000D01*
X89190000Y-236630000D02*
X82650000Y-236630000D01*
X89190000Y-239370000D02*
X89190000Y-236630000D01*
X82650000Y-239370000D02*
X89190000Y-239370000D01*
X82650000Y-236630000D02*
X82650000Y-239370000D01*
%TO.C,R19*%
X89960000Y-245000000D02*
X89190000Y-245000000D01*
X81880000Y-245000000D02*
X82650000Y-245000000D01*
X89190000Y-243630000D02*
X82650000Y-243630000D01*
X89190000Y-246370000D02*
X89190000Y-243630000D01*
X82650000Y-246370000D02*
X89190000Y-246370000D01*
X82650000Y-243630000D02*
X82650000Y-246370000D01*
%TO.C,R18*%
X89960000Y-252000000D02*
X89190000Y-252000000D01*
X81880000Y-252000000D02*
X82650000Y-252000000D01*
X89190000Y-250630000D02*
X82650000Y-250630000D01*
X89190000Y-253370000D02*
X89190000Y-250630000D01*
X82650000Y-253370000D02*
X89190000Y-253370000D01*
X82650000Y-250630000D02*
X82650000Y-253370000D01*
%TO.C,R17*%
X89960000Y-259000000D02*
X89190000Y-259000000D01*
X81880000Y-259000000D02*
X82650000Y-259000000D01*
X89190000Y-257630000D02*
X82650000Y-257630000D01*
X89190000Y-260370000D02*
X89190000Y-257630000D01*
X82650000Y-260370000D02*
X89190000Y-260370000D01*
X82650000Y-257630000D02*
X82650000Y-260370000D01*
%TO.C,R16*%
X74880000Y-129500000D02*
X75650000Y-129500000D01*
X82960000Y-129500000D02*
X82190000Y-129500000D01*
X75650000Y-130870000D02*
X82190000Y-130870000D01*
X75650000Y-128130000D02*
X75650000Y-130870000D01*
X82190000Y-128130000D02*
X75650000Y-128130000D01*
X82190000Y-130870000D02*
X82190000Y-128130000D01*
%TO.C,R15*%
X53880000Y-129500000D02*
X54650000Y-129500000D01*
X61960000Y-129500000D02*
X61190000Y-129500000D01*
X54650000Y-130870000D02*
X61190000Y-130870000D01*
X54650000Y-128130000D02*
X54650000Y-130870000D01*
X61190000Y-128130000D02*
X54650000Y-128130000D01*
X61190000Y-130870000D02*
X61190000Y-128130000D01*
%TO.C,R14*%
X32880000Y-129500000D02*
X33650000Y-129500000D01*
X40960000Y-129500000D02*
X40190000Y-129500000D01*
X33650000Y-130870000D02*
X40190000Y-130870000D01*
X33650000Y-128130000D02*
X33650000Y-130870000D01*
X40190000Y-128130000D02*
X33650000Y-128130000D01*
X40190000Y-130870000D02*
X40190000Y-128130000D01*
%TO.C,R13*%
X11960000Y-129580000D02*
X12730000Y-129580000D01*
X20040000Y-129580000D02*
X19270000Y-129580000D01*
X12730000Y-130950000D02*
X19270000Y-130950000D01*
X12730000Y-128210000D02*
X12730000Y-130950000D01*
X19270000Y-128210000D02*
X12730000Y-128210000D01*
X19270000Y-130950000D02*
X19270000Y-128210000D01*
%TO.C,R12*%
X53880000Y-182000000D02*
X54650000Y-182000000D01*
X61960000Y-182000000D02*
X61190000Y-182000000D01*
X54650000Y-183370000D02*
X61190000Y-183370000D01*
X54650000Y-180630000D02*
X54650000Y-183370000D01*
X61190000Y-180630000D02*
X54650000Y-180630000D01*
X61190000Y-183370000D02*
X61190000Y-180630000D01*
%TO.C,R11*%
X29380000Y-213500000D02*
X30150000Y-213500000D01*
X37460000Y-213500000D02*
X36690000Y-213500000D01*
X30150000Y-214870000D02*
X36690000Y-214870000D01*
X30150000Y-212130000D02*
X30150000Y-214870000D01*
X36690000Y-212130000D02*
X30150000Y-212130000D01*
X36690000Y-214870000D02*
X36690000Y-212130000D01*
%TO.C,R10*%
X29380000Y-248500000D02*
X30150000Y-248500000D01*
X37460000Y-248500000D02*
X36690000Y-248500000D01*
X30150000Y-249870000D02*
X36690000Y-249870000D01*
X30150000Y-247130000D02*
X30150000Y-249870000D01*
X36690000Y-247130000D02*
X30150000Y-247130000D01*
X36690000Y-249870000D02*
X36690000Y-247130000D01*
%TO.C,R9*%
X11880000Y-108500000D02*
X12650000Y-108500000D01*
X19960000Y-108500000D02*
X19190000Y-108500000D01*
X12650000Y-109870000D02*
X19190000Y-109870000D01*
X12650000Y-107130000D02*
X12650000Y-109870000D01*
X19190000Y-107130000D02*
X12650000Y-107130000D01*
X19190000Y-109870000D02*
X19190000Y-107130000D01*
%TO.C,R8*%
X117620000Y-210000000D02*
X116850000Y-210000000D01*
X109540000Y-210000000D02*
X110310000Y-210000000D01*
X116850000Y-208630000D02*
X110310000Y-208630000D01*
X116850000Y-211370000D02*
X116850000Y-208630000D01*
X110310000Y-211370000D02*
X116850000Y-211370000D01*
X110310000Y-208630000D02*
X110310000Y-211370000D01*
%TO.C,R7*%
X117700000Y-217080000D02*
X116930000Y-217080000D01*
X109620000Y-217080000D02*
X110390000Y-217080000D01*
X116930000Y-215710000D02*
X110390000Y-215710000D01*
X116930000Y-218450000D02*
X116930000Y-215710000D01*
X110390000Y-218450000D02*
X116930000Y-218450000D01*
X110390000Y-215710000D02*
X110390000Y-218450000D01*
%TO.C,R6*%
X117620000Y-224000000D02*
X116850000Y-224000000D01*
X109540000Y-224000000D02*
X110310000Y-224000000D01*
X116850000Y-222630000D02*
X110310000Y-222630000D01*
X116850000Y-225370000D02*
X116850000Y-222630000D01*
X110310000Y-225370000D02*
X116850000Y-225370000D01*
X110310000Y-222630000D02*
X110310000Y-225370000D01*
%TO.C,R5*%
X117620000Y-231000000D02*
X116850000Y-231000000D01*
X109540000Y-231000000D02*
X110310000Y-231000000D01*
X116850000Y-229630000D02*
X110310000Y-229630000D01*
X116850000Y-232370000D02*
X116850000Y-229630000D01*
X110310000Y-232370000D02*
X116850000Y-232370000D01*
X110310000Y-229630000D02*
X110310000Y-232370000D01*
%TO.C,R4*%
X117620000Y-238000000D02*
X116850000Y-238000000D01*
X109540000Y-238000000D02*
X110310000Y-238000000D01*
X116850000Y-236630000D02*
X110310000Y-236630000D01*
X116850000Y-239370000D02*
X116850000Y-236630000D01*
X110310000Y-239370000D02*
X116850000Y-239370000D01*
X110310000Y-236630000D02*
X110310000Y-239370000D01*
%TO.C,R3*%
X117620000Y-245000000D02*
X116850000Y-245000000D01*
X109540000Y-245000000D02*
X110310000Y-245000000D01*
X116850000Y-243630000D02*
X110310000Y-243630000D01*
X116850000Y-246370000D02*
X116850000Y-243630000D01*
X110310000Y-246370000D02*
X116850000Y-246370000D01*
X110310000Y-243630000D02*
X110310000Y-246370000D01*
%TO.C,R2*%
X117620000Y-252000000D02*
X116850000Y-252000000D01*
X109540000Y-252000000D02*
X110310000Y-252000000D01*
X116850000Y-250630000D02*
X110310000Y-250630000D01*
X116850000Y-253370000D02*
X116850000Y-250630000D01*
X110310000Y-253370000D02*
X116850000Y-253370000D01*
X110310000Y-250630000D02*
X110310000Y-253370000D01*
%TO.C,R1*%
X117620000Y-259000000D02*
X116850000Y-259000000D01*
X109540000Y-259000000D02*
X110310000Y-259000000D01*
X116850000Y-257630000D02*
X110310000Y-257630000D01*
X116850000Y-260370000D02*
X116850000Y-257630000D01*
X110310000Y-260370000D02*
X116850000Y-260370000D01*
X110310000Y-257630000D02*
X110310000Y-260370000D01*
%TO.C,D56*%
X98290000Y-208920000D02*
X98290000Y-208764000D01*
X98290000Y-211236000D02*
X98290000Y-211080000D01*
X95688870Y-208920163D02*
G75*
G02*
X97770961Y-208920000I1041130J-1079837D01*
G01*
X95688870Y-211079837D02*
G75*
G03*
X97770961Y-211080000I1041130J1079837D01*
G01*
X95057665Y-208921392D02*
G75*
G02*
X98290000Y-208764484I1672335J-1078608D01*
G01*
X95057665Y-211078608D02*
G75*
G03*
X98290000Y-211235516I1672335J1078608D01*
G01*
%TO.C,D55*%
X98290000Y-215920000D02*
X98290000Y-215764000D01*
X98290000Y-218236000D02*
X98290000Y-218080000D01*
X95688870Y-215920163D02*
G75*
G02*
X97770961Y-215920000I1041130J-1079837D01*
G01*
X95688870Y-218079837D02*
G75*
G03*
X97770961Y-218080000I1041130J1079837D01*
G01*
X95057665Y-215921392D02*
G75*
G02*
X98290000Y-215764484I1672335J-1078608D01*
G01*
X95057665Y-218078608D02*
G75*
G03*
X98290000Y-218235516I1672335J1078608D01*
G01*
%TO.C,D54*%
X98290000Y-222920000D02*
X98290000Y-222764000D01*
X98290000Y-225236000D02*
X98290000Y-225080000D01*
X95688870Y-222920163D02*
G75*
G02*
X97770961Y-222920000I1041130J-1079837D01*
G01*
X95688870Y-225079837D02*
G75*
G03*
X97770961Y-225080000I1041130J1079837D01*
G01*
X95057665Y-222921392D02*
G75*
G02*
X98290000Y-222764484I1672335J-1078608D01*
G01*
X95057665Y-225078608D02*
G75*
G03*
X98290000Y-225235516I1672335J1078608D01*
G01*
%TO.C,D53*%
X98290000Y-229920000D02*
X98290000Y-229764000D01*
X98290000Y-232236000D02*
X98290000Y-232080000D01*
X95688870Y-229920163D02*
G75*
G02*
X97770961Y-229920000I1041130J-1079837D01*
G01*
X95688870Y-232079837D02*
G75*
G03*
X97770961Y-232080000I1041130J1079837D01*
G01*
X95057665Y-229921392D02*
G75*
G02*
X98290000Y-229764484I1672335J-1078608D01*
G01*
X95057665Y-232078608D02*
G75*
G03*
X98290000Y-232235516I1672335J1078608D01*
G01*
%TO.C,D52*%
X98290000Y-236920000D02*
X98290000Y-236764000D01*
X98290000Y-239236000D02*
X98290000Y-239080000D01*
X95688870Y-236920163D02*
G75*
G02*
X97770961Y-236920000I1041130J-1079837D01*
G01*
X95688870Y-239079837D02*
G75*
G03*
X97770961Y-239080000I1041130J1079837D01*
G01*
X95057665Y-236921392D02*
G75*
G02*
X98290000Y-236764484I1672335J-1078608D01*
G01*
X95057665Y-239078608D02*
G75*
G03*
X98290000Y-239235516I1672335J1078608D01*
G01*
%TO.C,D51*%
X98290000Y-243920000D02*
X98290000Y-243764000D01*
X98290000Y-246236000D02*
X98290000Y-246080000D01*
X95688870Y-243920163D02*
G75*
G02*
X97770961Y-243920000I1041130J-1079837D01*
G01*
X95688870Y-246079837D02*
G75*
G03*
X97770961Y-246080000I1041130J1079837D01*
G01*
X95057665Y-243921392D02*
G75*
G02*
X98290000Y-243764484I1672335J-1078608D01*
G01*
X95057665Y-246078608D02*
G75*
G03*
X98290000Y-246235516I1672335J1078608D01*
G01*
%TO.C,D50*%
X98290000Y-250920000D02*
X98290000Y-250764000D01*
X98290000Y-253236000D02*
X98290000Y-253080000D01*
X95688870Y-250920163D02*
G75*
G02*
X97770961Y-250920000I1041130J-1079837D01*
G01*
X95688870Y-253079837D02*
G75*
G03*
X97770961Y-253080000I1041130J1079837D01*
G01*
X95057665Y-250921392D02*
G75*
G02*
X98290000Y-250764484I1672335J-1078608D01*
G01*
X95057665Y-253078608D02*
G75*
G03*
X98290000Y-253235516I1672335J1078608D01*
G01*
%TO.C,D49*%
X98290000Y-257920000D02*
X98290000Y-257764000D01*
X98290000Y-260236000D02*
X98290000Y-260080000D01*
X95688870Y-257920163D02*
G75*
G02*
X97770961Y-257920000I1041130J-1079837D01*
G01*
X95688870Y-260079837D02*
G75*
G03*
X97770961Y-260080000I1041130J1079837D01*
G01*
X95057665Y-257921392D02*
G75*
G02*
X98290000Y-257764484I1672335J-1078608D01*
G01*
X95057665Y-260078608D02*
G75*
G03*
X98290000Y-260235516I1672335J1078608D01*
G01*
%TO.C,D48*%
X74580000Y-140290000D02*
X74736000Y-140290000D01*
X72264000Y-140290000D02*
X72420000Y-140290000D01*
X74579837Y-137688870D02*
G75*
G02*
X74580000Y-139770961I-1079837J-1041130D01*
G01*
X72420163Y-137688870D02*
G75*
G03*
X72420000Y-139770961I1079837J-1041130D01*
G01*
X74578608Y-137057665D02*
G75*
G02*
X74735516Y-140290000I-1078608J-1672335D01*
G01*
X72421392Y-137057665D02*
G75*
G03*
X72264484Y-140290000I1078608J-1672335D01*
G01*
%TO.C,D47*%
X53580000Y-140290000D02*
X53736000Y-140290000D01*
X51264000Y-140290000D02*
X51420000Y-140290000D01*
X53579837Y-137688870D02*
G75*
G02*
X53580000Y-139770961I-1079837J-1041130D01*
G01*
X51420163Y-137688870D02*
G75*
G03*
X51420000Y-139770961I1079837J-1041130D01*
G01*
X53578608Y-137057665D02*
G75*
G02*
X53735516Y-140290000I-1078608J-1672335D01*
G01*
X51421392Y-137057665D02*
G75*
G03*
X51264484Y-140290000I1078608J-1672335D01*
G01*
%TO.C,D46*%
X32580000Y-139410000D02*
X32736000Y-139410000D01*
X30264000Y-139410000D02*
X30420000Y-139410000D01*
X32579837Y-136808870D02*
G75*
G02*
X32580000Y-138890961I-1079837J-1041130D01*
G01*
X30420163Y-136808870D02*
G75*
G03*
X30420000Y-138890961I1079837J-1041130D01*
G01*
X32578608Y-136177665D02*
G75*
G02*
X32735516Y-139410000I-1078608J-1672335D01*
G01*
X30421392Y-136177665D02*
G75*
G03*
X30264484Y-139410000I1078608J-1672335D01*
G01*
%TO.C,D45*%
X11660000Y-140370000D02*
X11816000Y-140370000D01*
X9344000Y-140370000D02*
X9500000Y-140370000D01*
X11659837Y-137768870D02*
G75*
G02*
X11660000Y-139850961I-1079837J-1041130D01*
G01*
X9500163Y-137768870D02*
G75*
G03*
X9500000Y-139850961I1079837J-1041130D01*
G01*
X11658608Y-137137665D02*
G75*
G02*
X11815516Y-140370000I-1078608J-1672335D01*
G01*
X9501392Y-137137665D02*
G75*
G03*
X9344484Y-140370000I1078608J-1672335D01*
G01*
%TO.C,D44*%
X53580000Y-192790000D02*
X53736000Y-192790000D01*
X51264000Y-192790000D02*
X51420000Y-192790000D01*
X53579837Y-190188870D02*
G75*
G02*
X53580000Y-192270961I-1079837J-1041130D01*
G01*
X51420163Y-190188870D02*
G75*
G03*
X51420000Y-192270961I1079837J-1041130D01*
G01*
X53578608Y-189557665D02*
G75*
G02*
X53735516Y-192790000I-1078608J-1672335D01*
G01*
X51421392Y-189557665D02*
G75*
G03*
X51264484Y-192790000I1078608J-1672335D01*
G01*
%TO.C,D43*%
X26920000Y-207170000D02*
X26764000Y-207170000D01*
X29236000Y-207170000D02*
X29080000Y-207170000D01*
X26920163Y-209771130D02*
G75*
G02*
X26920000Y-207689039I1079837J1041130D01*
G01*
X29079837Y-209771130D02*
G75*
G03*
X29080000Y-207689039I-1079837J1041130D01*
G01*
X26921392Y-210402335D02*
G75*
G02*
X26764484Y-207170000I1078608J1672335D01*
G01*
X29078608Y-210402335D02*
G75*
G03*
X29235516Y-207170000I-1078608J1672335D01*
G01*
%TO.C,D42*%
X26920000Y-242170000D02*
X26764000Y-242170000D01*
X29236000Y-242170000D02*
X29080000Y-242170000D01*
X26920163Y-244771130D02*
G75*
G02*
X26920000Y-242689039I1079837J1041130D01*
G01*
X29079837Y-244771130D02*
G75*
G03*
X29080000Y-242689039I-1079837J1041130D01*
G01*
X26921392Y-245402335D02*
G75*
G02*
X26764484Y-242170000I1078608J1672335D01*
G01*
X29078608Y-245402335D02*
G75*
G03*
X29235516Y-242170000I-1078608J1672335D01*
G01*
%TO.C,D41*%
X9420000Y-102170000D02*
X9264000Y-102170000D01*
X11736000Y-102170000D02*
X11580000Y-102170000D01*
X9420163Y-104771130D02*
G75*
G02*
X9420000Y-102689039I1079837J1041130D01*
G01*
X11579837Y-104771130D02*
G75*
G03*
X11580000Y-102689039I-1079837J1041130D01*
G01*
X9421392Y-105402335D02*
G75*
G02*
X9264484Y-102170000I1078608J1672335D01*
G01*
X11578608Y-105402335D02*
G75*
G03*
X11735516Y-102170000I-1078608J1672335D01*
G01*
%TO.C,RV18*%
X41240000Y-279120000D02*
X40410000Y-279120000D01*
X38790000Y-279120000D02*
X38260000Y-279120000D01*
X35890000Y-279120000D02*
X34710000Y-279120000D01*
X44450000Y-279120000D02*
X44450000Y-274400000D01*
X34710000Y-270590000D02*
X34710000Y-267530000D01*
X34700000Y-279120000D02*
X34700000Y-274400000D01*
X44450000Y-270590000D02*
X44450000Y-267530000D01*
X44450000Y-279120000D02*
X42960000Y-279120000D01*
X44450000Y-267530000D02*
X34710000Y-267530000D01*
%TO.C,RV17*%
X23450000Y-267530000D02*
X13710000Y-267530000D01*
X23450000Y-279120000D02*
X21960000Y-279120000D01*
X23450000Y-270590000D02*
X23450000Y-267530000D01*
X13700000Y-279120000D02*
X13700000Y-274400000D01*
X13710000Y-270590000D02*
X13710000Y-267530000D01*
X23450000Y-279120000D02*
X23450000Y-274400000D01*
X14890000Y-279120000D02*
X13710000Y-279120000D01*
X17790000Y-279120000D02*
X17260000Y-279120000D01*
X20240000Y-279120000D02*
X19410000Y-279120000D01*
%TO.C,R152*%
X44130000Y-26190000D02*
X46870000Y-26190000D01*
X46870000Y-26190000D02*
X46870000Y-19650000D01*
X46870000Y-19650000D02*
X44130000Y-19650000D01*
X44130000Y-19650000D02*
X44130000Y-26190000D01*
X45500000Y-26960000D02*
X45500000Y-26190000D01*
X45500000Y-18880000D02*
X45500000Y-19650000D01*
%TO.C,R151*%
X44130000Y-50690000D02*
X46870000Y-50690000D01*
X46870000Y-50690000D02*
X46870000Y-44150000D01*
X46870000Y-44150000D02*
X44130000Y-44150000D01*
X44130000Y-44150000D02*
X44130000Y-50690000D01*
X45500000Y-51460000D02*
X45500000Y-50690000D01*
X45500000Y-43380000D02*
X45500000Y-44150000D01*
%TO.C,R149*%
X131630000Y-190690000D02*
X134370000Y-190690000D01*
X134370000Y-190690000D02*
X134370000Y-184150000D01*
X134370000Y-184150000D02*
X131630000Y-184150000D01*
X131630000Y-184150000D02*
X131630000Y-190690000D01*
X133000000Y-191460000D02*
X133000000Y-190690000D01*
X133000000Y-183380000D02*
X133000000Y-184150000D01*
%TO.C,R148*%
X110630000Y-204690000D02*
X113370000Y-204690000D01*
X113370000Y-204690000D02*
X113370000Y-198150000D01*
X113370000Y-198150000D02*
X110630000Y-198150000D01*
X110630000Y-198150000D02*
X110630000Y-204690000D01*
X112000000Y-205460000D02*
X112000000Y-204690000D01*
X112000000Y-197380000D02*
X112000000Y-198150000D01*
%TO.C,R146*%
X54650000Y-61630000D02*
X54650000Y-64370000D01*
X54650000Y-64370000D02*
X61190000Y-64370000D01*
X61190000Y-64370000D02*
X61190000Y-61630000D01*
X61190000Y-61630000D02*
X54650000Y-61630000D01*
X53880000Y-63000000D02*
X54650000Y-63000000D01*
X61960000Y-63000000D02*
X61190000Y-63000000D01*
%TO.C,R145*%
X23210000Y-134770000D02*
X25950000Y-134770000D01*
X25950000Y-134770000D02*
X25950000Y-128230000D01*
X25950000Y-128230000D02*
X23210000Y-128230000D01*
X23210000Y-128230000D02*
X23210000Y-134770000D01*
X24580000Y-135540000D02*
X24580000Y-134770000D01*
X24580000Y-127460000D02*
X24580000Y-128230000D01*
%TO.C,R144*%
X131630000Y-50690000D02*
X134370000Y-50690000D01*
X134370000Y-50690000D02*
X134370000Y-44150000D01*
X134370000Y-44150000D02*
X131630000Y-44150000D01*
X131630000Y-44150000D02*
X131630000Y-50690000D01*
X133000000Y-51460000D02*
X133000000Y-50690000D01*
X133000000Y-43380000D02*
X133000000Y-44150000D01*
%TO.C,R143*%
X170130000Y-124190000D02*
X172870000Y-124190000D01*
X172870000Y-124190000D02*
X172870000Y-117650000D01*
X172870000Y-117650000D02*
X170130000Y-117650000D01*
X170130000Y-117650000D02*
X170130000Y-124190000D01*
X171500000Y-124960000D02*
X171500000Y-124190000D01*
X171500000Y-116880000D02*
X171500000Y-117650000D01*
%TO.C,R142*%
X65130000Y-50690000D02*
X67870000Y-50690000D01*
X67870000Y-50690000D02*
X67870000Y-44150000D01*
X67870000Y-44150000D02*
X65130000Y-44150000D01*
X65130000Y-44150000D02*
X65130000Y-50690000D01*
X66500000Y-51460000D02*
X66500000Y-50690000D01*
X66500000Y-43380000D02*
X66500000Y-44150000D01*
%TO.C,R141*%
X9130000Y-124190000D02*
X11870000Y-124190000D01*
X11870000Y-124190000D02*
X11870000Y-117650000D01*
X11870000Y-117650000D02*
X9130000Y-117650000D01*
X9130000Y-117650000D02*
X9130000Y-124190000D01*
X10500000Y-124960000D02*
X10500000Y-124190000D01*
X10500000Y-116880000D02*
X10500000Y-117650000D01*
%TO.C,R140*%
X152630000Y-26190000D02*
X155370000Y-26190000D01*
X155370000Y-26190000D02*
X155370000Y-19650000D01*
X155370000Y-19650000D02*
X152630000Y-19650000D01*
X152630000Y-19650000D02*
X152630000Y-26190000D01*
X154000000Y-26960000D02*
X154000000Y-26190000D01*
X154000000Y-18880000D02*
X154000000Y-19650000D01*
%TO.C,R138*%
X163130000Y-211690000D02*
X165870000Y-211690000D01*
X165870000Y-211690000D02*
X165870000Y-205150000D01*
X165870000Y-205150000D02*
X163130000Y-205150000D01*
X163130000Y-205150000D02*
X163130000Y-211690000D01*
X164500000Y-212460000D02*
X164500000Y-211690000D01*
X164500000Y-204380000D02*
X164500000Y-205150000D01*
%TO.C,R136*%
X152630000Y-50690000D02*
X155370000Y-50690000D01*
X155370000Y-50690000D02*
X155370000Y-44150000D01*
X155370000Y-44150000D02*
X152630000Y-44150000D01*
X152630000Y-44150000D02*
X152630000Y-50690000D01*
X154000000Y-51460000D02*
X154000000Y-50690000D01*
X154000000Y-43380000D02*
X154000000Y-44150000D01*
%TO.C,R135*%
X110630000Y-134690000D02*
X113370000Y-134690000D01*
X113370000Y-134690000D02*
X113370000Y-128150000D01*
X113370000Y-128150000D02*
X110630000Y-128150000D01*
X110630000Y-128150000D02*
X110630000Y-134690000D01*
X112000000Y-135460000D02*
X112000000Y-134690000D01*
X112000000Y-127380000D02*
X112000000Y-128150000D01*
%TO.C,R134*%
X102850000Y-113450000D02*
X102850000Y-110710000D01*
X102850000Y-110710000D02*
X96310000Y-110710000D01*
X96310000Y-110710000D02*
X96310000Y-113450000D01*
X96310000Y-113450000D02*
X102850000Y-113450000D01*
X103620000Y-112080000D02*
X102850000Y-112080000D01*
X95540000Y-112080000D02*
X96310000Y-112080000D01*
%TO.C,R133*%
X173630000Y-106690000D02*
X176370000Y-106690000D01*
X176370000Y-106690000D02*
X176370000Y-100150000D01*
X176370000Y-100150000D02*
X173630000Y-100150000D01*
X173630000Y-100150000D02*
X173630000Y-106690000D01*
X175000000Y-107460000D02*
X175000000Y-106690000D01*
X175000000Y-99380000D02*
X175000000Y-100150000D01*
%TO.C,R131*%
X173630000Y-281690000D02*
X176370000Y-281690000D01*
X176370000Y-281690000D02*
X176370000Y-275150000D01*
X176370000Y-275150000D02*
X173630000Y-275150000D01*
X173630000Y-275150000D02*
X173630000Y-281690000D01*
X175000000Y-282460000D02*
X175000000Y-281690000D01*
X175000000Y-274380000D02*
X175000000Y-275150000D01*
%TO.C,R129*%
X23130000Y-106690000D02*
X25870000Y-106690000D01*
X25870000Y-106690000D02*
X25870000Y-100150000D01*
X25870000Y-100150000D02*
X23130000Y-100150000D01*
X23130000Y-100150000D02*
X23130000Y-106690000D01*
X24500000Y-107460000D02*
X24500000Y-106690000D01*
X24500000Y-99380000D02*
X24500000Y-100150000D01*
%TO.C,R128*%
X86130000Y-134690000D02*
X88870000Y-134690000D01*
X88870000Y-134690000D02*
X88870000Y-128150000D01*
X88870000Y-128150000D02*
X86130000Y-128150000D01*
X86130000Y-128150000D02*
X86130000Y-134690000D01*
X87500000Y-135460000D02*
X87500000Y-134690000D01*
X87500000Y-127380000D02*
X87500000Y-128150000D01*
%TO.C,R127*%
X131710000Y-134770000D02*
X134450000Y-134770000D01*
X134450000Y-134770000D02*
X134450000Y-128230000D01*
X134450000Y-128230000D02*
X131710000Y-128230000D01*
X131710000Y-128230000D02*
X131710000Y-134770000D01*
X133080000Y-135540000D02*
X133080000Y-134770000D01*
X133080000Y-127460000D02*
X133080000Y-128230000D01*
%TO.C,R126*%
X173630000Y-50690000D02*
X176370000Y-50690000D01*
X176370000Y-50690000D02*
X176370000Y-44150000D01*
X176370000Y-44150000D02*
X173630000Y-44150000D01*
X173630000Y-44150000D02*
X173630000Y-50690000D01*
X175000000Y-51460000D02*
X175000000Y-50690000D01*
X175000000Y-43380000D02*
X175000000Y-44150000D01*
%TO.C,R125*%
X23130000Y-50690000D02*
X25870000Y-50690000D01*
X25870000Y-50690000D02*
X25870000Y-44150000D01*
X25870000Y-44150000D02*
X23130000Y-44150000D01*
X23130000Y-44150000D02*
X23130000Y-50690000D01*
X24500000Y-51460000D02*
X24500000Y-50690000D01*
X24500000Y-43380000D02*
X24500000Y-44150000D01*
%TO.C,R124*%
X26630000Y-124190000D02*
X29370000Y-124190000D01*
X29370000Y-124190000D02*
X29370000Y-117650000D01*
X29370000Y-117650000D02*
X26630000Y-117650000D01*
X26630000Y-117650000D02*
X26630000Y-124190000D01*
X28000000Y-124960000D02*
X28000000Y-124190000D01*
X28000000Y-116880000D02*
X28000000Y-117650000D01*
%TO.C,R123*%
X187630000Y-124190000D02*
X190370000Y-124190000D01*
X190370000Y-124190000D02*
X190370000Y-117650000D01*
X190370000Y-117650000D02*
X187630000Y-117650000D01*
X187630000Y-117650000D02*
X187630000Y-124190000D01*
X189000000Y-124960000D02*
X189000000Y-124190000D01*
X189000000Y-116880000D02*
X189000000Y-117650000D01*
%TO.C,R122*%
X131630000Y-26190000D02*
X134370000Y-26190000D01*
X134370000Y-26190000D02*
X134370000Y-19650000D01*
X134370000Y-19650000D02*
X131630000Y-19650000D01*
X131630000Y-19650000D02*
X131630000Y-26190000D01*
X133000000Y-26960000D02*
X133000000Y-26190000D01*
X133000000Y-18880000D02*
X133000000Y-19650000D01*
%TO.C,R121*%
X65130000Y-26190000D02*
X67870000Y-26190000D01*
X67870000Y-26190000D02*
X67870000Y-19650000D01*
X67870000Y-19650000D02*
X65130000Y-19650000D01*
X65130000Y-19650000D02*
X65130000Y-26190000D01*
X66500000Y-26960000D02*
X66500000Y-26190000D01*
X66500000Y-18880000D02*
X66500000Y-19650000D01*
%TO.C,R119*%
X163130000Y-246690000D02*
X165870000Y-246690000D01*
X165870000Y-246690000D02*
X165870000Y-240150000D01*
X165870000Y-240150000D02*
X163130000Y-240150000D01*
X163130000Y-240150000D02*
X163130000Y-246690000D01*
X164500000Y-247460000D02*
X164500000Y-246690000D01*
X164500000Y-239380000D02*
X164500000Y-240150000D01*
%TO.C,R118*%
X86130000Y-204690000D02*
X88870000Y-204690000D01*
X88870000Y-204690000D02*
X88870000Y-198150000D01*
X88870000Y-198150000D02*
X86130000Y-198150000D01*
X86130000Y-198150000D02*
X86130000Y-204690000D01*
X87500000Y-205460000D02*
X87500000Y-204690000D01*
X87500000Y-197380000D02*
X87500000Y-198150000D01*
%TO.C,R116*%
X155810000Y-61630000D02*
X155810000Y-64370000D01*
X155810000Y-64370000D02*
X162350000Y-64370000D01*
X162350000Y-64370000D02*
X162350000Y-61630000D01*
X162350000Y-61630000D02*
X155810000Y-61630000D01*
X155040000Y-63000000D02*
X155810000Y-63000000D01*
X163120000Y-63000000D02*
X162350000Y-63000000D01*
%TO.C,R115*%
X40630000Y-78690000D02*
X43370000Y-78690000D01*
X43370000Y-78690000D02*
X43370000Y-72150000D01*
X43370000Y-72150000D02*
X40630000Y-72150000D01*
X40630000Y-72150000D02*
X40630000Y-78690000D01*
X42000000Y-79460000D02*
X42000000Y-78690000D01*
X42000000Y-71380000D02*
X42000000Y-72150000D01*
%TO.C,R113*%
X65130000Y-190690000D02*
X67870000Y-190690000D01*
X67870000Y-190690000D02*
X67870000Y-184150000D01*
X67870000Y-184150000D02*
X65130000Y-184150000D01*
X65130000Y-184150000D02*
X65130000Y-190690000D01*
X66500000Y-191460000D02*
X66500000Y-190690000D01*
X66500000Y-183380000D02*
X66500000Y-184150000D01*
%TO.C,R111*%
X9130000Y-26190000D02*
X11870000Y-26190000D01*
X11870000Y-26190000D02*
X11870000Y-19650000D01*
X11870000Y-19650000D02*
X9130000Y-19650000D01*
X9130000Y-19650000D02*
X9130000Y-26190000D01*
X10500000Y-26960000D02*
X10500000Y-26190000D01*
X10500000Y-18880000D02*
X10500000Y-19650000D01*
%TO.C,R110*%
X152630000Y-134690000D02*
X155370000Y-134690000D01*
X155370000Y-134690000D02*
X155370000Y-128150000D01*
X155370000Y-128150000D02*
X152630000Y-128150000D01*
X152630000Y-128150000D02*
X152630000Y-134690000D01*
X154000000Y-135460000D02*
X154000000Y-134690000D01*
X154000000Y-127380000D02*
X154000000Y-128150000D01*
%TO.C,R109*%
X187630000Y-26190000D02*
X190370000Y-26190000D01*
X190370000Y-26190000D02*
X190370000Y-19650000D01*
X190370000Y-19650000D02*
X187630000Y-19650000D01*
X187630000Y-19650000D02*
X187630000Y-26190000D01*
X189000000Y-26960000D02*
X189000000Y-26190000D01*
X189000000Y-18880000D02*
X189000000Y-19650000D01*
%TO.C,R108*%
X65130000Y-134690000D02*
X67870000Y-134690000D01*
X67870000Y-134690000D02*
X67870000Y-128150000D01*
X67870000Y-128150000D02*
X65130000Y-128150000D01*
X65130000Y-128150000D02*
X65130000Y-134690000D01*
X66500000Y-135460000D02*
X66500000Y-134690000D01*
X66500000Y-127380000D02*
X66500000Y-128150000D01*
%TO.C,R107*%
X103390000Y-184130000D02*
X103390000Y-186870000D01*
X103390000Y-186870000D02*
X109930000Y-186870000D01*
X109930000Y-186870000D02*
X109930000Y-184130000D01*
X109930000Y-184130000D02*
X103390000Y-184130000D01*
X102620000Y-185500000D02*
X103390000Y-185500000D01*
X110700000Y-185500000D02*
X109930000Y-185500000D01*
%TO.C,R105*%
X40630000Y-211690000D02*
X43370000Y-211690000D01*
X43370000Y-211690000D02*
X43370000Y-205150000D01*
X43370000Y-205150000D02*
X40630000Y-205150000D01*
X40630000Y-205150000D02*
X40630000Y-211690000D01*
X42000000Y-212460000D02*
X42000000Y-211690000D01*
X42000000Y-204380000D02*
X42000000Y-205150000D01*
%TO.C,R103*%
X96190000Y-186870000D02*
X96190000Y-184130000D01*
X96190000Y-184130000D02*
X89650000Y-184130000D01*
X89650000Y-184130000D02*
X89650000Y-186870000D01*
X89650000Y-186870000D02*
X96190000Y-186870000D01*
X96960000Y-185500000D02*
X96190000Y-185500000D01*
X88880000Y-185500000D02*
X89650000Y-185500000D01*
%TO.C,R102*%
X58130000Y-78690000D02*
X60870000Y-78690000D01*
X60870000Y-78690000D02*
X60870000Y-72150000D01*
X60870000Y-72150000D02*
X58130000Y-72150000D01*
X58130000Y-72150000D02*
X58130000Y-78690000D01*
X59500000Y-79460000D02*
X59500000Y-78690000D01*
X59500000Y-71380000D02*
X59500000Y-72150000D01*
%TO.C,R100*%
X152630000Y-281690000D02*
X155370000Y-281690000D01*
X155370000Y-281690000D02*
X155370000Y-275150000D01*
X155370000Y-275150000D02*
X152630000Y-275150000D01*
X152630000Y-275150000D02*
X152630000Y-281690000D01*
X154000000Y-282460000D02*
X154000000Y-281690000D01*
X154000000Y-274380000D02*
X154000000Y-275150000D01*
%TO.C,R98*%
X26630000Y-26190000D02*
X29370000Y-26190000D01*
X29370000Y-26190000D02*
X29370000Y-19650000D01*
X29370000Y-19650000D02*
X26630000Y-19650000D01*
X26630000Y-19650000D02*
X26630000Y-26190000D01*
X28000000Y-26960000D02*
X28000000Y-26190000D01*
X28000000Y-18880000D02*
X28000000Y-19650000D01*
%TO.C,R97*%
X173630000Y-134690000D02*
X176370000Y-134690000D01*
X176370000Y-134690000D02*
X176370000Y-128150000D01*
X176370000Y-128150000D02*
X173630000Y-128150000D01*
X173630000Y-128150000D02*
X173630000Y-134690000D01*
X175000000Y-135460000D02*
X175000000Y-134690000D01*
X175000000Y-127380000D02*
X175000000Y-128150000D01*
%TO.C,R96*%
X170130000Y-26190000D02*
X172870000Y-26190000D01*
X172870000Y-26190000D02*
X172870000Y-19650000D01*
X172870000Y-19650000D02*
X170130000Y-19650000D01*
X170130000Y-19650000D02*
X170130000Y-26190000D01*
X171500000Y-26960000D02*
X171500000Y-26190000D01*
X171500000Y-18880000D02*
X171500000Y-19650000D01*
%TO.C,R95*%
X44130000Y-134690000D02*
X46870000Y-134690000D01*
X46870000Y-134690000D02*
X46870000Y-128150000D01*
X46870000Y-128150000D02*
X44130000Y-128150000D01*
X44130000Y-128150000D02*
X44130000Y-134690000D01*
X45500000Y-135460000D02*
X45500000Y-134690000D01*
X45500000Y-127380000D02*
X45500000Y-128150000D01*
%TO.C,R93*%
X40630000Y-246690000D02*
X43370000Y-246690000D01*
X43370000Y-246690000D02*
X43370000Y-240150000D01*
X43370000Y-240150000D02*
X40630000Y-240150000D01*
X40630000Y-240150000D02*
X40630000Y-246690000D01*
X42000000Y-247460000D02*
X42000000Y-246690000D01*
X42000000Y-239380000D02*
X42000000Y-240150000D01*
%TO.C,R91*%
X95620000Y-206500000D02*
X96390000Y-206500000D01*
X103700000Y-206500000D02*
X102930000Y-206500000D01*
X96390000Y-207870000D02*
X102930000Y-207870000D01*
X96390000Y-205130000D02*
X96390000Y-207870000D01*
X102930000Y-205130000D02*
X96390000Y-205130000D01*
X102930000Y-207870000D02*
X102930000Y-205130000D01*
%TO.C,R90*%
X138630000Y-78690000D02*
X141370000Y-78690000D01*
X141370000Y-78690000D02*
X141370000Y-72150000D01*
X141370000Y-72150000D02*
X138630000Y-72150000D01*
X138630000Y-72150000D02*
X138630000Y-78690000D01*
X140000000Y-79460000D02*
X140000000Y-78690000D01*
X140000000Y-71380000D02*
X140000000Y-72150000D01*
%TO.C,R89*%
X156130000Y-78690000D02*
X158870000Y-78690000D01*
X158870000Y-78690000D02*
X158870000Y-72150000D01*
X158870000Y-72150000D02*
X156130000Y-72150000D01*
X156130000Y-72150000D02*
X156130000Y-78690000D01*
X157500000Y-79460000D02*
X157500000Y-78690000D01*
X157500000Y-71380000D02*
X157500000Y-72150000D01*
%TO.C,D32*%
X177420000Y-242170000D02*
X177264000Y-242170000D01*
X179736000Y-242170000D02*
X179580000Y-242170000D01*
X177420163Y-244771130D02*
G75*
G02*
X177420000Y-242689039I1079837J1041130D01*
G01*
X179579837Y-244771130D02*
G75*
G03*
X179580000Y-242689039I-1079837J1041130D01*
G01*
X177421392Y-245402335D02*
G75*
G02*
X177264484Y-242170000I1078608J1672335D01*
G01*
X179578608Y-245402335D02*
G75*
G03*
X179735516Y-242170000I-1078608J1672335D01*
G01*
%TO.C,D31*%
X177420000Y-207170000D02*
X177264000Y-207170000D01*
X179736000Y-207170000D02*
X179580000Y-207170000D01*
X177420163Y-209771130D02*
G75*
G02*
X177420000Y-207689039I1079837J1041130D01*
G01*
X179579837Y-209771130D02*
G75*
G03*
X179580000Y-207689039I-1079837J1041130D01*
G01*
X177421392Y-210402335D02*
G75*
G02*
X177264484Y-207170000I1078608J1672335D01*
G01*
X179578608Y-210402335D02*
G75*
G03*
X179735516Y-207170000I-1078608J1672335D01*
G01*
%TO.C,D30*%
X148080000Y-192790000D02*
X148236000Y-192790000D01*
X145764000Y-192790000D02*
X145920000Y-192790000D01*
X148079837Y-190188870D02*
G75*
G02*
X148080000Y-192270961I-1079837J-1041130D01*
G01*
X145920163Y-190188870D02*
G75*
G03*
X145920000Y-192270961I1079837J-1041130D01*
G01*
X148078608Y-189557665D02*
G75*
G02*
X148235516Y-192790000I-1078608J-1672335D01*
G01*
X145921392Y-189557665D02*
G75*
G03*
X145764484Y-192790000I1078608J-1672335D01*
G01*
%TO.C,D29*%
X190080000Y-140290000D02*
X190236000Y-140290000D01*
X187764000Y-140290000D02*
X187920000Y-140290000D01*
X190079837Y-137688870D02*
G75*
G02*
X190080000Y-139770961I-1079837J-1041130D01*
G01*
X187920163Y-137688870D02*
G75*
G03*
X187920000Y-139770961I1079837J-1041130D01*
G01*
X190078608Y-137057665D02*
G75*
G02*
X190235516Y-140290000I-1078608J-1672335D01*
G01*
X187921392Y-137057665D02*
G75*
G03*
X187764484Y-140290000I1078608J-1672335D01*
G01*
%TO.C,D28*%
X169160000Y-140370000D02*
X169316000Y-140370000D01*
X166844000Y-140370000D02*
X167000000Y-140370000D01*
X169159837Y-137768870D02*
G75*
G02*
X169160000Y-139850961I-1079837J-1041130D01*
G01*
X167000163Y-137768870D02*
G75*
G03*
X167000000Y-139850961I1079837J-1041130D01*
G01*
X169158608Y-137137665D02*
G75*
G02*
X169315516Y-140370000I-1078608J-1672335D01*
G01*
X167001392Y-137137665D02*
G75*
G03*
X166844484Y-140370000I1078608J-1672335D01*
G01*
%TO.C,D27*%
X148160000Y-140370000D02*
X148316000Y-140370000D01*
X145844000Y-140370000D02*
X146000000Y-140370000D01*
X148159837Y-137768870D02*
G75*
G02*
X148160000Y-139850961I-1079837J-1041130D01*
G01*
X146000163Y-137768870D02*
G75*
G03*
X146000000Y-139850961I1079837J-1041130D01*
G01*
X148158608Y-137137665D02*
G75*
G02*
X148315516Y-140370000I-1078608J-1672335D01*
G01*
X146001392Y-137137665D02*
G75*
G03*
X145844484Y-140370000I1078608J-1672335D01*
G01*
%TO.C,D26*%
X127160000Y-140370000D02*
X127316000Y-140370000D01*
X124844000Y-140370000D02*
X125000000Y-140370000D01*
X127159837Y-137768870D02*
G75*
G02*
X127160000Y-139850961I-1079837J-1041130D01*
G01*
X125000163Y-137768870D02*
G75*
G03*
X125000000Y-139850961I1079837J-1041130D01*
G01*
X127158608Y-137137665D02*
G75*
G02*
X127315516Y-140370000I-1078608J-1672335D01*
G01*
X125001392Y-137137665D02*
G75*
G03*
X124844484Y-140370000I1078608J-1672335D01*
G01*
%TO.C,D25*%
X188000000Y-102250000D02*
X187844000Y-102250000D01*
X190316000Y-102250000D02*
X190160000Y-102250000D01*
X188000163Y-104851130D02*
G75*
G02*
X188000000Y-102769039I1079837J1041130D01*
G01*
X190159837Y-104851130D02*
G75*
G03*
X190160000Y-102769039I-1079837J1041130D01*
G01*
X188001392Y-105482335D02*
G75*
G02*
X187844484Y-102250000I1078608J1672335D01*
G01*
X190158608Y-105482335D02*
G75*
G03*
X190315516Y-102250000I-1078608J1672335D01*
G01*
D13*
%TO.C,L1*%
X143600000Y-123565000D02*
G75*
G03*
X143600000Y-123565000I-100000J0D01*
G01*
D14*
X142615000Y-121705000D02*
X142615000Y-115355000D01*
X162165000Y-121705000D02*
X162165000Y-115355000D01*
D13*
%TO.C,L2*%
X143600000Y-162065000D02*
G75*
G03*
X143600000Y-162065000I-100000J0D01*
G01*
D14*
X142615000Y-160205000D02*
X142615000Y-153855000D01*
X162165000Y-160205000D02*
X162165000Y-153855000D01*
%TO.C,L0*%
X89835000Y-27855000D02*
X89835000Y-34205000D01*
X109385000Y-27855000D02*
X109385000Y-34205000D01*
D13*
X108600000Y-25995000D02*
G75*
G03*
X108600000Y-25995000I-100000J0D01*
G01*
D12*
%TO.C,R48*%
X169810000Y-247130000D02*
X169810000Y-249870000D01*
X169810000Y-249870000D02*
X176350000Y-249870000D01*
X176350000Y-249870000D02*
X176350000Y-247130000D01*
X176350000Y-247130000D02*
X169810000Y-247130000D01*
X169040000Y-248500000D02*
X169810000Y-248500000D01*
X177120000Y-248500000D02*
X176350000Y-248500000D01*
%TO.C,R47*%
X169810000Y-212130000D02*
X169810000Y-214870000D01*
X169810000Y-214870000D02*
X176350000Y-214870000D01*
X176350000Y-214870000D02*
X176350000Y-212130000D01*
X176350000Y-212130000D02*
X169810000Y-212130000D01*
X169040000Y-213500000D02*
X169810000Y-213500000D01*
X177120000Y-213500000D02*
X176350000Y-213500000D01*
%TO.C,R46*%
X138310000Y-180630000D02*
X138310000Y-183370000D01*
X138310000Y-183370000D02*
X144850000Y-183370000D01*
X144850000Y-183370000D02*
X144850000Y-180630000D01*
X144850000Y-180630000D02*
X138310000Y-180630000D01*
X137540000Y-182000000D02*
X138310000Y-182000000D01*
X145620000Y-182000000D02*
X144850000Y-182000000D01*
%TO.C,R45*%
X180310000Y-128130000D02*
X180310000Y-130870000D01*
X180310000Y-130870000D02*
X186850000Y-130870000D01*
X186850000Y-130870000D02*
X186850000Y-128130000D01*
X186850000Y-128130000D02*
X180310000Y-128130000D01*
X179540000Y-129500000D02*
X180310000Y-129500000D01*
X187620000Y-129500000D02*
X186850000Y-129500000D01*
%TO.C,R44*%
X159310000Y-128130000D02*
X159310000Y-130870000D01*
X159310000Y-130870000D02*
X165850000Y-130870000D01*
X165850000Y-130870000D02*
X165850000Y-128130000D01*
X165850000Y-128130000D02*
X159310000Y-128130000D01*
X158540000Y-129500000D02*
X159310000Y-129500000D01*
X166620000Y-129500000D02*
X165850000Y-129500000D01*
%TO.C,R43*%
X138310000Y-128130000D02*
X138310000Y-130870000D01*
X138310000Y-130870000D02*
X144850000Y-130870000D01*
X144850000Y-130870000D02*
X144850000Y-128130000D01*
X144850000Y-128130000D02*
X138310000Y-128130000D01*
X137540000Y-129500000D02*
X138310000Y-129500000D01*
X145620000Y-129500000D02*
X144850000Y-129500000D01*
%TO.C,R42*%
X117310000Y-128130000D02*
X117310000Y-130870000D01*
X117310000Y-130870000D02*
X123850000Y-130870000D01*
X123850000Y-130870000D02*
X123850000Y-128130000D01*
X123850000Y-128130000D02*
X117310000Y-128130000D01*
X116540000Y-129500000D02*
X117310000Y-129500000D01*
X124620000Y-129500000D02*
X123850000Y-129500000D01*
%TO.C,R41*%
X180310000Y-107130000D02*
X180310000Y-109870000D01*
X180310000Y-109870000D02*
X186850000Y-109870000D01*
X186850000Y-109870000D02*
X186850000Y-107130000D01*
X186850000Y-107130000D02*
X180310000Y-107130000D01*
X179540000Y-108500000D02*
X180310000Y-108500000D01*
X187620000Y-108500000D02*
X186850000Y-108500000D01*
%TO.C,R32*%
X19960000Y-52500000D02*
X19190000Y-52500000D01*
X11880000Y-52500000D02*
X12650000Y-52500000D01*
X19190000Y-51130000D02*
X12650000Y-51130000D01*
X19190000Y-53870000D02*
X19190000Y-51130000D01*
X12650000Y-53870000D02*
X19190000Y-53870000D01*
X12650000Y-51130000D02*
X12650000Y-53870000D01*
%TO.C,R31*%
X40960000Y-28000000D02*
X40190000Y-28000000D01*
X32880000Y-28000000D02*
X33650000Y-28000000D01*
X40190000Y-26630000D02*
X33650000Y-26630000D01*
X40190000Y-29370000D02*
X40190000Y-26630000D01*
X33650000Y-29370000D02*
X40190000Y-29370000D01*
X33650000Y-26630000D02*
X33650000Y-29370000D01*
%TO.C,R30*%
X40960000Y-52500000D02*
X40190000Y-52500000D01*
X32880000Y-52500000D02*
X33650000Y-52500000D01*
X40190000Y-51130000D02*
X33650000Y-51130000D01*
X40190000Y-53870000D02*
X40190000Y-51130000D01*
X33650000Y-53870000D02*
X40190000Y-53870000D01*
X33650000Y-51130000D02*
X33650000Y-53870000D01*
%TO.C,R29*%
X61960000Y-28000000D02*
X61190000Y-28000000D01*
X53880000Y-28000000D02*
X54650000Y-28000000D01*
X61190000Y-26630000D02*
X54650000Y-26630000D01*
X61190000Y-29370000D02*
X61190000Y-26630000D01*
X54650000Y-29370000D02*
X61190000Y-29370000D01*
X54650000Y-26630000D02*
X54650000Y-29370000D01*
%TO.C,R28*%
X137540000Y-28000000D02*
X138310000Y-28000000D01*
X145620000Y-28000000D02*
X144850000Y-28000000D01*
X138310000Y-29370000D02*
X144850000Y-29370000D01*
X138310000Y-26630000D02*
X138310000Y-29370000D01*
X144850000Y-26630000D02*
X138310000Y-26630000D01*
X144850000Y-29370000D02*
X144850000Y-26630000D01*
%TO.C,R27*%
X158540000Y-28000000D02*
X159310000Y-28000000D01*
X166620000Y-28000000D02*
X165850000Y-28000000D01*
X159310000Y-29370000D02*
X165850000Y-29370000D01*
X159310000Y-26630000D02*
X159310000Y-29370000D01*
X165850000Y-26630000D02*
X159310000Y-26630000D01*
X165850000Y-29370000D02*
X165850000Y-26630000D01*
%TO.C,R26*%
X158540000Y-52500000D02*
X159310000Y-52500000D01*
X166620000Y-52500000D02*
X165850000Y-52500000D01*
X159310000Y-53870000D02*
X165850000Y-53870000D01*
X159310000Y-51130000D02*
X159310000Y-53870000D01*
X165850000Y-51130000D02*
X159310000Y-51130000D01*
X165850000Y-53870000D02*
X165850000Y-51130000D01*
%TO.C,R25*%
X137540000Y-52500000D02*
X138310000Y-52500000D01*
X145620000Y-52500000D02*
X144850000Y-52500000D01*
X138310000Y-53870000D02*
X144850000Y-53870000D01*
X138310000Y-51130000D02*
X138310000Y-53870000D01*
X144850000Y-51130000D02*
X138310000Y-51130000D01*
X144850000Y-53870000D02*
X144850000Y-51130000D01*
%TO.C,RV9*%
X61250000Y-207250000D02*
X62000000Y-208000000D01*
X60500000Y-208000000D02*
X61250000Y-207250000D01*
X59750000Y-207250000D02*
X62750000Y-207250000D01*
X61250000Y-252250000D02*
X62000000Y-251500000D01*
X60500000Y-251500000D02*
X61250000Y-252250000D01*
X59750000Y-252250000D02*
X62750000Y-252250000D01*
X61250000Y-252250000D02*
X61250000Y-207250000D01*
X60000000Y-260675000D02*
X59500000Y-260175000D01*
X59000000Y-260675000D02*
X60000000Y-260675000D01*
X59500000Y-260175000D02*
X59000000Y-260675000D01*
X60323000Y-199630000D02*
X65870000Y-199630000D01*
X56630000Y-199630000D02*
X58677000Y-199630000D01*
X63823000Y-259870000D02*
X65870000Y-259870000D01*
X60675000Y-259870000D02*
X62178000Y-259870000D01*
X56630000Y-259870000D02*
X58325000Y-259870000D01*
X65870000Y-203014000D02*
X65870000Y-199630000D01*
X65870000Y-253214000D02*
X65870000Y-206285000D01*
X65870000Y-259870000D02*
X65870000Y-256485000D01*
X56630000Y-204214000D02*
X56630000Y-199630000D01*
X56630000Y-252014000D02*
X56630000Y-207485000D01*
X56630000Y-259870000D02*
X56630000Y-255285000D01*
%TO.C,RV8*%
X121100000Y-275800000D02*
X120350000Y-276550000D01*
X120350000Y-275050000D02*
X121100000Y-275800000D01*
X121100000Y-274300000D02*
X121100000Y-277300000D01*
X76100000Y-275800000D02*
X76850000Y-276550000D01*
X76850000Y-275050000D02*
X76100000Y-275800000D01*
X76100000Y-274300000D02*
X76100000Y-277300000D01*
X76100000Y-275800000D02*
X121100000Y-275800000D01*
X67675000Y-274550000D02*
X68175000Y-274050000D01*
X67675000Y-273550000D02*
X67675000Y-274550000D01*
X68175000Y-274050000D02*
X67675000Y-273550000D01*
X128720000Y-274873000D02*
X128720000Y-280420000D01*
X128720000Y-271180000D02*
X128720000Y-273227000D01*
X68480000Y-278373000D02*
X68480000Y-280420000D01*
X68480000Y-275225000D02*
X68480000Y-276728000D01*
X68480000Y-271180000D02*
X68480000Y-272875000D01*
X125336000Y-280420000D02*
X128720000Y-280420000D01*
X75136000Y-280420000D02*
X122065000Y-280420000D01*
X68480000Y-280420000D02*
X71865000Y-280420000D01*
X124136000Y-271180000D02*
X128720000Y-271180000D01*
X76336000Y-271180000D02*
X120865000Y-271180000D01*
X68480000Y-271180000D02*
X73065000Y-271180000D01*
%TO.C,RV7*%
X138250000Y-207250000D02*
X139000000Y-208000000D01*
X137500000Y-208000000D02*
X138250000Y-207250000D01*
X136750000Y-207250000D02*
X139750000Y-207250000D01*
X138250000Y-252250000D02*
X139000000Y-251500000D01*
X137500000Y-251500000D02*
X138250000Y-252250000D01*
X136750000Y-252250000D02*
X139750000Y-252250000D01*
X138250000Y-252250000D02*
X138250000Y-207250000D01*
X137000000Y-260675000D02*
X136500000Y-260175000D01*
X136000000Y-260675000D02*
X137000000Y-260675000D01*
X136500000Y-260175000D02*
X136000000Y-260675000D01*
X137323000Y-199630000D02*
X142870000Y-199630000D01*
X133630000Y-199630000D02*
X135677000Y-199630000D01*
X140823000Y-259870000D02*
X142870000Y-259870000D01*
X137675000Y-259870000D02*
X139178000Y-259870000D01*
X133630000Y-259870000D02*
X135325000Y-259870000D01*
X142870000Y-203014000D02*
X142870000Y-199630000D01*
X142870000Y-253214000D02*
X142870000Y-206285000D01*
X142870000Y-259870000D02*
X142870000Y-256485000D01*
X133630000Y-204214000D02*
X133630000Y-199630000D01*
X133630000Y-252014000D02*
X133630000Y-207485000D01*
X133630000Y-259870000D02*
X133630000Y-255285000D01*
D14*
%TO.C,B7*%
X32385000Y-37705000D02*
X32385000Y-31355000D01*
X12835000Y-37705000D02*
X12835000Y-31355000D01*
D13*
X13820000Y-39565000D02*
G75*
G03*
X13820000Y-39565000I-100000J0D01*
G01*
D14*
%TO.C,B6*%
X68835000Y-115355000D02*
X68835000Y-121705000D01*
X88385000Y-115355000D02*
X88385000Y-121705000D01*
D13*
X87600000Y-113495000D02*
G75*
G03*
X87600000Y-113495000I-100000J0D01*
G01*
%TO.C,B5*%
X87600000Y-151995000D02*
G75*
G03*
X87600000Y-151995000I-100000J0D01*
G01*
D14*
X88385000Y-153855000D02*
X88385000Y-160205000D01*
X68835000Y-153855000D02*
X68835000Y-160205000D01*
%TO.C,B4*%
X90115000Y-283355000D02*
X90115000Y-289705000D01*
X109665000Y-283355000D02*
X109665000Y-289705000D01*
D13*
X108880000Y-281495000D02*
G75*
G03*
X108880000Y-281495000I-100000J0D01*
G01*
D14*
%TO.C,B3*%
X109665000Y-142705000D02*
X109665000Y-136355000D01*
X90115000Y-142705000D02*
X90115000Y-136355000D01*
D13*
X91100000Y-144565000D02*
G75*
G03*
X91100000Y-144565000I-100000J0D01*
G01*
D14*
%TO.C,B2*%
X111115000Y-153855000D02*
X111115000Y-160205000D01*
X130665000Y-153855000D02*
X130665000Y-160205000D01*
D13*
X129880000Y-151995000D02*
G75*
G03*
X129880000Y-151995000I-100000J0D01*
G01*
D14*
%TO.C,B1*%
X130665000Y-121705000D02*
X130665000Y-115355000D01*
X111115000Y-121705000D02*
X111115000Y-115355000D01*
D13*
X112100000Y-123565000D02*
G75*
G03*
X112100000Y-123565000I-100000J0D01*
G01*
D14*
%TO.C,B0*%
X167115000Y-31355000D02*
X167115000Y-37705000D01*
X186665000Y-31355000D02*
X186665000Y-37705000D01*
D13*
X185880000Y-29495000D02*
G75*
G03*
X185880000Y-29495000I-100000J0D01*
G01*
D14*
%TO.C,M0*%
X91352000Y-80050000D02*
X110152000Y-80050000D01*
X91352000Y-46010000D02*
X110152000Y-46010000D01*
D13*
X92029500Y-49060000D02*
G75*
G03*
X92029500Y-49060000I-100000J0D01*
G01*
D12*
%TO.C,SW18*%
X53000000Y-73000000D02*
G75*
G03*
X53000000Y-73000000I-3000000J0D01*
G01*
X44100000Y-71000000D02*
X44100000Y-66900000D01*
X55900000Y-66900000D02*
X55900000Y-71000000D01*
X55900000Y-75000000D02*
X55900000Y-79100000D01*
X44100000Y-75000000D02*
X44100000Y-79100000D01*
X44100000Y-79100000D02*
X55900000Y-79100000D01*
X46200000Y-80500000D02*
X45900000Y-80800000D01*
X45900000Y-80800000D02*
X45900000Y-80200000D01*
X45900000Y-80200000D02*
X46200000Y-80500000D01*
X44100000Y-66900000D02*
X46500000Y-66900000D01*
X48700000Y-66900000D02*
X51300000Y-66900000D01*
X53500000Y-66900000D02*
X55900000Y-66900000D01*
X49500000Y-73000000D02*
X50500000Y-73000000D01*
X50000000Y-73500000D02*
X50000000Y-72500000D01*
%TO.C,SW16*%
X149500000Y-73500000D02*
X149500000Y-72500000D01*
X149000000Y-73000000D02*
X150000000Y-73000000D01*
X153000000Y-66900000D02*
X155400000Y-66900000D01*
X148200000Y-66900000D02*
X150800000Y-66900000D01*
X143600000Y-66900000D02*
X146000000Y-66900000D01*
X145400000Y-80200000D02*
X145700000Y-80500000D01*
X145400000Y-80800000D02*
X145400000Y-80200000D01*
X145700000Y-80500000D02*
X145400000Y-80800000D01*
X143600000Y-79100000D02*
X155400000Y-79100000D01*
X143600000Y-75000000D02*
X143600000Y-79100000D01*
X155400000Y-75000000D02*
X155400000Y-79100000D01*
X155400000Y-66900000D02*
X155400000Y-71000000D01*
X143600000Y-71000000D02*
X143600000Y-66900000D01*
X152500000Y-73000000D02*
G75*
G03*
X152500000Y-73000000I-3000000J0D01*
G01*
%TO.C,SW8*%
X102000000Y-196000000D02*
G75*
G03*
X102000000Y-196000000I-3000000J0D01*
G01*
X104900000Y-198000000D02*
X104900000Y-202100000D01*
X93100000Y-202100000D02*
X93100000Y-198000000D01*
X93100000Y-194000000D02*
X93100000Y-189900000D01*
X104900000Y-194000000D02*
X104900000Y-189900000D01*
X104900000Y-189900000D02*
X93100000Y-189900000D01*
X102800000Y-188500000D02*
X103100000Y-188200000D01*
X103100000Y-188200000D02*
X103100000Y-188800000D01*
X103100000Y-188800000D02*
X102800000Y-188500000D01*
X104900000Y-202100000D02*
X102500000Y-202100000D01*
X100300000Y-202100000D02*
X97700000Y-202100000D01*
X95500000Y-202100000D02*
X93100000Y-202100000D01*
X99500000Y-196000000D02*
X98500000Y-196000000D01*
X99000000Y-195500000D02*
X99000000Y-196500000D01*
%TO.C,RV16*%
X83160000Y-23620000D02*
X82330000Y-23620000D01*
X80710000Y-23620000D02*
X80180000Y-23620000D01*
X77810000Y-23620000D02*
X76630000Y-23620000D01*
X86370000Y-23620000D02*
X86370000Y-18900000D01*
X76630000Y-15090000D02*
X76630000Y-12030000D01*
X76620000Y-23620000D02*
X76620000Y-18900000D01*
X86370000Y-15090000D02*
X86370000Y-12030000D01*
X86370000Y-23620000D02*
X84880000Y-23620000D01*
X86370000Y-12030000D02*
X76630000Y-12030000D01*
%TO.C,RV15*%
X119660000Y-23620000D02*
X118830000Y-23620000D01*
X117210000Y-23620000D02*
X116680000Y-23620000D01*
X114310000Y-23620000D02*
X113130000Y-23620000D01*
X122870000Y-23620000D02*
X122870000Y-18900000D01*
X113130000Y-15090000D02*
X113130000Y-12030000D01*
X113120000Y-23620000D02*
X113120000Y-18900000D01*
X122870000Y-15090000D02*
X122870000Y-12030000D01*
X122870000Y-23620000D02*
X121380000Y-23620000D01*
X122870000Y-12030000D02*
X113130000Y-12030000D01*
%TO.C,RV14*%
X86660000Y-51620000D02*
X85830000Y-51620000D01*
X84210000Y-51620000D02*
X83680000Y-51620000D01*
X81310000Y-51620000D02*
X80130000Y-51620000D01*
X89870000Y-51620000D02*
X89870000Y-46900000D01*
X80130000Y-43090000D02*
X80130000Y-40030000D01*
X80120000Y-51620000D02*
X80120000Y-46900000D01*
X89870000Y-43090000D02*
X89870000Y-40030000D01*
X89870000Y-51620000D02*
X88380000Y-51620000D01*
X89870000Y-40030000D02*
X80130000Y-40030000D01*
%TO.C,RV13*%
X119660000Y-51620000D02*
X118830000Y-51620000D01*
X117210000Y-51620000D02*
X116680000Y-51620000D01*
X114310000Y-51620000D02*
X113130000Y-51620000D01*
X122870000Y-51620000D02*
X122870000Y-46900000D01*
X113130000Y-43090000D02*
X113130000Y-40030000D01*
X113120000Y-51620000D02*
X113120000Y-46900000D01*
X122870000Y-43090000D02*
X122870000Y-40030000D01*
X122870000Y-51620000D02*
X121380000Y-51620000D01*
X122870000Y-40030000D02*
X113130000Y-40030000D01*
%TO.C,RV12*%
X23370000Y-68030000D02*
X13630000Y-68030000D01*
X23370000Y-79620000D02*
X21880000Y-79620000D01*
X23370000Y-71090000D02*
X23370000Y-68030000D01*
X13620000Y-79620000D02*
X13620000Y-74900000D01*
X13630000Y-71090000D02*
X13630000Y-68030000D01*
X23370000Y-79620000D02*
X23370000Y-74900000D01*
X14810000Y-79620000D02*
X13630000Y-79620000D01*
X17710000Y-79620000D02*
X17180000Y-79620000D01*
X20160000Y-79620000D02*
X19330000Y-79620000D01*
%TO.C,RV11*%
X119660000Y-79620000D02*
X118830000Y-79620000D01*
X117210000Y-79620000D02*
X116680000Y-79620000D01*
X114310000Y-79620000D02*
X113130000Y-79620000D01*
X122870000Y-79620000D02*
X122870000Y-74900000D01*
X113130000Y-71090000D02*
X113130000Y-68030000D01*
X113120000Y-79620000D02*
X113120000Y-74900000D01*
X122870000Y-71090000D02*
X122870000Y-68030000D01*
X122870000Y-79620000D02*
X121380000Y-79620000D01*
X122870000Y-68030000D02*
X113130000Y-68030000D01*
%TO.C,RV10*%
X51660000Y-107620000D02*
X50830000Y-107620000D01*
X49210000Y-107620000D02*
X48680000Y-107620000D01*
X46310000Y-107620000D02*
X45130000Y-107620000D01*
X54870000Y-107620000D02*
X54870000Y-102900000D01*
X45130000Y-99090000D02*
X45130000Y-96030000D01*
X45120000Y-107620000D02*
X45120000Y-102900000D01*
X54870000Y-99090000D02*
X54870000Y-96030000D01*
X54870000Y-107620000D02*
X53380000Y-107620000D01*
X54870000Y-96030000D02*
X45130000Y-96030000D01*
%TO.C,RV6*%
X83160000Y-79620000D02*
X82330000Y-79620000D01*
X80710000Y-79620000D02*
X80180000Y-79620000D01*
X77810000Y-79620000D02*
X76630000Y-79620000D01*
X86370000Y-79620000D02*
X86370000Y-74900000D01*
X76630000Y-71090000D02*
X76630000Y-68030000D01*
X76620000Y-79620000D02*
X76620000Y-74900000D01*
X86370000Y-71090000D02*
X86370000Y-68030000D01*
X86370000Y-79620000D02*
X84880000Y-79620000D01*
X86370000Y-68030000D02*
X76630000Y-68030000D01*
%TO.C,RV5*%
X182660000Y-79620000D02*
X181830000Y-79620000D01*
X180210000Y-79620000D02*
X179680000Y-79620000D01*
X177310000Y-79620000D02*
X176130000Y-79620000D01*
X185870000Y-79620000D02*
X185870000Y-74900000D01*
X176130000Y-71090000D02*
X176130000Y-68030000D01*
X176120000Y-79620000D02*
X176120000Y-74900000D01*
X185870000Y-71090000D02*
X185870000Y-68030000D01*
X185870000Y-79620000D02*
X184380000Y-79620000D01*
X185870000Y-68030000D02*
X176130000Y-68030000D01*
%TO.C,RV4*%
X83160000Y-107620000D02*
X82330000Y-107620000D01*
X80710000Y-107620000D02*
X80180000Y-107620000D01*
X77810000Y-107620000D02*
X76630000Y-107620000D01*
X86370000Y-107620000D02*
X86370000Y-102900000D01*
X76630000Y-99090000D02*
X76630000Y-96030000D01*
X76620000Y-107620000D02*
X76620000Y-102900000D01*
X86370000Y-99090000D02*
X86370000Y-96030000D01*
X86370000Y-107620000D02*
X84880000Y-107620000D01*
X86370000Y-96030000D02*
X76630000Y-96030000D01*
%TO.C,RV3*%
X154370000Y-96030000D02*
X144630000Y-96030000D01*
X154370000Y-107620000D02*
X152880000Y-107620000D01*
X154370000Y-99090000D02*
X154370000Y-96030000D01*
X144620000Y-107620000D02*
X144620000Y-102900000D01*
X144630000Y-99090000D02*
X144630000Y-96030000D01*
X154370000Y-107620000D02*
X154370000Y-102900000D01*
X145810000Y-107620000D02*
X144630000Y-107620000D01*
X148710000Y-107620000D02*
X148180000Y-107620000D01*
X151160000Y-107620000D02*
X150330000Y-107620000D01*
%TO.C,RV2*%
X164870000Y-1530000D02*
X155130000Y-1530000D01*
X164870000Y-13120000D02*
X163380000Y-13120000D01*
X164870000Y-4590000D02*
X164870000Y-1530000D01*
X155120000Y-13120000D02*
X155120000Y-8400000D01*
X155130000Y-4590000D02*
X155130000Y-1530000D01*
X164870000Y-13120000D02*
X164870000Y-8400000D01*
X156310000Y-13120000D02*
X155130000Y-13120000D01*
X159210000Y-13120000D02*
X158680000Y-13120000D01*
X161660000Y-13120000D02*
X160830000Y-13120000D01*
%TO.C,RV1*%
X119740000Y-107700000D02*
X118910000Y-107700000D01*
X117290000Y-107700000D02*
X116760000Y-107700000D01*
X114390000Y-107700000D02*
X113210000Y-107700000D01*
X122950000Y-107700000D02*
X122950000Y-102980000D01*
X113210000Y-99170000D02*
X113210000Y-96110000D01*
X113200000Y-107700000D02*
X113200000Y-102980000D01*
X122950000Y-99170000D02*
X122950000Y-96110000D01*
X122950000Y-107700000D02*
X121460000Y-107700000D01*
X122950000Y-96110000D02*
X113210000Y-96110000D01*
%TD*%
%TO.C,SW58*%
D15*
X86159047Y-169111428D02*
X86920952Y-169111428D01*
X86540000Y-169492380D02*
X86540000Y-168730476D01*
X76159047Y-169111428D02*
X76920952Y-169111428D01*
%TO.C,SW55*%
X65159047Y-169111428D02*
X65920952Y-169111428D01*
X65540000Y-169492380D02*
X65540000Y-168730476D01*
X55159047Y-169111428D02*
X55920952Y-169111428D01*
%TO.C,SW51*%
X44159047Y-169111428D02*
X44920952Y-169111428D01*
X44540000Y-169492380D02*
X44540000Y-168730476D01*
X34159047Y-169111428D02*
X34920952Y-169111428D01*
%TO.C,SW48*%
X23159047Y-169111428D02*
X23920952Y-169111428D01*
X23540000Y-169492380D02*
X23540000Y-168730476D01*
X13159047Y-169111428D02*
X13920952Y-169111428D01*
%TO.C,SW42*%
X86079047Y-148031428D02*
X86840952Y-148031428D01*
X86460000Y-148412380D02*
X86460000Y-147650476D01*
X76079047Y-148031428D02*
X76840952Y-148031428D01*
%TO.C,SW39*%
X65079047Y-148031428D02*
X65840952Y-148031428D01*
X65460000Y-148412380D02*
X65460000Y-147650476D01*
X55079047Y-148031428D02*
X55840952Y-148031428D01*
%TO.C,SW35*%
X23079047Y-148031428D02*
X23840952Y-148031428D01*
X23460000Y-148412380D02*
X23460000Y-147650476D01*
X13079047Y-148031428D02*
X13840952Y-148031428D01*
%TO.C,SW32*%
X44079047Y-148031428D02*
X44840952Y-148031428D01*
X44460000Y-148412380D02*
X44460000Y-147650476D01*
X34079047Y-148031428D02*
X34840952Y-148031428D01*
%TO.C,SW28*%
X175659047Y-169031428D02*
X176420952Y-169031428D01*
X176040000Y-169412380D02*
X176040000Y-168650476D01*
X185659047Y-169031428D02*
X186420952Y-169031428D01*
%TO.C,SW25*%
X154659047Y-169031428D02*
X155420952Y-169031428D01*
X155040000Y-169412380D02*
X155040000Y-168650476D01*
X164659047Y-169031428D02*
X165420952Y-169031428D01*
%TO.C,SW20*%
X133659047Y-169031428D02*
X134420952Y-169031428D01*
X134040000Y-169412380D02*
X134040000Y-168650476D01*
X143659047Y-169031428D02*
X144420952Y-169031428D01*
%TO.C,SW17*%
X112659047Y-169031428D02*
X113420952Y-169031428D01*
X113040000Y-169412380D02*
X113040000Y-168650476D01*
X122659047Y-169031428D02*
X123420952Y-169031428D01*
%TO.C,SW13*%
X175659047Y-148031428D02*
X176420952Y-148031428D01*
X176040000Y-148412380D02*
X176040000Y-147650476D01*
X185659047Y-148031428D02*
X186420952Y-148031428D01*
%TO.C,SW10*%
X154659047Y-148031428D02*
X155420952Y-148031428D01*
X155040000Y-148412380D02*
X155040000Y-147650476D01*
X164659047Y-148031428D02*
X165420952Y-148031428D01*
%TO.C,SW6*%
X112659047Y-148031428D02*
X113420952Y-148031428D01*
X113040000Y-148412380D02*
X113040000Y-147650476D01*
X122659047Y-148031428D02*
X123420952Y-148031428D01*
%TO.C,SW3*%
X133739047Y-148111428D02*
X134500952Y-148111428D01*
X134120000Y-148492380D02*
X134120000Y-147730476D01*
X143739047Y-148111428D02*
X144500952Y-148111428D01*
%TD*%
M02*
