M48
; DRILL file {KiCad (5.1.7-0-10_14)} date Saturday, November 07, 2020 at 02:29:30 PM
; FORMAT={-:-/ absolute / inch / decimal}
; #@! TF.CreationDate,2020-11-07T14:29:30-03:00
; #@! TF.GenerationSoftware,Kicad,Pcbnew,(5.1.7-0-10_14)
FMAT,2
INCH
T1C0.0157
T2C0.0307
T3C0.0315
T4C0.0354
T5C0.0394
T6C0.0433
T7C0.0472
T8C0.0591
T9C0.0669
T10C0.0709
T11C0.1260
%
G90
G05
T1
X1.7Y-6.292
X1.8362Y-5.6642
X1.9003Y-2.9903
X1.9188Y-6.2309
X2.3866Y-8.4539
X2.7584Y-6.2526
X2.897Y-10.2668
X3.3815Y-6.202
X4.1875Y-5.8793
X4.226Y-6.8431
X4.9786Y-1.5766
X5.0665Y-1.5856
X5.3488Y-6.1519
X5.5394Y-3.9223
X5.5623Y-1.2236
X5.8296Y-5.9547
X6.0655Y-6.1227
X6.1022Y-3.203
X6.407Y-5.0091
T2
X2.7449Y-4.5102
X2.7449Y-4.8228
X2.8449Y-4.5102
X2.8449Y-4.8228
X2.9449Y-4.5102
X2.9449Y-4.8228
X3.0449Y-4.5102
X3.0449Y-4.8228
X3.1449Y-4.5102
X3.1449Y-4.8228
X3.2449Y-4.5102
X3.2449Y-4.8228
X3.3449Y-4.5102
X3.3449Y-4.8228
X3.4449Y-4.5102
X3.4449Y-4.8228
X1.5047Y-6.026
X1.5047Y-6.3386
X1.6047Y-6.026
X1.6047Y-6.3386
X1.7047Y-6.026
X1.7047Y-6.3386
X1.8047Y-6.026
X1.8047Y-6.3386
X1.9047Y-6.026
X1.9047Y-6.3386
X2.0047Y-6.026
X2.0047Y-6.3386
X2.1047Y-6.026
X2.1047Y-6.3386
X2.2047Y-6.026
X2.2047Y-6.3386
X5.6496Y-6.026
X5.6496Y-6.3386
X5.7496Y-6.026
X5.7496Y-6.3386
X5.8496Y-6.026
X5.8496Y-6.3386
X5.9496Y-6.026
X5.9496Y-6.3386
X6.0496Y-6.026
X6.0496Y-6.3386
X6.1496Y-6.026
X6.1496Y-6.3386
X6.2496Y-6.026
X6.2496Y-6.3386
X6.3496Y-6.026
X6.3496Y-6.3386
X2.7449Y-6.026
X2.7449Y-6.3386
X2.8449Y-6.026
X2.8449Y-6.3386
X2.9449Y-6.026
X2.9449Y-6.3386
X3.0449Y-6.026
X3.0449Y-6.3386
X3.1449Y-6.026
X3.1449Y-6.3386
X3.2449Y-6.026
X3.2449Y-6.3386
X3.3449Y-6.026
X3.3449Y-6.3386
X3.4449Y-6.026
X3.4449Y-6.3386
X3.5827Y-11.1244
X3.5827Y-11.437
X3.6827Y-11.1244
X3.6827Y-11.437
X3.7827Y-11.1244
X3.7827Y-11.437
X3.8827Y-11.1244
X3.8827Y-11.437
X3.9827Y-11.1244
X3.9827Y-11.437
X4.0827Y-11.1244
X4.0827Y-11.437
X4.1827Y-11.1244
X4.1827Y-11.437
X4.2827Y-11.1244
X4.2827Y-11.437
X1.5047Y-4.5102
X1.5047Y-4.8228
X1.6047Y-4.5102
X1.6047Y-4.8228
X1.7047Y-4.5102
X1.7047Y-4.8228
X1.8047Y-4.5102
X1.8047Y-4.8228
X1.9047Y-4.5102
X1.9047Y-4.8228
X2.0047Y-4.5102
X2.0047Y-4.8228
X2.1047Y-4.5102
X2.1047Y-4.8228
X2.2047Y-4.5102
X2.2047Y-4.8228
X0.5402Y-1.2031
X0.5402Y-1.5157
X0.6402Y-1.2031
X0.6402Y-1.5157
X0.7402Y-1.2031
X0.7402Y-1.5157
X0.8402Y-1.2031
X0.8402Y-1.5157
X0.9402Y-1.2031
X0.9402Y-1.5157
X1.0402Y-1.2031
X1.0402Y-1.5157
X1.1402Y-1.2031
X1.1402Y-1.5157
X1.2402Y-1.2031
X1.2402Y-1.5157
X4.4094Y-4.5102
X4.4094Y-4.8228
X4.5094Y-4.5102
X4.5094Y-4.8228
X4.6094Y-4.5102
X4.6094Y-4.8228
X4.7094Y-4.5102
X4.7094Y-4.8228
X4.8094Y-4.5102
X4.8094Y-4.8228
X4.9094Y-4.5102
X4.9094Y-4.8228
X5.0094Y-4.5102
X5.0094Y-4.8228
X5.1094Y-4.5102
X5.1094Y-4.8228
X3.5827Y-5.337
X3.5827Y-5.6496
X3.6827Y-5.337
X3.6827Y-5.6496
X3.7827Y-5.337
X3.7827Y-5.6496
X3.8827Y-5.337
X3.8827Y-5.6496
X3.9827Y-5.337
X3.9827Y-5.6496
X4.0827Y-5.337
X4.0827Y-5.6496
X4.1827Y-5.337
X4.1827Y-5.6496
X4.2827Y-5.337
X4.2827Y-5.6496
X4.8228Y-8.8079
X4.8228Y-8.9079
X4.8228Y-9.0079
X4.8228Y-9.1079
X4.8228Y-9.2079
X4.8228Y-9.3079
X4.8228Y-9.4079
X4.8228Y-9.5079
X5.1354Y-8.8079
X5.1354Y-8.9079
X5.1354Y-9.0079
X5.1354Y-9.1079
X5.1354Y-9.2079
X5.1354Y-9.3079
X5.1354Y-9.4079
X5.1354Y-9.5079
X5.6496Y-4.5102
X5.6496Y-4.8228
X5.7496Y-4.5102
X5.7496Y-4.8228
X5.8496Y-4.5102
X5.8496Y-4.8228
X5.9496Y-4.5102
X5.9496Y-4.8228
X6.0496Y-4.5102
X6.0496Y-4.8228
X6.1496Y-4.5102
X6.1496Y-4.8228
X6.2496Y-4.5102
X6.2496Y-4.8228
X6.3496Y-4.5102
X6.3496Y-4.8228
X4.4094Y-6.026
X4.4094Y-6.3386
X4.5094Y-6.026
X4.5094Y-6.3386
X4.6094Y-6.026
X4.6094Y-6.3386
X4.7094Y-6.026
X4.7094Y-6.3386
X4.8094Y-6.026
X4.8094Y-6.3386
X4.9094Y-6.026
X4.9094Y-6.3386
X5.0094Y-6.026
X5.0094Y-6.3386
X5.1094Y-6.026
X5.1094Y-6.3386
X6.6142Y-1.2031
X6.6142Y-1.5157
X6.7142Y-1.2031
X6.7142Y-1.5157
X6.8142Y-1.2031
X6.8142Y-1.5157
X6.9142Y-1.2031
X6.9142Y-1.5157
X7.0142Y-1.2031
X7.0142Y-1.5157
X7.1142Y-1.2031
X7.1142Y-1.5157
X7.2142Y-1.2031
X7.2142Y-1.5157
X7.3142Y-1.2031
X7.3142Y-1.5157
X2.7406Y-8.8079
X2.7406Y-8.9079
X2.7406Y-9.0079
X2.7406Y-9.1079
X2.7406Y-9.2079
X2.7406Y-9.3079
X2.7406Y-9.4079
X2.7406Y-9.5079
X3.0531Y-8.8079
X3.0531Y-8.9079
X3.0531Y-9.0079
X3.0531Y-9.1079
X3.0531Y-9.2079
X3.0531Y-9.3079
X3.0531Y-9.4079
X3.0531Y-9.5079
X3.5717Y-1.0654
X3.5717Y-1.378
X3.6717Y-1.0654
X3.6717Y-1.378
X3.7717Y-1.0654
X3.7717Y-1.378
X3.8717Y-1.0654
X3.8717Y-1.378
X3.9717Y-1.0654
X3.9717Y-1.378
X4.0717Y-1.0654
X4.0717Y-1.378
X4.1717Y-1.0654
X4.1717Y-1.378
X4.2717Y-1.0654
X4.2717Y-1.378
T3
X2.6181Y-4.974
X2.6181Y-5.374
X3.1827Y-8.8189
X3.5827Y-8.8189
X1.6535Y-8.0055
X1.6535Y-8.4055
X1.7913Y-1.6669
X1.7913Y-2.0669
X5.374Y-2.0669
X5.774Y-2.0669
X6.752Y-4.5606
X6.752Y-4.9606
X6.063Y-4.974
X6.063Y-5.374
X6.063Y-1.6669
X6.063Y-2.0669
X1.7913Y-4.974
X1.7913Y-5.374
X5.9252Y-5.5252
X5.9252Y-5.9252
X2.8969Y-6.4929
X2.8969Y-6.8929
X6.063Y-2.4803
X6.463Y-2.4803
X6.4764Y-8.0055
X6.4764Y-8.4055
X5.363Y-5.8283
X5.5913Y-5.8283
X1.4425Y-6.6551
X1.6709Y-6.6551
X5.3598Y-6.652
X5.5882Y-6.652
X6.2008Y-1.1024
X6.6008Y-1.1024
X3.0961Y-6.6551
X3.3244Y-6.6551
X6.8898Y-3.8717
X6.8898Y-4.2717
X1.9291Y-5.5252
X1.9291Y-5.9252
X1.1157Y-8.4055
X1.5157Y-8.4055
X3.6616Y-1.9315
X3.6616Y-2.0315
X3.6616Y-2.1315
X3.6616Y-2.2315
X3.6616Y-2.3315
X3.6616Y-2.4315
X3.6616Y-2.5315
X3.6616Y-2.6315
X3.6616Y-2.7315
X3.6616Y-2.8315
X3.6616Y-2.9315
X3.6616Y-3.0315
X4.2716Y-1.9315
X4.2716Y-2.0315
X4.2716Y-2.1315
X4.2716Y-2.2315
X4.2716Y-2.3315
X4.2716Y-2.4315
X4.2716Y-2.5315
X4.2716Y-2.6315
X4.2716Y-2.7315
X4.2716Y-2.8315
X4.2716Y-2.9315
X4.2716Y-3.0315
X3.4449Y-4.974
X3.4449Y-5.374
X0.9677Y-6.4929
X0.9677Y-6.8929
X3.1827Y-9.6457
X3.5827Y-9.6457
X3.4449Y-5.5252
X3.4449Y-5.9252
X1.2535Y-1.1024
X1.6535Y-1.1024
X4.5472Y-5.0984
X4.9472Y-5.0984
X6.8898Y-4.974
X6.8898Y-5.374
X5.2394Y-4.9772
X5.2394Y-5.3772
X4.2717Y-9.6457
X4.6717Y-9.6457
X2.6213Y-6.4929
X2.6213Y-6.8929
X7.0134Y-5.8252
X7.2417Y-5.8252
X1.2433Y-6.4929
X1.2433Y-6.8929
X6.063Y-5.5252
X6.063Y-5.9252
X6.2008Y-5.0984
X6.6008Y-5.0984
X2.6181Y-0.7024
X2.6181Y-1.1024
X6.8898Y-6.4898
X6.8898Y-6.8898
X2.2661Y-5.8252
X2.4945Y-5.8252
X4.4094Y-6.4898
X4.4094Y-6.8898
X2.0803Y-7.1654
X2.4803Y-7.1654
X6.8898Y-1.6669
X6.8898Y-2.0669
X5.374Y-7.1654
X5.774Y-7.1654
X3.9992Y-7.3031
X4.3992Y-7.3031
X3.7236Y-8.1299
X4.1236Y-8.1299
X6.2008Y-2.0669
X6.6008Y-2.0669
X2.3425Y-2.7693
X2.3425Y-3.1693
X4.5331Y-5.8252
X4.7614Y-5.8252
X6.1866Y-6.652
X6.415Y-6.652
X6.063Y-0.7024
X6.063Y-1.1024
X5.2362Y-1.6669
X5.2362Y-2.0669
X2.7559Y-5.5252
X2.7559Y-5.9252
X5.7874Y-6.4898
X5.7874Y-6.8898
X5.2362Y-7.1787
X5.2362Y-7.5787
X4.2717Y-9.9213
X4.6717Y-9.9213
X6.752Y-5.5252
X6.752Y-5.9252
X0.9646Y-5.5252
X0.9646Y-5.9252
X1.4394Y-5.8252
X1.6677Y-5.8252
X3.1827Y-10.1969
X3.5827Y-10.1969
X5.5118Y-2.7693
X5.5118Y-3.1693
X4.4094Y-4.974
X4.4094Y-5.374
X1.6535Y-2.7693
X1.6535Y-3.1693
X3.7205Y-4.4126
X4.1205Y-4.4126
X1.7913Y-0.7024
X1.7913Y-1.1024
X0.4299Y-5.1016
X0.8299Y-5.1016
X7.4409Y-0.7024
X7.4409Y-1.1024
X6.8898Y-10.7614
X6.8898Y-11.1614
X3.1827Y-9.3701
X3.5827Y-9.3701
X4.5331Y-6.652
X4.7614Y-6.652
X5.2362Y-5.5252
X5.2362Y-5.9252
X3.1827Y-8.5433
X3.5827Y-8.5433
X7.4409Y-6.4898
X7.4409Y-6.8898
X6.8898Y-5.5252
X6.8898Y-5.9252
X0.4268Y-2.0669
X0.8268Y-2.0669
X4.2717Y-8.8189
X4.6717Y-8.8189
X2.2693Y-6.6551
X2.4976Y-6.6551
X4.2748Y-8.5465
X4.6748Y-8.5465
X5.374Y-5.0984
X5.774Y-5.0984
X7.0276Y-5.0984
X7.4276Y-5.0984
X3.0929Y-5.8252
X3.3213Y-5.8252
X0.9646Y-3.8717
X0.9646Y-4.2717
X1.1024Y-0.7024
X1.1024Y-1.1024
X2.6181Y-5.5252
X2.6181Y-5.9252
X1.1024Y-4.5606
X1.1024Y-4.9606
X6.6142Y-9.7835
X7.0142Y-9.7835
X4.2717Y-9.3701
X4.6717Y-9.3701
X7.0276Y-4.2717
X7.4276Y-4.2717
X5.374Y-1.1024
X5.774Y-1.1024
X6.4764Y-9.3835
X6.4764Y-9.7835
X5.2362Y-6.4898
X5.2362Y-6.8898
X4.2717Y-9.0945
X4.6717Y-9.0945
X6.063Y-10.7614
X6.063Y-11.1614
X6.6142Y-8.4055
X7.0142Y-8.4055
X2.0803Y-1.1024
X2.4803Y-1.1024
X2.0701Y-6.4929
X2.0701Y-6.8929
X1.2535Y-5.0984
X1.6535Y-5.0984
X0.9677Y-4.9772
X0.9677Y-5.3772
X6.063Y-6.4898
X6.063Y-6.8898
X0.6126Y-5.8252
X0.8409Y-5.8252
X4.2717Y-8.2677
X4.6717Y-8.2677
X0.2787Y-5.5283
X0.2787Y-5.9283
X3.1827Y-9.9213
X3.5827Y-9.9213
X6.752Y-0.7024
X6.752Y-1.1024
X2.0803Y-2.4803
X2.4803Y-2.4803
X3.448Y-6.4929
X3.448Y-6.8929
X4.2717Y-10.1969
X4.6717Y-10.1969
X3.1827Y-9.0945
X3.5827Y-9.0945
X3.4583Y-7.3031
X3.8583Y-7.3031
X4.4094Y-7.7299
X4.4094Y-8.1299
X5.2362Y-0.7024
X5.2362Y-1.1024
X4.4094Y-5.5252
X4.4094Y-5.9252
X2.6181Y-1.6669
X2.6181Y-2.0669
X0.9646Y-1.6669
X0.9646Y-2.0669
X7.0134Y-6.652
X7.2417Y-6.652
X0.4165Y-6.4929
X0.4165Y-6.8929
X4.9606Y-6.4898
X4.9606Y-6.8898
X0.4134Y-4.5606
X0.4134Y-4.9606
X1.1024Y-5.5252
X1.1024Y-5.9252
X5.0984Y-5.5252
X5.0984Y-5.9252
X0.6157Y-6.6551
X0.8441Y-6.6551
X0.4268Y-4.2717
X0.8268Y-4.2717
X0.4134Y-0.7024
X0.4134Y-1.1024
X3.4449Y-7.7299
X3.4449Y-8.1299
X2.9071Y-5.0984
X3.3071Y-5.0984
X1.6535Y-9.3835
X1.6535Y-9.7835
X2.0803Y-5.0984
X2.4803Y-5.0984
X1.7945Y-6.4929
X1.7945Y-6.8929
X6.6142Y-6.4898
X6.6142Y-6.8898
X1.7913Y-5.5252
X1.7913Y-5.9252
X6.2008Y-2.7693
X6.2008Y-3.1693
X6.1866Y-5.8252
X6.415Y-5.8252
X2.6181Y-7.1787
X2.6181Y-7.5787
X7.5787Y-5.5252
X7.5787Y-5.9252
X1.2535Y-2.0669
X1.6535Y-2.0669
X1.1157Y-9.7835
X1.5157Y-9.7835
X7.4409Y-4.5606
X7.4409Y-4.9606
X3.1827Y-8.2677
X3.5827Y-8.2677
T4
X2.0669Y-7.4787
X2.0669Y-7.5787
X6.6142Y-1.8291
X6.6142Y-1.9291
X4.9638Y-5.415
X4.9638Y-5.515
X3.9961Y-8.8189
X4.0961Y-8.8189
X1.2402Y-0.8646
X1.2402Y-0.9646
X7.0276Y-9.5457
X7.0276Y-9.6457
X7.0276Y-8.1677
X7.0276Y-8.2677
X7.4441Y-4.037
X7.4441Y-4.137
X6.6142Y-0.8646
X6.6142Y-0.9646
X3.7583Y-8.5433
X3.8583Y-8.5433
X5.7874Y-7.4787
X5.7874Y-7.5787
X0.4134Y-1.8291
X0.4134Y-1.9291
X3.7583Y-10.1969
X3.8583Y-10.1969
X1.1024Y-8.1677
X1.1024Y-8.2677
X5.7874Y-1.8291
X5.7874Y-1.9291
X3.9961Y-9.0945
X4.0961Y-9.0945
X3.7583Y-9.9213
X3.8583Y-9.9213
X1.2402Y-1.8291
X1.2402Y-1.9291
X3.9961Y-9.3701
X4.0961Y-9.3701
X2.0669Y-5.4118
X2.0669Y-5.5118
X3.7583Y-8.8189
X3.8583Y-8.8189
X7.4409Y-5.4118
X7.4409Y-5.5118
X3.7583Y-9.6457
X3.8583Y-9.6457
X2.8937Y-5.4118
X2.8937Y-5.5118
X3.9961Y-8.2677
X4.0961Y-8.2677
X3.9961Y-9.9213
X4.0961Y-9.9213
X3.7583Y-8.2677
X3.8583Y-8.2677
X1.1024Y-9.5457
X1.1024Y-9.6457
X2.0701Y-0.8677
X2.0701Y-0.9677
X3.9961Y-9.6457
X4.0961Y-9.6457
X1.2402Y-5.3772
X1.2402Y-5.4772
X0.4134Y-4.0339
X0.4134Y-4.1339
X3.7583Y-9.0945
X3.8583Y-9.0945
X6.6173Y-5.415
X6.6173Y-5.515
X3.7583Y-9.3701
X3.8583Y-9.3701
X0.4165Y-5.415
X0.4165Y-5.515
X5.7906Y-5.415
X5.7906Y-5.515
X3.9961Y-8.5433
X4.0961Y-8.5433
X3.9961Y-10.1969
X4.0961Y-10.1969
X5.7874Y-0.8646
X5.7874Y-0.9646
T5
X4.5472Y-6.552
X4.5472Y-6.752
X4.6472Y-6.552
X4.7472Y-6.552
X4.7472Y-6.752
X1.8701Y-4.2717
X1.9685Y-4.2717
X2.0669Y-4.2717
X2.2835Y-6.5551
X2.2835Y-6.7551
X2.3835Y-6.7551
X2.4835Y-6.5551
X2.4835Y-6.7551
X3.1071Y-5.7252
X3.1071Y-5.9252
X3.2071Y-5.9252
X3.3071Y-5.7252
X3.3071Y-5.9252
X3.0315Y-1.0803
X3.0315Y-1.1803
X3.0315Y-1.2803
X3.0315Y-1.3803
X3.0315Y-1.4803
X3.0315Y-1.5803
X3.0315Y-1.6803
X3.0315Y-1.7803
X3.0315Y-1.9803
X3.0315Y-2.0803
X3.0315Y-2.1803
X3.0315Y-2.2803
X3.0315Y-2.3803
X3.0315Y-2.4803
X4.9315Y-0.7205
X4.9315Y-0.8205
X4.9315Y-0.9205
X4.9315Y-1.0205
X4.9315Y-1.1205
X4.9315Y-1.2205
X4.9315Y-1.3205
X4.9315Y-1.4205
X4.9315Y-1.5205
X4.9315Y-1.6205
X4.9315Y-1.7803
X4.9315Y-1.8803
X4.9315Y-1.9803
X4.9315Y-2.0803
X4.9315Y-2.1803
X4.9315Y-2.2803
X4.9315Y-2.3803
X4.9315Y-2.4803
X6.2008Y-0.5512
X6.2992Y-0.5512
X6.3976Y-0.5512
X1.4598Y-11.0236
X1.5583Y-11.0236
X1.6567Y-11.0236
X4.5504Y-4.2748
X4.6488Y-4.2748
X4.7472Y-4.2748
X3.1102Y-4.2717
X3.2087Y-4.2717
X3.3071Y-4.2717
X7.0276Y-3.1693
X7.126Y-3.1693
X7.2244Y-3.1693
X0.6268Y-5.7252
X0.6268Y-5.9252
X0.7268Y-5.9252
X0.8268Y-5.7252
X0.8268Y-5.9252
X5.7874Y-2.5984
X5.7874Y-3.1693
X5.8858Y-3.1693
X5.9843Y-2.5984
X5.9843Y-3.1693
X7.0276Y-6.552
X7.0276Y-6.752
X7.1276Y-6.552
X7.2276Y-6.552
X7.2276Y-6.752
X5.7874Y-4.2717
X5.8858Y-4.2717
X5.9843Y-4.2717
X4.5472Y-3.1693
X4.6457Y-3.1693
X4.7441Y-3.1693
X0.6299Y-6.5551
X0.6299Y-6.7551
X0.7299Y-6.7551
X0.8299Y-6.5551
X0.8299Y-6.7551
X3.7992Y-7.4213
X3.7992Y-7.9921
X3.8976Y-7.4213
X3.9961Y-7.4213
X3.9961Y-7.9921
X0.6299Y-3.1693
X0.7283Y-3.1693
X0.8268Y-3.1693
X1.8701Y-2.5984
X1.8701Y-3.1693
X1.9685Y-3.1693
X2.0669Y-2.5984
X2.0669Y-3.1693
X0.6331Y-11.0236
X0.7315Y-11.0236
X0.8299Y-11.0236
X6.2008Y-5.7252
X6.2008Y-5.9252
X6.3008Y-5.7252
X6.4008Y-5.7252
X6.4008Y-5.9252
X4.5472Y-2.0669
X4.6457Y-2.0669
X4.7441Y-2.0669
X3.1102Y-3.1693
X3.2087Y-3.1693
X3.3071Y-3.1693
X3.1102Y-0.9646
X3.2087Y-0.9646
X3.3071Y-0.9646
X5.3772Y-5.7283
X5.3772Y-5.9283
X5.4772Y-5.7283
X5.5772Y-5.7283
X5.5772Y-5.9283
X1.4567Y-6.5551
X1.4567Y-6.7551
X1.5567Y-6.7551
X1.6567Y-6.5551
X1.6567Y-6.7551
X5.374Y-6.552
X5.374Y-6.752
X5.474Y-6.552
X5.574Y-6.552
X5.574Y-6.752
X3.1102Y-6.5551
X3.1102Y-6.7551
X3.2102Y-6.7551
X3.3102Y-6.5551
X3.3102Y-6.7551
X3.248Y-2.0669
X3.3465Y-2.0669
X3.4449Y-2.0669
X7.0276Y-5.7252
X7.0276Y-5.9252
X7.1276Y-5.7252
X7.2276Y-5.7252
X7.2276Y-5.9252
X2.2803Y-5.7252
X2.2803Y-5.9252
X2.3803Y-5.9252
X2.4803Y-5.7252
X2.4803Y-5.9252
X4.5472Y-5.7252
X4.5472Y-5.9252
X4.6472Y-5.7252
X4.7472Y-5.7252
X4.7472Y-5.9252
X6.2008Y-6.552
X6.2008Y-6.752
X6.3008Y-6.552
X6.4008Y-6.552
X6.4008Y-6.752
X1.4535Y-5.7252
X1.4535Y-5.9252
X1.5535Y-5.9252
X1.6535Y-5.7252
X1.6535Y-5.9252
X4.5472Y-0.9646
X4.6457Y-0.9646
X4.7441Y-0.9646
T6
X7.1654Y-0.7087
X7.1654Y-0.9646
X7.3425Y-0.7087
X7.3425Y-0.9646
X6.8898Y-0.7087
X6.8898Y-0.9646
X7.0669Y-0.7087
X7.0669Y-0.9646
X0.5118Y-0.7087
X0.5118Y-0.9646
X0.689Y-0.7087
X0.689Y-0.9646
X0.7874Y-4.5669
X0.7874Y-4.8228
X0.9646Y-4.5669
X0.9646Y-4.8228
X5.374Y-7.3228
X5.374Y-7.5787
X5.5512Y-7.3228
X5.5512Y-7.5787
X4.5472Y-5.2559
X4.5472Y-5.5118
X4.7244Y-5.2559
X4.7244Y-5.5118
X1.4764Y-1.6732
X1.4764Y-1.9291
X1.6535Y-1.6732
X1.6535Y-1.9291
X7.0276Y-1.6732
X7.0276Y-1.9291
X7.2047Y-1.6732
X7.2047Y-1.9291
X6.2008Y-10.7677
X6.2008Y-11.0236
X6.378Y-10.7677
X6.378Y-11.0236
X6.2008Y-5.2559
X6.2008Y-5.5118
X6.378Y-5.2559
X6.378Y-5.5118
X3.1299Y-7.7362
X3.1299Y-7.9921
X3.3071Y-7.7362
X3.3071Y-7.9921
X0.6528Y-5.2591
X0.6528Y-5.515
X0.8299Y-5.2591
X0.8299Y-5.515
X6.6142Y-8.0118
X6.6142Y-8.2677
X6.7913Y-8.0118
X6.7913Y-8.2677
X7.0276Y-5.2559
X7.0276Y-5.5118
X7.2047Y-5.2559
X7.2047Y-5.5118
X7.1654Y-4.5669
X7.1654Y-4.8228
X7.3425Y-4.5669
X7.3425Y-4.8228
X0.6496Y-1.6732
X0.6496Y-1.9291
X0.8268Y-1.6732
X0.8268Y-1.9291
X5.374Y-0.7087
X5.374Y-0.9646
X5.5512Y-0.7087
X5.5512Y-0.9646
X2.3031Y-7.3228
X2.3031Y-7.5787
X2.4803Y-7.3228
X2.4803Y-7.5787
X7.0276Y-10.7677
X7.0276Y-11.0236
X7.2047Y-10.7677
X7.2047Y-11.0236
X0.6496Y-3.878
X0.6496Y-4.1339
X0.8268Y-3.878
X0.8268Y-4.1339
X5.374Y-5.2559
X5.374Y-5.5118
X5.5512Y-5.2559
X5.5512Y-5.5118
X0.5118Y-4.5669
X0.5118Y-4.8228
X0.689Y-4.5669
X0.689Y-4.8228
X6.2008Y-0.7087
X6.2008Y-0.9646
X6.378Y-0.7087
X6.378Y-0.9646
X3.1299Y-5.2559
X3.1299Y-5.5118
X3.3071Y-5.2559
X3.3071Y-5.5118
X3.8583Y-4.5669
X3.8583Y-4.8228
X4.0354Y-4.5669
X4.0354Y-4.8228
X2.3031Y-5.2559
X2.3031Y-5.5118
X2.4803Y-5.2559
X2.4803Y-5.5118
X1.4764Y-0.7087
X1.4764Y-0.9646
X1.6535Y-0.7087
X1.6535Y-0.9646
X2.3031Y-1.6732
X2.3031Y-1.9291
X2.4803Y-1.6732
X2.4803Y-1.9291
X1.3386Y-9.3898
X1.3386Y-9.6457
X1.5157Y-9.3898
X1.5157Y-9.6457
X1.4764Y-5.2559
X1.4764Y-5.5118
X1.6535Y-5.2559
X1.6535Y-5.5118
X6.2008Y-1.6732
X6.2008Y-1.9291
X6.378Y-1.6732
X6.378Y-1.9291
X5.3772Y-1.6567
X5.3772Y-1.9126
X5.5543Y-1.6567
X5.5543Y-1.9126
X7.0307Y-3.8811
X7.0307Y-4.137
X7.2079Y-3.8811
X7.2079Y-4.137
X0.7874Y-0.7087
X0.7874Y-0.9646
X0.9646Y-0.7087
X0.9646Y-0.9646
X6.6142Y-9.3898
X6.6142Y-9.6457
X6.7913Y-9.3898
X6.7913Y-9.6457
X6.8898Y-4.5669
X6.8898Y-4.8228
X7.0669Y-4.5669
X7.0669Y-4.8228
X1.3386Y-8.0118
X1.3386Y-8.2677
X1.5157Y-8.0118
X1.5157Y-8.2677
X2.3063Y-0.7118
X2.3063Y-0.9677
X2.4835Y-0.7118
X2.4835Y-0.9677
X4.5472Y-7.7362
X4.5472Y-7.9921
X4.7244Y-7.7362
X4.7244Y-7.9921
T7
X5.374Y-7.8937
X5.374Y-10.1969
X5.5118Y-10.1969
X2.7303Y-10.7894
X2.7303Y-10.9272
X5.0335Y-10.7894
X2.3425Y-7.8937
X2.3425Y-10.1969
X2.4803Y-10.1969
T9
X5.2776Y-8.1043
X5.2776Y-9.9862
X5.6083Y-8.0571
X5.6083Y-10.0335
X2.8937Y-11.0236
X2.9409Y-10.6929
X4.8228Y-10.6929
X4.8701Y-11.0236
X2.2461Y-8.1043
X2.2461Y-9.9862
X2.5768Y-8.0571
X2.5768Y-10.0335
T10
X4.4567Y-0.6693
X4.8346Y-0.6693
X1.7795Y-3.9764
X2.1575Y-3.9764
X6.1102Y-0.2559
X6.4882Y-0.2559
X1.3693Y-10.7283
X1.7472Y-10.7283
X4.4598Y-3.9795
X4.8378Y-3.9795
X3.0197Y-3.9764
X3.3976Y-3.9764
X6.937Y-2.874
X7.315Y-2.874
X5.6969Y-3.9764
X6.0748Y-3.9764
X4.4567Y-2.874
X4.8346Y-2.874
X0.5394Y-2.874
X0.9173Y-2.874
X0.5425Y-10.7283
X0.9205Y-10.7283
X4.4567Y-1.7717
X4.8346Y-1.7717
X3.0197Y-2.874
X3.3976Y-2.874
X3.0197Y-0.6693
X3.3976Y-0.6693
X3.1575Y-1.7717
X3.5354Y-1.7717
T11
X4.9606Y-3.5827
X4.9606Y-8.5433
X2.8937Y-3.5827
X2.8937Y-8.5433
X7.4409Y-0.2756
X0.2756Y-6.2008
X0.2756Y-11.2992
X7.4409Y-6.2008
X7.4409Y-11.2992
X0.2756Y-0.2756
T8
G00X5.6654Y-2.8996
M15
G01X5.6654Y-2.8484
M16
G05
G00X6.1063Y-2.8996
M15
G01X6.1063Y-2.8484
M16
G05
G00X3.6772Y-7.6909
M15
G01X3.6772Y-7.7421
M16
G05
G00X4.1181Y-7.6909
M15
G01X4.1181Y-7.7421
M16
G05
G00X1.748Y-2.8996
M15
G01X1.748Y-2.8484
M16
G05
G00X2.189Y-2.8996
M15
G01X2.189Y-2.8484
M16
G05
T0
M30
