%TF.GenerationSoftware,KiCad,Pcbnew,(5.1.7-0-10_14)*%
%TF.CreationDate,2020-11-07T14:29:28-03:00*%
%TF.ProjectId,MIDI2_out,4d494449-325f-46f7-9574-2e6b69636164,rev?*%
%TF.SameCoordinates,Original*%
%TF.FileFunction,Legend,Bot*%
%TF.FilePolarity,Positive*%
%FSLAX46Y46*%
G04 Gerber Fmt 4.6, Leading zero omitted, Abs format (unit mm)*
G04 Created by KiCad (PCBNEW (5.1.7-0-10_14)) date 2020-11-07 14:29:28*
%MOMM*%
%LPD*%
G01*
G04 APERTURE LIST*
%TA.AperFunction,Profile*%
%ADD10C,0.050000*%
%TD*%
%ADD11C,0.120000*%
G04 APERTURE END LIST*
D10*
X0Y0D02*
X0Y-294000000D01*
X196000000Y0D02*
X0Y0D01*
X196000000Y-294000000D02*
X196000000Y0D01*
X0Y-294000000D02*
X196000000Y-294000000D01*
D11*
%TO.C,A1*%
X112310000Y-68210000D02*
X79540000Y-68210000D01*
X79540000Y-68210000D02*
X77000000Y-65670000D01*
X77000000Y-65670000D02*
X74330000Y-65670000D01*
X74330000Y-65670000D02*
X74330000Y630000D01*
X74330000Y630000D02*
X77510000Y630000D01*
X77510000Y630000D02*
X77510000Y2530000D01*
X77510000Y2530000D02*
X86650000Y2530000D01*
X86650000Y2530000D02*
X86650000Y630000D01*
X86650000Y630000D02*
X106720000Y630000D01*
X106720000Y630000D02*
X106720000Y6980000D01*
X106720000Y6980000D02*
X118400000Y6980000D01*
X118400000Y6980000D02*
X118400000Y630000D01*
X118400000Y630000D02*
X127930000Y630000D01*
X127930000Y630000D02*
X127930000Y-64020000D01*
X127930000Y-64020000D02*
X126280000Y-65670000D01*
X126280000Y-65670000D02*
X114850000Y-65670000D01*
X114850000Y-65670000D02*
X112310000Y-68210000D01*
%TD*%
M02*
