%TF.GenerationSoftware,KiCad,Pcbnew,(5.1.7-0-10_14)*%
%TF.CreationDate,2020-11-07T14:15:53-03:00*%
%TF.ProjectId,MIDI2_out,4d494449-325f-46f7-9574-2e6b69636164,rev?*%
%TF.SameCoordinates,Original*%
%TF.FileFunction,Other,User*%
%FSLAX46Y46*%
G04 Gerber Fmt 4.6, Leading zero omitted, Abs format (unit mm)*
G04 Created by KiCad (PCBNEW (5.1.7-0-10_14)) date 2020-11-07 14:15:53*
%MOMM*%
%LPD*%
G01*
G04 APERTURE LIST*
%ADD10C,0.100000*%
%ADD11C,0.150000*%
%ADD12C,0.300000*%
%ADD13C,0.400000*%
G04 APERTURE END LIST*
D10*
D11*
X76011800Y-250005000D02*
X76011800Y-282005000D01*
X184011800Y-282005000D01*
X184011800Y-250005000D01*
X76011800Y-250005000D01*
D10*
D11*
X10000000Y-10000000D02*
X10000000Y-284005000D01*
X186011800Y-284005000D01*
X186011800Y-10000000D01*
X10000000Y-10000000D01*
D10*
D11*
X12000000Y-12000000D02*
X12000000Y-282005000D01*
X184011800Y-282005000D01*
X184011800Y-12000000D01*
X12000000Y-12000000D01*
D10*
D11*
X60000000Y-12000000D02*
X60000000Y-10000000D01*
D10*
D11*
X110000000Y-12000000D02*
X110000000Y-10000000D01*
D10*
D11*
X160000000Y-12000000D02*
X160000000Y-10000000D01*
D10*
D11*
X36065476Y-11588095D02*
X35322619Y-11588095D01*
X35694047Y-11588095D02*
X35694047Y-10288095D01*
X35570238Y-10473809D01*
X35446428Y-10597619D01*
X35322619Y-10659523D01*
D10*
D11*
X85322619Y-10411904D02*
X85384523Y-10350000D01*
X85508333Y-10288095D01*
X85817857Y-10288095D01*
X85941666Y-10350000D01*
X86003571Y-10411904D01*
X86065476Y-10535714D01*
X86065476Y-10659523D01*
X86003571Y-10845238D01*
X85260714Y-11588095D01*
X86065476Y-11588095D01*
D10*
D11*
X135260714Y-10288095D02*
X136065476Y-10288095D01*
X135632142Y-10783333D01*
X135817857Y-10783333D01*
X135941666Y-10845238D01*
X136003571Y-10907142D01*
X136065476Y-11030952D01*
X136065476Y-11340476D01*
X136003571Y-11464285D01*
X135941666Y-11526190D01*
X135817857Y-11588095D01*
X135446428Y-11588095D01*
X135322619Y-11526190D01*
X135260714Y-11464285D01*
D10*
D11*
X185941666Y-10721428D02*
X185941666Y-11588095D01*
X185632142Y-10226190D02*
X185322619Y-11154761D01*
X186127380Y-11154761D01*
D10*
D11*
X60000000Y-282005000D02*
X60000000Y-284005000D01*
D10*
D11*
X110000000Y-282005000D02*
X110000000Y-284005000D01*
D10*
D11*
X160000000Y-282005000D02*
X160000000Y-284005000D01*
D10*
D11*
X36065476Y-283593095D02*
X35322619Y-283593095D01*
X35694047Y-283593095D02*
X35694047Y-282293095D01*
X35570238Y-282478809D01*
X35446428Y-282602619D01*
X35322619Y-282664523D01*
D10*
D11*
X85322619Y-282416904D02*
X85384523Y-282355000D01*
X85508333Y-282293095D01*
X85817857Y-282293095D01*
X85941666Y-282355000D01*
X86003571Y-282416904D01*
X86065476Y-282540714D01*
X86065476Y-282664523D01*
X86003571Y-282850238D01*
X85260714Y-283593095D01*
X86065476Y-283593095D01*
D10*
D11*
X135260714Y-282293095D02*
X136065476Y-282293095D01*
X135632142Y-282788333D01*
X135817857Y-282788333D01*
X135941666Y-282850238D01*
X136003571Y-282912142D01*
X136065476Y-283035952D01*
X136065476Y-283345476D01*
X136003571Y-283469285D01*
X135941666Y-283531190D01*
X135817857Y-283593095D01*
X135446428Y-283593095D01*
X135322619Y-283531190D01*
X135260714Y-283469285D01*
D10*
D11*
X185941666Y-282726428D02*
X185941666Y-283593095D01*
X185632142Y-282231190D02*
X185322619Y-283159761D01*
X186127380Y-283159761D01*
D10*
D11*
X10000000Y-60000000D02*
X12000000Y-60000000D01*
D10*
D11*
X10000000Y-110000000D02*
X12000000Y-110000000D01*
D10*
D11*
X10000000Y-160000000D02*
X12000000Y-160000000D01*
D10*
D11*
X10000000Y-210000000D02*
X12000000Y-210000000D01*
D10*
D11*
X10000000Y-260000000D02*
X12000000Y-260000000D01*
D10*
D11*
X10690476Y-35216666D02*
X11309523Y-35216666D01*
X10566666Y-35588095D02*
X11000000Y-34288095D01*
X11433333Y-35588095D01*
D10*
D11*
X11092857Y-84907142D02*
X11278571Y-84969047D01*
X11340476Y-85030952D01*
X11402380Y-85154761D01*
X11402380Y-85340476D01*
X11340476Y-85464285D01*
X11278571Y-85526190D01*
X11154761Y-85588095D01*
X10659523Y-85588095D01*
X10659523Y-84288095D01*
X11092857Y-84288095D01*
X11216666Y-84350000D01*
X11278571Y-84411904D01*
X11340476Y-84535714D01*
X11340476Y-84659523D01*
X11278571Y-84783333D01*
X11216666Y-84845238D01*
X11092857Y-84907142D01*
X10659523Y-84907142D01*
D10*
D11*
X11402380Y-135464285D02*
X11340476Y-135526190D01*
X11154761Y-135588095D01*
X11030952Y-135588095D01*
X10845238Y-135526190D01*
X10721428Y-135402380D01*
X10659523Y-135278571D01*
X10597619Y-135030952D01*
X10597619Y-134845238D01*
X10659523Y-134597619D01*
X10721428Y-134473809D01*
X10845238Y-134350000D01*
X11030952Y-134288095D01*
X11154761Y-134288095D01*
X11340476Y-134350000D01*
X11402380Y-134411904D01*
D10*
D11*
X10659523Y-185588095D02*
X10659523Y-184288095D01*
X10969047Y-184288095D01*
X11154761Y-184350000D01*
X11278571Y-184473809D01*
X11340476Y-184597619D01*
X11402380Y-184845238D01*
X11402380Y-185030952D01*
X11340476Y-185278571D01*
X11278571Y-185402380D01*
X11154761Y-185526190D01*
X10969047Y-185588095D01*
X10659523Y-185588095D01*
D10*
D11*
X10721428Y-234907142D02*
X11154761Y-234907142D01*
X11340476Y-235588095D02*
X10721428Y-235588095D01*
X10721428Y-234288095D01*
X11340476Y-234288095D01*
D10*
D11*
X186011800Y-60000000D02*
X184011800Y-60000000D01*
D10*
D11*
X186011800Y-110000000D02*
X184011800Y-110000000D01*
D10*
D11*
X186011800Y-160000000D02*
X184011800Y-160000000D01*
D10*
D11*
X186011800Y-210000000D02*
X184011800Y-210000000D01*
D10*
D11*
X186011800Y-260000000D02*
X184011800Y-260000000D01*
D10*
D11*
X184702276Y-35216666D02*
X185321323Y-35216666D01*
X184578466Y-35588095D02*
X185011800Y-34288095D01*
X185445133Y-35588095D01*
D10*
D11*
X185104657Y-84907142D02*
X185290371Y-84969047D01*
X185352276Y-85030952D01*
X185414180Y-85154761D01*
X185414180Y-85340476D01*
X185352276Y-85464285D01*
X185290371Y-85526190D01*
X185166561Y-85588095D01*
X184671323Y-85588095D01*
X184671323Y-84288095D01*
X185104657Y-84288095D01*
X185228466Y-84350000D01*
X185290371Y-84411904D01*
X185352276Y-84535714D01*
X185352276Y-84659523D01*
X185290371Y-84783333D01*
X185228466Y-84845238D01*
X185104657Y-84907142D01*
X184671323Y-84907142D01*
D10*
D11*
X185414180Y-135464285D02*
X185352276Y-135526190D01*
X185166561Y-135588095D01*
X185042752Y-135588095D01*
X184857038Y-135526190D01*
X184733228Y-135402380D01*
X184671323Y-135278571D01*
X184609419Y-135030952D01*
X184609419Y-134845238D01*
X184671323Y-134597619D01*
X184733228Y-134473809D01*
X184857038Y-134350000D01*
X185042752Y-134288095D01*
X185166561Y-134288095D01*
X185352276Y-134350000D01*
X185414180Y-134411904D01*
D10*
D11*
X184671323Y-185588095D02*
X184671323Y-184288095D01*
X184980847Y-184288095D01*
X185166561Y-184350000D01*
X185290371Y-184473809D01*
X185352276Y-184597619D01*
X185414180Y-184845238D01*
X185414180Y-185030952D01*
X185352276Y-185278571D01*
X185290371Y-185402380D01*
X185166561Y-185526190D01*
X184980847Y-185588095D01*
X184671323Y-185588095D01*
D10*
D11*
X184733228Y-234907142D02*
X185166561Y-234907142D01*
X185352276Y-235588095D02*
X184733228Y-235588095D01*
X184733228Y-234288095D01*
X185352276Y-234288095D01*
D10*
D11*
X99443942Y-277783571D02*
X99443942Y-276283571D01*
X99801085Y-276283571D01*
X100015371Y-276355000D01*
X100158228Y-276497857D01*
X100229657Y-276640714D01*
X100301085Y-276926428D01*
X100301085Y-277140714D01*
X100229657Y-277426428D01*
X100158228Y-277569285D01*
X100015371Y-277712142D01*
X99801085Y-277783571D01*
X99443942Y-277783571D01*
X101586800Y-277783571D02*
X101586800Y-276997857D01*
X101515371Y-276855000D01*
X101372514Y-276783571D01*
X101086800Y-276783571D01*
X100943942Y-276855000D01*
X101586800Y-277712142D02*
X101443942Y-277783571D01*
X101086800Y-277783571D01*
X100943942Y-277712142D01*
X100872514Y-277569285D01*
X100872514Y-277426428D01*
X100943942Y-277283571D01*
X101086800Y-277212142D01*
X101443942Y-277212142D01*
X101586800Y-277140714D01*
X102086800Y-276783571D02*
X102658228Y-276783571D01*
X102301085Y-276283571D02*
X102301085Y-277569285D01*
X102372514Y-277712142D01*
X102515371Y-277783571D01*
X102658228Y-277783571D01*
X103729657Y-277712142D02*
X103586800Y-277783571D01*
X103301085Y-277783571D01*
X103158228Y-277712142D01*
X103086800Y-277569285D01*
X103086800Y-276997857D01*
X103158228Y-276855000D01*
X103301085Y-276783571D01*
X103586800Y-276783571D01*
X103729657Y-276855000D01*
X103801085Y-276997857D01*
X103801085Y-277140714D01*
X103086800Y-277283571D01*
X104443942Y-277640714D02*
X104515371Y-277712142D01*
X104443942Y-277783571D01*
X104372514Y-277712142D01*
X104443942Y-277640714D01*
X104443942Y-277783571D01*
X104443942Y-276855000D02*
X104515371Y-276926428D01*
X104443942Y-276997857D01*
X104372514Y-276926428D01*
X104443942Y-276855000D01*
X104443942Y-276997857D01*
D10*
D11*
X76011800Y-278505000D02*
X184011800Y-278505000D01*
D10*
D11*
X77443942Y-280583571D02*
X77443942Y-279083571D01*
X78301085Y-280583571D02*
X77658228Y-279726428D01*
X78301085Y-279083571D02*
X77443942Y-279940714D01*
X78943942Y-280583571D02*
X78943942Y-279583571D01*
X78943942Y-279083571D02*
X78872514Y-279155000D01*
X78943942Y-279226428D01*
X79015371Y-279155000D01*
X78943942Y-279083571D01*
X78943942Y-279226428D01*
X80515371Y-280440714D02*
X80443942Y-280512142D01*
X80229657Y-280583571D01*
X80086800Y-280583571D01*
X79872514Y-280512142D01*
X79729657Y-280369285D01*
X79658228Y-280226428D01*
X79586800Y-279940714D01*
X79586800Y-279726428D01*
X79658228Y-279440714D01*
X79729657Y-279297857D01*
X79872514Y-279155000D01*
X80086800Y-279083571D01*
X80229657Y-279083571D01*
X80443942Y-279155000D01*
X80515371Y-279226428D01*
X81801085Y-280583571D02*
X81801085Y-279797857D01*
X81729657Y-279655000D01*
X81586800Y-279583571D01*
X81301085Y-279583571D01*
X81158228Y-279655000D01*
X81801085Y-280512142D02*
X81658228Y-280583571D01*
X81301085Y-280583571D01*
X81158228Y-280512142D01*
X81086800Y-280369285D01*
X81086800Y-280226428D01*
X81158228Y-280083571D01*
X81301085Y-280012142D01*
X81658228Y-280012142D01*
X81801085Y-279940714D01*
X83158228Y-280583571D02*
X83158228Y-279083571D01*
X83158228Y-280512142D02*
X83015371Y-280583571D01*
X82729657Y-280583571D01*
X82586800Y-280512142D01*
X82515371Y-280440714D01*
X82443942Y-280297857D01*
X82443942Y-279869285D01*
X82515371Y-279726428D01*
X82586800Y-279655000D01*
X82729657Y-279583571D01*
X83015371Y-279583571D01*
X83158228Y-279655000D01*
X85015371Y-279797857D02*
X85515371Y-279797857D01*
X85729657Y-280583571D02*
X85015371Y-280583571D01*
X85015371Y-279083571D01*
X85729657Y-279083571D01*
X86372514Y-280440714D02*
X86443942Y-280512142D01*
X86372514Y-280583571D01*
X86301085Y-280512142D01*
X86372514Y-280440714D01*
X86372514Y-280583571D01*
X87086800Y-280583571D02*
X87086800Y-279083571D01*
X87443942Y-279083571D01*
X87658228Y-279155000D01*
X87801085Y-279297857D01*
X87872514Y-279440714D01*
X87943942Y-279726428D01*
X87943942Y-279940714D01*
X87872514Y-280226428D01*
X87801085Y-280369285D01*
X87658228Y-280512142D01*
X87443942Y-280583571D01*
X87086800Y-280583571D01*
X88586800Y-280440714D02*
X88658228Y-280512142D01*
X88586800Y-280583571D01*
X88515371Y-280512142D01*
X88586800Y-280440714D01*
X88586800Y-280583571D01*
X89229657Y-280155000D02*
X89943942Y-280155000D01*
X89086800Y-280583571D02*
X89586800Y-279083571D01*
X90086800Y-280583571D01*
X90586800Y-280440714D02*
X90658228Y-280512142D01*
X90586800Y-280583571D01*
X90515371Y-280512142D01*
X90586800Y-280440714D01*
X90586800Y-280583571D01*
X93586800Y-279583571D02*
X93586800Y-281083571D01*
X93586800Y-279655000D02*
X93729657Y-279583571D01*
X94015371Y-279583571D01*
X94158228Y-279655000D01*
X94229657Y-279726428D01*
X94301085Y-279869285D01*
X94301085Y-280297857D01*
X94229657Y-280440714D01*
X94158228Y-280512142D01*
X94015371Y-280583571D01*
X93729657Y-280583571D01*
X93586800Y-280512142D01*
X95586800Y-280512142D02*
X95443942Y-280583571D01*
X95158228Y-280583571D01*
X95015371Y-280512142D01*
X94943942Y-280440714D01*
X94872514Y-280297857D01*
X94872514Y-279869285D01*
X94943942Y-279726428D01*
X95015371Y-279655000D01*
X95158228Y-279583571D01*
X95443942Y-279583571D01*
X95586800Y-279655000D01*
X96229657Y-280583571D02*
X96229657Y-279083571D01*
X96229657Y-279655000D02*
X96372514Y-279583571D01*
X96658228Y-279583571D01*
X96801085Y-279655000D01*
X96872514Y-279726428D01*
X96943942Y-279869285D01*
X96943942Y-280297857D01*
X96872514Y-280440714D01*
X96801085Y-280512142D01*
X96658228Y-280583571D01*
X96372514Y-280583571D01*
X96229657Y-280512142D01*
X97586800Y-279583571D02*
X97586800Y-280583571D01*
X97586800Y-279726428D02*
X97658228Y-279655000D01*
X97801085Y-279583571D01*
X98015371Y-279583571D01*
X98158228Y-279655000D01*
X98229657Y-279797857D01*
X98229657Y-280583571D01*
X99515371Y-280512142D02*
X99372514Y-280583571D01*
X99086800Y-280583571D01*
X98943942Y-280512142D01*
X98872514Y-280369285D01*
X98872514Y-279797857D01*
X98943942Y-279655000D01*
X99086800Y-279583571D01*
X99372514Y-279583571D01*
X99515371Y-279655000D01*
X99586800Y-279797857D01*
X99586800Y-279940714D01*
X98872514Y-280083571D01*
X100086800Y-279583571D02*
X100372514Y-280583571D01*
X100658228Y-279869285D01*
X100943942Y-280583571D01*
X101229657Y-279583571D01*
X103372514Y-281155000D02*
X103301085Y-281083571D01*
X103158228Y-280869285D01*
X103086800Y-280726428D01*
X103015371Y-280512142D01*
X102943942Y-280155000D01*
X102943942Y-279869285D01*
X103015371Y-279512142D01*
X103086800Y-279297857D01*
X103158228Y-279155000D01*
X103301085Y-278940714D01*
X103372514Y-278869285D01*
X104658228Y-279083571D02*
X103943942Y-279083571D01*
X103872514Y-279797857D01*
X103943942Y-279726428D01*
X104086800Y-279655000D01*
X104443942Y-279655000D01*
X104586800Y-279726428D01*
X104658228Y-279797857D01*
X104729657Y-279940714D01*
X104729657Y-280297857D01*
X104658228Y-280440714D01*
X104586800Y-280512142D01*
X104443942Y-280583571D01*
X104086800Y-280583571D01*
X103943942Y-280512142D01*
X103872514Y-280440714D01*
X105372514Y-280440714D02*
X105443942Y-280512142D01*
X105372514Y-280583571D01*
X105301085Y-280512142D01*
X105372514Y-280440714D01*
X105372514Y-280583571D01*
X106872514Y-280583571D02*
X106015371Y-280583571D01*
X106443942Y-280583571D02*
X106443942Y-279083571D01*
X106301085Y-279297857D01*
X106158228Y-279440714D01*
X106015371Y-279512142D01*
X107515371Y-280440714D02*
X107586800Y-280512142D01*
X107515371Y-280583571D01*
X107443942Y-280512142D01*
X107515371Y-280440714D01*
X107515371Y-280583571D01*
X108086800Y-279083571D02*
X109086800Y-279083571D01*
X108443942Y-280583571D01*
X109658228Y-280012142D02*
X110801085Y-280012142D01*
X111801085Y-279083571D02*
X111943942Y-279083571D01*
X112086800Y-279155000D01*
X112158228Y-279226428D01*
X112229657Y-279369285D01*
X112301085Y-279655000D01*
X112301085Y-280012142D01*
X112229657Y-280297857D01*
X112158228Y-280440714D01*
X112086800Y-280512142D01*
X111943942Y-280583571D01*
X111801085Y-280583571D01*
X111658228Y-280512142D01*
X111586800Y-280440714D01*
X111515371Y-280297857D01*
X111443942Y-280012142D01*
X111443942Y-279655000D01*
X111515371Y-279369285D01*
X111586800Y-279226428D01*
X111658228Y-279155000D01*
X111801085Y-279083571D01*
X112943942Y-280012142D02*
X114086800Y-280012142D01*
X115586800Y-280583571D02*
X114729657Y-280583571D01*
X115158228Y-280583571D02*
X115158228Y-279083571D01*
X115015371Y-279297857D01*
X114872514Y-279440714D01*
X114729657Y-279512142D01*
X116515371Y-279083571D02*
X116658228Y-279083571D01*
X116801085Y-279155000D01*
X116872514Y-279226428D01*
X116943942Y-279369285D01*
X117015371Y-279655000D01*
X117015371Y-280012142D01*
X116943942Y-280297857D01*
X116872514Y-280440714D01*
X116801085Y-280512142D01*
X116658228Y-280583571D01*
X116515371Y-280583571D01*
X116372514Y-280512142D01*
X116301085Y-280440714D01*
X116229657Y-280297857D01*
X116158228Y-280012142D01*
X116158228Y-279655000D01*
X116229657Y-279369285D01*
X116301085Y-279226428D01*
X116372514Y-279155000D01*
X116515371Y-279083571D01*
X117301085Y-280726428D02*
X118443942Y-280726428D01*
X119586800Y-280583571D02*
X118729657Y-280583571D01*
X119158228Y-280583571D02*
X119158228Y-279083571D01*
X119015371Y-279297857D01*
X118872514Y-279440714D01*
X118729657Y-279512142D01*
X120872514Y-279583571D02*
X120872514Y-280583571D01*
X120515371Y-279012142D02*
X120158228Y-280083571D01*
X121086800Y-280083571D01*
X121515371Y-281155000D02*
X121586799Y-281083571D01*
X121729657Y-280869285D01*
X121801085Y-280726428D01*
X121872514Y-280512142D01*
X121943942Y-280155000D01*
X121943942Y-279869285D01*
X121872514Y-279512142D01*
X121801085Y-279297857D01*
X121729657Y-279155000D01*
X121586799Y-278940714D01*
X121515371Y-278869285D01*
D10*
D11*
X76011800Y-275505000D02*
X184011800Y-275505000D01*
D10*
D12*
X163421085Y-277783571D02*
X162921085Y-277069285D01*
X162563942Y-277783571D02*
X162563942Y-276283571D01*
X163135371Y-276283571D01*
X163278228Y-276355000D01*
X163349657Y-276426428D01*
X163421085Y-276569285D01*
X163421085Y-276783571D01*
X163349657Y-276926428D01*
X163278228Y-276997857D01*
X163135371Y-277069285D01*
X162563942Y-277069285D01*
X164635371Y-277712142D02*
X164492514Y-277783571D01*
X164206800Y-277783571D01*
X164063942Y-277712142D01*
X163992514Y-277569285D01*
X163992514Y-276997857D01*
X164063942Y-276855000D01*
X164206800Y-276783571D01*
X164492514Y-276783571D01*
X164635371Y-276855000D01*
X164706800Y-276997857D01*
X164706800Y-277140714D01*
X163992514Y-277283571D01*
X165206800Y-276783571D02*
X165563942Y-277783571D01*
X165921085Y-276783571D01*
X166492514Y-277640714D02*
X166563942Y-277712142D01*
X166492514Y-277783571D01*
X166421085Y-277712142D01*
X166492514Y-277640714D01*
X166492514Y-277783571D01*
X166492514Y-276855000D02*
X166563942Y-276926428D01*
X166492514Y-276997857D01*
X166421085Y-276926428D01*
X166492514Y-276855000D01*
X166492514Y-276997857D01*
D10*
D11*
X77372514Y-277712142D02*
X77586800Y-277783571D01*
X77943942Y-277783571D01*
X78086800Y-277712142D01*
X78158228Y-277640714D01*
X78229657Y-277497857D01*
X78229657Y-277355000D01*
X78158228Y-277212142D01*
X78086800Y-277140714D01*
X77943942Y-277069285D01*
X77658228Y-276997857D01*
X77515371Y-276926428D01*
X77443942Y-276855000D01*
X77372514Y-276712142D01*
X77372514Y-276569285D01*
X77443942Y-276426428D01*
X77515371Y-276355000D01*
X77658228Y-276283571D01*
X78015371Y-276283571D01*
X78229657Y-276355000D01*
X78872514Y-277783571D02*
X78872514Y-276783571D01*
X78872514Y-276283571D02*
X78801085Y-276355000D01*
X78872514Y-276426428D01*
X78943942Y-276355000D01*
X78872514Y-276283571D01*
X78872514Y-276426428D01*
X79443942Y-276783571D02*
X80229657Y-276783571D01*
X79443942Y-277783571D01*
X80229657Y-277783571D01*
X81372514Y-277712142D02*
X81229657Y-277783571D01*
X80943942Y-277783571D01*
X80801085Y-277712142D01*
X80729657Y-277569285D01*
X80729657Y-276997857D01*
X80801085Y-276855000D01*
X80943942Y-276783571D01*
X81229657Y-276783571D01*
X81372514Y-276855000D01*
X81443942Y-276997857D01*
X81443942Y-277140714D01*
X80729657Y-277283571D01*
X82086800Y-277640714D02*
X82158228Y-277712142D01*
X82086800Y-277783571D01*
X82015371Y-277712142D01*
X82086800Y-277640714D01*
X82086800Y-277783571D01*
X82086800Y-276855000D02*
X82158228Y-276926428D01*
X82086800Y-276997857D01*
X82015371Y-276926428D01*
X82086800Y-276855000D01*
X82086800Y-276997857D01*
X83943942Y-276283571D02*
X83943942Y-277497857D01*
X84015371Y-277640714D01*
X84086800Y-277712142D01*
X84229657Y-277783571D01*
X84515371Y-277783571D01*
X84658228Y-277712142D01*
X84729657Y-277640714D01*
X84801085Y-277497857D01*
X84801085Y-276283571D01*
X85443942Y-277712142D02*
X85586800Y-277783571D01*
X85872514Y-277783571D01*
X86015371Y-277712142D01*
X86086800Y-277569285D01*
X86086800Y-277497857D01*
X86015371Y-277355000D01*
X85872514Y-277283571D01*
X85658228Y-277283571D01*
X85515371Y-277212142D01*
X85443942Y-277069285D01*
X85443942Y-276997857D01*
X85515371Y-276855000D01*
X85658228Y-276783571D01*
X85872514Y-276783571D01*
X86015371Y-276855000D01*
X87301085Y-277712142D02*
X87158228Y-277783571D01*
X86872514Y-277783571D01*
X86729657Y-277712142D01*
X86658228Y-277569285D01*
X86658228Y-276997857D01*
X86729657Y-276855000D01*
X86872514Y-276783571D01*
X87158228Y-276783571D01*
X87301085Y-276855000D01*
X87372514Y-276997857D01*
X87372514Y-277140714D01*
X86658228Y-277283571D01*
X88015371Y-277783571D02*
X88015371Y-276783571D01*
X88015371Y-277069285D02*
X88086800Y-276926428D01*
X88158228Y-276855000D01*
X88301085Y-276783571D01*
X88443942Y-276783571D01*
D10*
D11*
X162443942Y-280583571D02*
X162443942Y-279083571D01*
X163801085Y-280583571D02*
X163801085Y-279083571D01*
X163801085Y-280512142D02*
X163658228Y-280583571D01*
X163372514Y-280583571D01*
X163229657Y-280512142D01*
X163158228Y-280440714D01*
X163086800Y-280297857D01*
X163086800Y-279869285D01*
X163158228Y-279726428D01*
X163229657Y-279655000D01*
X163372514Y-279583571D01*
X163658228Y-279583571D01*
X163801085Y-279655000D01*
X164515371Y-280440714D02*
X164586800Y-280512142D01*
X164515371Y-280583571D01*
X164443942Y-280512142D01*
X164515371Y-280440714D01*
X164515371Y-280583571D01*
X164515371Y-279655000D02*
X164586800Y-279726428D01*
X164515371Y-279797857D01*
X164443942Y-279726428D01*
X164515371Y-279655000D01*
X164515371Y-279797857D01*
X167158228Y-280583571D02*
X166301085Y-280583571D01*
X166729657Y-280583571D02*
X166729657Y-279083571D01*
X166586800Y-279297857D01*
X166443942Y-279440714D01*
X166301085Y-279512142D01*
X168872514Y-279012142D02*
X167586800Y-280940714D01*
X170158228Y-280583571D02*
X169301085Y-280583571D01*
X169729657Y-280583571D02*
X169729657Y-279083571D01*
X169586800Y-279297857D01*
X169443942Y-279440714D01*
X169301085Y-279512142D01*
D10*
D11*
X76011800Y-271505000D02*
X184011800Y-271505000D01*
D10*
D13*
X77724180Y-272209761D02*
X78867038Y-272209761D01*
X78045609Y-274209761D02*
X78295609Y-272209761D01*
X79283704Y-274209761D02*
X79450371Y-272876428D01*
X79533704Y-272209761D02*
X79426561Y-272305000D01*
X79509895Y-272400238D01*
X79617038Y-272305000D01*
X79533704Y-272209761D01*
X79509895Y-272400238D01*
X80117038Y-272876428D02*
X80878942Y-272876428D01*
X80486085Y-272209761D02*
X80271800Y-273924047D01*
X80343228Y-274114523D01*
X80521800Y-274209761D01*
X80712276Y-274209761D01*
X81664657Y-274209761D02*
X81486085Y-274114523D01*
X81414657Y-273924047D01*
X81628942Y-272209761D01*
X83200371Y-274114523D02*
X82997990Y-274209761D01*
X82617038Y-274209761D01*
X82438466Y-274114523D01*
X82367038Y-273924047D01*
X82462276Y-273162142D01*
X82581323Y-272971666D01*
X82783704Y-272876428D01*
X83164657Y-272876428D01*
X83343228Y-272971666D01*
X83414657Y-273162142D01*
X83390847Y-273352619D01*
X82414657Y-273543095D01*
X84164657Y-274019285D02*
X84247990Y-274114523D01*
X84140847Y-274209761D01*
X84057514Y-274114523D01*
X84164657Y-274019285D01*
X84140847Y-274209761D01*
X84295609Y-272971666D02*
X84378942Y-273066904D01*
X84271800Y-273162142D01*
X84188466Y-273066904D01*
X84295609Y-272971666D01*
X84271800Y-273162142D01*
D10*
D11*
X77943942Y-269597857D02*
X77443942Y-269597857D01*
X77443942Y-270383571D02*
X77443942Y-268883571D01*
X78158228Y-268883571D01*
X78729657Y-270383571D02*
X78729657Y-269383571D01*
X78729657Y-268883571D02*
X78658228Y-268955000D01*
X78729657Y-269026428D01*
X78801085Y-268955000D01*
X78729657Y-268883571D01*
X78729657Y-269026428D01*
X79658228Y-270383571D02*
X79515371Y-270312142D01*
X79443942Y-270169285D01*
X79443942Y-268883571D01*
X80801085Y-270312142D02*
X80658228Y-270383571D01*
X80372514Y-270383571D01*
X80229657Y-270312142D01*
X80158228Y-270169285D01*
X80158228Y-269597857D01*
X80229657Y-269455000D01*
X80372514Y-269383571D01*
X80658228Y-269383571D01*
X80801085Y-269455000D01*
X80872514Y-269597857D01*
X80872514Y-269740714D01*
X80158228Y-269883571D01*
X81515371Y-270240714D02*
X81586800Y-270312142D01*
X81515371Y-270383571D01*
X81443942Y-270312142D01*
X81515371Y-270240714D01*
X81515371Y-270383571D01*
X81515371Y-269455000D02*
X81586800Y-269526428D01*
X81515371Y-269597857D01*
X81443942Y-269526428D01*
X81515371Y-269455000D01*
X81515371Y-269597857D01*
X83372514Y-270383571D02*
X83372514Y-268883571D01*
X83872514Y-269955000D01*
X84372514Y-268883571D01*
X84372514Y-270383571D01*
X85086800Y-270383571D02*
X85086800Y-268883571D01*
X85801085Y-270383571D02*
X85801085Y-268883571D01*
X86158228Y-268883571D01*
X86372514Y-268955000D01*
X86515371Y-269097857D01*
X86586800Y-269240714D01*
X86658228Y-269526428D01*
X86658228Y-269740714D01*
X86586800Y-270026428D01*
X86515371Y-270169285D01*
X86372514Y-270312142D01*
X86158228Y-270383571D01*
X85801085Y-270383571D01*
X87301085Y-270383571D02*
X87301085Y-268883571D01*
X87943942Y-269026428D02*
X88015371Y-268955000D01*
X88158228Y-268883571D01*
X88515371Y-268883571D01*
X88658228Y-268955000D01*
X88729657Y-269026428D01*
X88801085Y-269169285D01*
X88801085Y-269312142D01*
X88729657Y-269526428D01*
X87872514Y-270383571D01*
X88801085Y-270383571D01*
X89086800Y-270526428D02*
X90229657Y-270526428D01*
X90801085Y-270383571D02*
X90658228Y-270312142D01*
X90586800Y-270240714D01*
X90515371Y-270097857D01*
X90515371Y-269669285D01*
X90586800Y-269526428D01*
X90658228Y-269455000D01*
X90801085Y-269383571D01*
X91015371Y-269383571D01*
X91158228Y-269455000D01*
X91229657Y-269526428D01*
X91301085Y-269669285D01*
X91301085Y-270097857D01*
X91229657Y-270240714D01*
X91158228Y-270312142D01*
X91015371Y-270383571D01*
X90801085Y-270383571D01*
X92586800Y-269383571D02*
X92586800Y-270383571D01*
X91943942Y-269383571D02*
X91943942Y-270169285D01*
X92015371Y-270312142D01*
X92158228Y-270383571D01*
X92372514Y-270383571D01*
X92515371Y-270312142D01*
X92586800Y-270240714D01*
X93086800Y-269383571D02*
X93658228Y-269383571D01*
X93301085Y-268883571D02*
X93301085Y-270169285D01*
X93372514Y-270312142D01*
X93515371Y-270383571D01*
X93658228Y-270383571D01*
X94158228Y-270240714D02*
X94229657Y-270312142D01*
X94158228Y-270383571D01*
X94086800Y-270312142D01*
X94158228Y-270240714D01*
X94158228Y-270383571D01*
X94872514Y-270383571D02*
X94872514Y-268883571D01*
X95015371Y-269812142D02*
X95443942Y-270383571D01*
X95443942Y-269383571D02*
X94872514Y-269955000D01*
X96086800Y-270383571D02*
X96086800Y-269383571D01*
X96086800Y-268883571D02*
X96015371Y-268955000D01*
X96086800Y-269026428D01*
X96158228Y-268955000D01*
X96086800Y-268883571D01*
X96086800Y-269026428D01*
X97443942Y-270312142D02*
X97301085Y-270383571D01*
X97015371Y-270383571D01*
X96872514Y-270312142D01*
X96801085Y-270240714D01*
X96729657Y-270097857D01*
X96729657Y-269669285D01*
X96801085Y-269526428D01*
X96872514Y-269455000D01*
X97015371Y-269383571D01*
X97301085Y-269383571D01*
X97443942Y-269455000D01*
X98729657Y-270383571D02*
X98729657Y-269597857D01*
X98658228Y-269455000D01*
X98515371Y-269383571D01*
X98229657Y-269383571D01*
X98086800Y-269455000D01*
X98729657Y-270312142D02*
X98586800Y-270383571D01*
X98229657Y-270383571D01*
X98086800Y-270312142D01*
X98015371Y-270169285D01*
X98015371Y-270026428D01*
X98086800Y-269883571D01*
X98229657Y-269812142D01*
X98586800Y-269812142D01*
X98729657Y-269740714D01*
X100086800Y-270383571D02*
X100086800Y-268883571D01*
X100086800Y-270312142D02*
X99943942Y-270383571D01*
X99658228Y-270383571D01*
X99515371Y-270312142D01*
X99443942Y-270240714D01*
X99372514Y-270097857D01*
X99372514Y-269669285D01*
X99443942Y-269526428D01*
X99515371Y-269455000D01*
X99658228Y-269383571D01*
X99943942Y-269383571D01*
X100086800Y-269455000D01*
X100443942Y-270526428D02*
X101586800Y-270526428D01*
X101943942Y-269383571D02*
X101943942Y-270883571D01*
X101943942Y-269455000D02*
X102086800Y-269383571D01*
X102372514Y-269383571D01*
X102515371Y-269455000D01*
X102586800Y-269526428D01*
X102658228Y-269669285D01*
X102658228Y-270097857D01*
X102586800Y-270240714D01*
X102515371Y-270312142D01*
X102372514Y-270383571D01*
X102086800Y-270383571D01*
X101943942Y-270312142D01*
X103943942Y-270312142D02*
X103801085Y-270383571D01*
X103515371Y-270383571D01*
X103372514Y-270312142D01*
X103301085Y-270240714D01*
X103229657Y-270097857D01*
X103229657Y-269669285D01*
X103301085Y-269526428D01*
X103372514Y-269455000D01*
X103515371Y-269383571D01*
X103801085Y-269383571D01*
X103943942Y-269455000D01*
X104586800Y-270383571D02*
X104586800Y-268883571D01*
X104586800Y-269455000D02*
X104729657Y-269383571D01*
X105015371Y-269383571D01*
X105158228Y-269455000D01*
X105229657Y-269526428D01*
X105301085Y-269669285D01*
X105301085Y-270097857D01*
X105229657Y-270240714D01*
X105158228Y-270312142D01*
X105015371Y-270383571D01*
X104729657Y-270383571D01*
X104586800Y-270312142D01*
D10*
D11*
X76011800Y-265505000D02*
X184011800Y-265505000D01*
D10*
D11*
X77372514Y-267612142D02*
X77586800Y-267683571D01*
X77943942Y-267683571D01*
X78086800Y-267612142D01*
X78158228Y-267540714D01*
X78229657Y-267397857D01*
X78229657Y-267255000D01*
X78158228Y-267112142D01*
X78086800Y-267040714D01*
X77943942Y-266969285D01*
X77658228Y-266897857D01*
X77515371Y-266826428D01*
X77443942Y-266755000D01*
X77372514Y-266612142D01*
X77372514Y-266469285D01*
X77443942Y-266326428D01*
X77515371Y-266255000D01*
X77658228Y-266183571D01*
X78015371Y-266183571D01*
X78229657Y-266255000D01*
X78872514Y-267683571D02*
X78872514Y-266183571D01*
X79515371Y-267683571D02*
X79515371Y-266897857D01*
X79443942Y-266755000D01*
X79301085Y-266683571D01*
X79086800Y-266683571D01*
X78943942Y-266755000D01*
X78872514Y-266826428D01*
X80801085Y-267612142D02*
X80658228Y-267683571D01*
X80372514Y-267683571D01*
X80229657Y-267612142D01*
X80158228Y-267469285D01*
X80158228Y-266897857D01*
X80229657Y-266755000D01*
X80372514Y-266683571D01*
X80658228Y-266683571D01*
X80801085Y-266755000D01*
X80872514Y-266897857D01*
X80872514Y-267040714D01*
X80158228Y-267183571D01*
X82086800Y-267612142D02*
X81943942Y-267683571D01*
X81658228Y-267683571D01*
X81515371Y-267612142D01*
X81443942Y-267469285D01*
X81443942Y-266897857D01*
X81515371Y-266755000D01*
X81658228Y-266683571D01*
X81943942Y-266683571D01*
X82086800Y-266755000D01*
X82158228Y-266897857D01*
X82158228Y-267040714D01*
X81443942Y-267183571D01*
X82586800Y-266683571D02*
X83158228Y-266683571D01*
X82801085Y-266183571D02*
X82801085Y-267469285D01*
X82872514Y-267612142D01*
X83015371Y-267683571D01*
X83158228Y-267683571D01*
X83658228Y-267540714D02*
X83729657Y-267612142D01*
X83658228Y-267683571D01*
X83586800Y-267612142D01*
X83658228Y-267540714D01*
X83658228Y-267683571D01*
X83658228Y-266755000D02*
X83729657Y-266826428D01*
X83658228Y-266897857D01*
X83586800Y-266826428D01*
X83658228Y-266755000D01*
X83658228Y-266897857D01*
D10*
D11*
X96011800Y-275505000D02*
X96011800Y-278505000D01*
D10*
D11*
X160011800Y-275505000D02*
X160011800Y-282005000D01*
M02*
