%TF.GenerationSoftware,KiCad,Pcbnew,(5.1.7-0-10_14)*%
%TF.CreationDate,2020-11-07T14:29:28-03:00*%
%TF.ProjectId,MIDI2_out,4d494449-325f-46f7-9574-2e6b69636164,rev?*%
%TF.SameCoordinates,Original*%
%TF.FileFunction,Copper,L1,Top*%
%TF.FilePolarity,Positive*%
%FSLAX46Y46*%
G04 Gerber Fmt 4.6, Leading zero omitted, Abs format (unit mm)*
G04 Created by KiCad (PCBNEW (5.1.7-0-10_14)) date 2020-11-07 14:29:28*
%MOMM*%
%LPD*%
G01*
G04 APERTURE LIST*
%TA.AperFunction,Profile*%
%ADD10C,0.050000*%
%TD*%
%TA.AperFunction,ComponentPad*%
%ADD11C,3.600000*%
%TD*%
%TA.AperFunction,ConnectorPad*%
%ADD12C,6.400000*%
%TD*%
%TA.AperFunction,ComponentPad*%
%ADD13C,2.000000*%
%TD*%
%TA.AperFunction,ComponentPad*%
%ADD14C,1.800000*%
%TD*%
%TA.AperFunction,ComponentPad*%
%ADD15R,1.800000X1.800000*%
%TD*%
%TA.AperFunction,ComponentPad*%
%ADD16R,1.130000X1.130000*%
%TD*%
%TA.AperFunction,ComponentPad*%
%ADD17C,1.130000*%
%TD*%
%TA.AperFunction,ComponentPad*%
%ADD18C,1.600000*%
%TD*%
%TA.AperFunction,ComponentPad*%
%ADD19O,1.600000X1.600000*%
%TD*%
%TA.AperFunction,ComponentPad*%
%ADD20C,3.240000*%
%TD*%
%TA.AperFunction,ComponentPad*%
%ADD21C,2.700000*%
%TD*%
%TA.AperFunction,ComponentPad*%
%ADD22C,1.750000*%
%TD*%
%TA.AperFunction,ComponentPad*%
%ADD23R,1.750000X1.750000*%
%TD*%
%TA.AperFunction,ComponentPad*%
%ADD24C,1.150000*%
%TD*%
%TA.AperFunction,ComponentPad*%
%ADD25R,1.150000X1.150000*%
%TD*%
%TA.AperFunction,ComponentPad*%
%ADD26R,2.000000X2.000000*%
%TD*%
%TA.AperFunction,ComponentPad*%
%ADD27R,2.000000X3.200000*%
%TD*%
%TA.AperFunction,ComponentPad*%
%ADD28R,1.600000X1.600000*%
%TD*%
%TA.AperFunction,ViaPad*%
%ADD29C,0.800000*%
%TD*%
%TA.AperFunction,Conductor*%
%ADD30C,0.250000*%
%TD*%
G04 APERTURE END LIST*
D10*
X0Y0D02*
X0Y-294000000D01*
X196000000Y0D02*
X0Y0D01*
X196000000Y-294000000D02*
X196000000Y0D01*
X0Y-294000000D02*
X196000000Y-294000000D01*
D11*
%TO.P,H8,1*%
%TO.N,N/C*%
X73500000Y-217000000D03*
D12*
X73500000Y-217000000D03*
%TD*%
D11*
%TO.P,H6,1*%
%TO.N,N/C*%
X73500000Y-91000000D03*
D12*
X73500000Y-91000000D03*
%TD*%
D11*
%TO.P,H7,1*%
%TO.N,N/C*%
X126000000Y-91000000D03*
D12*
X126000000Y-91000000D03*
%TD*%
D11*
%TO.P,H9,1*%
%TO.N,N/C*%
X126000000Y-217000000D03*
D12*
X126000000Y-217000000D03*
%TD*%
D11*
%TO.P,H4,1*%
%TO.N,N/C*%
X7000000Y-157500000D03*
D12*
X7000000Y-157500000D03*
%TD*%
%TO.P,H5,1*%
%TO.N,N/C*%
X189000000Y-157500000D03*
D11*
X189000000Y-157500000D03*
%TD*%
%TO.P,H3,1*%
%TO.N,N/C*%
X189000000Y-287000000D03*
D12*
X189000000Y-287000000D03*
%TD*%
D11*
%TO.P,H2,1*%
%TO.N,N/C*%
X7000000Y-287000000D03*
D12*
X7000000Y-287000000D03*
%TD*%
D11*
%TO.P,H1,1*%
%TO.N,N/C*%
X189000000Y-7000000D03*
D12*
X189000000Y-7000000D03*
%TD*%
%TO.P,H0,1*%
%TO.N,N/C*%
X7000000Y-7000000D03*
D11*
X7000000Y-7000000D03*
%TD*%
D13*
%TO.P,SW57,1*%
%TO.N,+5V*%
X141000000Y-192500000D03*
%TO.P,SW57,2*%
%TO.N,Net-(B4-Pad11)*%
X136500000Y-192500000D03*
%TO.P,SW57,1*%
%TO.N,+5V*%
X141000000Y-186000000D03*
%TO.P,SW57,2*%
%TO.N,Net-(B4-Pad11)*%
X136500000Y-186000000D03*
%TD*%
%TO.P,SW56,1*%
%TO.N,+5V*%
X120000000Y-140000000D03*
%TO.P,SW56,2*%
%TO.N,Net-(B3-Pad11)*%
X115500000Y-140000000D03*
%TO.P,SW56,1*%
%TO.N,+5V*%
X120000000Y-133500000D03*
%TO.P,SW56,2*%
%TO.N,Net-(B3-Pad11)*%
X115500000Y-133500000D03*
%TD*%
%TO.P,SW54,1*%
%TO.N,Net-(B3-Pad6)*%
X115500000Y-196500000D03*
%TO.P,SW54,2*%
%TO.N,+5V*%
X120000000Y-196500000D03*
%TO.P,SW54,1*%
%TO.N,Net-(B3-Pad6)*%
X115500000Y-203000000D03*
%TO.P,SW54,2*%
%TO.N,+5V*%
X120000000Y-203000000D03*
%TD*%
%TO.P,SW53,1*%
%TO.N,+5V*%
X58500000Y-42500000D03*
%TO.P,SW53,2*%
%TO.N,Net-(B7-Pad6)*%
X63000000Y-42500000D03*
%TO.P,SW53,1*%
%TO.N,+5V*%
X58500000Y-49000000D03*
%TO.P,SW53,2*%
%TO.N,Net-(B7-Pad6)*%
X63000000Y-49000000D03*
%TD*%
%TO.P,SW52,1*%
%TO.N,Net-(B7-Pad4)*%
X42000000Y-49000000D03*
%TO.P,SW52,2*%
%TO.N,+5V*%
X37500000Y-49000000D03*
%TO.P,SW52,1*%
%TO.N,Net-(B7-Pad4)*%
X42000000Y-42500000D03*
%TO.P,SW52,2*%
%TO.N,+5V*%
X37500000Y-42500000D03*
%TD*%
%TO.P,SW50,1*%
%TO.N,+5V*%
X172500000Y-210000000D03*
%TO.P,SW50,2*%
%TO.N,Net-(B4-Pad12)*%
X168000000Y-210000000D03*
%TO.P,SW50,1*%
%TO.N,+5V*%
X172500000Y-203500000D03*
%TO.P,SW50,2*%
%TO.N,Net-(B4-Pad12)*%
X168000000Y-203500000D03*
%TD*%
%TO.P,SW49,1*%
%TO.N,+5V*%
X98000000Y-116000000D03*
%TO.P,SW49,2*%
%TO.N,Net-(B3-Pad12)*%
X102500000Y-116000000D03*
%TO.P,SW49,1*%
%TO.N,+5V*%
X98000000Y-122500000D03*
%TO.P,SW49,2*%
%TO.N,Net-(B3-Pad12)*%
X102500000Y-122500000D03*
%TD*%
%TO.P,SW47,1*%
%TO.N,Net-(B7-Pad12)*%
X42000000Y-24500000D03*
%TO.P,SW47,2*%
%TO.N,+5V*%
X37500000Y-24500000D03*
%TO.P,SW47,1*%
%TO.N,Net-(B7-Pad12)*%
X42000000Y-18000000D03*
%TO.P,SW47,2*%
%TO.N,+5V*%
X37500000Y-18000000D03*
%TD*%
%TO.P,SW46,1*%
%TO.N,Net-(B6-Pad4)*%
X13000000Y-116000000D03*
%TO.P,SW46,2*%
%TO.N,+5V*%
X17500000Y-116000000D03*
%TO.P,SW46,1*%
%TO.N,Net-(B6-Pad4)*%
X13000000Y-122500000D03*
%TO.P,SW46,2*%
%TO.N,+5V*%
X17500000Y-122500000D03*
%TD*%
%TO.P,SW45,1*%
%TO.N,Net-(B6-Pad12)*%
X21080000Y-140080000D03*
%TO.P,SW45,2*%
%TO.N,+5V*%
X16580000Y-140080000D03*
%TO.P,SW45,1*%
%TO.N,Net-(B6-Pad12)*%
X21080000Y-133580000D03*
%TO.P,SW45,2*%
%TO.N,+5V*%
X16580000Y-133580000D03*
%TD*%
%TO.P,SW44,1*%
%TO.N,Net-(B1-Pad5)*%
X175000000Y-116000000D03*
%TO.P,SW44,2*%
%TO.N,+5V*%
X179500000Y-116000000D03*
%TO.P,SW44,1*%
%TO.N,Net-(B1-Pad5)*%
X175000000Y-122500000D03*
%TO.P,SW44,2*%
%TO.N,+5V*%
X179500000Y-122500000D03*
%TD*%
%TO.P,SW43,1*%
%TO.N,Net-(B1-Pad13)*%
X178580000Y-98580000D03*
%TO.P,SW43,2*%
%TO.N,+5V*%
X183080000Y-98580000D03*
%TO.P,SW43,1*%
%TO.N,Net-(B1-Pad13)*%
X178580000Y-105080000D03*
%TO.P,SW43,2*%
%TO.N,+5V*%
X183080000Y-105080000D03*
%TD*%
%TO.P,SW41,1*%
%TO.N,+5V*%
X183000000Y-280000000D03*
%TO.P,SW41,2*%
%TO.N,Net-(B4-Pad13)*%
X178500000Y-280000000D03*
%TO.P,SW41,1*%
%TO.N,+5V*%
X183000000Y-273500000D03*
%TO.P,SW41,2*%
%TO.N,Net-(B4-Pad13)*%
X178500000Y-273500000D03*
%TD*%
%TO.P,SW40,1*%
%TO.N,+5V*%
X79500000Y-133500000D03*
%TO.P,SW40,2*%
%TO.N,Net-(B3-Pad13)*%
X84000000Y-133500000D03*
%TO.P,SW40,1*%
%TO.N,+5V*%
X79500000Y-140000000D03*
%TO.P,SW40,2*%
%TO.N,Net-(B3-Pad13)*%
X84000000Y-140000000D03*
%TD*%
%TO.P,SW38,1*%
%TO.N,Net-(B0-Pad5)*%
X157500000Y-18000000D03*
%TO.P,SW38,2*%
%TO.N,+5V*%
X162000000Y-18000000D03*
%TO.P,SW38,1*%
%TO.N,Net-(B0-Pad5)*%
X157500000Y-24500000D03*
%TO.P,SW38,2*%
%TO.N,+5V*%
X162000000Y-24500000D03*
%TD*%
%TO.P,SW37,1*%
%TO.N,Net-(B0-Pad13)*%
X157500000Y-42500000D03*
%TO.P,SW37,2*%
%TO.N,+5V*%
X162000000Y-42500000D03*
%TO.P,SW37,1*%
%TO.N,Net-(B0-Pad13)*%
X157500000Y-49000000D03*
%TO.P,SW37,2*%
%TO.N,+5V*%
X162000000Y-49000000D03*
%TD*%
%TO.P,SW36,1*%
%TO.N,+5V*%
X141080000Y-48580000D03*
%TO.P,SW36,2*%
%TO.N,Net-(B0-Pad11)*%
X136580000Y-48580000D03*
%TO.P,SW36,1*%
%TO.N,+5V*%
X141080000Y-42080000D03*
%TO.P,SW36,2*%
%TO.N,Net-(B0-Pad11)*%
X136580000Y-42080000D03*
%TD*%
%TO.P,SW34,1*%
%TO.N,+5V*%
X172500000Y-245000000D03*
%TO.P,SW34,2*%
%TO.N,Net-(B4-Pad14)*%
X168000000Y-245000000D03*
%TO.P,SW34,1*%
%TO.N,+5V*%
X172500000Y-238500000D03*
%TO.P,SW34,2*%
%TO.N,Net-(B4-Pad14)*%
X168000000Y-238500000D03*
%TD*%
%TO.P,SW33,1*%
%TO.N,+5V*%
X79500000Y-196500000D03*
%TO.P,SW33,2*%
%TO.N,Net-(B3-Pad14)*%
X84000000Y-196500000D03*
%TO.P,SW33,1*%
%TO.N,+5V*%
X79500000Y-203000000D03*
%TO.P,SW33,2*%
%TO.N,Net-(B3-Pad14)*%
X84000000Y-203000000D03*
%TD*%
%TO.P,SW31,1*%
%TO.N,Net-(B7-Pad3)*%
X21000000Y-49000000D03*
%TO.P,SW31,2*%
%TO.N,+5V*%
X16500000Y-49000000D03*
%TO.P,SW31,1*%
%TO.N,Net-(B7-Pad3)*%
X21000000Y-42500000D03*
%TO.P,SW31,2*%
%TO.N,+5V*%
X16500000Y-42500000D03*
%TD*%
%TO.P,SW30,1*%
%TO.N,Net-(B6-Pad3)*%
X21000000Y-105000000D03*
%TO.P,SW30,2*%
%TO.N,+5V*%
X16500000Y-105000000D03*
%TO.P,SW30,1*%
%TO.N,Net-(B6-Pad3)*%
X21000000Y-98500000D03*
%TO.P,SW30,2*%
%TO.N,+5V*%
X16500000Y-98500000D03*
%TD*%
%TO.P,SW29,1*%
%TO.N,Net-(B1-Pad14)*%
X136500000Y-133500000D03*
%TO.P,SW29,2*%
%TO.N,+5V*%
X141000000Y-133500000D03*
%TO.P,SW29,1*%
%TO.N,Net-(B1-Pad14)*%
X136500000Y-140000000D03*
%TO.P,SW29,2*%
%TO.N,+5V*%
X141000000Y-140000000D03*
%TD*%
%TO.P,SW27,1*%
%TO.N,+5V*%
X58500000Y-186000000D03*
%TO.P,SW27,2*%
%TO.N,Net-(B4-Pad3)*%
X63000000Y-186000000D03*
%TO.P,SW27,1*%
%TO.N,+5V*%
X58500000Y-192500000D03*
%TO.P,SW27,2*%
%TO.N,Net-(B4-Pad3)*%
X63000000Y-192500000D03*
%TD*%
%TO.P,SW26,1*%
%TO.N,Net-(B0-Pad14)*%
X178500000Y-42500000D03*
%TO.P,SW26,2*%
%TO.N,+5V*%
X183000000Y-42500000D03*
%TO.P,SW26,1*%
%TO.N,Net-(B0-Pad14)*%
X178500000Y-49000000D03*
%TO.P,SW26,2*%
%TO.N,+5V*%
X183000000Y-49000000D03*
%TD*%
%TO.P,SW24,1*%
%TO.N,Net-(B7-Pad11)*%
X63080000Y-24580000D03*
%TO.P,SW24,2*%
%TO.N,+5V*%
X58580000Y-24580000D03*
%TO.P,SW24,1*%
%TO.N,Net-(B7-Pad11)*%
X63080000Y-18080000D03*
%TO.P,SW24,2*%
%TO.N,+5V*%
X58580000Y-18080000D03*
%TD*%
%TO.P,SW23,1*%
%TO.N,Net-(B6-Pad11)*%
X24500000Y-122500000D03*
%TO.P,SW23,2*%
%TO.N,+5V*%
X20000000Y-122500000D03*
%TO.P,SW23,1*%
%TO.N,Net-(B6-Pad11)*%
X24500000Y-116000000D03*
%TO.P,SW23,2*%
%TO.N,+5V*%
X20000000Y-116000000D03*
%TD*%
%TO.P,SW22,1*%
%TO.N,Net-(B1-Pad6)*%
X186500000Y-122500000D03*
%TO.P,SW22,2*%
%TO.N,+5V*%
X182000000Y-122500000D03*
%TO.P,SW22,1*%
%TO.N,Net-(B1-Pad6)*%
X186500000Y-116000000D03*
%TO.P,SW22,2*%
%TO.N,+5V*%
X182000000Y-116000000D03*
%TD*%
%TO.P,SW21,1*%
%TO.N,Net-(B0-Pad6)*%
X136500000Y-18000000D03*
%TO.P,SW21,2*%
%TO.N,+5V*%
X141000000Y-18000000D03*
%TO.P,SW21,1*%
%TO.N,Net-(B0-Pad6)*%
X136500000Y-24500000D03*
%TO.P,SW21,2*%
%TO.N,+5V*%
X141000000Y-24500000D03*
%TD*%
%TO.P,SW19,1*%
%TO.N,+5V*%
X34000000Y-203500000D03*
%TO.P,SW19,2*%
%TO.N,Net-(B4-Pad4)*%
X38500000Y-203500000D03*
%TO.P,SW19,1*%
%TO.N,+5V*%
X34000000Y-210000000D03*
%TO.P,SW19,2*%
%TO.N,Net-(B4-Pad4)*%
X38500000Y-210000000D03*
%TD*%
%TO.P,SW15,1*%
%TO.N,Net-(B7-Pad14)*%
X13000000Y-18000000D03*
%TO.P,SW15,2*%
%TO.N,+5V*%
X17500000Y-18000000D03*
%TO.P,SW15,1*%
%TO.N,Net-(B7-Pad14)*%
X13000000Y-24500000D03*
%TO.P,SW15,2*%
%TO.N,+5V*%
X17500000Y-24500000D03*
%TD*%
%TO.P,SW14,1*%
%TO.N,Net-(B6-Pad14)*%
X63000000Y-140000000D03*
%TO.P,SW14,2*%
%TO.N,+5V*%
X58500000Y-140000000D03*
%TO.P,SW14,1*%
%TO.N,Net-(B6-Pad14)*%
X63000000Y-133500000D03*
%TO.P,SW14,2*%
%TO.N,+5V*%
X58500000Y-133500000D03*
%TD*%
%TO.P,SW12,1*%
%TO.N,+5V*%
X162000000Y-280000000D03*
%TO.P,SW12,2*%
%TO.N,Net-(B4-Pad5)*%
X157500000Y-280000000D03*
%TO.P,SW12,1*%
%TO.N,+5V*%
X162000000Y-273500000D03*
%TO.P,SW12,2*%
%TO.N,Net-(B4-Pad5)*%
X157500000Y-273500000D03*
%TD*%
%TO.P,SW11,1*%
%TO.N,Net-(B1-Pad3)*%
X157500000Y-133500000D03*
%TO.P,SW11,2*%
%TO.N,+5V*%
X162000000Y-133500000D03*
%TO.P,SW11,1*%
%TO.N,Net-(B1-Pad3)*%
X157500000Y-140000000D03*
%TO.P,SW11,2*%
%TO.N,+5V*%
X162000000Y-140000000D03*
%TD*%
%TO.P,SW9,1*%
%TO.N,Net-(B0-Pad3)*%
X186500000Y-24500000D03*
%TO.P,SW9,2*%
%TO.N,+5V*%
X182000000Y-24500000D03*
%TO.P,SW9,1*%
%TO.N,Net-(B0-Pad3)*%
X186500000Y-18000000D03*
%TO.P,SW9,2*%
%TO.N,+5V*%
X182000000Y-18000000D03*
%TD*%
%TO.P,SW7,1*%
%TO.N,Net-(B7-Pad13)*%
X24500000Y-24500000D03*
%TO.P,SW7,2*%
%TO.N,+5V*%
X20000000Y-24500000D03*
%TO.P,SW7,1*%
%TO.N,Net-(B7-Pad13)*%
X24500000Y-18000000D03*
%TO.P,SW7,2*%
%TO.N,+5V*%
X20000000Y-18000000D03*
%TD*%
%TO.P,SW5,1*%
%TO.N,+5V*%
X34000000Y-238500000D03*
%TO.P,SW5,2*%
%TO.N,Net-(B4-Pad6)*%
X38500000Y-238500000D03*
%TO.P,SW5,1*%
%TO.N,+5V*%
X34000000Y-245000000D03*
%TO.P,SW5,2*%
%TO.N,Net-(B4-Pad6)*%
X38500000Y-245000000D03*
%TD*%
%TO.P,SW4,1*%
%TO.N,Net-(B6-Pad13)*%
X42000000Y-140000000D03*
%TO.P,SW4,2*%
%TO.N,+5V*%
X37500000Y-140000000D03*
%TO.P,SW4,1*%
%TO.N,Net-(B6-Pad13)*%
X42000000Y-133500000D03*
%TO.P,SW4,2*%
%TO.N,+5V*%
X37500000Y-133500000D03*
%TD*%
%TO.P,SW2,1*%
%TO.N,Net-(B1-Pad4)*%
X178500000Y-133500000D03*
%TO.P,SW2,2*%
%TO.N,+5V*%
X183000000Y-133500000D03*
%TO.P,SW2,1*%
%TO.N,Net-(B1-Pad4)*%
X178500000Y-140000000D03*
%TO.P,SW2,2*%
%TO.N,+5V*%
X183000000Y-140000000D03*
%TD*%
%TO.P,SW1,1*%
%TO.N,Net-(B0-Pad4)*%
X175000000Y-18000000D03*
%TO.P,SW1,2*%
%TO.N,+5V*%
X179500000Y-18000000D03*
%TO.P,SW1,1*%
%TO.N,Net-(B0-Pad4)*%
X175000000Y-24500000D03*
%TO.P,SW1,2*%
%TO.N,+5V*%
X179500000Y-24500000D03*
%TD*%
D14*
%TO.P,D16,2*%
%TO.N,Net-(D16-Pad2)*%
X10500000Y-49000000D03*
D15*
%TO.P,D16,1*%
%TO.N,GND*%
X10500000Y-46460000D03*
%TD*%
D14*
%TO.P,D15,2*%
%TO.N,Net-(D15-Pad2)*%
X31500000Y-24500000D03*
D15*
%TO.P,D15,1*%
%TO.N,GND*%
X31500000Y-21960000D03*
%TD*%
D14*
%TO.P,D14,2*%
%TO.N,Net-(D14-Pad2)*%
X31500000Y-49000000D03*
D15*
%TO.P,D14,1*%
%TO.N,GND*%
X31500000Y-46460000D03*
%TD*%
D14*
%TO.P,D13,2*%
%TO.N,Net-(D13-Pad2)*%
X52580000Y-24580000D03*
D15*
%TO.P,D13,1*%
%TO.N,GND*%
X52580000Y-22040000D03*
%TD*%
D14*
%TO.P,D12,2*%
%TO.N,Net-(D12-Pad2)*%
X147000000Y-24500000D03*
D15*
%TO.P,D12,1*%
%TO.N,GND*%
X147000000Y-21960000D03*
%TD*%
D14*
%TO.P,D11,2*%
%TO.N,Net-(D11-Pad2)*%
X168000000Y-24500000D03*
D15*
%TO.P,D11,1*%
%TO.N,GND*%
X168000000Y-21960000D03*
%TD*%
D14*
%TO.P,D10,2*%
%TO.N,Net-(D10-Pad2)*%
X168000000Y-49000000D03*
D15*
%TO.P,D10,1*%
%TO.N,GND*%
X168000000Y-46460000D03*
%TD*%
D14*
%TO.P,D9,2*%
%TO.N,Net-(D9-Pad2)*%
X147000000Y-49000000D03*
D15*
%TO.P,D9,1*%
%TO.N,GND*%
X147000000Y-46460000D03*
%TD*%
D14*
%TO.P,D8,2*%
%TO.N,Net-(D8-Pad2)*%
X104040000Y-210000000D03*
D15*
%TO.P,D8,1*%
%TO.N,GND*%
X101500000Y-210000000D03*
%TD*%
D14*
%TO.P,D7,2*%
%TO.N,Net-(D7-Pad2)*%
X104040000Y-217000000D03*
D15*
%TO.P,D7,1*%
%TO.N,GND*%
X101500000Y-217000000D03*
%TD*%
D14*
%TO.P,D6,2*%
%TO.N,Net-(D6-Pad2)*%
X104040000Y-224000000D03*
D15*
%TO.P,D6,1*%
%TO.N,GND*%
X101500000Y-224000000D03*
%TD*%
D14*
%TO.P,D5,2*%
%TO.N,Net-(D5-Pad2)*%
X104040000Y-231000000D03*
D15*
%TO.P,D5,1*%
%TO.N,GND*%
X101500000Y-231000000D03*
%TD*%
D14*
%TO.P,D4,2*%
%TO.N,Net-(D4-Pad2)*%
X104040000Y-238000000D03*
D15*
%TO.P,D4,1*%
%TO.N,GND*%
X101500000Y-238000000D03*
%TD*%
D14*
%TO.P,D3,2*%
%TO.N,Net-(D3-Pad2)*%
X104040000Y-245000000D03*
D15*
%TO.P,D3,1*%
%TO.N,GND*%
X101500000Y-245000000D03*
%TD*%
D14*
%TO.P,D2,2*%
%TO.N,Net-(D2-Pad2)*%
X104040000Y-252000000D03*
D15*
%TO.P,D2,1*%
%TO.N,GND*%
X101500000Y-252000000D03*
%TD*%
D14*
%TO.P,D1,2*%
%TO.N,Net-(D1-Pad2)*%
X104040000Y-259000000D03*
D15*
%TO.P,D1,1*%
%TO.N,GND*%
X101500000Y-259000000D03*
%TD*%
D16*
%TO.P,L5,1*%
%TO.N,Net-(L5-Pad1)*%
X38220000Y-161000000D03*
D17*
%TO.P,L5,2*%
%TO.N,Net-(L5-Pad2)*%
X40760000Y-161000000D03*
%TO.P,L5,3*%
%TO.N,Net-(L5-Pad3)*%
X43300000Y-161000000D03*
%TO.P,L5,4*%
%TO.N,Net-(L5-Pad4)*%
X45840000Y-161000000D03*
%TO.P,L5,5*%
%TO.N,Net-(L5-Pad5)*%
X48380000Y-161000000D03*
%TO.P,L5,6*%
%TO.N,Net-(L5-Pad6)*%
X50920000Y-161000000D03*
%TO.P,L5,7*%
%TO.N,Net-(L5-Pad7)*%
X53460000Y-161000000D03*
%TO.P,L5,8*%
%TO.N,GND*%
X56000000Y-161000000D03*
%TO.P,L5,9*%
%TO.N,Net-(L5-Pad9)*%
X56000000Y-153060000D03*
%TO.P,L5,10*%
%TO.N,+5V*%
X53460000Y-153060000D03*
%TO.P,L5,11*%
%TO.N,Net-(A1-Pad26)*%
X50920000Y-153060000D03*
%TO.P,L5,12*%
%TO.N,Net-(A1-Pad25)*%
X48380000Y-153060000D03*
%TO.P,L5,13*%
%TO.N,GND*%
X45840000Y-153060000D03*
%TO.P,L5,14*%
%TO.N,Net-(L4-Pad9)*%
X43300000Y-153060000D03*
%TO.P,L5,15*%
%TO.N,Net-(L5-Pad15)*%
X40760000Y-153060000D03*
%TO.P,L5,16*%
%TO.N,+5V*%
X38220000Y-153060000D03*
%TD*%
D13*
%TO.P,SW58,*%
%TO.N,*%
X81540000Y-171580000D03*
D18*
%TO.P,SW58,6*%
%TO.N,Net-(R56-Pad1)*%
X84440000Y-169040000D03*
%TO.P,SW58,5*%
%TO.N,GND*%
X78640000Y-169040000D03*
D13*
%TO.P,SW58,4*%
%TO.N,+5V*%
X79000000Y-166500000D03*
%TO.P,SW58,3*%
X84080000Y-166500000D03*
%TO.P,SW58,2*%
%TO.N,Net-(B5-Pad6)*%
X79000000Y-171580000D03*
%TO.P,SW58,1*%
X84080000Y-171580000D03*
%TD*%
%TO.P,SW55,*%
%TO.N,*%
X60540000Y-171580000D03*
D18*
%TO.P,SW55,6*%
%TO.N,Net-(R55-Pad1)*%
X63440000Y-169040000D03*
%TO.P,SW55,5*%
%TO.N,GND*%
X57640000Y-169040000D03*
D13*
%TO.P,SW55,4*%
%TO.N,+5V*%
X58000000Y-166500000D03*
%TO.P,SW55,3*%
X63080000Y-166500000D03*
%TO.P,SW55,2*%
%TO.N,Net-(B5-Pad5)*%
X58000000Y-171580000D03*
%TO.P,SW55,1*%
X63080000Y-171580000D03*
%TD*%
%TO.P,SW51,*%
%TO.N,*%
X39540000Y-171580000D03*
D18*
%TO.P,SW51,6*%
%TO.N,Net-(R54-Pad1)*%
X42440000Y-169040000D03*
%TO.P,SW51,5*%
%TO.N,GND*%
X36640000Y-169040000D03*
D13*
%TO.P,SW51,4*%
%TO.N,+5V*%
X37000000Y-166500000D03*
%TO.P,SW51,3*%
X42080000Y-166500000D03*
%TO.P,SW51,2*%
%TO.N,Net-(B5-Pad4)*%
X37000000Y-171580000D03*
%TO.P,SW51,1*%
X42080000Y-171580000D03*
%TD*%
%TO.P,SW48,*%
%TO.N,*%
X18540000Y-171580000D03*
D18*
%TO.P,SW48,6*%
%TO.N,Net-(R53-Pad1)*%
X21440000Y-169040000D03*
%TO.P,SW48,5*%
%TO.N,GND*%
X15640000Y-169040000D03*
D13*
%TO.P,SW48,4*%
%TO.N,+5V*%
X16000000Y-166500000D03*
%TO.P,SW48,3*%
X21080000Y-166500000D03*
%TO.P,SW48,2*%
%TO.N,Net-(B5-Pad3)*%
X16000000Y-171580000D03*
%TO.P,SW48,1*%
X21080000Y-171580000D03*
%TD*%
%TO.P,SW42,*%
%TO.N,*%
X81460000Y-150500000D03*
D18*
%TO.P,SW42,6*%
%TO.N,Net-(R52-Pad1)*%
X84360000Y-147960000D03*
%TO.P,SW42,5*%
%TO.N,GND*%
X78560000Y-147960000D03*
D13*
%TO.P,SW42,4*%
%TO.N,Net-(B5-Pad14)*%
X78920000Y-145420000D03*
%TO.P,SW42,3*%
X84000000Y-145420000D03*
%TO.P,SW42,2*%
%TO.N,+5V*%
X78920000Y-150500000D03*
%TO.P,SW42,1*%
X84000000Y-150500000D03*
%TD*%
%TO.P,SW39,*%
%TO.N,*%
X60460000Y-150500000D03*
D18*
%TO.P,SW39,6*%
%TO.N,Net-(R51-Pad1)*%
X63360000Y-147960000D03*
%TO.P,SW39,5*%
%TO.N,GND*%
X57560000Y-147960000D03*
D13*
%TO.P,SW39,4*%
%TO.N,Net-(B5-Pad13)*%
X57920000Y-145420000D03*
%TO.P,SW39,3*%
X63000000Y-145420000D03*
%TO.P,SW39,2*%
%TO.N,+5V*%
X57920000Y-150500000D03*
%TO.P,SW39,1*%
X63000000Y-150500000D03*
%TD*%
%TO.P,SW35,*%
%TO.N,*%
X18460000Y-150500000D03*
D18*
%TO.P,SW35,6*%
%TO.N,Net-(R50-Pad1)*%
X21360000Y-147960000D03*
%TO.P,SW35,5*%
%TO.N,GND*%
X15560000Y-147960000D03*
D13*
%TO.P,SW35,4*%
%TO.N,Net-(B5-Pad12)*%
X15920000Y-145420000D03*
%TO.P,SW35,3*%
X21000000Y-145420000D03*
%TO.P,SW35,2*%
%TO.N,+5V*%
X15920000Y-150500000D03*
%TO.P,SW35,1*%
X21000000Y-150500000D03*
%TD*%
%TO.P,SW32,*%
%TO.N,*%
X39460000Y-150500000D03*
D18*
%TO.P,SW32,6*%
%TO.N,Net-(R49-Pad1)*%
X42360000Y-147960000D03*
%TO.P,SW32,5*%
%TO.N,GND*%
X36560000Y-147960000D03*
D13*
%TO.P,SW32,4*%
%TO.N,Net-(B5-Pad11)*%
X36920000Y-145420000D03*
%TO.P,SW32,3*%
X42000000Y-145420000D03*
%TO.P,SW32,2*%
%TO.N,+5V*%
X36920000Y-150500000D03*
%TO.P,SW32,1*%
X42000000Y-150500000D03*
%TD*%
%TO.P,SW28,*%
%TO.N,*%
X181040000Y-166420000D03*
D18*
%TO.P,SW28,6*%
%TO.N,Net-(R40-Pad1)*%
X178140000Y-168960000D03*
%TO.P,SW28,5*%
%TO.N,GND*%
X183940000Y-168960000D03*
D13*
%TO.P,SW28,4*%
%TO.N,+5V*%
X183580000Y-171500000D03*
%TO.P,SW28,3*%
X178500000Y-171500000D03*
%TO.P,SW28,2*%
%TO.N,Net-(B2-Pad3)*%
X183580000Y-166420000D03*
%TO.P,SW28,1*%
X178500000Y-166420000D03*
%TD*%
%TO.P,SW25,*%
%TO.N,*%
X160040000Y-166420000D03*
D18*
%TO.P,SW25,6*%
%TO.N,Net-(R39-Pad1)*%
X157140000Y-168960000D03*
%TO.P,SW25,5*%
%TO.N,GND*%
X162940000Y-168960000D03*
D13*
%TO.P,SW25,4*%
%TO.N,+5V*%
X162580000Y-171500000D03*
%TO.P,SW25,3*%
X157500000Y-171500000D03*
%TO.P,SW25,2*%
%TO.N,Net-(B2-Pad4)*%
X162580000Y-166420000D03*
%TO.P,SW25,1*%
X157500000Y-166420000D03*
%TD*%
%TO.P,SW20,*%
%TO.N,*%
X139040000Y-166420000D03*
D18*
%TO.P,SW20,6*%
%TO.N,Net-(R38-Pad1)*%
X136140000Y-168960000D03*
%TO.P,SW20,5*%
%TO.N,GND*%
X141940000Y-168960000D03*
D13*
%TO.P,SW20,4*%
%TO.N,+5V*%
X141580000Y-171500000D03*
%TO.P,SW20,3*%
X136500000Y-171500000D03*
%TO.P,SW20,2*%
%TO.N,Net-(B2-Pad5)*%
X141580000Y-166420000D03*
%TO.P,SW20,1*%
X136500000Y-166420000D03*
%TD*%
%TO.P,SW17,*%
%TO.N,*%
X118040000Y-166420000D03*
D18*
%TO.P,SW17,6*%
%TO.N,Net-(R37-Pad1)*%
X115140000Y-168960000D03*
%TO.P,SW17,5*%
%TO.N,GND*%
X120940000Y-168960000D03*
D13*
%TO.P,SW17,4*%
%TO.N,+5V*%
X120580000Y-171500000D03*
%TO.P,SW17,3*%
X115500000Y-171500000D03*
%TO.P,SW17,2*%
%TO.N,Net-(B2-Pad6)*%
X120580000Y-166420000D03*
%TO.P,SW17,1*%
X115500000Y-166420000D03*
%TD*%
%TO.P,SW13,*%
%TO.N,*%
X181040000Y-145420000D03*
D18*
%TO.P,SW13,6*%
%TO.N,Net-(R36-Pad1)*%
X178140000Y-147960000D03*
%TO.P,SW13,5*%
%TO.N,GND*%
X183940000Y-147960000D03*
D13*
%TO.P,SW13,4*%
%TO.N,Net-(B2-Pad11)*%
X183580000Y-150500000D03*
%TO.P,SW13,3*%
X178500000Y-150500000D03*
%TO.P,SW13,2*%
%TO.N,+5V*%
X183580000Y-145420000D03*
%TO.P,SW13,1*%
X178500000Y-145420000D03*
%TD*%
%TO.P,SW10,*%
%TO.N,*%
X160040000Y-145420000D03*
D18*
%TO.P,SW10,6*%
%TO.N,Net-(R35-Pad1)*%
X157140000Y-147960000D03*
%TO.P,SW10,5*%
%TO.N,GND*%
X162940000Y-147960000D03*
D13*
%TO.P,SW10,4*%
%TO.N,Net-(B2-Pad12)*%
X162580000Y-150500000D03*
%TO.P,SW10,3*%
X157500000Y-150500000D03*
%TO.P,SW10,2*%
%TO.N,+5V*%
X162580000Y-145420000D03*
%TO.P,SW10,1*%
X157500000Y-145420000D03*
%TD*%
%TO.P,SW6,*%
%TO.N,*%
X118040000Y-145420000D03*
D18*
%TO.P,SW6,6*%
%TO.N,Net-(R34-Pad1)*%
X115140000Y-147960000D03*
%TO.P,SW6,5*%
%TO.N,GND*%
X120940000Y-147960000D03*
D13*
%TO.P,SW6,4*%
%TO.N,Net-(B2-Pad13)*%
X120580000Y-150500000D03*
%TO.P,SW6,3*%
X115500000Y-150500000D03*
%TO.P,SW6,2*%
%TO.N,+5V*%
X120580000Y-145420000D03*
%TO.P,SW6,1*%
X115500000Y-145420000D03*
%TD*%
%TO.P,SW3,*%
%TO.N,*%
X139120000Y-145500000D03*
D18*
%TO.P,SW3,6*%
%TO.N,Net-(R33-Pad1)*%
X136220000Y-148040000D03*
%TO.P,SW3,5*%
%TO.N,GND*%
X142020000Y-148040000D03*
D13*
%TO.P,SW3,4*%
%TO.N,Net-(B2-Pad14)*%
X141660000Y-150580000D03*
%TO.P,SW3,3*%
X136580000Y-150580000D03*
%TO.P,SW3,2*%
%TO.N,+5V*%
X141660000Y-145500000D03*
%TO.P,SW3,1*%
X136580000Y-145500000D03*
%TD*%
D19*
%TO.P,R72,2*%
%TO.N,GND*%
X28000000Y-150500000D03*
D18*
%TO.P,R72,1*%
%TO.N,Net-(B5-Pad11)*%
X28000000Y-140340000D03*
%TD*%
D19*
%TO.P,R71,2*%
%TO.N,GND*%
X192500000Y-140340000D03*
D18*
%TO.P,R71,1*%
%TO.N,Net-(B2-Pad11)*%
X192500000Y-150500000D03*
%TD*%
D19*
%TO.P,R70,2*%
%TO.N,GND*%
X7080000Y-150580000D03*
D18*
%TO.P,R70,1*%
%TO.N,Net-(B5-Pad12)*%
X7080000Y-140420000D03*
%TD*%
D19*
%TO.P,R69,2*%
%TO.N,GND*%
X171500000Y-140340000D03*
D18*
%TO.P,R69,1*%
%TO.N,Net-(B2-Pad12)*%
X171500000Y-150500000D03*
%TD*%
D19*
%TO.P,R68,2*%
%TO.N,GND*%
X49000000Y-150500000D03*
D18*
%TO.P,R68,1*%
%TO.N,Net-(B5-Pad13)*%
X49000000Y-140340000D03*
%TD*%
D19*
%TO.P,R67,2*%
%TO.N,GND*%
X129500000Y-140340000D03*
D18*
%TO.P,R67,1*%
%TO.N,Net-(B2-Pad13)*%
X129500000Y-150500000D03*
%TD*%
D19*
%TO.P,R66,2*%
%TO.N,GND*%
X70000000Y-150500000D03*
D18*
%TO.P,R66,1*%
%TO.N,Net-(B5-Pad14)*%
X70000000Y-140340000D03*
%TD*%
D19*
%TO.P,R65,2*%
%TO.N,GND*%
X150500000Y-140340000D03*
D18*
%TO.P,R65,1*%
%TO.N,Net-(B2-Pad14)*%
X150500000Y-150500000D03*
%TD*%
D19*
%TO.P,R64,2*%
%TO.N,GND*%
X10580000Y-164920000D03*
D18*
%TO.P,R64,1*%
%TO.N,Net-(B5-Pad3)*%
X10580000Y-175080000D03*
%TD*%
D19*
%TO.P,R63,2*%
%TO.N,GND*%
X189000000Y-175000000D03*
D18*
%TO.P,R63,1*%
%TO.N,Net-(B2-Pad3)*%
X189000000Y-164840000D03*
%TD*%
D19*
%TO.P,R62,2*%
%TO.N,GND*%
X31580000Y-164920000D03*
D18*
%TO.P,R62,1*%
%TO.N,Net-(B5-Pad4)*%
X31580000Y-175080000D03*
%TD*%
D19*
%TO.P,R61,2*%
%TO.N,GND*%
X168000000Y-175000000D03*
D18*
%TO.P,R61,1*%
%TO.N,Net-(B2-Pad4)*%
X168000000Y-164840000D03*
%TD*%
D19*
%TO.P,R60,2*%
%TO.N,GND*%
X52580000Y-164920000D03*
D18*
%TO.P,R60,1*%
%TO.N,Net-(B5-Pad5)*%
X52580000Y-175080000D03*
%TD*%
D19*
%TO.P,R59,2*%
%TO.N,GND*%
X147000000Y-175000000D03*
D18*
%TO.P,R59,1*%
%TO.N,Net-(B2-Pad5)*%
X147000000Y-164840000D03*
%TD*%
D19*
%TO.P,R58,2*%
%TO.N,GND*%
X73580000Y-164920000D03*
D18*
%TO.P,R58,1*%
%TO.N,Net-(B5-Pad6)*%
X73580000Y-175080000D03*
%TD*%
D19*
%TO.P,R57,2*%
%TO.N,GND*%
X126000000Y-175000000D03*
D18*
%TO.P,R57,1*%
%TO.N,Net-(B2-Pad6)*%
X126000000Y-164840000D03*
%TD*%
D19*
%TO.P,R56,2*%
%TO.N,Net-(L5-Pad7)*%
X87580000Y-164920000D03*
D18*
%TO.P,R56,1*%
%TO.N,Net-(R56-Pad1)*%
X87580000Y-175080000D03*
%TD*%
D19*
%TO.P,R55,2*%
%TO.N,Net-(L5-Pad6)*%
X66580000Y-164920000D03*
D18*
%TO.P,R55,1*%
%TO.N,Net-(R55-Pad1)*%
X66580000Y-175080000D03*
%TD*%
D19*
%TO.P,R54,2*%
%TO.N,Net-(L5-Pad5)*%
X45580000Y-164920000D03*
D18*
%TO.P,R54,1*%
%TO.N,Net-(R54-Pad1)*%
X45580000Y-175080000D03*
%TD*%
D19*
%TO.P,R53,2*%
%TO.N,Net-(L5-Pad4)*%
X24580000Y-164920000D03*
D18*
%TO.P,R53,1*%
%TO.N,Net-(R53-Pad1)*%
X24580000Y-175080000D03*
%TD*%
D19*
%TO.P,R52,2*%
%TO.N,Net-(L5-Pad3)*%
X87500000Y-150500000D03*
D18*
%TO.P,R52,1*%
%TO.N,Net-(R52-Pad1)*%
X87500000Y-140340000D03*
%TD*%
D19*
%TO.P,R51,2*%
%TO.N,Net-(L5-Pad2)*%
X66500000Y-150500000D03*
D18*
%TO.P,R51,1*%
%TO.N,Net-(R51-Pad1)*%
X66500000Y-140340000D03*
%TD*%
D19*
%TO.P,R50,2*%
%TO.N,Net-(L5-Pad1)*%
X24500000Y-150500000D03*
D18*
%TO.P,R50,1*%
%TO.N,Net-(R50-Pad1)*%
X24500000Y-140340000D03*
%TD*%
D19*
%TO.P,R49,2*%
%TO.N,Net-(L5-Pad15)*%
X45500000Y-150500000D03*
D18*
%TO.P,R49,1*%
%TO.N,Net-(R49-Pad1)*%
X45500000Y-140340000D03*
%TD*%
D19*
%TO.P,R40,2*%
%TO.N,Net-(L2-Pad7)*%
X175000000Y-164840000D03*
D18*
%TO.P,R40,1*%
%TO.N,Net-(R40-Pad1)*%
X175000000Y-175000000D03*
%TD*%
D19*
%TO.P,R39,2*%
%TO.N,Net-(L2-Pad6)*%
X154000000Y-164840000D03*
D18*
%TO.P,R39,1*%
%TO.N,Net-(R39-Pad1)*%
X154000000Y-175000000D03*
%TD*%
D19*
%TO.P,R38,2*%
%TO.N,Net-(L2-Pad5)*%
X133000000Y-164840000D03*
D18*
%TO.P,R38,1*%
%TO.N,Net-(R38-Pad1)*%
X133000000Y-175000000D03*
%TD*%
D19*
%TO.P,R37,2*%
%TO.N,Net-(L2-Pad4)*%
X112000000Y-164840000D03*
D18*
%TO.P,R37,1*%
%TO.N,Net-(R37-Pad1)*%
X112000000Y-175000000D03*
%TD*%
D19*
%TO.P,R36,2*%
%TO.N,Net-(L2-Pad3)*%
X175000000Y-150500000D03*
D18*
%TO.P,R36,1*%
%TO.N,Net-(R36-Pad1)*%
X175000000Y-140340000D03*
%TD*%
D19*
%TO.P,R35,2*%
%TO.N,Net-(L2-Pad2)*%
X154000000Y-150500000D03*
D18*
%TO.P,R35,1*%
%TO.N,Net-(R35-Pad1)*%
X154000000Y-140340000D03*
%TD*%
D19*
%TO.P,R34,2*%
%TO.N,Net-(L2-Pad1)*%
X112000000Y-150500000D03*
D18*
%TO.P,R34,1*%
%TO.N,Net-(R34-Pad1)*%
X112000000Y-140340000D03*
%TD*%
D19*
%TO.P,R33,2*%
%TO.N,Net-(L2-Pad15)*%
X133000000Y-150500000D03*
D18*
%TO.P,R33,1*%
%TO.N,Net-(R33-Pad1)*%
X133000000Y-140340000D03*
%TD*%
D16*
%TO.P,L4,1*%
%TO.N,Net-(L4-Pad1)*%
X77550000Y-241500000D03*
D17*
%TO.P,L4,2*%
%TO.N,Net-(L4-Pad2)*%
X77550000Y-238960000D03*
%TO.P,L4,3*%
%TO.N,Net-(L4-Pad3)*%
X77550000Y-236420000D03*
%TO.P,L4,4*%
%TO.N,Net-(L4-Pad4)*%
X77550000Y-233880000D03*
%TO.P,L4,5*%
%TO.N,Net-(L4-Pad5)*%
X77550000Y-231340000D03*
%TO.P,L4,6*%
%TO.N,Net-(L4-Pad6)*%
X77550000Y-228800000D03*
%TO.P,L4,7*%
%TO.N,Net-(L4-Pad7)*%
X77550000Y-226260000D03*
%TO.P,L4,8*%
%TO.N,GND*%
X77550000Y-223720000D03*
%TO.P,L4,9*%
%TO.N,Net-(L4-Pad9)*%
X69610000Y-223720000D03*
%TO.P,L4,10*%
%TO.N,+5V*%
X69610000Y-226260000D03*
%TO.P,L4,11*%
%TO.N,Net-(A1-Pad26)*%
X69610000Y-228800000D03*
%TO.P,L4,12*%
%TO.N,Net-(A1-Pad25)*%
X69610000Y-231340000D03*
%TO.P,L4,13*%
%TO.N,GND*%
X69610000Y-233880000D03*
%TO.P,L4,14*%
%TO.N,Net-(L3-Pad9)*%
X69610000Y-236420000D03*
%TO.P,L4,15*%
%TO.N,Net-(L4-Pad15)*%
X69610000Y-238960000D03*
%TO.P,L4,16*%
%TO.N,+5V*%
X69610000Y-241500000D03*
%TD*%
%TO.P,L6,16*%
%TO.N,+5V*%
X38220000Y-114560000D03*
%TO.P,L6,15*%
%TO.N,Net-(L6-Pad15)*%
X40760000Y-114560000D03*
%TO.P,L6,14*%
%TO.N,Net-(L5-Pad9)*%
X43300000Y-114560000D03*
%TO.P,L6,13*%
%TO.N,GND*%
X45840000Y-114560000D03*
%TO.P,L6,12*%
%TO.N,Net-(A1-Pad25)*%
X48380000Y-114560000D03*
%TO.P,L6,11*%
%TO.N,Net-(A1-Pad26)*%
X50920000Y-114560000D03*
%TO.P,L6,10*%
%TO.N,+5V*%
X53460000Y-114560000D03*
%TO.P,L6,9*%
%TO.N,N/C*%
X56000000Y-114560000D03*
%TO.P,L6,8*%
%TO.N,GND*%
X56000000Y-122500000D03*
%TO.P,L6,7*%
%TO.N,Net-(L6-Pad7)*%
X53460000Y-122500000D03*
%TO.P,L6,6*%
%TO.N,Net-(L6-Pad6)*%
X50920000Y-122500000D03*
%TO.P,L6,5*%
%TO.N,Net-(L6-Pad5)*%
X48380000Y-122500000D03*
%TO.P,L6,4*%
%TO.N,Net-(L6-Pad4)*%
X45840000Y-122500000D03*
%TO.P,L6,3*%
%TO.N,Net-(L6-Pad3)*%
X43300000Y-122500000D03*
%TO.P,L6,2*%
%TO.N,Net-(L6-Pad2)*%
X40760000Y-122500000D03*
D16*
%TO.P,L6,1*%
%TO.N,Net-(L6-Pad1)*%
X38220000Y-122500000D03*
%TD*%
D17*
%TO.P,L3,16*%
%TO.N,+5V*%
X122500000Y-241500000D03*
%TO.P,L3,15*%
%TO.N,Net-(L3-Pad15)*%
X122500000Y-238960000D03*
%TO.P,L3,14*%
%TO.N,Net-(L2-Pad9)*%
X122500000Y-236420000D03*
%TO.P,L3,13*%
%TO.N,GND*%
X122500000Y-233880000D03*
%TO.P,L3,12*%
%TO.N,Net-(A1-Pad25)*%
X122500000Y-231340000D03*
%TO.P,L3,11*%
%TO.N,Net-(A1-Pad26)*%
X122500000Y-228800000D03*
%TO.P,L3,10*%
%TO.N,+5V*%
X122500000Y-226260000D03*
%TO.P,L3,9*%
%TO.N,Net-(L3-Pad9)*%
X122500000Y-223720000D03*
%TO.P,L3,8*%
%TO.N,GND*%
X130440000Y-223720000D03*
%TO.P,L3,7*%
%TO.N,Net-(L3-Pad7)*%
X130440000Y-226260000D03*
%TO.P,L3,6*%
%TO.N,Net-(L3-Pad6)*%
X130440000Y-228800000D03*
%TO.P,L3,5*%
%TO.N,Net-(L3-Pad5)*%
X130440000Y-231340000D03*
%TO.P,L3,4*%
%TO.N,Net-(L3-Pad4)*%
X130440000Y-233880000D03*
%TO.P,L3,3*%
%TO.N,Net-(L3-Pad3)*%
X130440000Y-236420000D03*
%TO.P,L3,2*%
%TO.N,Net-(L3-Pad2)*%
X130440000Y-238960000D03*
D16*
%TO.P,L3,1*%
%TO.N,Net-(L3-Pad1)*%
X130440000Y-241500000D03*
%TD*%
D19*
%TO.P,R24,2*%
%TO.N,Net-(D56-Pad2)*%
X91000000Y-210000000D03*
D18*
%TO.P,R24,1*%
%TO.N,Net-(L4-Pad7)*%
X80840000Y-210000000D03*
%TD*%
D19*
%TO.P,R23,2*%
%TO.N,Net-(D55-Pad2)*%
X91000000Y-217000000D03*
D18*
%TO.P,R23,1*%
%TO.N,Net-(L4-Pad6)*%
X80840000Y-217000000D03*
%TD*%
D19*
%TO.P,R22,2*%
%TO.N,Net-(D54-Pad2)*%
X91000000Y-224000000D03*
D18*
%TO.P,R22,1*%
%TO.N,Net-(L4-Pad5)*%
X80840000Y-224000000D03*
%TD*%
D19*
%TO.P,R21,2*%
%TO.N,Net-(D53-Pad2)*%
X91000000Y-231000000D03*
D18*
%TO.P,R21,1*%
%TO.N,Net-(L4-Pad4)*%
X80840000Y-231000000D03*
%TD*%
D19*
%TO.P,R20,2*%
%TO.N,Net-(D52-Pad2)*%
X91000000Y-238000000D03*
D18*
%TO.P,R20,1*%
%TO.N,Net-(L4-Pad3)*%
X80840000Y-238000000D03*
%TD*%
D19*
%TO.P,R19,2*%
%TO.N,Net-(D51-Pad2)*%
X91000000Y-245000000D03*
D18*
%TO.P,R19,1*%
%TO.N,Net-(L4-Pad2)*%
X80840000Y-245000000D03*
%TD*%
D19*
%TO.P,R18,2*%
%TO.N,Net-(D50-Pad2)*%
X91000000Y-252000000D03*
D18*
%TO.P,R18,1*%
%TO.N,Net-(L4-Pad1)*%
X80840000Y-252000000D03*
%TD*%
D19*
%TO.P,R17,2*%
%TO.N,Net-(D49-Pad2)*%
X91000000Y-259000000D03*
D18*
%TO.P,R17,1*%
%TO.N,Net-(L4-Pad15)*%
X80840000Y-259000000D03*
%TD*%
D19*
%TO.P,R16,2*%
%TO.N,Net-(D48-Pad2)*%
X73840000Y-129500000D03*
D18*
%TO.P,R16,1*%
%TO.N,Net-(L6-Pad7)*%
X84000000Y-129500000D03*
%TD*%
D19*
%TO.P,R15,2*%
%TO.N,Net-(D47-Pad2)*%
X52840000Y-129500000D03*
D18*
%TO.P,R15,1*%
%TO.N,Net-(L6-Pad6)*%
X63000000Y-129500000D03*
%TD*%
D19*
%TO.P,R14,2*%
%TO.N,Net-(D46-Pad2)*%
X31840000Y-129500000D03*
D18*
%TO.P,R14,1*%
%TO.N,Net-(L6-Pad5)*%
X42000000Y-129500000D03*
%TD*%
D19*
%TO.P,R13,2*%
%TO.N,Net-(D45-Pad2)*%
X10920000Y-129580000D03*
D18*
%TO.P,R13,1*%
%TO.N,Net-(L6-Pad4)*%
X21080000Y-129580000D03*
%TD*%
D19*
%TO.P,R12,2*%
%TO.N,Net-(D44-Pad2)*%
X52840000Y-182000000D03*
D18*
%TO.P,R12,1*%
%TO.N,Net-(L6-Pad3)*%
X63000000Y-182000000D03*
%TD*%
D19*
%TO.P,R11,2*%
%TO.N,Net-(D43-Pad2)*%
X28340000Y-213500000D03*
D18*
%TO.P,R11,1*%
%TO.N,Net-(L6-Pad2)*%
X38500000Y-213500000D03*
%TD*%
D19*
%TO.P,R10,2*%
%TO.N,Net-(D42-Pad2)*%
X28340000Y-248500000D03*
D18*
%TO.P,R10,1*%
%TO.N,Net-(L6-Pad1)*%
X38500000Y-248500000D03*
%TD*%
D19*
%TO.P,R9,2*%
%TO.N,Net-(D41-Pad2)*%
X10840000Y-108500000D03*
D18*
%TO.P,R9,1*%
%TO.N,Net-(L6-Pad15)*%
X21000000Y-108500000D03*
%TD*%
D19*
%TO.P,R8,2*%
%TO.N,Net-(L3-Pad7)*%
X118660000Y-210000000D03*
D18*
%TO.P,R8,1*%
%TO.N,Net-(D8-Pad2)*%
X108500000Y-210000000D03*
%TD*%
D19*
%TO.P,R7,2*%
%TO.N,Net-(L3-Pad6)*%
X118740000Y-217080000D03*
D18*
%TO.P,R7,1*%
%TO.N,Net-(D7-Pad2)*%
X108580000Y-217080000D03*
%TD*%
D19*
%TO.P,R6,2*%
%TO.N,Net-(L3-Pad5)*%
X118660000Y-224000000D03*
D18*
%TO.P,R6,1*%
%TO.N,Net-(D6-Pad2)*%
X108500000Y-224000000D03*
%TD*%
D19*
%TO.P,R5,2*%
%TO.N,Net-(L3-Pad4)*%
X118660000Y-231000000D03*
D18*
%TO.P,R5,1*%
%TO.N,Net-(D5-Pad2)*%
X108500000Y-231000000D03*
%TD*%
D19*
%TO.P,R4,2*%
%TO.N,Net-(L3-Pad3)*%
X118660000Y-238000000D03*
D18*
%TO.P,R4,1*%
%TO.N,Net-(D4-Pad2)*%
X108500000Y-238000000D03*
%TD*%
D19*
%TO.P,R3,2*%
%TO.N,Net-(L3-Pad2)*%
X118660000Y-245000000D03*
D18*
%TO.P,R3,1*%
%TO.N,Net-(D3-Pad2)*%
X108500000Y-245000000D03*
%TD*%
D19*
%TO.P,R2,2*%
%TO.N,Net-(L3-Pad1)*%
X118660000Y-252000000D03*
D18*
%TO.P,R2,1*%
%TO.N,Net-(D2-Pad2)*%
X108500000Y-252000000D03*
%TD*%
D19*
%TO.P,R1,2*%
%TO.N,Net-(L3-Pad15)*%
X118660000Y-259000000D03*
D18*
%TO.P,R1,1*%
%TO.N,Net-(D1-Pad2)*%
X108500000Y-259000000D03*
%TD*%
D14*
%TO.P,D56,2*%
%TO.N,Net-(D56-Pad2)*%
X95460000Y-210000000D03*
D15*
%TO.P,D56,1*%
%TO.N,GND*%
X98000000Y-210000000D03*
%TD*%
D14*
%TO.P,D55,2*%
%TO.N,Net-(D55-Pad2)*%
X95460000Y-217000000D03*
D15*
%TO.P,D55,1*%
%TO.N,GND*%
X98000000Y-217000000D03*
%TD*%
D14*
%TO.P,D54,2*%
%TO.N,Net-(D54-Pad2)*%
X95460000Y-224000000D03*
D15*
%TO.P,D54,1*%
%TO.N,GND*%
X98000000Y-224000000D03*
%TD*%
D14*
%TO.P,D53,2*%
%TO.N,Net-(D53-Pad2)*%
X95460000Y-231000000D03*
D15*
%TO.P,D53,1*%
%TO.N,GND*%
X98000000Y-231000000D03*
%TD*%
D14*
%TO.P,D52,2*%
%TO.N,Net-(D52-Pad2)*%
X95460000Y-238000000D03*
D15*
%TO.P,D52,1*%
%TO.N,GND*%
X98000000Y-238000000D03*
%TD*%
D14*
%TO.P,D51,2*%
%TO.N,Net-(D51-Pad2)*%
X95460000Y-245000000D03*
D15*
%TO.P,D51,1*%
%TO.N,GND*%
X98000000Y-245000000D03*
%TD*%
D14*
%TO.P,D50,2*%
%TO.N,Net-(D50-Pad2)*%
X95460000Y-252000000D03*
D15*
%TO.P,D50,1*%
%TO.N,GND*%
X98000000Y-252000000D03*
%TD*%
D14*
%TO.P,D49,2*%
%TO.N,Net-(D49-Pad2)*%
X95460000Y-259000000D03*
D15*
%TO.P,D49,1*%
%TO.N,GND*%
X98000000Y-259000000D03*
%TD*%
D14*
%TO.P,D48,2*%
%TO.N,Net-(D48-Pad2)*%
X73500000Y-137460000D03*
D15*
%TO.P,D48,1*%
%TO.N,GND*%
X73500000Y-140000000D03*
%TD*%
D14*
%TO.P,D47,2*%
%TO.N,Net-(D47-Pad2)*%
X52500000Y-137460000D03*
D15*
%TO.P,D47,1*%
%TO.N,GND*%
X52500000Y-140000000D03*
%TD*%
D14*
%TO.P,D46,2*%
%TO.N,Net-(D46-Pad2)*%
X31500000Y-136580000D03*
D15*
%TO.P,D46,1*%
%TO.N,GND*%
X31500000Y-139120000D03*
%TD*%
D14*
%TO.P,D45,2*%
%TO.N,Net-(D45-Pad2)*%
X10580000Y-137540000D03*
D15*
%TO.P,D45,1*%
%TO.N,GND*%
X10580000Y-140080000D03*
%TD*%
D14*
%TO.P,D44,2*%
%TO.N,Net-(D44-Pad2)*%
X52500000Y-189960000D03*
D15*
%TO.P,D44,1*%
%TO.N,GND*%
X52500000Y-192500000D03*
%TD*%
D14*
%TO.P,D43,2*%
%TO.N,Net-(D43-Pad2)*%
X28000000Y-210000000D03*
D15*
%TO.P,D43,1*%
%TO.N,GND*%
X28000000Y-207460000D03*
%TD*%
D14*
%TO.P,D42,2*%
%TO.N,Net-(D42-Pad2)*%
X28000000Y-245000000D03*
D15*
%TO.P,D42,1*%
%TO.N,GND*%
X28000000Y-242460000D03*
%TD*%
D14*
%TO.P,D41,2*%
%TO.N,Net-(D41-Pad2)*%
X10500000Y-105000000D03*
D15*
%TO.P,D41,1*%
%TO.N,GND*%
X10500000Y-102460000D03*
%TD*%
%TO.P,RV18,1*%
%TO.N,GND*%
X37080000Y-280000000D03*
D14*
%TO.P,RV18,2*%
%TO.N,Net-(A1-Pad11)*%
X39580000Y-280000000D03*
%TO.P,RV18,3*%
%TO.N,+5V*%
X42080000Y-280000000D03*
D20*
%TO.P,RV18,*%
%TO.N,*%
X44380000Y-272500000D03*
X34780000Y-272500000D03*
%TD*%
%TO.P,RV17,*%
%TO.N,*%
X13780000Y-272500000D03*
X23380000Y-272500000D03*
D14*
%TO.P,RV17,3*%
%TO.N,+5V*%
X21080000Y-280000000D03*
%TO.P,RV17,2*%
%TO.N,Net-(A1-Pad10)*%
X18580000Y-280000000D03*
D15*
%TO.P,RV17,1*%
%TO.N,GND*%
X16080000Y-280000000D03*
%TD*%
D19*
%TO.P,R152,2*%
%TO.N,GND*%
X45500000Y-17840000D03*
D18*
%TO.P,R152,1*%
%TO.N,Net-(B7-Pad12)*%
X45500000Y-28000000D03*
%TD*%
D19*
%TO.P,R151,2*%
%TO.N,GND*%
X45500000Y-42340000D03*
D18*
%TO.P,R151,1*%
%TO.N,Net-(B7-Pad4)*%
X45500000Y-52500000D03*
%TD*%
D19*
%TO.P,R149,2*%
%TO.N,GND*%
X133000000Y-182340000D03*
D18*
%TO.P,R149,1*%
%TO.N,Net-(B4-Pad11)*%
X133000000Y-192500000D03*
%TD*%
D19*
%TO.P,R148,2*%
%TO.N,GND*%
X112000000Y-196340000D03*
D18*
%TO.P,R148,1*%
%TO.N,Net-(B3-Pad6)*%
X112000000Y-206500000D03*
%TD*%
D19*
%TO.P,R146,2*%
%TO.N,GND*%
X63000000Y-63000000D03*
D18*
%TO.P,R146,1*%
%TO.N,Net-(B7-Pad5)*%
X52840000Y-63000000D03*
%TD*%
D19*
%TO.P,R145,2*%
%TO.N,GND*%
X24580000Y-126420000D03*
D18*
%TO.P,R145,1*%
%TO.N,Net-(B6-Pad12)*%
X24580000Y-136580000D03*
%TD*%
D19*
%TO.P,R144,2*%
%TO.N,GND*%
X133000000Y-42340000D03*
D18*
%TO.P,R144,1*%
%TO.N,Net-(B0-Pad11)*%
X133000000Y-52500000D03*
%TD*%
D19*
%TO.P,R143,2*%
%TO.N,GND*%
X171500000Y-115840000D03*
D18*
%TO.P,R143,1*%
%TO.N,Net-(B1-Pad5)*%
X171500000Y-126000000D03*
%TD*%
D19*
%TO.P,R142,2*%
%TO.N,GND*%
X66500000Y-42340000D03*
D18*
%TO.P,R142,1*%
%TO.N,Net-(B7-Pad6)*%
X66500000Y-52500000D03*
%TD*%
D19*
%TO.P,R141,2*%
%TO.N,GND*%
X10500000Y-115840000D03*
D18*
%TO.P,R141,1*%
%TO.N,Net-(B6-Pad4)*%
X10500000Y-126000000D03*
%TD*%
D19*
%TO.P,R140,2*%
%TO.N,GND*%
X154000000Y-17840000D03*
D18*
%TO.P,R140,1*%
%TO.N,Net-(B0-Pad5)*%
X154000000Y-28000000D03*
%TD*%
D19*
%TO.P,R138,2*%
%TO.N,GND*%
X164500000Y-203340000D03*
D18*
%TO.P,R138,1*%
%TO.N,Net-(B4-Pad12)*%
X164500000Y-213500000D03*
%TD*%
D19*
%TO.P,R136,2*%
%TO.N,GND*%
X154000000Y-42340000D03*
D18*
%TO.P,R136,1*%
%TO.N,Net-(B0-Pad13)*%
X154000000Y-52500000D03*
%TD*%
D19*
%TO.P,R135,2*%
%TO.N,GND*%
X112000000Y-126340000D03*
D18*
%TO.P,R135,1*%
%TO.N,Net-(B3-Pad11)*%
X112000000Y-136500000D03*
%TD*%
D19*
%TO.P,R134,2*%
%TO.N,GND*%
X94500000Y-112080000D03*
D18*
%TO.P,R134,1*%
%TO.N,Net-(B3-Pad12)*%
X104660000Y-112080000D03*
%TD*%
D19*
%TO.P,R133,2*%
%TO.N,GND*%
X175000000Y-98340000D03*
D18*
%TO.P,R133,1*%
%TO.N,Net-(B1-Pad13)*%
X175000000Y-108500000D03*
%TD*%
D19*
%TO.P,R131,2*%
%TO.N,GND*%
X175000000Y-273340000D03*
D18*
%TO.P,R131,1*%
%TO.N,Net-(B4-Pad13)*%
X175000000Y-283500000D03*
%TD*%
D19*
%TO.P,R129,2*%
%TO.N,GND*%
X24500000Y-98340000D03*
D18*
%TO.P,R129,1*%
%TO.N,Net-(B6-Pad3)*%
X24500000Y-108500000D03*
%TD*%
D19*
%TO.P,R128,2*%
%TO.N,GND*%
X87500000Y-126340000D03*
D18*
%TO.P,R128,1*%
%TO.N,Net-(B3-Pad13)*%
X87500000Y-136500000D03*
%TD*%
D19*
%TO.P,R127,2*%
%TO.N,GND*%
X133080000Y-126420000D03*
D18*
%TO.P,R127,1*%
%TO.N,Net-(B1-Pad14)*%
X133080000Y-136580000D03*
%TD*%
D19*
%TO.P,R126,2*%
%TO.N,GND*%
X175000000Y-42340000D03*
D18*
%TO.P,R126,1*%
%TO.N,Net-(B0-Pad14)*%
X175000000Y-52500000D03*
%TD*%
D19*
%TO.P,R125,2*%
%TO.N,GND*%
X24500000Y-42340000D03*
D18*
%TO.P,R125,1*%
%TO.N,Net-(B7-Pad3)*%
X24500000Y-52500000D03*
%TD*%
D19*
%TO.P,R124,2*%
%TO.N,GND*%
X28000000Y-115840000D03*
D18*
%TO.P,R124,1*%
%TO.N,Net-(B6-Pad11)*%
X28000000Y-126000000D03*
%TD*%
D19*
%TO.P,R123,2*%
%TO.N,GND*%
X189000000Y-115840000D03*
D18*
%TO.P,R123,1*%
%TO.N,Net-(B1-Pad6)*%
X189000000Y-126000000D03*
%TD*%
D19*
%TO.P,R122,2*%
%TO.N,GND*%
X133000000Y-17840000D03*
D18*
%TO.P,R122,1*%
%TO.N,Net-(B0-Pad6)*%
X133000000Y-28000000D03*
%TD*%
D19*
%TO.P,R121,2*%
%TO.N,GND*%
X66500000Y-17840000D03*
D18*
%TO.P,R121,1*%
%TO.N,Net-(B7-Pad11)*%
X66500000Y-28000000D03*
%TD*%
D19*
%TO.P,R119,2*%
%TO.N,GND*%
X164500000Y-238340000D03*
D18*
%TO.P,R119,1*%
%TO.N,Net-(B4-Pad14)*%
X164500000Y-248500000D03*
%TD*%
D19*
%TO.P,R118,2*%
%TO.N,GND*%
X87500000Y-196340000D03*
D18*
%TO.P,R118,1*%
%TO.N,Net-(B3-Pad14)*%
X87500000Y-206500000D03*
%TD*%
D19*
%TO.P,R116,2*%
%TO.N,GND*%
X164160000Y-63000000D03*
D18*
%TO.P,R116,1*%
%TO.N,Net-(B0-Pad12)*%
X154000000Y-63000000D03*
%TD*%
D19*
%TO.P,R115,2*%
%TO.N,GND*%
X42000000Y-70340000D03*
D18*
%TO.P,R115,1*%
%TO.N,Net-(B6-Pad6)*%
X42000000Y-80500000D03*
%TD*%
D19*
%TO.P,R113,2*%
%TO.N,GND*%
X66500000Y-182340000D03*
D18*
%TO.P,R113,1*%
%TO.N,Net-(B4-Pad3)*%
X66500000Y-192500000D03*
%TD*%
D19*
%TO.P,R111,2*%
%TO.N,GND*%
X10500000Y-17840000D03*
D18*
%TO.P,R111,1*%
%TO.N,Net-(B7-Pad14)*%
X10500000Y-28000000D03*
%TD*%
D19*
%TO.P,R110,2*%
%TO.N,GND*%
X154000000Y-126340000D03*
D18*
%TO.P,R110,1*%
%TO.N,Net-(B1-Pad3)*%
X154000000Y-136500000D03*
%TD*%
D19*
%TO.P,R109,2*%
%TO.N,GND*%
X189000000Y-17840000D03*
D18*
%TO.P,R109,1*%
%TO.N,Net-(B0-Pad3)*%
X189000000Y-28000000D03*
%TD*%
D19*
%TO.P,R108,2*%
%TO.N,GND*%
X66500000Y-126340000D03*
D18*
%TO.P,R108,1*%
%TO.N,Net-(B6-Pad14)*%
X66500000Y-136500000D03*
%TD*%
D19*
%TO.P,R107,2*%
%TO.N,GND*%
X111740000Y-185500000D03*
D18*
%TO.P,R107,1*%
%TO.N,Net-(B3-Pad3)*%
X101580000Y-185500000D03*
%TD*%
D19*
%TO.P,R105,2*%
%TO.N,GND*%
X42000000Y-203340000D03*
D18*
%TO.P,R105,1*%
%TO.N,Net-(B4-Pad4)*%
X42000000Y-213500000D03*
%TD*%
D19*
%TO.P,R103,2*%
%TO.N,GND*%
X87840000Y-185500000D03*
D18*
%TO.P,R103,1*%
%TO.N,Net-(B3-Pad4)*%
X98000000Y-185500000D03*
%TD*%
D19*
%TO.P,R102,2*%
%TO.N,GND*%
X59500000Y-70340000D03*
D18*
%TO.P,R102,1*%
%TO.N,Net-(B6-Pad5)*%
X59500000Y-80500000D03*
%TD*%
D19*
%TO.P,R100,2*%
%TO.N,GND*%
X154000000Y-273340000D03*
D18*
%TO.P,R100,1*%
%TO.N,Net-(B4-Pad5)*%
X154000000Y-283500000D03*
%TD*%
D19*
%TO.P,R98,2*%
%TO.N,GND*%
X28000000Y-17840000D03*
D18*
%TO.P,R98,1*%
%TO.N,Net-(B7-Pad13)*%
X28000000Y-28000000D03*
%TD*%
D19*
%TO.P,R97,2*%
%TO.N,GND*%
X175000000Y-126340000D03*
D18*
%TO.P,R97,1*%
%TO.N,Net-(B1-Pad4)*%
X175000000Y-136500000D03*
%TD*%
D19*
%TO.P,R96,2*%
%TO.N,GND*%
X171500000Y-17840000D03*
D18*
%TO.P,R96,1*%
%TO.N,Net-(B0-Pad4)*%
X171500000Y-28000000D03*
%TD*%
D19*
%TO.P,R95,2*%
%TO.N,GND*%
X45500000Y-126340000D03*
D18*
%TO.P,R95,1*%
%TO.N,Net-(B6-Pad13)*%
X45500000Y-136500000D03*
%TD*%
D19*
%TO.P,R93,2*%
%TO.N,GND*%
X42000000Y-238340000D03*
D18*
%TO.P,R93,1*%
%TO.N,Net-(B4-Pad6)*%
X42000000Y-248500000D03*
%TD*%
%TO.P,R91,1*%
%TO.N,Net-(B3-Pad5)*%
X104740000Y-206500000D03*
D19*
%TO.P,R91,2*%
%TO.N,GND*%
X94580000Y-206500000D03*
%TD*%
%TO.P,R90,2*%
%TO.N,GND*%
X140000000Y-70340000D03*
D18*
%TO.P,R90,1*%
%TO.N,Net-(B1-Pad11)*%
X140000000Y-80500000D03*
%TD*%
D19*
%TO.P,R89,2*%
%TO.N,GND*%
X157500000Y-70340000D03*
D18*
%TO.P,R89,1*%
%TO.N,Net-(B1-Pad12)*%
X157500000Y-80500000D03*
%TD*%
D14*
%TO.P,D32,2*%
%TO.N,Net-(D32-Pad2)*%
X178500000Y-245000000D03*
D15*
%TO.P,D32,1*%
%TO.N,GND*%
X178500000Y-242460000D03*
%TD*%
D14*
%TO.P,D31,2*%
%TO.N,Net-(D31-Pad2)*%
X178500000Y-210000000D03*
D15*
%TO.P,D31,1*%
%TO.N,GND*%
X178500000Y-207460000D03*
%TD*%
D14*
%TO.P,D30,2*%
%TO.N,Net-(D30-Pad2)*%
X147000000Y-189960000D03*
D15*
%TO.P,D30,1*%
%TO.N,GND*%
X147000000Y-192500000D03*
%TD*%
D14*
%TO.P,D29,2*%
%TO.N,Net-(D29-Pad2)*%
X189000000Y-137460000D03*
D15*
%TO.P,D29,1*%
%TO.N,GND*%
X189000000Y-140000000D03*
%TD*%
D14*
%TO.P,D28,2*%
%TO.N,Net-(D28-Pad2)*%
X168080000Y-137540000D03*
D15*
%TO.P,D28,1*%
%TO.N,GND*%
X168080000Y-140080000D03*
%TD*%
D14*
%TO.P,D27,2*%
%TO.N,Net-(D27-Pad2)*%
X147080000Y-137540000D03*
D15*
%TO.P,D27,1*%
%TO.N,GND*%
X147080000Y-140080000D03*
%TD*%
D14*
%TO.P,D26,2*%
%TO.N,Net-(D26-Pad2)*%
X126080000Y-137540000D03*
D15*
%TO.P,D26,1*%
%TO.N,GND*%
X126080000Y-140080000D03*
%TD*%
D14*
%TO.P,D25,2*%
%TO.N,Net-(D25-Pad2)*%
X189080000Y-105080000D03*
D15*
%TO.P,D25,1*%
%TO.N,GND*%
X189080000Y-102540000D03*
%TD*%
D16*
%TO.P,L1,1*%
%TO.N,Net-(L1-Pad1)*%
X143500000Y-122500000D03*
D17*
%TO.P,L1,2*%
%TO.N,Net-(L1-Pad2)*%
X146040000Y-122500000D03*
%TO.P,L1,3*%
%TO.N,Net-(L1-Pad3)*%
X148580000Y-122500000D03*
%TO.P,L1,4*%
%TO.N,Net-(L1-Pad4)*%
X151120000Y-122500000D03*
%TO.P,L1,5*%
%TO.N,Net-(L1-Pad5)*%
X153660000Y-122500000D03*
%TO.P,L1,6*%
%TO.N,Net-(L1-Pad6)*%
X156200000Y-122500000D03*
%TO.P,L1,7*%
%TO.N,Net-(L1-Pad7)*%
X158740000Y-122500000D03*
%TO.P,L1,8*%
%TO.N,GND*%
X161280000Y-122500000D03*
%TO.P,L1,9*%
%TO.N,Net-(L1-Pad9)*%
X161280000Y-114560000D03*
%TO.P,L1,10*%
%TO.N,+5V*%
X158740000Y-114560000D03*
%TO.P,L1,11*%
%TO.N,Net-(A1-Pad26)*%
X156200000Y-114560000D03*
%TO.P,L1,12*%
%TO.N,Net-(A1-Pad25)*%
X153660000Y-114560000D03*
%TO.P,L1,13*%
%TO.N,GND*%
X151120000Y-114560000D03*
%TO.P,L1,14*%
%TO.N,Net-(L0-Pad9)*%
X148580000Y-114560000D03*
%TO.P,L1,15*%
%TO.N,Net-(L1-Pad15)*%
X146040000Y-114560000D03*
%TO.P,L1,16*%
%TO.N,+5V*%
X143500000Y-114560000D03*
%TD*%
D16*
%TO.P,L2,1*%
%TO.N,Net-(L2-Pad1)*%
X143500000Y-161000000D03*
D17*
%TO.P,L2,2*%
%TO.N,Net-(L2-Pad2)*%
X146040000Y-161000000D03*
%TO.P,L2,3*%
%TO.N,Net-(L2-Pad3)*%
X148580000Y-161000000D03*
%TO.P,L2,4*%
%TO.N,Net-(L2-Pad4)*%
X151120000Y-161000000D03*
%TO.P,L2,5*%
%TO.N,Net-(L2-Pad5)*%
X153660000Y-161000000D03*
%TO.P,L2,6*%
%TO.N,Net-(L2-Pad6)*%
X156200000Y-161000000D03*
%TO.P,L2,7*%
%TO.N,Net-(L2-Pad7)*%
X158740000Y-161000000D03*
%TO.P,L2,8*%
%TO.N,GND*%
X161280000Y-161000000D03*
%TO.P,L2,9*%
%TO.N,Net-(L2-Pad9)*%
X161280000Y-153060000D03*
%TO.P,L2,10*%
%TO.N,+5V*%
X158740000Y-153060000D03*
%TO.P,L2,11*%
%TO.N,Net-(A1-Pad26)*%
X156200000Y-153060000D03*
%TO.P,L2,12*%
%TO.N,Net-(A1-Pad25)*%
X153660000Y-153060000D03*
%TO.P,L2,13*%
%TO.N,GND*%
X151120000Y-153060000D03*
%TO.P,L2,14*%
%TO.N,Net-(L1-Pad9)*%
X148580000Y-153060000D03*
%TO.P,L2,15*%
%TO.N,Net-(L2-Pad15)*%
X146040000Y-153060000D03*
%TO.P,L2,16*%
%TO.N,+5V*%
X143500000Y-153060000D03*
%TD*%
%TO.P,L0,16*%
%TO.N,+5V*%
X108500000Y-35000000D03*
%TO.P,L0,15*%
%TO.N,Net-(L0-Pad15)*%
X105960000Y-35000000D03*
%TO.P,L0,14*%
%TO.N,Net-(A1-Pad24)*%
X103420000Y-35000000D03*
%TO.P,L0,13*%
%TO.N,GND*%
X100880000Y-35000000D03*
%TO.P,L0,12*%
%TO.N,Net-(A1-Pad25)*%
X98340000Y-35000000D03*
%TO.P,L0,11*%
%TO.N,Net-(A1-Pad26)*%
X95800000Y-35000000D03*
%TO.P,L0,10*%
%TO.N,+5V*%
X93260000Y-35000000D03*
%TO.P,L0,9*%
%TO.N,Net-(L0-Pad9)*%
X90720000Y-35000000D03*
%TO.P,L0,8*%
%TO.N,GND*%
X90720000Y-27060000D03*
%TO.P,L0,7*%
%TO.N,Net-(L0-Pad7)*%
X93260000Y-27060000D03*
%TO.P,L0,6*%
%TO.N,Net-(L0-Pad6)*%
X95800000Y-27060000D03*
%TO.P,L0,5*%
%TO.N,Net-(L0-Pad5)*%
X98340000Y-27060000D03*
%TO.P,L0,4*%
%TO.N,Net-(L0-Pad4)*%
X100880000Y-27060000D03*
%TO.P,L0,3*%
%TO.N,Net-(L0-Pad3)*%
X103420000Y-27060000D03*
%TO.P,L0,2*%
%TO.N,Net-(L0-Pad2)*%
X105960000Y-27060000D03*
D16*
%TO.P,L0,1*%
%TO.N,Net-(L0-Pad1)*%
X108500000Y-27060000D03*
%TD*%
D18*
%TO.P,R48,1*%
%TO.N,Net-(L1-Pad7)*%
X168000000Y-248500000D03*
D19*
%TO.P,R48,2*%
%TO.N,Net-(D32-Pad2)*%
X178160000Y-248500000D03*
%TD*%
D18*
%TO.P,R47,1*%
%TO.N,Net-(L1-Pad6)*%
X168000000Y-213500000D03*
D19*
%TO.P,R47,2*%
%TO.N,Net-(D31-Pad2)*%
X178160000Y-213500000D03*
%TD*%
D18*
%TO.P,R46,1*%
%TO.N,Net-(L1-Pad5)*%
X136500000Y-182000000D03*
D19*
%TO.P,R46,2*%
%TO.N,Net-(D30-Pad2)*%
X146660000Y-182000000D03*
%TD*%
D18*
%TO.P,R45,1*%
%TO.N,Net-(L1-Pad4)*%
X178500000Y-129500000D03*
D19*
%TO.P,R45,2*%
%TO.N,Net-(D29-Pad2)*%
X188660000Y-129500000D03*
%TD*%
D18*
%TO.P,R44,1*%
%TO.N,Net-(L1-Pad3)*%
X157500000Y-129500000D03*
D19*
%TO.P,R44,2*%
%TO.N,Net-(D28-Pad2)*%
X167660000Y-129500000D03*
%TD*%
D18*
%TO.P,R43,1*%
%TO.N,Net-(L1-Pad2)*%
X136500000Y-129500000D03*
D19*
%TO.P,R43,2*%
%TO.N,Net-(D27-Pad2)*%
X146660000Y-129500000D03*
%TD*%
D18*
%TO.P,R42,1*%
%TO.N,Net-(L1-Pad1)*%
X115500000Y-129500000D03*
D19*
%TO.P,R42,2*%
%TO.N,Net-(D26-Pad2)*%
X125660000Y-129500000D03*
%TD*%
D18*
%TO.P,R41,1*%
%TO.N,Net-(L1-Pad15)*%
X178500000Y-108500000D03*
D19*
%TO.P,R41,2*%
%TO.N,Net-(D25-Pad2)*%
X188660000Y-108500000D03*
%TD*%
%TO.P,R32,2*%
%TO.N,Net-(L0-Pad7)*%
X21000000Y-52500000D03*
D18*
%TO.P,R32,1*%
%TO.N,Net-(D16-Pad2)*%
X10840000Y-52500000D03*
%TD*%
D19*
%TO.P,R31,2*%
%TO.N,Net-(L0-Pad6)*%
X42000000Y-28000000D03*
D18*
%TO.P,R31,1*%
%TO.N,Net-(D15-Pad2)*%
X31840000Y-28000000D03*
%TD*%
D19*
%TO.P,R30,2*%
%TO.N,Net-(L0-Pad5)*%
X42000000Y-52500000D03*
D18*
%TO.P,R30,1*%
%TO.N,Net-(D14-Pad2)*%
X31840000Y-52500000D03*
%TD*%
D19*
%TO.P,R29,2*%
%TO.N,Net-(L0-Pad4)*%
X63000000Y-28000000D03*
D18*
%TO.P,R29,1*%
%TO.N,Net-(D13-Pad2)*%
X52840000Y-28000000D03*
%TD*%
D19*
%TO.P,R28,2*%
%TO.N,Net-(L0-Pad3)*%
X136500000Y-28000000D03*
D18*
%TO.P,R28,1*%
%TO.N,Net-(D12-Pad2)*%
X146660000Y-28000000D03*
%TD*%
D19*
%TO.P,R27,2*%
%TO.N,Net-(L0-Pad2)*%
X157500000Y-28000000D03*
D18*
%TO.P,R27,1*%
%TO.N,Net-(D11-Pad2)*%
X167660000Y-28000000D03*
%TD*%
D19*
%TO.P,R26,2*%
%TO.N,Net-(L0-Pad1)*%
X157500000Y-52500000D03*
D18*
%TO.P,R26,1*%
%TO.N,Net-(D10-Pad2)*%
X167660000Y-52500000D03*
%TD*%
D19*
%TO.P,R25,2*%
%TO.N,Net-(L0-Pad15)*%
X136500000Y-52500000D03*
D18*
%TO.P,R25,1*%
%TO.N,Net-(D9-Pad2)*%
X146660000Y-52500000D03*
%TD*%
D21*
%TO.P,RV9,MP*%
%TO.N,N/C*%
X65450000Y-204650000D03*
X65450000Y-254850000D03*
X57050000Y-205850000D03*
X57050000Y-253650000D03*
D22*
%TO.P,RV9,3*%
%TO.N,+5V*%
X59500000Y-200500000D03*
%TO.P,RV9,2*%
%TO.N,Net-(M0-Pad20)*%
X63000000Y-259000000D03*
D23*
%TO.P,RV9,1*%
%TO.N,GND*%
X59500000Y-259000000D03*
%TD*%
D21*
%TO.P,RV8,MP*%
%TO.N,N/C*%
X123700000Y-280000000D03*
X73500000Y-280000000D03*
X122500000Y-271600000D03*
X74700000Y-271600000D03*
D22*
%TO.P,RV8,3*%
%TO.N,+5V*%
X127850000Y-274050000D03*
%TO.P,RV8,2*%
%TO.N,Net-(M0-Pad6)*%
X69350000Y-277550000D03*
D23*
%TO.P,RV8,1*%
%TO.N,GND*%
X69350000Y-274050000D03*
%TD*%
D21*
%TO.P,RV7,MP*%
%TO.N,N/C*%
X142450000Y-204650000D03*
X142450000Y-254850000D03*
X134050000Y-205850000D03*
X134050000Y-253650000D03*
D22*
%TO.P,RV7,3*%
%TO.N,+5V*%
X136500000Y-200500000D03*
%TO.P,RV7,2*%
%TO.N,Net-(M0-Pad19)*%
X140000000Y-259000000D03*
D23*
%TO.P,RV7,1*%
%TO.N,GND*%
X136500000Y-259000000D03*
%TD*%
D17*
%TO.P,B7,16*%
%TO.N,+5V*%
X13720000Y-30560000D03*
%TO.P,B7,15*%
%TO.N,GND*%
X16260000Y-30560000D03*
%TO.P,B7,14*%
%TO.N,Net-(B7-Pad14)*%
X18800000Y-30560000D03*
%TO.P,B7,13*%
%TO.N,Net-(B7-Pad13)*%
X21340000Y-30560000D03*
%TO.P,B7,12*%
%TO.N,Net-(B7-Pad12)*%
X23880000Y-30560000D03*
%TO.P,B7,11*%
%TO.N,Net-(B7-Pad11)*%
X26420000Y-30560000D03*
%TO.P,B7,10*%
%TO.N,N/C*%
X28960000Y-30560000D03*
%TO.P,B7,9*%
%TO.N,Net-(B6-Pad10)*%
X31500000Y-30560000D03*
%TO.P,B7,8*%
%TO.N,GND*%
X31500000Y-38500000D03*
%TO.P,B7,7*%
%TO.N,N/C*%
X28960000Y-38500000D03*
%TO.P,B7,6*%
%TO.N,Net-(B7-Pad6)*%
X26420000Y-38500000D03*
%TO.P,B7,5*%
%TO.N,Net-(B7-Pad5)*%
X23880000Y-38500000D03*
%TO.P,B7,4*%
%TO.N,Net-(B7-Pad4)*%
X21340000Y-38500000D03*
%TO.P,B7,3*%
%TO.N,Net-(B7-Pad3)*%
X18800000Y-38500000D03*
%TO.P,B7,2*%
%TO.N,Net-(A1-Pad23)*%
X16260000Y-38500000D03*
D16*
%TO.P,B7,1*%
%TO.N,Net-(A1-Pad22)*%
X13720000Y-38500000D03*
%TD*%
D17*
%TO.P,B6,16*%
%TO.N,+5V*%
X87500000Y-122500000D03*
%TO.P,B6,15*%
%TO.N,GND*%
X84960000Y-122500000D03*
%TO.P,B6,14*%
%TO.N,Net-(B6-Pad14)*%
X82420000Y-122500000D03*
%TO.P,B6,13*%
%TO.N,Net-(B6-Pad13)*%
X79880000Y-122500000D03*
%TO.P,B6,12*%
%TO.N,Net-(B6-Pad12)*%
X77340000Y-122500000D03*
%TO.P,B6,11*%
%TO.N,Net-(B6-Pad11)*%
X74800000Y-122500000D03*
%TO.P,B6,10*%
%TO.N,Net-(B6-Pad10)*%
X72260000Y-122500000D03*
%TO.P,B6,9*%
%TO.N,Net-(B5-Pad10)*%
X69720000Y-122500000D03*
%TO.P,B6,8*%
%TO.N,GND*%
X69720000Y-114560000D03*
%TO.P,B6,7*%
%TO.N,N/C*%
X72260000Y-114560000D03*
%TO.P,B6,6*%
%TO.N,Net-(B6-Pad6)*%
X74800000Y-114560000D03*
%TO.P,B6,5*%
%TO.N,Net-(B6-Pad5)*%
X77340000Y-114560000D03*
%TO.P,B6,4*%
%TO.N,Net-(B6-Pad4)*%
X79880000Y-114560000D03*
%TO.P,B6,3*%
%TO.N,Net-(B6-Pad3)*%
X82420000Y-114560000D03*
%TO.P,B6,2*%
%TO.N,Net-(A1-Pad23)*%
X84960000Y-114560000D03*
D16*
%TO.P,B6,1*%
%TO.N,Net-(A1-Pad22)*%
X87500000Y-114560000D03*
%TD*%
%TO.P,B5,1*%
%TO.N,Net-(A1-Pad22)*%
X87500000Y-153060000D03*
D17*
%TO.P,B5,2*%
%TO.N,Net-(A1-Pad23)*%
X84960000Y-153060000D03*
%TO.P,B5,3*%
%TO.N,Net-(B5-Pad3)*%
X82420000Y-153060000D03*
%TO.P,B5,4*%
%TO.N,Net-(B5-Pad4)*%
X79880000Y-153060000D03*
%TO.P,B5,5*%
%TO.N,Net-(B5-Pad5)*%
X77340000Y-153060000D03*
%TO.P,B5,6*%
%TO.N,Net-(B5-Pad6)*%
X74800000Y-153060000D03*
%TO.P,B5,7*%
%TO.N,N/C*%
X72260000Y-153060000D03*
%TO.P,B5,8*%
%TO.N,GND*%
X69720000Y-153060000D03*
%TO.P,B5,9*%
%TO.N,Net-(B4-Pad10)*%
X69720000Y-161000000D03*
%TO.P,B5,10*%
%TO.N,Net-(B5-Pad10)*%
X72260000Y-161000000D03*
%TO.P,B5,11*%
%TO.N,Net-(B5-Pad11)*%
X74800000Y-161000000D03*
%TO.P,B5,12*%
%TO.N,Net-(B5-Pad12)*%
X77340000Y-161000000D03*
%TO.P,B5,13*%
%TO.N,Net-(B5-Pad13)*%
X79880000Y-161000000D03*
%TO.P,B5,14*%
%TO.N,Net-(B5-Pad14)*%
X82420000Y-161000000D03*
%TO.P,B5,15*%
%TO.N,GND*%
X84960000Y-161000000D03*
%TO.P,B5,16*%
%TO.N,+5V*%
X87500000Y-161000000D03*
%TD*%
%TO.P,B4,16*%
%TO.N,+5V*%
X108780000Y-290500000D03*
%TO.P,B4,15*%
%TO.N,GND*%
X106240000Y-290500000D03*
%TO.P,B4,14*%
%TO.N,Net-(B4-Pad14)*%
X103700000Y-290500000D03*
%TO.P,B4,13*%
%TO.N,Net-(B4-Pad13)*%
X101160000Y-290500000D03*
%TO.P,B4,12*%
%TO.N,Net-(B4-Pad12)*%
X98620000Y-290500000D03*
%TO.P,B4,11*%
%TO.N,Net-(B4-Pad11)*%
X96080000Y-290500000D03*
%TO.P,B4,10*%
%TO.N,Net-(B4-Pad10)*%
X93540000Y-290500000D03*
%TO.P,B4,9*%
%TO.N,Net-(B3-Pad10)*%
X91000000Y-290500000D03*
%TO.P,B4,8*%
%TO.N,GND*%
X91000000Y-282560000D03*
%TO.P,B4,7*%
%TO.N,N/C*%
X93540000Y-282560000D03*
%TO.P,B4,6*%
%TO.N,Net-(B4-Pad6)*%
X96080000Y-282560000D03*
%TO.P,B4,5*%
%TO.N,Net-(B4-Pad5)*%
X98620000Y-282560000D03*
%TO.P,B4,4*%
%TO.N,Net-(B4-Pad4)*%
X101160000Y-282560000D03*
%TO.P,B4,3*%
%TO.N,Net-(B4-Pad3)*%
X103700000Y-282560000D03*
%TO.P,B4,2*%
%TO.N,Net-(A1-Pad23)*%
X106240000Y-282560000D03*
D16*
%TO.P,B4,1*%
%TO.N,Net-(A1-Pad22)*%
X108780000Y-282560000D03*
%TD*%
D17*
%TO.P,B3,16*%
%TO.N,+5V*%
X91000000Y-135560000D03*
%TO.P,B3,15*%
%TO.N,GND*%
X93540000Y-135560000D03*
%TO.P,B3,14*%
%TO.N,Net-(B3-Pad14)*%
X96080000Y-135560000D03*
%TO.P,B3,13*%
%TO.N,Net-(B3-Pad13)*%
X98620000Y-135560000D03*
%TO.P,B3,12*%
%TO.N,Net-(B3-Pad12)*%
X101160000Y-135560000D03*
%TO.P,B3,11*%
%TO.N,Net-(B3-Pad11)*%
X103700000Y-135560000D03*
%TO.P,B3,10*%
%TO.N,Net-(B3-Pad10)*%
X106240000Y-135560000D03*
%TO.P,B3,9*%
%TO.N,Net-(B2-Pad10)*%
X108780000Y-135560000D03*
%TO.P,B3,8*%
%TO.N,GND*%
X108780000Y-143500000D03*
%TO.P,B3,7*%
%TO.N,N/C*%
X106240000Y-143500000D03*
%TO.P,B3,6*%
%TO.N,Net-(B3-Pad6)*%
X103700000Y-143500000D03*
%TO.P,B3,5*%
%TO.N,Net-(B3-Pad5)*%
X101160000Y-143500000D03*
%TO.P,B3,4*%
%TO.N,Net-(B3-Pad4)*%
X98620000Y-143500000D03*
%TO.P,B3,3*%
%TO.N,Net-(B3-Pad3)*%
X96080000Y-143500000D03*
%TO.P,B3,2*%
%TO.N,Net-(A1-Pad23)*%
X93540000Y-143500000D03*
D16*
%TO.P,B3,1*%
%TO.N,Net-(A1-Pad22)*%
X91000000Y-143500000D03*
%TD*%
D17*
%TO.P,B2,16*%
%TO.N,+5V*%
X129780000Y-161000000D03*
%TO.P,B2,15*%
%TO.N,GND*%
X127240000Y-161000000D03*
%TO.P,B2,14*%
%TO.N,Net-(B2-Pad14)*%
X124700000Y-161000000D03*
%TO.P,B2,13*%
%TO.N,Net-(B2-Pad13)*%
X122160000Y-161000000D03*
%TO.P,B2,12*%
%TO.N,Net-(B2-Pad12)*%
X119620000Y-161000000D03*
%TO.P,B2,11*%
%TO.N,Net-(B2-Pad11)*%
X117080000Y-161000000D03*
%TO.P,B2,10*%
%TO.N,Net-(B2-Pad10)*%
X114540000Y-161000000D03*
%TO.P,B2,9*%
%TO.N,Net-(B1-Pad10)*%
X112000000Y-161000000D03*
%TO.P,B2,8*%
%TO.N,GND*%
X112000000Y-153060000D03*
%TO.P,B2,7*%
%TO.N,N/C*%
X114540000Y-153060000D03*
%TO.P,B2,6*%
%TO.N,Net-(B2-Pad6)*%
X117080000Y-153060000D03*
%TO.P,B2,5*%
%TO.N,Net-(B2-Pad5)*%
X119620000Y-153060000D03*
%TO.P,B2,4*%
%TO.N,Net-(B2-Pad4)*%
X122160000Y-153060000D03*
%TO.P,B2,3*%
%TO.N,Net-(B2-Pad3)*%
X124700000Y-153060000D03*
%TO.P,B2,2*%
%TO.N,Net-(A1-Pad23)*%
X127240000Y-153060000D03*
D16*
%TO.P,B2,1*%
%TO.N,Net-(A1-Pad22)*%
X129780000Y-153060000D03*
%TD*%
D17*
%TO.P,B1,16*%
%TO.N,+5V*%
X112000000Y-114560000D03*
%TO.P,B1,15*%
%TO.N,GND*%
X114540000Y-114560000D03*
%TO.P,B1,14*%
%TO.N,Net-(B1-Pad14)*%
X117080000Y-114560000D03*
%TO.P,B1,13*%
%TO.N,Net-(B1-Pad13)*%
X119620000Y-114560000D03*
%TO.P,B1,12*%
%TO.N,Net-(B1-Pad12)*%
X122160000Y-114560000D03*
%TO.P,B1,11*%
%TO.N,Net-(B1-Pad11)*%
X124700000Y-114560000D03*
%TO.P,B1,10*%
%TO.N,Net-(B1-Pad10)*%
X127240000Y-114560000D03*
%TO.P,B1,9*%
%TO.N,Net-(B0-Pad10)*%
X129780000Y-114560000D03*
%TO.P,B1,8*%
%TO.N,GND*%
X129780000Y-122500000D03*
%TO.P,B1,7*%
%TO.N,N/C*%
X127240000Y-122500000D03*
%TO.P,B1,6*%
%TO.N,Net-(B1-Pad6)*%
X124700000Y-122500000D03*
%TO.P,B1,5*%
%TO.N,Net-(B1-Pad5)*%
X122160000Y-122500000D03*
%TO.P,B1,4*%
%TO.N,Net-(B1-Pad4)*%
X119620000Y-122500000D03*
%TO.P,B1,3*%
%TO.N,Net-(B1-Pad3)*%
X117080000Y-122500000D03*
%TO.P,B1,2*%
%TO.N,Net-(A1-Pad23)*%
X114540000Y-122500000D03*
D16*
%TO.P,B1,1*%
%TO.N,Net-(A1-Pad22)*%
X112000000Y-122500000D03*
%TD*%
D17*
%TO.P,B0,16*%
%TO.N,+5V*%
X185780000Y-38500000D03*
%TO.P,B0,15*%
%TO.N,GND*%
X183240000Y-38500000D03*
%TO.P,B0,14*%
%TO.N,Net-(B0-Pad14)*%
X180700000Y-38500000D03*
%TO.P,B0,13*%
%TO.N,Net-(B0-Pad13)*%
X178160000Y-38500000D03*
%TO.P,B0,12*%
%TO.N,Net-(B0-Pad12)*%
X175620000Y-38500000D03*
%TO.P,B0,11*%
%TO.N,Net-(B0-Pad11)*%
X173080000Y-38500000D03*
%TO.P,B0,10*%
%TO.N,Net-(B0-Pad10)*%
X170540000Y-38500000D03*
%TO.P,B0,9*%
%TO.N,Net-(A1-Pad21)*%
X168000000Y-38500000D03*
%TO.P,B0,8*%
%TO.N,GND*%
X168000000Y-30560000D03*
%TO.P,B0,7*%
%TO.N,N/C*%
X170540000Y-30560000D03*
%TO.P,B0,6*%
%TO.N,Net-(B0-Pad6)*%
X173080000Y-30560000D03*
%TO.P,B0,5*%
%TO.N,Net-(B0-Pad5)*%
X175620000Y-30560000D03*
%TO.P,B0,4*%
%TO.N,Net-(B0-Pad4)*%
X178160000Y-30560000D03*
%TO.P,B0,3*%
%TO.N,Net-(B0-Pad3)*%
X180700000Y-30560000D03*
%TO.P,B0,2*%
%TO.N,Net-(A1-Pad23)*%
X183240000Y-30560000D03*
D16*
%TO.P,B0,1*%
%TO.N,Net-(A1-Pad22)*%
X185780000Y-30560000D03*
%TD*%
D24*
%TO.P,M0,24*%
%TO.N,+5V*%
X108499500Y-49060000D03*
%TO.P,M0,23*%
%TO.N,Net-(M0-Pad23)*%
X108499500Y-51600000D03*
%TO.P,M0,22*%
%TO.N,Net-(M0-Pad22)*%
X108499500Y-54140000D03*
%TO.P,M0,21*%
%TO.N,Net-(M0-Pad21)*%
X108499500Y-56680000D03*
%TO.P,M0,20*%
%TO.N,Net-(M0-Pad20)*%
X108499500Y-59220000D03*
%TO.P,M0,19*%
%TO.N,Net-(M0-Pad19)*%
X108499500Y-61760000D03*
%TO.P,M0,18*%
%TO.N,Net-(M0-Pad18)*%
X108499500Y-64300000D03*
%TO.P,M0,17*%
%TO.N,Net-(M0-Pad17)*%
X108499500Y-66840000D03*
%TO.P,M0,16*%
%TO.N,Net-(M0-Pad16)*%
X108499500Y-69380000D03*
%TO.P,M0,15*%
%TO.N,GND*%
X108499500Y-71920000D03*
%TO.P,M0,14*%
%TO.N,Net-(A1-Pad19)*%
X108499500Y-74460000D03*
%TO.P,M0,13*%
%TO.N,Net-(A1-Pad20)*%
X108499500Y-77000000D03*
%TO.P,M0,12*%
%TO.N,GND*%
X93004500Y-77000000D03*
%TO.P,M0,11*%
%TO.N,Net-(A1-Pad18)*%
X93004500Y-74460000D03*
%TO.P,M0,10*%
%TO.N,Net-(A1-Pad17)*%
X93004500Y-71920000D03*
%TO.P,M0,9*%
%TO.N,Net-(M0-Pad9)*%
X93004500Y-69380000D03*
%TO.P,M0,8*%
%TO.N,Net-(M0-Pad8)*%
X93004500Y-66840000D03*
%TO.P,M0,7*%
%TO.N,Net-(M0-Pad7)*%
X93004500Y-64300000D03*
%TO.P,M0,6*%
%TO.N,Net-(M0-Pad6)*%
X93004500Y-61760000D03*
%TO.P,M0,5*%
%TO.N,Net-(M0-Pad5)*%
X93004500Y-59220000D03*
%TO.P,M0,4*%
%TO.N,Net-(M0-Pad4)*%
X93004500Y-56680000D03*
%TO.P,M0,3*%
%TO.N,Net-(M0-Pad3)*%
X93004500Y-54140000D03*
%TO.P,M0,2*%
%TO.N,Net-(M0-Pad2)*%
X93004500Y-51600000D03*
D25*
%TO.P,M0,1*%
%TO.N,Net-(A1-Pad9)*%
X93004500Y-49060000D03*
%TD*%
D26*
%TO.P,SW18,A*%
%TO.N,Net-(B6-Pad6)*%
X47500000Y-80500000D03*
D13*
%TO.P,SW18,C*%
%TO.N,+5V*%
X50000000Y-80500000D03*
%TO.P,SW18,B*%
%TO.N,Net-(B6-Pad5)*%
X52500000Y-80500000D03*
D27*
%TO.P,SW18,MP*%
%TO.N,N/C*%
X44400000Y-73000000D03*
X55600000Y-73000000D03*
D13*
%TO.P,SW18,S2*%
%TO.N,+5V*%
X47500000Y-66000000D03*
%TO.P,SW18,S1*%
%TO.N,Net-(B7-Pad5)*%
X52500000Y-66000000D03*
%TD*%
%TO.P,SW16,S1*%
%TO.N,Net-(B0-Pad12)*%
X152000000Y-66000000D03*
%TO.P,SW16,S2*%
%TO.N,+5V*%
X147000000Y-66000000D03*
D27*
%TO.P,SW16,MP*%
%TO.N,N/C*%
X155100000Y-73000000D03*
X143900000Y-73000000D03*
D13*
%TO.P,SW16,B*%
%TO.N,Net-(B1-Pad12)*%
X152000000Y-80500000D03*
%TO.P,SW16,C*%
%TO.N,+5V*%
X149500000Y-80500000D03*
D26*
%TO.P,SW16,A*%
%TO.N,Net-(B1-Pad11)*%
X147000000Y-80500000D03*
%TD*%
%TO.P,SW8,A*%
%TO.N,Net-(B3-Pad3)*%
X101500000Y-188500000D03*
D13*
%TO.P,SW8,C*%
%TO.N,+5V*%
X99000000Y-188500000D03*
%TO.P,SW8,B*%
%TO.N,Net-(B3-Pad4)*%
X96500000Y-188500000D03*
D27*
%TO.P,SW8,MP*%
%TO.N,N/C*%
X104600000Y-196000000D03*
X93400000Y-196000000D03*
D13*
%TO.P,SW8,S2*%
%TO.N,Net-(B3-Pad5)*%
X101500000Y-203000000D03*
%TO.P,SW8,S1*%
%TO.N,+5V*%
X96500000Y-203000000D03*
%TD*%
D20*
%TO.P,RV16,*%
%TO.N,*%
X76700000Y-17000000D03*
X86300000Y-17000000D03*
D14*
%TO.P,RV16,3*%
%TO.N,+5V*%
X84000000Y-24500000D03*
%TO.P,RV16,2*%
%TO.N,Net-(M0-Pad2)*%
X81500000Y-24500000D03*
D15*
%TO.P,RV16,1*%
%TO.N,GND*%
X79000000Y-24500000D03*
%TD*%
D20*
%TO.P,RV15,*%
%TO.N,*%
X113200000Y-17000000D03*
X122800000Y-17000000D03*
D14*
%TO.P,RV15,3*%
%TO.N,+5V*%
X120500000Y-24500000D03*
%TO.P,RV15,2*%
%TO.N,Net-(M0-Pad23)*%
X118000000Y-24500000D03*
D15*
%TO.P,RV15,1*%
%TO.N,GND*%
X115500000Y-24500000D03*
%TD*%
D20*
%TO.P,RV14,*%
%TO.N,*%
X80200000Y-45000000D03*
X89800000Y-45000000D03*
D14*
%TO.P,RV14,3*%
%TO.N,+5V*%
X87500000Y-52500000D03*
%TO.P,RV14,2*%
%TO.N,Net-(M0-Pad3)*%
X85000000Y-52500000D03*
D15*
%TO.P,RV14,1*%
%TO.N,GND*%
X82500000Y-52500000D03*
%TD*%
D20*
%TO.P,RV13,*%
%TO.N,*%
X113200000Y-45000000D03*
X122800000Y-45000000D03*
D14*
%TO.P,RV13,3*%
%TO.N,+5V*%
X120500000Y-52500000D03*
%TO.P,RV13,2*%
%TO.N,Net-(M0-Pad22)*%
X118000000Y-52500000D03*
D15*
%TO.P,RV13,1*%
%TO.N,GND*%
X115500000Y-52500000D03*
%TD*%
%TO.P,RV12,1*%
%TO.N,GND*%
X16000000Y-80500000D03*
D14*
%TO.P,RV12,2*%
%TO.N,Net-(M0-Pad4)*%
X18500000Y-80500000D03*
%TO.P,RV12,3*%
%TO.N,+5V*%
X21000000Y-80500000D03*
D20*
%TO.P,RV12,*%
%TO.N,*%
X23300000Y-73000000D03*
X13700000Y-73000000D03*
%TD*%
%TO.P,RV11,*%
%TO.N,*%
X113200000Y-73000000D03*
X122800000Y-73000000D03*
D14*
%TO.P,RV11,3*%
%TO.N,+5V*%
X120500000Y-80500000D03*
%TO.P,RV11,2*%
%TO.N,Net-(M0-Pad21)*%
X118000000Y-80500000D03*
D15*
%TO.P,RV11,1*%
%TO.N,GND*%
X115500000Y-80500000D03*
%TD*%
D20*
%TO.P,RV10,*%
%TO.N,*%
X45200000Y-101000000D03*
X54800000Y-101000000D03*
D14*
%TO.P,RV10,3*%
%TO.N,+5V*%
X52500000Y-108500000D03*
%TO.P,RV10,2*%
%TO.N,Net-(M0-Pad5)*%
X50000000Y-108500000D03*
D15*
%TO.P,RV10,1*%
%TO.N,GND*%
X47500000Y-108500000D03*
%TD*%
D20*
%TO.P,RV6,*%
%TO.N,*%
X76700000Y-73000000D03*
X86300000Y-73000000D03*
D14*
%TO.P,RV6,3*%
%TO.N,+5V*%
X84000000Y-80500000D03*
%TO.P,RV6,2*%
%TO.N,Net-(M0-Pad7)*%
X81500000Y-80500000D03*
D15*
%TO.P,RV6,1*%
%TO.N,GND*%
X79000000Y-80500000D03*
%TD*%
D20*
%TO.P,RV5,*%
%TO.N,*%
X176200000Y-73000000D03*
X185800000Y-73000000D03*
D14*
%TO.P,RV5,3*%
%TO.N,+5V*%
X183500000Y-80500000D03*
%TO.P,RV5,2*%
%TO.N,Net-(M0-Pad18)*%
X181000000Y-80500000D03*
D15*
%TO.P,RV5,1*%
%TO.N,GND*%
X178500000Y-80500000D03*
%TD*%
D20*
%TO.P,RV4,*%
%TO.N,*%
X76700000Y-101000000D03*
X86300000Y-101000000D03*
D14*
%TO.P,RV4,3*%
%TO.N,+5V*%
X84000000Y-108500000D03*
%TO.P,RV4,2*%
%TO.N,Net-(M0-Pad8)*%
X81500000Y-108500000D03*
D15*
%TO.P,RV4,1*%
%TO.N,GND*%
X79000000Y-108500000D03*
%TD*%
%TO.P,RV3,1*%
%TO.N,GND*%
X147000000Y-108500000D03*
D14*
%TO.P,RV3,2*%
%TO.N,Net-(M0-Pad17)*%
X149500000Y-108500000D03*
%TO.P,RV3,3*%
%TO.N,+5V*%
X152000000Y-108500000D03*
D20*
%TO.P,RV3,*%
%TO.N,*%
X154300000Y-101000000D03*
X144700000Y-101000000D03*
%TD*%
D15*
%TO.P,RV2,1*%
%TO.N,GND*%
X157500000Y-14000000D03*
D14*
%TO.P,RV2,2*%
%TO.N,Net-(M0-Pad9)*%
X160000000Y-14000000D03*
%TO.P,RV2,3*%
%TO.N,+5V*%
X162500000Y-14000000D03*
D20*
%TO.P,RV2,*%
%TO.N,*%
X164800000Y-6500000D03*
X155200000Y-6500000D03*
%TD*%
%TO.P,RV1,*%
%TO.N,*%
X113280000Y-101080000D03*
X122880000Y-101080000D03*
D14*
%TO.P,RV1,3*%
%TO.N,+5V*%
X120580000Y-108580000D03*
%TO.P,RV1,2*%
%TO.N,Net-(M0-Pad16)*%
X118080000Y-108580000D03*
D15*
%TO.P,RV1,1*%
%TO.N,GND*%
X115580000Y-108580000D03*
%TD*%
D19*
%TO.P,A1,32*%
%TO.N,N/C*%
X125260000Y-18300000D03*
%TO.P,A1,31*%
X125260000Y-20840000D03*
D28*
%TO.P,A1,1*%
X77000000Y-27440000D03*
D19*
%TO.P,A1,17*%
%TO.N,Net-(A1-Pad17)*%
X125260000Y-57920000D03*
%TO.P,A1,2*%
%TO.N,N/C*%
X77000000Y-29980000D03*
%TO.P,A1,18*%
%TO.N,Net-(A1-Pad18)*%
X125260000Y-55380000D03*
%TO.P,A1,3*%
%TO.N,N/C*%
X77000000Y-32520000D03*
%TO.P,A1,19*%
%TO.N,Net-(A1-Pad19)*%
X125260000Y-52840000D03*
%TO.P,A1,4*%
%TO.N,N/C*%
X77000000Y-35060000D03*
%TO.P,A1,20*%
%TO.N,Net-(A1-Pad20)*%
X125260000Y-50300000D03*
%TO.P,A1,5*%
%TO.N,+5V*%
X77000000Y-37600000D03*
%TO.P,A1,21*%
%TO.N,Net-(A1-Pad21)*%
X125260000Y-47760000D03*
%TO.P,A1,6*%
%TO.N,GND*%
X77000000Y-40140000D03*
%TO.P,A1,22*%
%TO.N,Net-(A1-Pad22)*%
X125260000Y-45220000D03*
%TO.P,A1,7*%
%TO.N,GND*%
X77000000Y-42680000D03*
%TO.P,A1,23*%
%TO.N,Net-(A1-Pad23)*%
X125260000Y-41160000D03*
%TO.P,A1,8*%
%TO.N,N/C*%
X77000000Y-45220000D03*
%TO.P,A1,24*%
%TO.N,Net-(A1-Pad24)*%
X125260000Y-38620000D03*
%TO.P,A1,9*%
%TO.N,Net-(A1-Pad9)*%
X77000000Y-50300000D03*
%TO.P,A1,25*%
%TO.N,Net-(A1-Pad25)*%
X125260000Y-36080000D03*
%TO.P,A1,10*%
%TO.N,Net-(A1-Pad10)*%
X77000000Y-52840000D03*
%TO.P,A1,26*%
%TO.N,Net-(A1-Pad26)*%
X125260000Y-33540000D03*
%TO.P,A1,11*%
%TO.N,Net-(A1-Pad11)*%
X77000000Y-55380000D03*
%TO.P,A1,27*%
%TO.N,N/C*%
X125260000Y-31000000D03*
%TO.P,A1,12*%
X77000000Y-57920000D03*
%TO.P,A1,28*%
X125260000Y-28460000D03*
%TO.P,A1,13*%
X77000000Y-60460000D03*
%TO.P,A1,29*%
%TO.N,GND*%
X125260000Y-25920000D03*
%TO.P,A1,14*%
%TO.N,N/C*%
X77000000Y-63000000D03*
%TO.P,A1,30*%
X125260000Y-23380000D03*
%TO.P,A1,15*%
X125260000Y-63000000D03*
%TO.P,A1,16*%
X125260000Y-60460000D03*
%TD*%
D29*
%TO.N,Net-(A1-Pad25)*%
X148071900Y-151249400D03*
%TO.N,Net-(A1-Pad23)*%
X106362900Y-149334900D03*
%TO.N,Net-(A1-Pad22)*%
X107339800Y-173814200D03*
%TO.N,Net-(A1-Pad11)*%
X48268200Y-75953600D03*
%TO.N,Net-(B0-Pad10)*%
X154994900Y-81356000D03*
%TO.N,Net-(B2-Pad11)*%
X135858700Y-156257300D03*
%TO.N,Net-(B5-Pad4)*%
X43180100Y-159817500D03*
%TO.N,Net-(B5-Pad11)*%
X48737200Y-158265800D03*
%TO.N,Net-(B5-Pad13)*%
X70064200Y-158815500D03*
%TO.N,Net-(B5-Pad14)*%
X85890000Y-157530000D03*
%TO.N,Net-(L0-Pad15)*%
X128688300Y-40274200D03*
%TO.N,Net-(L0-Pad9)*%
X126456500Y-40045500D03*
%TO.N,Net-(L0-Pad1)*%
X141283600Y-31078800D03*
%TO.N,Net-(L1-Pad9)*%
X162737700Y-127231600D03*
%TO.N,Net-(L2-Pad3)*%
X154063700Y-155516300D03*
%TO.N,Net-(L4-Pad9)*%
X60618500Y-214728500D03*
%TO.N,Net-(L5-Pad9)*%
X46639400Y-143870000D03*
%TO.N,Net-(M0-Pad20)*%
X73583200Y-260776200D03*
%TO.N,Net-(M0-Pad17)*%
X140701700Y-99626000D03*
%TD*%
D30*
%TO.N,GND*%
X96102600Y-281302000D02*
X105300600Y-290500000D01*
X105300600Y-290500000D02*
X106240000Y-290500000D01*
X98000000Y-259000000D02*
X98000000Y-279404600D01*
X98000000Y-279404600D02*
X96102600Y-281302000D01*
X96102600Y-281302000D02*
X92258000Y-281302000D01*
X92258000Y-281302000D02*
X91000000Y-282560000D01*
X162940000Y-168960000D02*
X163905400Y-167994600D01*
X163905400Y-167994600D02*
X163905400Y-163625400D01*
X163905400Y-163625400D02*
X161280000Y-161000000D01*
X112000000Y-126340000D02*
X112000000Y-127465300D01*
X108780000Y-143500000D02*
X110874700Y-141405300D01*
X110874700Y-141405300D02*
X110874700Y-128590600D01*
X110874700Y-128590600D02*
X112000000Y-127465300D01*
X112000000Y-153060000D02*
X108780000Y-149840000D01*
X108780000Y-149840000D02*
X108780000Y-143500000D01*
X150500000Y-140340000D02*
X150500000Y-130965300D01*
X150500000Y-130965300D02*
X154000000Y-127465300D01*
X151120000Y-114560000D02*
X154569400Y-118009400D01*
X154569400Y-118009400D02*
X154569400Y-124645300D01*
X154569400Y-124645300D02*
X154000000Y-125214700D01*
X115500000Y-24500000D02*
X114274700Y-24500000D01*
X114274700Y-24500000D02*
X105943700Y-32831000D01*
X105943700Y-32831000D02*
X103049000Y-32831000D01*
X103049000Y-32831000D02*
X100880000Y-35000000D01*
X78560000Y-147960000D02*
X73500000Y-142900000D01*
X73500000Y-142900000D02*
X73500000Y-140000000D01*
X55107000Y-150500000D02*
X55107000Y-150413000D01*
X55107000Y-150413000D02*
X57560000Y-147960000D01*
X55107000Y-161000000D02*
X55107000Y-150500000D01*
X55107000Y-150500000D02*
X50125300Y-150500000D01*
X49000000Y-150500000D02*
X50125300Y-150500000D01*
X120940000Y-147960000D02*
X126080000Y-142820000D01*
X126080000Y-142820000D02*
X126080000Y-140080000D01*
X30230000Y-31454300D02*
X30230000Y-37230000D01*
X30230000Y-37230000D02*
X31500000Y-38500000D01*
X31500000Y-23185300D02*
X31040500Y-23185300D01*
X31040500Y-23185300D02*
X30230000Y-23995800D01*
X30230000Y-23995800D02*
X30230000Y-31454300D01*
X30230000Y-31454300D02*
X17154300Y-31454300D01*
X17154300Y-31454300D02*
X16260000Y-30560000D01*
X162940000Y-147960000D02*
X163905400Y-148925400D01*
X163905400Y-148925400D02*
X163905400Y-158374600D01*
X163905400Y-158374600D02*
X161280000Y-161000000D01*
X171500000Y-140080000D02*
X171500000Y-130965300D01*
X171500000Y-130965300D02*
X175000000Y-127465300D01*
X171500000Y-140340000D02*
X171500000Y-140080000D01*
X171500000Y-140080000D02*
X169305300Y-140080000D01*
X168080000Y-140080000D02*
X169305300Y-140080000D01*
X133080000Y-126420000D02*
X133080000Y-125294700D01*
X133080000Y-125294700D02*
X132574700Y-125294700D01*
X132574700Y-125294700D02*
X129780000Y-122500000D01*
X112000000Y-126340000D02*
X112000000Y-125214700D01*
X112000000Y-125214700D02*
X113555900Y-123658800D01*
X113555900Y-123658800D02*
X113555900Y-115544100D01*
X113555900Y-115544100D02*
X114540000Y-114560000D01*
X111740000Y-185500000D02*
X111740000Y-186625300D01*
X112000000Y-196340000D02*
X112000000Y-186885300D01*
X112000000Y-186885300D02*
X111740000Y-186625300D01*
X98000000Y-224000000D02*
X98000000Y-231000000D01*
X10500000Y-102460000D02*
X10500000Y-103685300D01*
X10500000Y-115840000D02*
X10500000Y-114714700D01*
X10500000Y-114714700D02*
X9274700Y-113489400D01*
X9274700Y-113489400D02*
X9274700Y-104451000D01*
X9274700Y-104451000D02*
X10040400Y-103685300D01*
X10040400Y-103685300D02*
X10500000Y-103685300D01*
X189000000Y-17840000D02*
X187874700Y-17840000D01*
X171500000Y-17840000D02*
X172625300Y-17840000D01*
X172625300Y-17840000D02*
X173827300Y-16638000D01*
X173827300Y-16638000D02*
X187094700Y-16638000D01*
X187094700Y-16638000D02*
X187874700Y-17418000D01*
X187874700Y-17418000D02*
X187874700Y-17840000D01*
X136500000Y-259000000D02*
X137700300Y-259000000D01*
X154000000Y-273340000D02*
X152040300Y-273340000D01*
X152040300Y-273340000D02*
X137700300Y-259000000D01*
X142020000Y-148040000D02*
X147080000Y-142980000D01*
X147080000Y-142980000D02*
X147080000Y-141305300D01*
X133000000Y-17840000D02*
X131874700Y-17840000D01*
X125260000Y-25920000D02*
X125260000Y-24794700D01*
X125260000Y-24794700D02*
X125456300Y-24794700D01*
X125456300Y-24794700D02*
X131874700Y-18376300D01*
X131874700Y-18376300D02*
X131874700Y-17840000D01*
X126000000Y-175000000D02*
X126000000Y-173874700D01*
X126000000Y-173874700D02*
X125854700Y-173874700D01*
X125854700Y-173874700D02*
X120940000Y-168960000D01*
X79000000Y-24500000D02*
X79000000Y-37296000D01*
X79000000Y-37296000D02*
X77281300Y-39014700D01*
X77281300Y-39014700D02*
X77000000Y-39014700D01*
X77000000Y-42340000D02*
X77000000Y-40140000D01*
X77000000Y-42680000D02*
X77000000Y-42340000D01*
X77000000Y-42340000D02*
X67625300Y-42340000D01*
X66500000Y-42340000D02*
X67625300Y-42340000D01*
X73580000Y-164920000D02*
X74705300Y-164920000D01*
X74705300Y-164920000D02*
X74705300Y-165105300D01*
X74705300Y-165105300D02*
X78640000Y-169040000D01*
X79000000Y-61809400D02*
X79000000Y-57225300D01*
X79000000Y-57225300D02*
X82500000Y-53725300D01*
X79000000Y-80500000D02*
X79000000Y-61809400D01*
X79000000Y-61809400D02*
X65315900Y-61809400D01*
X65315900Y-61809400D02*
X64125300Y-63000000D01*
X63000000Y-63000000D02*
X64125300Y-63000000D01*
X31500000Y-21960000D02*
X31500000Y-23185300D01*
X59500000Y-243990000D02*
X69610000Y-233880000D01*
X59500000Y-259000000D02*
X59500000Y-243990000D01*
X59500000Y-243990000D02*
X48775300Y-243990000D01*
X48775300Y-243990000D02*
X43125300Y-238340000D01*
X42000000Y-238340000D02*
X43125300Y-238340000D01*
X31580000Y-163794700D02*
X32590300Y-162784400D01*
X32590300Y-162784400D02*
X32590300Y-156215600D01*
X32590300Y-156215600D02*
X28000000Y-151625300D01*
X31500000Y-42340000D02*
X31500000Y-45234700D01*
X31500000Y-38500000D02*
X31500000Y-42340000D01*
X31500000Y-42340000D02*
X25625300Y-42340000D01*
X24500000Y-42340000D02*
X25625300Y-42340000D01*
X8205300Y-150580000D02*
X10580000Y-152954700D01*
X10580000Y-152954700D02*
X10580000Y-164920000D01*
X13192700Y-145592600D02*
X8205300Y-150580000D01*
X13192700Y-145592600D02*
X10580000Y-142980000D01*
X10580000Y-142980000D02*
X10580000Y-140080000D01*
X15560000Y-147960000D02*
X13192700Y-145592600D01*
X7080000Y-150580000D02*
X8205300Y-150580000D01*
X28000000Y-149130000D02*
X16730000Y-149130000D01*
X16730000Y-149130000D02*
X15560000Y-147960000D01*
X31500000Y-139120000D02*
X31500000Y-145874700D01*
X31500000Y-145874700D02*
X28244700Y-149130000D01*
X28244700Y-149130000D02*
X28000000Y-149130000D01*
X28000000Y-149130000D02*
X28000000Y-149374700D01*
X175000000Y-126340000D02*
X175000000Y-127465300D01*
X168000000Y-46460000D02*
X168000000Y-47685300D01*
X164160000Y-63000000D02*
X164160000Y-51065800D01*
X164160000Y-51065800D02*
X167540500Y-47685300D01*
X167540500Y-47685300D02*
X168000000Y-47685300D01*
X168945200Y-42340000D02*
X168945200Y-44289500D01*
X168945200Y-44289500D02*
X168000000Y-45234700D01*
X168945200Y-30560000D02*
X168945200Y-42340000D01*
X168945200Y-42340000D02*
X173874700Y-42340000D01*
X175000000Y-42340000D02*
X173874700Y-42340000D01*
X168000000Y-23185300D02*
X168459600Y-23185300D01*
X168459600Y-23185300D02*
X169225300Y-23951000D01*
X169225300Y-23951000D02*
X169225300Y-29334700D01*
X169225300Y-29334700D02*
X168945200Y-29614800D01*
X168945200Y-29614800D02*
X168945200Y-30560000D01*
X168000000Y-30560000D02*
X168945200Y-30560000D01*
X168000000Y-46460000D02*
X168000000Y-45234700D01*
X150500000Y-140340000D02*
X150500000Y-141465300D01*
X151120000Y-153060000D02*
X151625300Y-152554700D01*
X151625300Y-152554700D02*
X151625300Y-142590600D01*
X151625300Y-142590600D02*
X150500000Y-141465300D01*
X94580000Y-206500000D02*
X94580000Y-205374700D01*
X94580000Y-205374700D02*
X87500000Y-198294700D01*
X87500000Y-198294700D02*
X87500000Y-196340000D01*
X87840000Y-185500000D02*
X87840000Y-186625300D01*
X87840000Y-186625300D02*
X87500000Y-186965300D01*
X87500000Y-186965300D02*
X87500000Y-196340000D01*
X82500000Y-52500000D02*
X82500000Y-53725300D01*
X79000000Y-108500000D02*
X79000000Y-80500000D01*
X45500000Y-126340000D02*
X45500000Y-125214700D01*
X45500000Y-125214700D02*
X44936100Y-124650800D01*
X44936100Y-124650800D02*
X44936100Y-115463900D01*
X44936100Y-115463900D02*
X45840000Y-114560000D01*
X55107000Y-161000000D02*
X56000000Y-161000000D01*
X52580000Y-163794700D02*
X55107000Y-161267700D01*
X55107000Y-161267700D02*
X55107000Y-161000000D01*
X31500000Y-46460000D02*
X31500000Y-45234700D01*
X28000000Y-150500000D02*
X28000000Y-151625300D01*
X31500000Y-139120000D02*
X31500000Y-137894700D01*
X28000000Y-115840000D02*
X28000000Y-116965300D01*
X82500000Y-51957100D02*
X82500000Y-52500000D01*
X82500000Y-51957100D02*
X82500000Y-51274700D01*
X31500000Y-137894700D02*
X31040500Y-137894700D01*
X31040500Y-137894700D02*
X25937400Y-132791600D01*
X25937400Y-132791600D02*
X25937400Y-125294700D01*
X25937400Y-125294700D02*
X25937400Y-119027900D01*
X25937400Y-119027900D02*
X28000000Y-116965300D01*
X25937400Y-125294700D02*
X24580000Y-125294700D01*
X98000000Y-217000000D02*
X98000000Y-210000000D01*
X98000000Y-224000000D02*
X98000000Y-217000000D01*
X98000000Y-245000000D02*
X98000000Y-238000000D01*
X98000000Y-252000000D02*
X98000000Y-245000000D01*
X98000000Y-259000000D02*
X98000000Y-252000000D01*
X57560000Y-147960000D02*
X52500000Y-142900000D01*
X52500000Y-142900000D02*
X52500000Y-140000000D01*
X24500000Y-98340000D02*
X24500000Y-99465300D01*
X24500000Y-99465300D02*
X28000000Y-102965300D01*
X28000000Y-102965300D02*
X28000000Y-115840000D01*
X154000000Y-126340000D02*
X154000000Y-125214700D01*
X52580000Y-164920000D02*
X52580000Y-163794700D01*
X31580000Y-164920000D02*
X31580000Y-163794700D01*
X28000000Y-150500000D02*
X28000000Y-149374700D01*
X147080000Y-140080000D02*
X147080000Y-141305300D01*
X70000000Y-150500000D02*
X70000000Y-151625300D01*
X70000000Y-151625300D02*
X69720000Y-151905300D01*
X69720000Y-151905300D02*
X69720000Y-153060000D01*
X130440000Y-223720000D02*
X124149600Y-230010400D01*
X124149600Y-230010400D02*
X124149600Y-232230400D01*
X124149600Y-232230400D02*
X122500000Y-233880000D01*
X90720000Y-27060000D02*
X96339600Y-32679600D01*
X96339600Y-32679600D02*
X98559600Y-32679600D01*
X98559600Y-32679600D02*
X100880000Y-35000000D01*
X69720000Y-114560000D02*
X66500000Y-117780000D01*
X66500000Y-117780000D02*
X66500000Y-126340000D01*
X168000000Y-21960000D02*
X168000000Y-23185300D01*
X77000000Y-40140000D02*
X77000000Y-39014700D01*
X24580000Y-126420000D02*
X24580000Y-125294700D01*
X189080000Y-102540000D02*
X189080000Y-103765300D01*
X189000000Y-115840000D02*
X189000000Y-114714700D01*
X189000000Y-114714700D02*
X190305300Y-113409400D01*
X190305300Y-113409400D02*
X190305300Y-104531000D01*
X190305300Y-104531000D02*
X189539600Y-103765300D01*
X189539600Y-103765300D02*
X189080000Y-103765300D01*
X154000000Y-126340000D02*
X154000000Y-127465300D01*
X59500000Y-70340000D02*
X59500000Y-69214700D01*
X59500000Y-69214700D02*
X63000000Y-65714700D01*
X63000000Y-65714700D02*
X63000000Y-63000000D01*
X77000000Y-42680000D02*
X77000000Y-43805300D01*
X82500000Y-51274700D02*
X78125300Y-46900000D01*
X78125300Y-46900000D02*
X78125300Y-44649200D01*
X78125300Y-44649200D02*
X77281400Y-43805300D01*
X77281400Y-43805300D02*
X77000000Y-43805300D01*
X47500000Y-108500000D02*
X47500000Y-109725300D01*
X47500000Y-109725300D02*
X45840000Y-111385300D01*
X45840000Y-111385300D02*
X45840000Y-114560000D01*
X115580000Y-108580000D02*
X115580000Y-109805300D01*
X115580000Y-109805300D02*
X114540000Y-110845300D01*
X114540000Y-110845300D02*
X114540000Y-114560000D01*
%TO.N,Net-(A1-Pad26)*%
X156200000Y-114560000D02*
X155286300Y-115473700D01*
X155286300Y-115473700D02*
X155286300Y-132589700D01*
X155286300Y-132589700D02*
X152853500Y-135022500D01*
X152853500Y-135022500D02*
X152853500Y-147727800D01*
X152853500Y-147727800D02*
X156200000Y-151074300D01*
X156200000Y-151074300D02*
X156200000Y-153060000D01*
X125260000Y-34665300D02*
X125493900Y-34665300D01*
X125493900Y-34665300D02*
X127961400Y-37132800D01*
X127961400Y-37132800D02*
X127961400Y-63949200D01*
X127961400Y-63949200D02*
X152267700Y-88255500D01*
X152267700Y-88255500D02*
X152267700Y-103793200D01*
X152267700Y-103793200D02*
X156200000Y-107725500D01*
X156200000Y-107725500D02*
X156200000Y-114560000D01*
X69610000Y-228800000D02*
X67705400Y-226895400D01*
X67705400Y-226895400D02*
X67705400Y-188236500D01*
X67705400Y-188236500D02*
X65007100Y-185538200D01*
X65007100Y-185538200D02*
X65007100Y-180973600D01*
X65007100Y-180973600D02*
X51446700Y-167413200D01*
X51446700Y-167413200D02*
X51446700Y-161754100D01*
X51446700Y-161754100D02*
X51815200Y-161385600D01*
X51815200Y-161385600D02*
X51815200Y-153955200D01*
X51815200Y-153955200D02*
X50920000Y-153060000D01*
X50920000Y-153060000D02*
X49869300Y-153060000D01*
X49869300Y-153060000D02*
X47871400Y-151062100D01*
X47871400Y-151062100D02*
X47871400Y-139608700D01*
X47871400Y-139608700D02*
X49650000Y-137830100D01*
X49650000Y-137830100D02*
X49650000Y-115830000D01*
X49650000Y-115830000D02*
X50920000Y-114560000D01*
X156200000Y-153060000D02*
X156200000Y-157179300D01*
X156200000Y-157179300D02*
X148406200Y-164973100D01*
X148406200Y-164973100D02*
X148406200Y-202893800D01*
X148406200Y-202893800D02*
X122500000Y-228800000D01*
X125260000Y-33540000D02*
X125260000Y-34665300D01*
%TO.N,Net-(A1-Pad25)*%
X153660000Y-113646800D02*
X153660000Y-114560000D01*
X125260000Y-37205300D02*
X125541300Y-37205300D01*
X125541300Y-37205300D02*
X127289000Y-38953000D01*
X127289000Y-38953000D02*
X127289000Y-63913700D01*
X127289000Y-63913700D02*
X151405600Y-88030300D01*
X151405600Y-88030300D02*
X151405600Y-103568100D01*
X151405600Y-103568100D02*
X153733200Y-105895700D01*
X153733200Y-105895700D02*
X153733200Y-113573600D01*
X153733200Y-113573600D02*
X153660000Y-113646800D01*
X153660000Y-113646800D02*
X150762700Y-113646800D01*
X150762700Y-113646800D02*
X150229600Y-114179900D01*
X150229600Y-114179900D02*
X150229600Y-124737000D01*
X150229600Y-124737000D02*
X148305400Y-126661200D01*
X148305400Y-126661200D02*
X148305400Y-151015900D01*
X148305400Y-151015900D02*
X148071900Y-151249400D01*
X48380000Y-153060000D02*
X50029600Y-154709600D01*
X50029600Y-154709600D02*
X50029600Y-166694500D01*
X50029600Y-166694500D02*
X64331700Y-180996600D01*
X64331700Y-180996600D02*
X64331700Y-196211700D01*
X64331700Y-196211700D02*
X67174800Y-199054800D01*
X67174800Y-199054800D02*
X67174800Y-228904800D01*
X67174800Y-228904800D02*
X69610000Y-231340000D01*
X48380000Y-114560000D02*
X47421100Y-115518900D01*
X47421100Y-115518900D02*
X47421100Y-152101100D01*
X47421100Y-152101100D02*
X48380000Y-153060000D01*
X153660000Y-153060000D02*
X147310100Y-159409900D01*
X147310100Y-159409900D02*
X147310100Y-161630600D01*
X147310100Y-161630600D02*
X145577900Y-163362800D01*
X145577900Y-163362800D02*
X145577900Y-172091900D01*
X145577900Y-172091900D02*
X143559600Y-174110200D01*
X143559600Y-174110200D02*
X143559600Y-198709800D01*
X143559600Y-198709800D02*
X135663500Y-206605900D01*
X135663500Y-206605900D02*
X135663500Y-214377200D01*
X135663500Y-214377200D02*
X121579500Y-228461200D01*
X121579500Y-228461200D02*
X121579500Y-230419500D01*
X121579500Y-230419500D02*
X122500000Y-231340000D01*
X125260000Y-36080000D02*
X125260000Y-37205300D01*
%TO.N,Net-(A1-Pad23)*%
X106240000Y-282560000D02*
X106375800Y-282424200D01*
X106375800Y-282424200D02*
X106375800Y-149347800D01*
X106375800Y-149347800D02*
X106362900Y-149334900D01*
X125260000Y-41160000D02*
X125260000Y-42285300D01*
X125260000Y-42285300D02*
X126388200Y-43413500D01*
X126388200Y-43413500D02*
X126388200Y-83680900D01*
X126388200Y-83680900D02*
X116805400Y-93263700D01*
X116805400Y-93263700D02*
X116805400Y-113553900D01*
X116805400Y-113553900D02*
X114540000Y-115819300D01*
X114540000Y-115819300D02*
X114540000Y-122500000D01*
%TO.N,Net-(A1-Pad22)*%
X108780000Y-281669700D02*
X107339800Y-280229500D01*
X107339800Y-280229500D02*
X107339800Y-173814200D01*
X91000000Y-143500000D02*
X91000000Y-142609700D01*
X87500000Y-114560000D02*
X87500000Y-115450300D01*
X87500000Y-115450300D02*
X90109700Y-118060000D01*
X90109700Y-118060000D02*
X90109700Y-141719400D01*
X90109700Y-141719400D02*
X91000000Y-142609700D01*
X125260000Y-46345300D02*
X124997300Y-46345300D01*
X124997300Y-46345300D02*
X124121700Y-47220900D01*
X124121700Y-47220900D02*
X124121700Y-67424100D01*
X124121700Y-67424100D02*
X124755000Y-68057400D01*
X124755000Y-68057400D02*
X124755000Y-79479000D01*
X124755000Y-79479000D02*
X115515700Y-88718300D01*
X115515700Y-88718300D02*
X115515700Y-105309700D01*
X115515700Y-105309700D02*
X112890300Y-107935100D01*
X112890300Y-107935100D02*
X112890300Y-120719400D01*
X112890300Y-120719400D02*
X112000000Y-121609700D01*
X108780000Y-282560000D02*
X108780000Y-281669700D01*
X112000000Y-122500000D02*
X112000000Y-121609700D01*
X125260000Y-45220000D02*
X125260000Y-46345300D01*
X87500000Y-153060000D02*
X87500000Y-152169700D01*
X91000000Y-143500000D02*
X91000000Y-148669700D01*
X91000000Y-148669700D02*
X87500000Y-152169700D01*
%TO.N,+5V*%
X107559700Y-48120200D02*
X108499500Y-49060000D01*
X107559700Y-35940300D02*
X107559700Y-48120200D01*
X107559700Y-48120200D02*
X103087400Y-52592500D01*
X103087400Y-52592500D02*
X87592500Y-52592500D01*
X87592500Y-52592500D02*
X87500000Y-52500000D01*
X107559700Y-35940300D02*
X108500000Y-35000000D01*
X93260000Y-35000000D02*
X94200300Y-35940300D01*
X94200300Y-35940300D02*
X107559700Y-35940300D01*
X69610000Y-226260000D02*
X70521800Y-227171800D01*
X70521800Y-227171800D02*
X70521800Y-240588200D01*
X70521800Y-240588200D02*
X69610000Y-241500000D01*
X79500000Y-133500000D02*
X79500000Y-130500000D01*
X79500000Y-130500000D02*
X87500000Y-122500000D01*
X108500000Y-35000000D02*
X108500000Y-34000000D01*
X108500000Y-34000000D02*
X116725400Y-25774600D01*
X116725400Y-25774600D02*
X116725400Y-23978500D01*
X116725400Y-23978500D02*
X117444100Y-23259800D01*
X117444100Y-23259800D02*
X119259800Y-23259800D01*
X119259800Y-23259800D02*
X120500000Y-24500000D01*
X84000000Y-24500000D02*
X84000000Y-25740000D01*
X84000000Y-25740000D02*
X93260000Y-35000000D01*
X172500000Y-263000000D02*
X162000000Y-273500000D01*
X172500000Y-245000000D02*
X172500000Y-263000000D01*
X172500000Y-263000000D02*
X183000000Y-273500000D01*
X172500000Y-238500000D02*
X172500000Y-245000000D01*
X122500000Y-226260000D02*
X120450300Y-224210300D01*
X120450300Y-224210300D02*
X120450300Y-203450300D01*
X120450300Y-203450300D02*
X120000000Y-203000000D01*
X120000000Y-144039900D02*
X116880100Y-144039900D01*
X116880100Y-144039900D02*
X115500000Y-145420000D01*
X120580000Y-145420000D02*
X120580000Y-144619900D01*
X120580000Y-144619900D02*
X120000000Y-144039900D01*
X120000000Y-140000000D02*
X120000000Y-144039900D01*
X162000000Y-128007600D02*
X162000000Y-133500000D01*
X158740000Y-114560000D02*
X159649100Y-115469100D01*
X159649100Y-115469100D02*
X159649100Y-123409000D01*
X159649100Y-123409000D02*
X162000000Y-125759900D01*
X162000000Y-125759900D02*
X162000000Y-128007600D01*
X179500000Y-122500000D02*
X178174700Y-123825300D01*
X178174700Y-123825300D02*
X167872100Y-123825300D01*
X167872100Y-123825300D02*
X163689800Y-128007600D01*
X163689800Y-128007600D02*
X162000000Y-128007600D01*
X141000000Y-24500000D02*
X140558300Y-24941700D01*
X140558300Y-24941700D02*
X140558300Y-31379200D01*
X140558300Y-31379200D02*
X140999900Y-31820800D01*
X140999900Y-31820800D02*
X141000000Y-31820800D01*
X141000000Y-31820800D02*
X141000000Y-42000000D01*
X141000000Y-42000000D02*
X141080000Y-42080000D01*
X141080000Y-48580000D02*
X141080000Y-42080000D01*
X139120100Y-146859500D02*
X139967800Y-146859500D01*
X139967800Y-146859500D02*
X141327300Y-145500000D01*
X136580000Y-145500000D02*
X137939500Y-146859500D01*
X137939500Y-146859500D02*
X139120100Y-146859500D01*
X139120100Y-146859500D02*
X139120100Y-152873700D01*
X139120100Y-152873700D02*
X137906300Y-152873700D01*
X137906300Y-152873700D02*
X129780000Y-161000000D01*
X143500000Y-153060000D02*
X143313700Y-152873700D01*
X143313700Y-152873700D02*
X139120100Y-152873700D01*
X141327300Y-145500000D02*
X141327300Y-140327300D01*
X141327300Y-140327300D02*
X141000000Y-140000000D01*
X141660000Y-145500000D02*
X141327300Y-145500000D01*
X59500000Y-200500000D02*
X58500000Y-199500000D01*
X58500000Y-199500000D02*
X58500000Y-192500000D01*
X77000000Y-37600000D02*
X63400000Y-37600000D01*
X63400000Y-37600000D02*
X58500000Y-42500000D01*
X162000000Y-24500000D02*
X162000000Y-42500000D01*
X162000000Y-18000000D02*
X162000000Y-24500000D01*
X34000000Y-238500000D02*
X34000000Y-245000000D01*
X34000000Y-210000000D02*
X34000000Y-238500000D01*
X13720000Y-30560000D02*
X17208100Y-34048100D01*
X17208100Y-34048100D02*
X17208100Y-41791900D01*
X17208100Y-41791900D02*
X16500000Y-42500000D01*
X17500000Y-24500000D02*
X13720000Y-28280000D01*
X13720000Y-28280000D02*
X13720000Y-30560000D01*
X21000000Y-166460000D02*
X16040000Y-166460000D01*
X16040000Y-166460000D02*
X16000000Y-166500000D01*
X21080000Y-166500000D02*
X21040000Y-166460000D01*
X21040000Y-166460000D02*
X21000000Y-166460000D01*
X21000000Y-166460000D02*
X21000000Y-150500000D01*
X182000000Y-122500000D02*
X182000000Y-116000000D01*
X183000000Y-133500000D02*
X183000000Y-123500000D01*
X183000000Y-123500000D02*
X182000000Y-122500000D01*
X141580000Y-171500000D02*
X141000000Y-172080000D01*
X141000000Y-172080000D02*
X141000000Y-186000000D01*
X141000000Y-192500000D02*
X141000000Y-186000000D01*
X120500000Y-80500000D02*
X120500000Y-52500000D01*
X120000000Y-200500000D02*
X120000000Y-203000000D01*
X120000000Y-196500000D02*
X120000000Y-200500000D01*
X120000000Y-200500000D02*
X136500000Y-200500000D01*
X63000000Y-150500000D02*
X61674600Y-149174600D01*
X61674600Y-149174600D02*
X59245400Y-149174600D01*
X63000000Y-166460000D02*
X63000000Y-150500000D01*
X59245400Y-149174600D02*
X57920000Y-150500000D01*
X58500000Y-140000000D02*
X59245400Y-140745400D01*
X59245400Y-140745400D02*
X59245400Y-149174600D01*
X58500000Y-133500000D02*
X58500000Y-140000000D01*
X50000000Y-106000000D02*
X52500000Y-108500000D01*
X50000000Y-80500000D02*
X50000000Y-106000000D01*
X50000000Y-106000000D02*
X46780000Y-106000000D01*
X46780000Y-106000000D02*
X38220000Y-114560000D01*
X47500000Y-66000000D02*
X50000000Y-68500000D01*
X50000000Y-68500000D02*
X50000000Y-80500000D01*
X37000000Y-166500000D02*
X37000000Y-154280000D01*
X37000000Y-154280000D02*
X38220000Y-153060000D01*
X183000000Y-144039300D02*
X179880700Y-144039300D01*
X179880700Y-144039300D02*
X178500000Y-145420000D01*
X183580000Y-145420000D02*
X183580000Y-144619300D01*
X183580000Y-144619300D02*
X183000000Y-144039300D01*
X183000000Y-144039300D02*
X183000000Y-140000000D01*
X183000000Y-273500000D02*
X183000000Y-280000000D01*
X159307000Y-147227000D02*
X159307000Y-152493000D01*
X159307000Y-152493000D02*
X158740000Y-153060000D01*
X157500000Y-145420000D02*
X159307000Y-147227000D01*
X162580000Y-145420000D02*
X160773000Y-147227000D01*
X160773000Y-147227000D02*
X159307000Y-147227000D01*
X162580000Y-145420000D02*
X162580000Y-140580000D01*
X162580000Y-140580000D02*
X162000000Y-140000000D01*
X122500000Y-241500000D02*
X122500000Y-268700000D01*
X122500000Y-268700000D02*
X127850000Y-274050000D01*
X87500000Y-122500000D02*
X84000000Y-119000000D01*
X84000000Y-119000000D02*
X84000000Y-108500000D01*
X80276800Y-149143200D02*
X78920000Y-150500000D01*
X79500000Y-140000000D02*
X80276800Y-140776800D01*
X80276800Y-140776800D02*
X80276800Y-149143200D01*
X80276800Y-149143200D02*
X82643200Y-149143200D01*
X82643200Y-149143200D02*
X84000000Y-150500000D01*
X63000000Y-166460000D02*
X58040000Y-166460000D01*
X58040000Y-166460000D02*
X58000000Y-166500000D01*
X63080000Y-166500000D02*
X63040000Y-166460000D01*
X63040000Y-166460000D02*
X63000000Y-166460000D01*
X58580000Y-18080000D02*
X58580000Y-24580000D01*
X58500000Y-192500000D02*
X58500000Y-186000000D01*
X38296200Y-149123800D02*
X38296200Y-140796200D01*
X38296200Y-140796200D02*
X37500000Y-140000000D01*
X36920000Y-150500000D02*
X38296200Y-149123800D01*
X42000000Y-150500000D02*
X40623800Y-149123800D01*
X40623800Y-149123800D02*
X38296200Y-149123800D01*
X182000000Y-24500000D02*
X182000000Y-34720000D01*
X182000000Y-34720000D02*
X185780000Y-38500000D01*
X53460000Y-114560000D02*
X53460000Y-109460000D01*
X53460000Y-109460000D02*
X52500000Y-108500000D01*
X183000000Y-42500000D02*
X183000000Y-49000000D01*
X37500000Y-42500000D02*
X37500000Y-49000000D01*
X37500000Y-24500000D02*
X37500000Y-42500000D01*
X172500000Y-203500000D02*
X172500000Y-210000000D01*
X98000000Y-122500000D02*
X98000000Y-116000000D01*
X37500000Y-18000000D02*
X37500000Y-24500000D01*
X17500000Y-122500000D02*
X17500000Y-116000000D01*
X16580000Y-133580000D02*
X17500000Y-132660000D01*
X17500000Y-132660000D02*
X17500000Y-122500000D01*
X16580000Y-133580000D02*
X16580000Y-140080000D01*
X183080000Y-105080000D02*
X182000000Y-106160000D01*
X182000000Y-106160000D02*
X182000000Y-116000000D01*
X183080000Y-105080000D02*
X183080000Y-98580000D01*
X162000000Y-49000000D02*
X162000000Y-42500000D01*
X172500000Y-238500000D02*
X172500000Y-210000000D01*
X16500000Y-42500000D02*
X16500000Y-49000000D01*
X16500000Y-105000000D02*
X16500000Y-115000000D01*
X16500000Y-115000000D02*
X17500000Y-116000000D01*
X16500000Y-98500000D02*
X16500000Y-105000000D01*
X21000000Y-80500000D02*
X16500000Y-85000000D01*
X16500000Y-85000000D02*
X16500000Y-98500000D01*
X141000000Y-133500000D02*
X141000000Y-117060000D01*
X141000000Y-117060000D02*
X143500000Y-114560000D01*
X141000000Y-140000000D02*
X141000000Y-133500000D01*
X141000000Y-24500000D02*
X141000000Y-18000000D01*
X34000000Y-210000000D02*
X34000000Y-203500000D01*
X53460000Y-114560000D02*
X58500000Y-119600000D01*
X58500000Y-119600000D02*
X58500000Y-133500000D01*
X162000000Y-273500000D02*
X162000000Y-280000000D01*
X152000000Y-108500000D02*
X148293100Y-112206900D01*
X148293100Y-112206900D02*
X145853100Y-112206900D01*
X145853100Y-112206900D02*
X143500000Y-114560000D01*
X179500000Y-18000000D02*
X179500000Y-24500000D01*
X37500000Y-133500000D02*
X37500000Y-140000000D01*
X183000000Y-140000000D02*
X183000000Y-133500000D01*
X87500000Y-161000000D02*
X84000000Y-157500000D01*
X84000000Y-157500000D02*
X84000000Y-150500000D01*
X84080000Y-166500000D02*
X84080000Y-164420000D01*
X84080000Y-164420000D02*
X87500000Y-161000000D01*
X149500000Y-80500000D02*
X149500000Y-68500000D01*
X149500000Y-68500000D02*
X147000000Y-66000000D01*
X183500000Y-80500000D02*
X183500000Y-98160000D01*
X183500000Y-98160000D02*
X183080000Y-98580000D01*
%TO.N,Net-(D9-Pad2)*%
X146660000Y-52500000D02*
X147000000Y-52160000D01*
X147000000Y-52160000D02*
X147000000Y-49000000D01*
%TO.N,Net-(D10-Pad2)*%
X167660000Y-52500000D02*
X168000000Y-52160000D01*
X168000000Y-52160000D02*
X168000000Y-49000000D01*
%TO.N,Net-(D11-Pad2)*%
X167660000Y-28000000D02*
X168000000Y-27660000D01*
X168000000Y-27660000D02*
X168000000Y-24500000D01*
%TO.N,Net-(D12-Pad2)*%
X146660000Y-28000000D02*
X147000000Y-27660000D01*
X147000000Y-27660000D02*
X147000000Y-24500000D01*
%TO.N,Net-(D13-Pad2)*%
X52840000Y-28000000D02*
X52580000Y-27740000D01*
X52580000Y-27740000D02*
X52580000Y-24580000D01*
%TO.N,Net-(D14-Pad2)*%
X31840000Y-52500000D02*
X31500000Y-52160000D01*
X31500000Y-52160000D02*
X31500000Y-49000000D01*
%TO.N,Net-(D15-Pad2)*%
X31840000Y-28000000D02*
X31500000Y-27660000D01*
X31500000Y-27660000D02*
X31500000Y-24500000D01*
%TO.N,Net-(D16-Pad2)*%
X10840000Y-52500000D02*
X10500000Y-52160000D01*
X10500000Y-52160000D02*
X10500000Y-49000000D01*
%TO.N,Net-(D25-Pad2)*%
X188660000Y-108500000D02*
X188660000Y-107374700D01*
X188660000Y-107374700D02*
X189080000Y-106954700D01*
X189080000Y-106954700D02*
X189080000Y-105080000D01*
%TO.N,Net-(D26-Pad2)*%
X125660000Y-129500000D02*
X125660000Y-130625300D01*
X125660000Y-130625300D02*
X126080000Y-131045300D01*
X126080000Y-131045300D02*
X126080000Y-137540000D01*
%TO.N,Net-(D27-Pad2)*%
X146660000Y-129500000D02*
X146660000Y-130625300D01*
X146660000Y-130625300D02*
X147080000Y-131045300D01*
X147080000Y-131045300D02*
X147080000Y-137540000D01*
%TO.N,Net-(D28-Pad2)*%
X167660000Y-129500000D02*
X167660000Y-130625300D01*
X167660000Y-130625300D02*
X168080000Y-131045300D01*
X168080000Y-131045300D02*
X168080000Y-137540000D01*
%TO.N,Net-(D29-Pad2)*%
X188660000Y-129500000D02*
X188660000Y-130625300D01*
X188660000Y-130625300D02*
X189000000Y-130965300D01*
X189000000Y-130965300D02*
X189000000Y-137460000D01*
%TO.N,Net-(D30-Pad2)*%
X146660000Y-182000000D02*
X146660000Y-183125300D01*
X146660000Y-183125300D02*
X147000000Y-183465300D01*
X147000000Y-183465300D02*
X147000000Y-189960000D01*
%TO.N,Net-(D31-Pad2)*%
X178160000Y-213500000D02*
X178160000Y-212374700D01*
X178160000Y-212374700D02*
X178500000Y-212034700D01*
X178500000Y-212034700D02*
X178500000Y-210000000D01*
%TO.N,Net-(D32-Pad2)*%
X178160000Y-248500000D02*
X178160000Y-247374700D01*
X178160000Y-247374700D02*
X178500000Y-247034700D01*
X178500000Y-247034700D02*
X178500000Y-245000000D01*
%TO.N,Net-(R50-Pad1)*%
X24500000Y-140340000D02*
X24500000Y-144820000D01*
X24500000Y-144820000D02*
X21360000Y-147960000D01*
%TO.N,Net-(R51-Pad1)*%
X66500000Y-140340000D02*
X66500000Y-144820000D01*
X66500000Y-144820000D02*
X63360000Y-147960000D01*
%TO.N,Net-(R52-Pad1)*%
X87500000Y-140340000D02*
X87500000Y-144820000D01*
X87500000Y-144820000D02*
X84360000Y-147960000D01*
%TO.N,Net-(A1-Pad11)*%
X48268200Y-75953600D02*
X34482500Y-89739300D01*
X34482500Y-89739300D02*
X34482500Y-199982400D01*
X34482500Y-199982400D02*
X35354900Y-200854800D01*
X35354900Y-200854800D02*
X35354900Y-261243600D01*
X35354900Y-261243600D02*
X39580000Y-265468700D01*
X39580000Y-265468700D02*
X39580000Y-280000000D01*
%TO.N,Net-(D41-Pad2)*%
X10840000Y-108500000D02*
X10840000Y-107374700D01*
X10840000Y-107374700D02*
X10500000Y-107034700D01*
X10500000Y-107034700D02*
X10500000Y-105000000D01*
%TO.N,Net-(D42-Pad2)*%
X28340000Y-248500000D02*
X28340000Y-247374700D01*
X28340000Y-247374700D02*
X28000000Y-247034700D01*
X28000000Y-247034700D02*
X28000000Y-245000000D01*
%TO.N,Net-(D43-Pad2)*%
X28340000Y-213500000D02*
X28340000Y-212374700D01*
X28340000Y-212374700D02*
X28000000Y-212034700D01*
X28000000Y-212034700D02*
X28000000Y-210000000D01*
%TO.N,Net-(D44-Pad2)*%
X52840000Y-182000000D02*
X52840000Y-183125300D01*
X52840000Y-183125300D02*
X52500000Y-183465300D01*
X52500000Y-183465300D02*
X52500000Y-189960000D01*
%TO.N,Net-(D45-Pad2)*%
X10920000Y-129580000D02*
X10920000Y-130705300D01*
X10920000Y-130705300D02*
X10580000Y-131045300D01*
X10580000Y-131045300D02*
X10580000Y-137540000D01*
%TO.N,Net-(D46-Pad2)*%
X31840000Y-129500000D02*
X31840000Y-130625300D01*
X31840000Y-130625300D02*
X31500000Y-130965300D01*
X31500000Y-130965300D02*
X31500000Y-136580000D01*
%TO.N,Net-(D47-Pad2)*%
X52840000Y-129500000D02*
X52840000Y-130625300D01*
X52840000Y-130625300D02*
X52500000Y-130965300D01*
X52500000Y-130965300D02*
X52500000Y-137460000D01*
%TO.N,Net-(D48-Pad2)*%
X73840000Y-129500000D02*
X73840000Y-130625300D01*
X73840000Y-130625300D02*
X73500000Y-130965300D01*
X73500000Y-130965300D02*
X73500000Y-137460000D01*
%TO.N,Net-(R33-Pad1)*%
X133000000Y-140340000D02*
X133000000Y-144820000D01*
X133000000Y-144820000D02*
X136220000Y-148040000D01*
%TO.N,Net-(R35-Pad1)*%
X157140000Y-147960000D02*
X154000000Y-144820000D01*
X154000000Y-144820000D02*
X154000000Y-140340000D01*
%TO.N,Net-(R36-Pad1)*%
X175000000Y-140340000D02*
X175000000Y-144820000D01*
X175000000Y-144820000D02*
X178140000Y-147960000D01*
%TO.N,Net-(R38-Pad1)*%
X133000000Y-175000000D02*
X133000000Y-172100000D01*
X133000000Y-172100000D02*
X136140000Y-168960000D01*
%TO.N,Net-(B0-Pad14)*%
X178500000Y-42500000D02*
X180700000Y-40300000D01*
X180700000Y-40300000D02*
X180700000Y-38500000D01*
X178500000Y-49000000D02*
X178500000Y-42500000D01*
%TO.N,Net-(B0-Pad13)*%
X157500000Y-49000000D02*
X157500000Y-42500000D01*
%TO.N,Net-(B0-Pad11)*%
X136580000Y-42080000D02*
X136580000Y-48580000D01*
X133000000Y-52500000D02*
X136580000Y-48920000D01*
X136580000Y-48920000D02*
X136580000Y-48580000D01*
%TO.N,Net-(B0-Pad10)*%
X170540000Y-38500000D02*
X173007000Y-40967000D01*
X173007000Y-40967000D02*
X175272200Y-40967000D01*
X175272200Y-40967000D02*
X176142900Y-41837700D01*
X176142900Y-41837700D02*
X176142900Y-60208000D01*
X176142900Y-60208000D02*
X154994900Y-81356000D01*
%TO.N,Net-(B0-Pad6)*%
X136500000Y-24500000D02*
X136500000Y-18000000D01*
X133000000Y-28000000D02*
X136500000Y-24500000D01*
%TO.N,Net-(B0-Pad5)*%
X154000000Y-28000000D02*
X157500000Y-24500000D01*
X157500000Y-24500000D02*
X157500000Y-18000000D01*
%TO.N,Net-(B0-Pad4)*%
X175000000Y-24500000D02*
X175000000Y-18000000D01*
%TO.N,Net-(B0-Pad3)*%
X186500000Y-18000000D02*
X186500000Y-24500000D01*
%TO.N,Net-(B1-Pad14)*%
X133420000Y-136580000D02*
X136500000Y-133500000D01*
X133080000Y-136580000D02*
X133420000Y-136580000D01*
X133420000Y-136580000D02*
X136500000Y-139660000D01*
X136500000Y-139660000D02*
X136500000Y-140000000D01*
X136500000Y-133500000D02*
X135142600Y-132142600D01*
X135142600Y-132142600D02*
X135142600Y-121203300D01*
X135142600Y-121203300D02*
X127559100Y-113619800D01*
X127559100Y-113619800D02*
X126899600Y-113619800D01*
X126899600Y-113619800D02*
X125016700Y-115502700D01*
X125016700Y-115502700D02*
X118022700Y-115502700D01*
X118022700Y-115502700D02*
X117080000Y-114560000D01*
%TO.N,Net-(B1-Pad13)*%
X178580000Y-105080000D02*
X178580000Y-98580000D01*
%TO.N,Net-(B1-Pad11)*%
X140000000Y-80500000D02*
X140000000Y-99260000D01*
X140000000Y-99260000D02*
X124700000Y-114560000D01*
%TO.N,Net-(B1-Pad10)*%
X127240000Y-114560000D02*
X125970100Y-115829900D01*
X125970100Y-115829900D02*
X125970100Y-127598300D01*
X125970100Y-127598300D02*
X122836300Y-130732100D01*
X122836300Y-130732100D02*
X122836300Y-134564600D01*
X122836300Y-134564600D02*
X113270100Y-144130800D01*
X113270100Y-144130800D02*
X113270100Y-159729900D01*
X113270100Y-159729900D02*
X112000000Y-161000000D01*
%TO.N,Net-(B1-Pad6)*%
X186500000Y-116000000D02*
X186500000Y-122500000D01*
%TO.N,Net-(B1-Pad5)*%
X175000000Y-122500000D02*
X175000000Y-116000000D01*
%TO.N,Net-(B2-Pad11)*%
X135858700Y-156257300D02*
X130195600Y-161920400D01*
X130195600Y-161920400D02*
X118000400Y-161920400D01*
X118000400Y-161920400D02*
X117080000Y-161000000D01*
%TO.N,Net-(B2-Pad13)*%
X120580000Y-150500000D02*
X120580000Y-159420000D01*
X120580000Y-159420000D02*
X122160000Y-161000000D01*
X120580000Y-150500000D02*
X129500000Y-150500000D01*
%TO.N,Net-(B2-Pad10)*%
X114540000Y-161000000D02*
X113638400Y-161901600D01*
X113638400Y-161901600D02*
X111630800Y-161901600D01*
X111630800Y-161901600D02*
X107988800Y-158259600D01*
X107988800Y-158259600D02*
X107988800Y-147652300D01*
X107988800Y-147652300D02*
X107852100Y-147515600D01*
X107852100Y-147515600D02*
X107852100Y-136487900D01*
X107852100Y-136487900D02*
X108780000Y-135560000D01*
%TO.N,Net-(B2-Pad6)*%
X117080000Y-153060000D02*
X115703900Y-154436100D01*
X115703900Y-154436100D02*
X115703900Y-164596700D01*
X115703900Y-164596700D02*
X116154200Y-165047000D01*
X120580000Y-166420000D02*
X122160000Y-164840000D01*
X122160000Y-164840000D02*
X126000000Y-164840000D01*
X116154200Y-165047000D02*
X119207000Y-165047000D01*
X119207000Y-165047000D02*
X120580000Y-166420000D01*
X115500000Y-166420000D02*
X115500000Y-165701200D01*
X115500000Y-165701200D02*
X116154200Y-165047000D01*
%TO.N,Net-(B2-Pad5)*%
X119620000Y-153060000D02*
X116154300Y-156525700D01*
X116154300Y-156525700D02*
X116154300Y-161336900D01*
X116154300Y-161336900D02*
X117188200Y-162370800D01*
X117188200Y-162370800D02*
X132450800Y-162370800D01*
X132450800Y-162370800D02*
X136500000Y-166420000D01*
%TO.N,Net-(B3-Pad14)*%
X84000000Y-196500000D02*
X84000000Y-182646300D01*
X84000000Y-182646300D02*
X92413400Y-174232900D01*
X92413400Y-174232900D02*
X92413400Y-139226600D01*
X92413400Y-139226600D02*
X96080000Y-135560000D01*
X84000000Y-203000000D02*
X84000000Y-196500000D01*
%TO.N,Net-(B3-Pad13)*%
X87000000Y-136500000D02*
X84000000Y-133500000D01*
X87500000Y-136500000D02*
X87000000Y-136500000D01*
X84000000Y-140000000D02*
X84000000Y-139500000D01*
X84000000Y-139500000D02*
X87000000Y-136500000D01*
%TO.N,Net-(B3-Pad12)*%
X102500000Y-122500000D02*
X102500000Y-134220000D01*
X102500000Y-134220000D02*
X101160000Y-135560000D01*
X102500000Y-122500000D02*
X102500000Y-116000000D01*
%TO.N,Net-(B3-Pad11)*%
X112500000Y-136500000D02*
X115500000Y-133500000D01*
X112000000Y-136500000D02*
X112500000Y-136500000D01*
X112500000Y-136500000D02*
X115500000Y-139500000D01*
X115500000Y-139500000D02*
X115500000Y-140000000D01*
%TO.N,Net-(B3-Pad10)*%
X106240000Y-135560000D02*
X102809000Y-138991000D01*
X102809000Y-138991000D02*
X102809000Y-143922300D01*
X102809000Y-143922300D02*
X103963700Y-145077000D01*
X103963700Y-145077000D02*
X103963700Y-181224900D01*
X103963700Y-181224900D02*
X105925400Y-183186600D01*
X105925400Y-183186600D02*
X105925400Y-201459300D01*
X105925400Y-201459300D02*
X100274600Y-207110100D01*
X100274600Y-207110100D02*
X100274600Y-230999000D01*
X100274600Y-230999000D02*
X89828700Y-241444900D01*
X89828700Y-241444900D02*
X89828700Y-289328700D01*
X89828700Y-289328700D02*
X91000000Y-290500000D01*
%TO.N,Net-(B3-Pad6)*%
X115500000Y-196500000D02*
X115500000Y-176147300D01*
X115500000Y-176147300D02*
X107088200Y-167735500D01*
X107088200Y-167735500D02*
X107088200Y-148025500D01*
X107088200Y-148025500D02*
X106951300Y-147888600D01*
X106951300Y-147888600D02*
X106951300Y-146751300D01*
X106951300Y-146751300D02*
X103700000Y-143500000D01*
X115500000Y-203000000D02*
X115500000Y-196500000D01*
%TO.N,Net-(B3-Pad5)*%
X101500000Y-203000000D02*
X102829000Y-201671000D01*
X102829000Y-201671000D02*
X102829000Y-145169000D01*
X102829000Y-145169000D02*
X101160000Y-143500000D01*
%TO.N,Net-(B3-Pad4)*%
X98000000Y-185500000D02*
X98000000Y-144120000D01*
X98000000Y-144120000D02*
X98620000Y-143500000D01*
%TO.N,Net-(B3-Pad3)*%
X96080000Y-143500000D02*
X96974200Y-142605800D01*
X96974200Y-142605800D02*
X99003000Y-142605800D01*
X99003000Y-142605800D02*
X101580000Y-145182800D01*
X101580000Y-145182800D02*
X101580000Y-185500000D01*
X101500000Y-187174700D02*
X101580000Y-187094700D01*
X101580000Y-187094700D02*
X101580000Y-185500000D01*
X101500000Y-188500000D02*
X101500000Y-187174700D01*
%TO.N,Net-(B4-Pad14)*%
X168000000Y-238500000D02*
X168000000Y-245000000D01*
%TO.N,Net-(B4-Pad13)*%
X178500000Y-273500000D02*
X178500000Y-280000000D01*
%TO.N,Net-(B4-Pad12)*%
X168000000Y-203500000D02*
X168000000Y-210000000D01*
%TO.N,Net-(B4-Pad11)*%
X136500000Y-186000000D02*
X136500000Y-192500000D01*
%TO.N,Net-(B4-Pad10)*%
X93540000Y-290500000D02*
X92642900Y-291397100D01*
X92642900Y-291397100D02*
X81434000Y-291397100D01*
X81434000Y-291397100D02*
X68122400Y-278085500D01*
X68122400Y-278085500D02*
X68122400Y-266778200D01*
X68122400Y-266778200D02*
X70972600Y-263928000D01*
X70972600Y-263928000D02*
X70972600Y-221748200D01*
X70972600Y-221748200D02*
X69720000Y-220495600D01*
X69720000Y-220495600D02*
X69720000Y-161000000D01*
%TO.N,Net-(B4-Pad6)*%
X38500000Y-245000000D02*
X38500000Y-238500000D01*
%TO.N,Net-(B4-Pad5)*%
X154000000Y-283500000D02*
X99560000Y-283500000D01*
X99560000Y-283500000D02*
X98620000Y-282560000D01*
X157500000Y-273500000D02*
X157500000Y-280000000D01*
%TO.N,Net-(B4-Pad4)*%
X38500000Y-210000000D02*
X38500000Y-203500000D01*
%TO.N,Net-(B4-Pad3)*%
X63000000Y-192500000D02*
X63000000Y-186000000D01*
%TO.N,Net-(B5-Pad4)*%
X40741300Y-170241300D02*
X40741300Y-164271800D01*
X40741300Y-164271800D02*
X42238200Y-162774900D01*
X42238200Y-162774900D02*
X42238200Y-160759400D01*
X42238200Y-160759400D02*
X43180100Y-159817500D01*
X40741300Y-170241300D02*
X42080000Y-171580000D01*
X37000000Y-171580000D02*
X38338700Y-170241300D01*
X38338700Y-170241300D02*
X40741300Y-170241300D01*
%TO.N,Net-(B5-Pad5)*%
X58000000Y-171580000D02*
X59332500Y-172912500D01*
X59332500Y-172912500D02*
X61747500Y-172912500D01*
X61747500Y-172912500D02*
X63080000Y-171580000D01*
X77340000Y-153060000D02*
X73640500Y-156759500D01*
X73640500Y-156759500D02*
X73640500Y-160952800D01*
X73640500Y-160952800D02*
X72674800Y-161918500D01*
X72674800Y-161918500D02*
X71897900Y-161918500D01*
X71897900Y-161918500D02*
X70077900Y-160098500D01*
X70077900Y-160098500D02*
X69340300Y-160098500D01*
X69340300Y-160098500D02*
X68646800Y-160792000D01*
X68646800Y-160792000D02*
X68646800Y-166013200D01*
X68646800Y-166013200D02*
X63080000Y-171580000D01*
%TO.N,Net-(B5-Pad6)*%
X80334500Y-170245500D02*
X80334500Y-162735200D01*
X80334500Y-162735200D02*
X78634800Y-161035500D01*
X78634800Y-161035500D02*
X78634800Y-153091000D01*
X78634800Y-153091000D02*
X77669400Y-152125600D01*
X77669400Y-152125600D02*
X75734400Y-152125600D01*
X75734400Y-152125600D02*
X74800000Y-153060000D01*
X79000000Y-171580000D02*
X80334500Y-170245500D01*
X80334500Y-170245500D02*
X82745500Y-170245500D01*
X82745500Y-170245500D02*
X84080000Y-171580000D01*
%TO.N,Net-(B5-Pad10)*%
X69720000Y-122500000D02*
X71179700Y-123959700D01*
X71179700Y-123959700D02*
X71179700Y-159919700D01*
X71179700Y-159919700D02*
X72260000Y-161000000D01*
%TO.N,Net-(B5-Pad11)*%
X42000000Y-145420000D02*
X44190400Y-147610400D01*
X44190400Y-147610400D02*
X44190400Y-152669600D01*
X44190400Y-152669600D02*
X44822600Y-153301800D01*
X44822600Y-153301800D02*
X44822600Y-154351200D01*
X44822600Y-154351200D02*
X48737200Y-158265800D01*
%TO.N,Net-(B5-Pad12)*%
X21000000Y-145420000D02*
X15920000Y-145420000D01*
%TO.N,Net-(B5-Pad13)*%
X63000000Y-145420000D02*
X62202800Y-146217200D01*
X62202800Y-146217200D02*
X62202800Y-148419400D01*
X62202800Y-148419400D02*
X62913400Y-149130000D01*
X62913400Y-149130000D02*
X63538400Y-149130000D01*
X63538400Y-149130000D02*
X70064200Y-155655800D01*
X70064200Y-155655800D02*
X70064200Y-158815500D01*
%TO.N,Net-(B5-Pad14)*%
X84000000Y-145420000D02*
X83169800Y-146250200D01*
X83169800Y-146250200D02*
X83169800Y-148434200D01*
X83169800Y-148434200D02*
X83865600Y-149130000D01*
X83865600Y-149130000D02*
X84540500Y-149130000D01*
X84540500Y-149130000D02*
X85890000Y-150479500D01*
X85890000Y-150479500D02*
X85890000Y-157530000D01*
%TO.N,Net-(B6-Pad14)*%
X66000000Y-136500000D02*
X63000000Y-133500000D01*
X66500000Y-136500000D02*
X66000000Y-136500000D01*
X66000000Y-136500000D02*
X63000000Y-139500000D01*
X63000000Y-139500000D02*
X63000000Y-140000000D01*
%TO.N,Net-(B6-Pad12)*%
X24080000Y-136580000D02*
X21080000Y-133580000D01*
X24580000Y-136580000D02*
X24080000Y-136580000D01*
X24080000Y-136580000D02*
X21080000Y-139580000D01*
X21080000Y-139580000D02*
X21080000Y-140080000D01*
%TO.N,Net-(B6-Pad11)*%
X24500000Y-116000000D02*
X24500000Y-122500000D01*
%TO.N,Net-(B6-Pad10)*%
X72260000Y-122500000D02*
X70990100Y-121230100D01*
X70990100Y-121230100D02*
X70990100Y-110995100D01*
X70990100Y-110995100D02*
X54203400Y-94208400D01*
X54203400Y-94208400D02*
X54203400Y-70829000D01*
X54203400Y-70829000D02*
X33683800Y-50309400D01*
X33683800Y-50309400D02*
X33683800Y-32743800D01*
X33683800Y-32743800D02*
X31500000Y-30560000D01*
%TO.N,Net-(B6-Pad5)*%
X59500000Y-80500000D02*
X59500000Y-96720000D01*
X59500000Y-96720000D02*
X77340000Y-114560000D01*
%TO.N,Net-(B6-Pad3)*%
X21000000Y-105000000D02*
X21000000Y-98500000D01*
%TO.N,Net-(L0-Pad15)*%
X136500000Y-52500000D02*
X135374700Y-52500000D01*
X128688300Y-40274200D02*
X128688300Y-49867900D01*
X128688300Y-49867900D02*
X132445700Y-53625300D01*
X132445700Y-53625300D02*
X134249400Y-53625300D01*
X134249400Y-53625300D02*
X135374700Y-52500000D01*
%TO.N,Net-(L0-Pad9)*%
X126456500Y-40045500D02*
X126838600Y-40427600D01*
X126838600Y-40427600D02*
X126838600Y-65296400D01*
X126838600Y-65296400D02*
X150768700Y-89226500D01*
X150768700Y-89226500D02*
X150768700Y-104326500D01*
X150768700Y-104326500D02*
X153282800Y-106840600D01*
X153282800Y-106840600D02*
X153282800Y-109857200D01*
X153282800Y-109857200D02*
X148580000Y-114560000D01*
%TO.N,Net-(L0-Pad5)*%
X42000000Y-52500000D02*
X43125300Y-52500000D01*
X98340000Y-27060000D02*
X94507200Y-23227200D01*
X94507200Y-23227200D02*
X74409300Y-23227200D01*
X74409300Y-23227200D02*
X46261800Y-51374700D01*
X46261800Y-51374700D02*
X44250600Y-51374700D01*
X44250600Y-51374700D02*
X43125300Y-52500000D01*
%TO.N,Net-(L0-Pad1)*%
X157500000Y-52500000D02*
X157500000Y-51374700D01*
X141283600Y-31078800D02*
X151624400Y-41419600D01*
X151624400Y-41419600D02*
X151624400Y-45499100D01*
X151624400Y-45499100D02*
X157500000Y-51374700D01*
%TO.N,Net-(L1-Pad5)*%
X136500000Y-182000000D02*
X139851900Y-178648100D01*
X139851900Y-178648100D02*
X139851900Y-169435500D01*
X139851900Y-169435500D02*
X141497400Y-167790000D01*
X141497400Y-167790000D02*
X142119600Y-167790000D01*
X142119600Y-167790000D02*
X144830700Y-165078900D01*
X144830700Y-165078900D02*
X144830700Y-155550200D01*
X144830700Y-155550200D02*
X148825400Y-151555500D01*
X148825400Y-151555500D02*
X148825400Y-127334600D01*
X148825400Y-127334600D02*
X153660000Y-122500000D01*
%TO.N,Net-(L1-Pad6)*%
X156200000Y-122500000D02*
X159844900Y-126144900D01*
X159844900Y-126144900D02*
X159844900Y-135901000D01*
X159844900Y-135901000D02*
X165628800Y-141684900D01*
X165628800Y-141684900D02*
X165628800Y-211128800D01*
X165628800Y-211128800D02*
X168000000Y-213500000D01*
%TO.N,Net-(L1-Pad7)*%
X168000000Y-248500000D02*
X169375300Y-247124700D01*
X169375300Y-247124700D02*
X169375300Y-143997300D01*
X169375300Y-143997300D02*
X160674600Y-135296600D01*
X160674600Y-135296600D02*
X160674600Y-125929800D01*
X160674600Y-125929800D02*
X158740000Y-123995200D01*
X158740000Y-123995200D02*
X158740000Y-122500000D01*
%TO.N,Net-(L1-Pad9)*%
X162737700Y-127231600D02*
X162737700Y-116017700D01*
X162737700Y-116017700D02*
X161280000Y-114560000D01*
%TO.N,Net-(L2-Pad2)*%
X154000000Y-150500000D02*
X154000000Y-151625300D01*
X154000000Y-151625300D02*
X153813900Y-151625300D01*
X153813900Y-151625300D02*
X146040000Y-159399200D01*
X146040000Y-159399200D02*
X146040000Y-161000000D01*
%TO.N,Net-(L2-Pad3)*%
X154063700Y-155516300D02*
X148580000Y-161000000D01*
%TO.N,Net-(L2-Pad9)*%
X122500000Y-236420000D02*
X129524000Y-229396000D01*
X129524000Y-229396000D02*
X129524000Y-225895400D01*
X129524000Y-225895400D02*
X155653600Y-199765800D01*
X155653600Y-199765800D02*
X155653600Y-162827300D01*
X155653600Y-162827300D02*
X161280000Y-157200900D01*
X161280000Y-157200900D02*
X161280000Y-153060000D01*
%TO.N,Net-(L3-Pad15)*%
X118660000Y-259000000D02*
X118660000Y-257874700D01*
X122500000Y-238960000D02*
X119785300Y-241674700D01*
X119785300Y-241674700D02*
X119785300Y-256749400D01*
X119785300Y-256749400D02*
X118660000Y-257874700D01*
%TO.N,Net-(L4-Pad4)*%
X80840000Y-231000000D02*
X77960000Y-233880000D01*
X77960000Y-233880000D02*
X77550000Y-233880000D01*
%TO.N,Net-(L4-Pad5)*%
X80840000Y-224000000D02*
X80840000Y-228050000D01*
X80840000Y-228050000D02*
X77550000Y-231340000D01*
%TO.N,Net-(L4-Pad6)*%
X77550000Y-228800000D02*
X79649900Y-226700100D01*
X79649900Y-226700100D02*
X79649900Y-218190100D01*
X79649900Y-218190100D02*
X80840000Y-217000000D01*
%TO.N,Net-(L4-Pad7)*%
X77550000Y-226260000D02*
X79199500Y-224610500D01*
X79199500Y-224610500D02*
X79199500Y-211640500D01*
X79199500Y-211640500D02*
X80840000Y-210000000D01*
%TO.N,Net-(L4-Pad9)*%
X43300000Y-153060000D02*
X44372200Y-154132200D01*
X44372200Y-154132200D02*
X44372200Y-198482200D01*
X44372200Y-198482200D02*
X60618500Y-214728500D01*
%TO.N,Net-(L5-Pad9)*%
X43300000Y-114560000D02*
X44224800Y-115484800D01*
X44224800Y-115484800D02*
X44224800Y-141455400D01*
X44224800Y-141455400D02*
X46639400Y-143870000D01*
%TO.N,Net-(L6-Pad3)*%
X63000000Y-182000000D02*
X49462500Y-168462500D01*
X49462500Y-168462500D02*
X49462500Y-157965300D01*
X49462500Y-157965300D02*
X46730500Y-155233300D01*
X46730500Y-155233300D02*
X46730500Y-147349500D01*
X46730500Y-147349500D02*
X43325400Y-143944400D01*
X43325400Y-143944400D02*
X43325400Y-122525400D01*
X43325400Y-122525400D02*
X43300000Y-122500000D01*
%TO.N,Net-(L6-Pad2)*%
X38500000Y-213500000D02*
X36663300Y-211663300D01*
X36663300Y-211663300D02*
X36663300Y-186656200D01*
X36663300Y-186656200D02*
X35383300Y-185376200D01*
X35383300Y-185376200D02*
X35383300Y-127876700D01*
X35383300Y-127876700D02*
X40760000Y-122500000D01*
%TO.N,Net-(L6-Pad1)*%
X38220000Y-122500000D02*
X38220000Y-123390300D01*
X38220000Y-123390300D02*
X34932900Y-126677400D01*
X34932900Y-126677400D02*
X34932900Y-197603900D01*
X34932900Y-197603900D02*
X35849800Y-198520800D01*
X35849800Y-198520800D02*
X35849800Y-245849800D01*
X35849800Y-245849800D02*
X38500000Y-248500000D01*
%TO.N,Net-(M0-Pad23)*%
X108499500Y-51600000D02*
X111230800Y-48868700D01*
X111230800Y-48868700D02*
X111230800Y-31906100D01*
X111230800Y-31906100D02*
X118000000Y-25136900D01*
X118000000Y-25136900D02*
X118000000Y-24500000D01*
%TO.N,Net-(M0-Pad21)*%
X118000000Y-80500000D02*
X118000000Y-66180500D01*
X118000000Y-66180500D02*
X108499500Y-56680000D01*
%TO.N,Net-(M0-Pad20)*%
X108499500Y-59220000D02*
X100250100Y-67469400D01*
X100250100Y-67469400D02*
X100250100Y-138049200D01*
X100250100Y-138049200D02*
X94810100Y-143489200D01*
X94810100Y-143489200D02*
X94810100Y-175193500D01*
X94810100Y-175193500D02*
X85555900Y-184447700D01*
X85555900Y-184447700D02*
X85555900Y-224614800D01*
X85555900Y-224614800D02*
X73583200Y-236587500D01*
X73583200Y-236587500D02*
X73583200Y-260776200D01*
%TO.N,Net-(M0-Pad19)*%
X140000000Y-259000000D02*
X140000000Y-255196600D01*
X140000000Y-255196600D02*
X119934100Y-235130700D01*
X119934100Y-235130700D02*
X119934100Y-209549700D01*
X119934100Y-209549700D02*
X117750100Y-207365700D01*
X117750100Y-207365700D02*
X117750100Y-176813200D01*
X117750100Y-176813200D02*
X107538500Y-166601600D01*
X107538500Y-166601600D02*
X107538500Y-147838900D01*
X107538500Y-147838900D02*
X107401700Y-147702100D01*
X107401700Y-147702100D02*
X107401700Y-62857800D01*
X107401700Y-62857800D02*
X108499500Y-61760000D01*
%TO.N,Net-(M0-Pad17)*%
X149500000Y-108500000D02*
X149410500Y-108500000D01*
X149410500Y-108500000D02*
X140701700Y-99791200D01*
X140701700Y-99791200D02*
X140701700Y-99626000D01*
%TO.N,Net-(M0-Pad9)*%
X160000000Y-14000000D02*
X158768800Y-12768800D01*
X158768800Y-12768800D02*
X139854100Y-12768800D01*
X139854100Y-12768800D02*
X126511200Y-26111700D01*
X126511200Y-26111700D02*
X126511200Y-31346200D01*
X126511200Y-31346200D02*
X125587400Y-32270000D01*
X125587400Y-32270000D02*
X124859700Y-32270000D01*
X124859700Y-32270000D02*
X120854600Y-36275100D01*
X120854600Y-36275100D02*
X120854600Y-43063500D01*
X120854600Y-43063500D02*
X108508100Y-55410000D01*
X108508100Y-55410000D02*
X106974500Y-55410000D01*
X106974500Y-55410000D02*
X93004500Y-69380000D01*
%TO.N,Net-(M0-Pad8)*%
X93004500Y-66840000D02*
X91256300Y-68588200D01*
X91256300Y-68588200D02*
X91256300Y-76900600D01*
X91256300Y-76900600D02*
X81500000Y-86656900D01*
X81500000Y-86656900D02*
X81500000Y-108500000D01*
%TO.N,Net-(M0-Pad7)*%
X81500000Y-80500000D02*
X81582400Y-80500000D01*
X81582400Y-80500000D02*
X90324700Y-71757700D01*
X90324700Y-71757700D02*
X90324700Y-66979800D01*
X90324700Y-66979800D02*
X93004500Y-64300000D01*
%TO.N,Net-(M0-Pad6)*%
X69350000Y-277550000D02*
X71546700Y-275353300D01*
X71546700Y-275353300D02*
X71546700Y-225638300D01*
X71546700Y-225638300D02*
X78046600Y-219138400D01*
X78046600Y-219138400D02*
X78046600Y-181313400D01*
X78046600Y-181313400D02*
X91963000Y-167397000D01*
X91963000Y-167397000D02*
X91963000Y-69090300D01*
X91963000Y-69090300D02*
X92586400Y-68466900D01*
X92586400Y-68466900D02*
X92668100Y-68466900D01*
X92668100Y-68466900D02*
X93917700Y-67217300D01*
X93917700Y-67217300D02*
X93917700Y-62673200D01*
X93917700Y-62673200D02*
X93004500Y-61760000D01*
%TO.N,Net-(M0-Pad2)*%
X81500000Y-24500000D02*
X81500000Y-40095500D01*
X81500000Y-40095500D02*
X93004500Y-51600000D01*
%TO.N,Net-(B7-Pad14)*%
X13000000Y-24500000D02*
X13000000Y-18000000D01*
%TO.N,Net-(B7-Pad13)*%
X24500000Y-18000000D02*
X24500000Y-24500000D01*
%TO.N,Net-(B7-Pad12)*%
X42000000Y-18000000D02*
X42000000Y-24500000D01*
%TO.N,Net-(B7-Pad11)*%
X63080000Y-18080000D02*
X63080000Y-24580000D01*
X66500000Y-28000000D02*
X63080000Y-24580000D01*
%TO.N,Net-(B7-Pad6)*%
X63000000Y-49000000D02*
X63000000Y-42500000D01*
%TO.N,Net-(B7-Pad5)*%
X52500000Y-66000000D02*
X52840000Y-65660000D01*
X52840000Y-65660000D02*
X52840000Y-63000000D01*
%TO.N,Net-(B7-Pad4)*%
X42000000Y-49000000D02*
X42000000Y-42500000D01*
%TO.N,Net-(B7-Pad3)*%
X21000000Y-42500000D02*
X21000000Y-49000000D01*
%TO.N,Net-(B2-Pad14)*%
X124700000Y-161000000D02*
X135120000Y-150580000D01*
X135120000Y-150580000D02*
X136580000Y-150580000D01*
%TD*%
M02*
